<?xml version="1.0" encoding="UTF-8"?>
<!-- Do not edit this file with editors other than draw.io -->
<!DOCTYPE svg PUBLIC "-//W3C//DTD SVG 1.1//EN" "http://www.w3.org/Graphics/SVG/1.1/DTD/svg11.dtd">
<svg xmlns="http://www.w3.org/2000/svg" xmlns:xlink="http://www.w3.org/1999/xlink" version="1.1" width="71px" height="81px" viewBox="-0.5 -0.5 71 81" class="ge-export-svg-dark" content="&lt;mxfile host=&quot;app.diagrams.net&quot; agent=&quot;Mozilla/5.0 (Windows NT 10.0; Win64; x64) AppleWebKit/537.36 (KHTML, like Gecko) Chrome/129.0.0.0 Safari/537.36&quot; scale=&quot;1&quot; border=&quot;0&quot; version=&quot;24.7.16&quot;&gt;&#10;  &lt;diagram name=&quot;Página-1&quot; id=&quot;m8l1A8O_j_JvbqTGVBao&quot;&gt;&#10;    &lt;mxGraphModel dx=&quot;419&quot; dy=&quot;207&quot; grid=&quot;1&quot; gridSize=&quot;10&quot; guides=&quot;1&quot; tooltips=&quot;1&quot; connect=&quot;1&quot; arrows=&quot;1&quot; fold=&quot;1&quot; page=&quot;1&quot; pageScale=&quot;1&quot; pageWidth=&quot;2970&quot; pageHeight=&quot;2100&quot; math=&quot;0&quot; shadow=&quot;0&quot;&gt;&#10;      &lt;root&gt;&#10;        &lt;mxCell id=&quot;0&quot; /&gt;&#10;        &lt;mxCell id=&quot;1&quot; parent=&quot;0&quot; /&gt;&#10;        &lt;mxCell id=&quot;l1s-WfeYHmzIl0k62fMm-2&quot; value=&quot;&quot; style=&quot;group&quot; parent=&quot;1&quot; vertex=&quot;1&quot; connectable=&quot;0&quot;&gt;&#10;          &lt;mxGeometry x=&quot;400&quot; y=&quot;280&quot; width=&quot;70&quot; height=&quot;80&quot; as=&quot;geometry&quot; /&gt;&#10;        &lt;/mxCell&gt;&#10;        &lt;mxCell id=&quot;sqtzE2Vg8_yKc3G_givv-2&quot; value=&quot;&quot; style=&quot;ellipse;shape=doubleEllipse;whiteSpace=wrap;html=1;aspect=fixed;container=0;&quot; parent=&quot;l1s-WfeYHmzIl0k62fMm-2&quot; vertex=&quot;1&quot;&gt;&#10;          &lt;mxGeometry width=&quot;70&quot; height=&quot;70&quot; as=&quot;geometry&quot; /&gt;&#10;        &lt;/mxCell&gt;&#10;        &lt;mxCell id=&quot;sqtzE2Vg8_yKc3G_givv-3&quot; value=&quot;&quot; style=&quot;ellipse;whiteSpace=wrap;html=1;aspect=fixed;container=0;&quot; parent=&quot;l1s-WfeYHmzIl0k62fMm-2&quot; vertex=&quot;1&quot;&gt;&#10;          &lt;mxGeometry x=&quot;5&quot; y=&quot;5&quot; width=&quot;60&quot; height=&quot;60&quot; as=&quot;geometry&quot; /&gt;&#10;        &lt;/mxCell&gt;&#10;        &lt;mxCell id=&quot;f6pmm0lQQjv1o45NG8nA-18&quot; value=&quot;&quot; style=&quot;sketch=0;pointerEvents=1;shadow=0;dashed=0;html=1;strokeColor=none;fillColor=#00FF00;labelPosition=center;verticalLabelPosition=bottom;outlineConnect=0;verticalAlign=top;align=center;shape=mxgraph.office.clouds.public_im_cloud_service;&quot; vertex=&quot;1&quot; parent=&quot;l1s-WfeYHmzIl0k62fMm-2&quot;&gt;&#10;          &lt;mxGeometry x=&quot;13&quot; y=&quot;15&quot; width=&quot;42&quot; height=&quot;40&quot; as=&quot;geometry&quot; /&gt;&#10;        &lt;/mxCell&gt;&#10;      &lt;/root&gt;&#10;    &lt;/mxGraphModel&gt;&#10;  &lt;/diagram&gt;&#10;&lt;/mxfile&gt;&#10;"><defs><style type="text/css">svg.ge-export-svg-dark:not(mjx-container &gt; svg) { filter: invert(100%) hue-rotate(180deg); }&#xa;svg.ge-export-svg-dark foreignObject img,&#xa;svg.ge-export-svg-dark image:not(svg.ge-export-svg-dark switch image),&#xa;svg.ge-export-svg-dark svg:not(mjx-container &gt; svg)&#xa;{ filter: invert(100%) hue-rotate(180deg) }</style></defs><g><g data-cell-id="0"><g data-cell-id="1"><g data-cell-id="l1s-WfeYHmzIl0k62fMm-2"><g/><g data-cell-id="sqtzE2Vg8_yKc3G_givv-2"><g><ellipse cx="35" cy="35" rx="35" ry="35" fill="rgb(255, 255, 255)" stroke="rgb(0, 0, 0)" pointer-events="all"/><ellipse cx="35" cy="35" rx="31" ry="31" fill="none" stroke="rgb(0, 0, 0)" pointer-events="all"/></g></g><g data-cell-id="sqtzE2Vg8_yKc3G_givv-3"><g><ellipse cx="35" cy="35" rx="30" ry="30" fill="rgb(255, 255, 255)" stroke="rgb(0, 0, 0)" pointer-events="all"/></g></g><g data-cell-id="f6pmm0lQQjv1o45NG8nA-18"><g><rect x="13" y="15" width="42" height="40" fill="none" stroke="none" pointer-events="all"/><path d="M 33.2 46.56 L 18.82 46.56 C 16.64 46.31 14.77 44.94 13.9 42.97 C 13 40.92 13.17 38.58 14.35 36.68 C 15.51 34.83 17.59 33.73 19.8 33.81 C 20.95 32.01 23.08 31.07 25.21 31.43 C 25.31 29.57 26.1 27.8 27.42 26.47 C 29.14 24.87 31.56 24.23 33.86 24.78 L 33.86 26.11 C 32.46 25.72 30.97 25.91 29.72 26.63 C 28.05 27.6 26.94 29.29 26.73 31.19 L 26.6 33.25 L 24.6 32.88 C 23.67 32.85 22.76 33.12 22.01 33.65 C 21.42 34.16 20.93 34.78 20.58 35.47 C 18.9 35.05 17.14 35.62 16.03 36.92 C 14.75 38.48 14.5 40.63 15.37 42.44 C 16.06 43.96 17.54 44.97 19.23 45.07 L 35.33 45.07 L 35.33 45.31 L 34.19 45.75 C 33.78 45.91 33.43 46.19 33.2 46.56 Z M 35.42 15.94 C 35.55 15.39 36.06 15 36.65 15.02 L 53.2 15.02 C 53.53 15.02 53.84 15.14 54.07 15.37 C 54.3 15.6 54.43 15.91 54.43 16.23 L 54.43 28.04 C 54.3 28.62 53.8 29.03 53.2 29.05 L 49.35 29.05 L 44.84 34.5 L 44.97 29.05 L 36.65 29.05 C 36.04 29.06 35.52 28.63 35.42 28.04 Z M 39.97 21.79 C 39.9 23.18 40.45 24.53 41.47 25.5 C 42.49 26.47 43.88 26.95 45.29 26.83 C 47.99 26.68 50.07 24.45 50.01 21.79 C 50.03 19.18 47.95 17.02 45.29 16.91 C 43.91 16.8 42.55 17.26 41.53 18.19 C 40.52 19.12 39.95 20.43 39.97 21.79 Z M 40.91 21.51 C 40.73 21.42 40.6 21.27 40.55 21.09 C 40.49 20.9 40.52 20.71 40.62 20.54 C 41.02 19.24 42 18.18 43.29 17.68 C 43.47 17.82 43.6 18.02 43.65 18.24 C 43.93 18.51 44.28 18.46 44.52 18.12 C 44.77 17.89 45.15 17.84 45.46 18 C 45.68 18.4 45.7 18.88 45.5 19.29 C 45.24 19.25 44.98 19.31 44.76 19.45 C 44.63 19.66 44.43 19.82 44.19 19.9 C 44 19.91 43.82 20 43.7 20.14 C 43.55 20.32 43.44 20.52 43.37 20.74 C 43.33 20.94 43.33 21.15 43.37 21.35 L 43.57 21.87 C 43.23 21.81 42.94 21.58 42.79 21.27 C 42.78 21.11 42.67 20.98 42.51 20.95 C 42.26 20.91 42.03 21.04 41.93 21.27 C 42.03 21.61 42.23 21.92 42.51 22.16 C 42.76 22.45 43.05 22.73 43.37 22.96 C 43.93 22.9 44.49 22.9 45.05 22.96 C 45.3 23.13 45.46 23.39 45.5 23.69 C 45.47 23.96 45.37 24.22 45.21 24.45 C 45.04 24.68 44.93 24.94 44.88 25.22 C 44.8 25.6 44.68 25.96 44.52 26.31 C 44.2 26.27 43.88 26.2 43.57 26.11 C 43.12 25.96 42.69 25.75 42.3 25.46 C 41.86 25.13 41.48 24.72 41.2 24.25 C 41.06 23.98 41.01 23.67 41.03 23.37 C 41.37 23.05 41.8 22.85 42.26 22.8 L 41.52 22.16 Z M 48.74 24.33 C 48.24 23.95 47.94 23.38 47.92 22.76 C 47.48 22.67 47.05 22.52 46.65 22.32 C 46.46 22.26 46.31 22.14 46.23 21.97 C 46.14 21.8 46.13 21.61 46.2 21.43 C 46.38 20.93 46.73 20.51 47.18 20.22 L 48.16 19.49 L 47.18 19.49 C 46.9 19.41 46.73 19.13 46.81 18.85 C 46.98 18.57 47.19 18.31 47.43 18.08 C 49.5 19.48 50.08 22.24 48.74 24.33 Z M 36.85 46.32 C 36.69 45.38 36.7 44.42 36.89 43.49 L 34.47 42.52 C 34.34 42.32 34.31 42.07 34.39 41.84 L 35.25 39.86 C 35.4 39.7 35.6 39.59 35.83 39.58 L 38.2 40.55 C 38.72 39.75 39.39 39.05 40.17 38.49 L 39.19 36.19 C 39.23 35.95 39.38 35.75 39.6 35.63 L 41.65 34.78 C 41.88 34.77 42.1 34.86 42.26 35.02 L 43.16 37.2 C 44.1 37.04 45.06 37.06 45.99 37.24 L 46.93 35.06 C 47.1 34.85 47.36 34.73 47.63 34.74 L 49.8 35.59 C 49.95 35.75 50.03 35.97 50.01 36.19 L 49.11 38.53 C 49.9 39.05 50.6 39.7 51.16 40.47 L 53.37 39.62 C 53.63 39.6 53.89 39.7 54.07 39.9 L 54.93 41.88 C 54.98 42.14 54.91 42.41 54.72 42.61 L 52.43 43.49 C 52.6 44.43 52.6 45.38 52.43 46.32 L 54.72 47.2 C 54.91 47.38 55 47.63 54.97 47.89 L 54.15 49.78 C 53.95 50 53.65 50.09 53.37 50.03 L 51.28 49.1 C 50.7 49.93 49.96 50.64 49.11 51.2 L 50.01 53.37 C 50.07 53.61 50.03 53.86 49.88 54.06 L 47.71 54.99 C 47.44 55 47.18 54.88 47.02 54.67 L 46.07 52.53 C 45.15 52.69 44.21 52.69 43.29 52.53 L 42.34 54.58 C 42.2 54.83 41.93 54.98 41.65 54.99 L 39.51 54.14 C 39.28 53.91 39.22 53.55 39.35 53.25 L 40.25 51.4 C 39.41 50.85 38.69 50.16 38.12 49.34 L 36.03 50.15 C 35.77 50.22 35.5 50.16 35.29 49.99 L 34.43 48.01 C 34.34 47.67 34.49 47.31 34.8 47.12 Z M 44.88 50.23 C 47.68 50.09 49.93 47.93 50.13 45.19 C 50.25 42.19 47.88 39.67 44.84 39.54 C 43.32 39.51 41.85 40.09 40.78 41.16 C 39.7 42.23 39.13 43.69 39.19 45.19 C 39.4 48.08 41.89 50.3 44.84 50.23 Z" fill="#00ff00" stroke="none" pointer-events="all"/></g></g></g></g></g></g></svg>