<?xml version="1.0" encoding="UTF-8"?>
<!-- Do not edit this file with editors other than draw.io -->
<!DOCTYPE svg PUBLIC "-//W3C//DTD SVG 1.1//EN" "http://www.w3.org/Graphics/SVG/1.1/DTD/svg11.dtd">
<svg xmlns="http://www.w3.org/2000/svg" xmlns:xlink="http://www.w3.org/1999/xlink" version="1.1" width="71px" height="81px" viewBox="-0.5 -0.5 71 81" class="ge-export-svg-dark" content="&lt;mxfile host=&quot;app.diagrams.net&quot; agent=&quot;Mozilla/5.0 (Windows NT 10.0; Win64; x64) AppleWebKit/537.36 (KHTML, like Gecko) Chrome/129.0.0.0 Safari/537.36&quot; scale=&quot;1&quot; border=&quot;0&quot; version=&quot;24.7.16&quot;&gt;&#10;  &lt;diagram name=&quot;Página-1&quot; id=&quot;m8l1A8O_j_JvbqTGVBao&quot;&gt;&#10;    &lt;mxGraphModel dx=&quot;419&quot; dy=&quot;207&quot; grid=&quot;1&quot; gridSize=&quot;10&quot; guides=&quot;1&quot; tooltips=&quot;1&quot; connect=&quot;1&quot; arrows=&quot;1&quot; fold=&quot;1&quot; page=&quot;1&quot; pageScale=&quot;1&quot; pageWidth=&quot;2970&quot; pageHeight=&quot;2100&quot; math=&quot;0&quot; shadow=&quot;0&quot;&gt;&#10;      &lt;root&gt;&#10;        &lt;mxCell id=&quot;0&quot; /&gt;&#10;        &lt;mxCell id=&quot;1&quot; parent=&quot;0&quot; /&gt;&#10;        &lt;mxCell id=&quot;l1s-WfeYHmzIl0k62fMm-2&quot; value=&quot;&quot; style=&quot;group&quot; parent=&quot;1&quot; vertex=&quot;1&quot; connectable=&quot;0&quot;&gt;&#10;          &lt;mxGeometry x=&quot;400&quot; y=&quot;280&quot; width=&quot;70&quot; height=&quot;80&quot; as=&quot;geometry&quot; /&gt;&#10;        &lt;/mxCell&gt;&#10;        &lt;mxCell id=&quot;sqtzE2Vg8_yKc3G_givv-2&quot; value=&quot;&quot; style=&quot;ellipse;shape=doubleEllipse;whiteSpace=wrap;html=1;aspect=fixed;container=0;&quot; parent=&quot;l1s-WfeYHmzIl0k62fMm-2&quot; vertex=&quot;1&quot;&gt;&#10;          &lt;mxGeometry width=&quot;70&quot; height=&quot;70&quot; as=&quot;geometry&quot; /&gt;&#10;        &lt;/mxCell&gt;&#10;        &lt;mxCell id=&quot;sqtzE2Vg8_yKc3G_givv-3&quot; value=&quot;&quot; style=&quot;ellipse;whiteSpace=wrap;html=1;aspect=fixed;container=0;&quot; parent=&quot;l1s-WfeYHmzIl0k62fMm-2&quot; vertex=&quot;1&quot;&gt;&#10;          &lt;mxGeometry x=&quot;5&quot; y=&quot;5&quot; width=&quot;60&quot; height=&quot;60&quot; as=&quot;geometry&quot; /&gt;&#10;        &lt;/mxCell&gt;&#10;        &lt;mxCell id=&quot;f6pmm0lQQjv1o45NG8nA-14&quot; value=&quot;&quot; style=&quot;sketch=0;pointerEvents=1;shadow=0;dashed=0;html=1;strokeColor=none;fillColor=#00FF00;labelPosition=center;verticalLabelPosition=bottom;outlineConnect=0;verticalAlign=top;align=center;shape=mxgraph.office.clouds.cloud_service_request;&quot; vertex=&quot;1&quot; parent=&quot;l1s-WfeYHmzIl0k62fMm-2&quot;&gt;&#10;          &lt;mxGeometry x=&quot;9&quot; y=&quot;13&quot; width=&quot;52&quot; height=&quot;40&quot; as=&quot;geometry&quot; /&gt;&#10;        &lt;/mxCell&gt;&#10;      &lt;/root&gt;&#10;    &lt;/mxGraphModel&gt;&#10;  &lt;/diagram&gt;&#10;&lt;/mxfile&gt;&#10;"><defs><style type="text/css">svg.ge-export-svg-dark:not(mjx-container &gt; svg) { filter: invert(100%) hue-rotate(180deg); }&#xa;svg.ge-export-svg-dark foreignObject img,&#xa;svg.ge-export-svg-dark image:not(svg.ge-export-svg-dark switch image),&#xa;svg.ge-export-svg-dark svg:not(mjx-container &gt; svg)&#xa;{ filter: invert(100%) hue-rotate(180deg) }</style></defs><g><g data-cell-id="0"><g data-cell-id="1"><g data-cell-id="l1s-WfeYHmzIl0k62fMm-2"><g/><g data-cell-id="sqtzE2Vg8_yKc3G_givv-2"><g><ellipse cx="35" cy="35" rx="35" ry="35" fill="rgb(255, 255, 255)" stroke="rgb(0, 0, 0)" pointer-events="all"/><ellipse cx="35" cy="35" rx="31" ry="31" fill="none" stroke="rgb(0, 0, 0)" pointer-events="all"/></g></g><g data-cell-id="sqtzE2Vg8_yKc3G_givv-3"><g><ellipse cx="35" cy="35" rx="30" ry="30" fill="rgb(255, 255, 255)" stroke="rgb(0, 0, 0)" pointer-events="all"/></g></g><g data-cell-id="f6pmm0lQQjv1o45NG8nA-14"><g><rect x="9" y="13" width="52" height="40" fill="none" stroke="none" pointer-events="all"/><path d="M 38.37 42.21 C 38.16 41.05 38.18 39.86 38.42 38.7 L 35.4 37.5 C 35.24 37.24 35.2 36.93 35.3 36.65 L 36.37 34.19 C 36.55 33.98 36.81 33.86 37.09 33.84 L 40.05 35.04 C 40.7 34.05 41.54 33.18 42.51 32.49 L 41.28 29.63 C 41.34 29.33 41.52 29.07 41.79 28.93 L 44.35 27.88 C 44.64 27.87 44.91 27.97 45.11 28.18 L 46.24 30.88 C 47.41 30.69 48.6 30.7 49.77 30.93 L 50.94 28.23 C 51.15 27.96 51.47 27.81 51.81 27.83 L 54.52 28.88 C 54.71 29.08 54.8 29.36 54.77 29.63 L 53.65 32.54 C 54.65 33.18 55.51 33.99 56.21 34.94 L 58.97 33.89 C 59.3 33.86 59.62 33.99 59.83 34.24 L 60.91 36.7 C 60.98 37.02 60.88 37.36 60.65 37.6 L 57.79 38.7 C 58.01 39.86 58.01 41.05 57.79 42.21 L 60.65 43.31 C 60.89 43.53 61 43.85 60.96 44.16 L 59.94 46.52 C 59.69 46.78 59.32 46.9 58.97 46.82 L 56.36 45.67 C 55.64 46.7 54.72 47.59 53.65 48.27 L 54.77 50.98 C 54.86 51.27 54.8 51.59 54.62 51.83 L 51.91 52.98 C 51.57 53 51.25 52.85 51.04 52.58 L 49.87 49.93 C 48.72 50.13 47.54 50.13 46.39 49.93 L 45.22 52.48 C 45.04 52.79 44.71 52.98 44.35 52.98 L 41.69 51.93 C 41.4 51.64 41.32 51.2 41.49 50.83 L 42.61 48.52 C 41.56 47.85 40.66 46.98 39.95 45.97 L 37.35 46.97 C 37.02 47.05 36.68 46.98 36.43 46.77 L 35.35 44.31 C 35.24 43.89 35.43 43.44 35.81 43.21 Z M 48.39 47.07 C 51.87 46.9 54.67 44.21 54.93 40.81 C 55.07 37.09 52.13 33.95 48.33 33.79 C 46.43 33.75 44.6 34.48 43.26 35.8 C 41.93 37.13 41.21 38.94 41.28 40.81 C 41.55 44.4 44.66 47.16 48.33 47.07 Z M 10.46 36.8 C 9 34.32 9 31.26 10.46 28.78 C 11.87 26.3 14.57 24.81 17.46 24.92 C 18.89 22.74 21.5 21.6 24.11 22.01 C 24.26 19.91 25.13 17.92 26.56 16.35 C 28.6 14.05 31.74 13 34.79 13.59 C 37.32 14.12 39.44 15.8 40.51 18.1 C 42.51 17.14 44.81 17.01 46.9 17.75 C 48.87 18.55 50.47 20.03 51.4 21.91 C 52.09 23.21 52.44 24.66 52.42 26.12 C 51.83 25.91 51.17 25.93 50.58 26.17 C 50.63 24.58 50.12 23.03 49.15 21.76 C 47.97 20.15 46.11 19.15 44.09 19.05 C 42.51 19.21 40.99 19.72 39.65 20.56 L 38.11 17.75 C 36.94 16.39 35.31 15.49 33.51 15.2 C 31.39 15.04 29.31 15.9 27.94 17.5 C 26.97 18.55 26.35 19.86 26.15 21.26 C 26.01 22.24 25.94 23.23 25.95 24.22 L 23.6 23.77 C 21.45 23.55 19.4 24.81 18.49 26.92 C 16.78 26.56 14.99 26.92 13.58 27.93 C 12.1 29.18 11.25 31.02 11.28 32.94 C 11.31 34.36 11.85 35.73 12.81 36.8 L 10.46 36.8 Z M 10.51 38.8 L 27.48 38.8 L 21.81 33.09 L 26.25 33.09 L 34.69 40.71 L 26.97 48.32 L 21.81 48.32 L 27.58 42.61 L 10.67 42.56 L 10.51 38.8 Z" fill="#00ff00" stroke="none" pointer-events="all"/></g></g></g></g></g></g></svg>