<?xml version="1.0" encoding="UTF-8"?>
<!-- Do not edit this file with editors other than draw.io -->
<!DOCTYPE svg PUBLIC "-//W3C//DTD SVG 1.1//EN" "http://www.w3.org/Graphics/SVG/1.1/DTD/svg11.dtd">
<svg xmlns="http://www.w3.org/2000/svg" xmlns:xlink="http://www.w3.org/1999/xlink" version="1.1" width="71px" height="81px" viewBox="-0.5 -0.5 71 81" class="ge-export-svg-dark" content="&lt;mxfile host=&quot;app.diagrams.net&quot; agent=&quot;Mozilla/5.0 (Windows NT 10.0; Win64; x64) AppleWebKit/537.36 (KHTML, like Gecko) Chrome/129.0.0.0 Safari/537.36&quot; scale=&quot;1&quot; border=&quot;0&quot; version=&quot;24.7.16&quot;&gt;&#10;  &lt;diagram name=&quot;Página-1&quot; id=&quot;m8l1A8O_j_JvbqTGVBao&quot;&gt;&#10;    &lt;mxGraphModel dx=&quot;419&quot; dy=&quot;207&quot; grid=&quot;1&quot; gridSize=&quot;10&quot; guides=&quot;1&quot; tooltips=&quot;1&quot; connect=&quot;1&quot; arrows=&quot;1&quot; fold=&quot;1&quot; page=&quot;1&quot; pageScale=&quot;1&quot; pageWidth=&quot;2970&quot; pageHeight=&quot;2100&quot; math=&quot;0&quot; shadow=&quot;0&quot;&gt;&#10;      &lt;root&gt;&#10;        &lt;mxCell id=&quot;0&quot; /&gt;&#10;        &lt;mxCell id=&quot;1&quot; parent=&quot;0&quot; /&gt;&#10;        &lt;mxCell id=&quot;l1s-WfeYHmzIl0k62fMm-2&quot; value=&quot;&quot; style=&quot;group&quot; parent=&quot;1&quot; vertex=&quot;1&quot; connectable=&quot;0&quot;&gt;&#10;          &lt;mxGeometry x=&quot;400&quot; y=&quot;280&quot; width=&quot;70&quot; height=&quot;80&quot; as=&quot;geometry&quot; /&gt;&#10;        &lt;/mxCell&gt;&#10;        &lt;mxCell id=&quot;sqtzE2Vg8_yKc3G_givv-2&quot; value=&quot;&quot; style=&quot;ellipse;shape=doubleEllipse;whiteSpace=wrap;html=1;aspect=fixed;container=0;&quot; parent=&quot;l1s-WfeYHmzIl0k62fMm-2&quot; vertex=&quot;1&quot;&gt;&#10;          &lt;mxGeometry width=&quot;70&quot; height=&quot;70&quot; as=&quot;geometry&quot; /&gt;&#10;        &lt;/mxCell&gt;&#10;        &lt;mxCell id=&quot;sqtzE2Vg8_yKc3G_givv-3&quot; value=&quot;&quot; style=&quot;ellipse;whiteSpace=wrap;html=1;aspect=fixed;container=0;&quot; parent=&quot;l1s-WfeYHmzIl0k62fMm-2&quot; vertex=&quot;1&quot;&gt;&#10;          &lt;mxGeometry x=&quot;5&quot; y=&quot;5&quot; width=&quot;60&quot; height=&quot;60&quot; as=&quot;geometry&quot; /&gt;&#10;        &lt;/mxCell&gt;&#10;        &lt;mxCell id=&quot;f6pmm0lQQjv1o45NG8nA-23&quot; value=&quot;&quot; style=&quot;group&quot; vertex=&quot;1&quot; connectable=&quot;0&quot; parent=&quot;l1s-WfeYHmzIl0k62fMm-2&quot;&gt;&#10;          &lt;mxGeometry x=&quot;6&quot; y=&quot;10&quot; width=&quot;55&quot; height=&quot;38&quot; as=&quot;geometry&quot; /&gt;&#10;        &lt;/mxCell&gt;&#10;        &lt;mxCell id=&quot;f6pmm0lQQjv1o45NG8nA-21&quot; value=&quot;&quot; style=&quot;sketch=0;pointerEvents=1;shadow=0;dashed=0;html=1;strokeColor=none;fillColor=#00FF00;labelPosition=center;verticalLabelPosition=bottom;outlineConnect=0;verticalAlign=top;align=center;shape=mxgraph.office.clouds.public_cloud;&quot; vertex=&quot;1&quot; parent=&quot;f6pmm0lQQjv1o45NG8nA-23&quot;&gt;&#10;          &lt;mxGeometry x=&quot;15.602836879432626&quot; width=&quot;39.39716312056737&quot; height=&quot;38&quot; as=&quot;geometry&quot; /&gt;&#10;        &lt;/mxCell&gt;&#10;        &lt;mxCell id=&quot;f6pmm0lQQjv1o45NG8nA-22&quot; value=&quot;&quot; style=&quot;sketch=0;pointerEvents=1;shadow=0;dashed=0;html=1;strokeColor=none;fillColor=#00FF00;labelPosition=center;verticalLabelPosition=bottom;outlineConnect=0;verticalAlign=top;align=center;shape=mxgraph.office.clouds.private_cloud;&quot; vertex=&quot;1&quot; parent=&quot;f6pmm0lQQjv1o45NG8nA-23&quot;&gt;&#10;          &lt;mxGeometry x=&quot;1&quot; y=&quot;12.19753086419753&quot; width=&quot;36.666666666666664&quot; height=&quot;25.802469135802465&quot; as=&quot;geometry&quot; /&gt;&#10;        &lt;/mxCell&gt;&#10;      &lt;/root&gt;&#10;    &lt;/mxGraphModel&gt;&#10;  &lt;/diagram&gt;&#10;&lt;/mxfile&gt;&#10;"><defs><style type="text/css">svg.ge-export-svg-dark:not(mjx-container &gt; svg) { filter: invert(100%) hue-rotate(180deg); }&#xa;svg.ge-export-svg-dark foreignObject img,&#xa;svg.ge-export-svg-dark image:not(svg.ge-export-svg-dark switch image),&#xa;svg.ge-export-svg-dark svg:not(mjx-container &gt; svg)&#xa;{ filter: invert(100%) hue-rotate(180deg) }</style></defs><g><g data-cell-id="0"><g data-cell-id="1"><g data-cell-id="l1s-WfeYHmzIl0k62fMm-2"><g/><g data-cell-id="sqtzE2Vg8_yKc3G_givv-2"><g><ellipse cx="35" cy="35" rx="35" ry="35" fill="rgb(255, 255, 255)" stroke="rgb(0, 0, 0)" pointer-events="all"/><ellipse cx="35" cy="35" rx="31" ry="31" fill="none" stroke="rgb(0, 0, 0)" pointer-events="all"/></g></g><g data-cell-id="sqtzE2Vg8_yKc3G_givv-3"><g><ellipse cx="35" cy="35" rx="30" ry="30" fill="rgb(255, 255, 255)" stroke="rgb(0, 0, 0)" pointer-events="all"/></g></g><g data-cell-id="f6pmm0lQQjv1o45NG8nA-23"><g/><g data-cell-id="f6pmm0lQQjv1o45NG8nA-21"><g><rect x="21.6" y="10" width="39.4" height="38" fill="none" stroke="none" pointer-events="all"/><path d="M 42.75 36.08 L 27.11 36.08 C 25.05 35.79 23.28 34.2 22.45 31.92 C 21.6 29.55 21.76 26.83 22.88 24.63 C 23.98 22.49 25.95 21.22 28.04 21.31 C 29.13 19.23 31.15 18.14 33.16 18.55 C 33.26 16.39 34 14.35 35.26 12.8 C 37.15 10.62 39.94 10 42.36 11.22 C 43.75 11.96 44.89 13.26 45.58 14.91 C 47.19 13.97 49.06 13.92 50.7 14.77 C 52.1 15.49 53.23 16.8 53.88 18.46 C 54.56 19.96 54.82 21.68 54.62 23.37 C 55.53 24 56.28 24.92 56.79 26.03 L 55.01 26.03 C 54.51 25.26 53.84 24.67 53.07 24.35 C 53.48 22.43 53.2 20.39 52.29 18.74 C 51.53 17.14 50.17 16.09 48.64 15.94 C 48.01 15.88 47.38 15.97 46.78 16.22 L 44.92 17.24 L 43.72 14.58 C 43 13.53 42.04 12.75 40.96 12.34 C 39.76 12.03 38.5 12.26 37.43 12.99 C 35.85 14.11 34.8 16.07 34.6 18.27 L 34.48 20.66 L 32.58 20.23 C 31.71 20.19 30.84 20.5 30.14 21.12 C 29.58 21.71 29.11 22.43 28.78 23.23 C 27.19 22.75 25.52 23.4 24.47 24.91 C 23.26 26.72 23.02 29.21 23.85 31.31 C 24.5 33.06 25.91 34.24 27.5 34.35 L 42.75 34.35 Z" fill="#00ff00" stroke="none" pointer-events="all"/><path d="M 44.18 29.63 C 44.14 29.16 44.26 28.7 44.52 28.35 C 44.78 28 45.15 27.8 45.54 27.81 L 59.63 27.81 C 60.35 27.83 60.93 28.53 60.95 29.39 L 60.95 46.13 C 61 46.59 60.89 47.06 60.64 47.42 C 60.38 47.78 60.02 47.99 59.63 48 L 45.54 48 C 45.14 48 44.77 47.8 44.5 47.44 C 44.24 47.08 44.13 46.6 44.18 46.13 Z M 47.17 37.81 C 47.14 39.63 47.74 41.39 48.83 42.66 C 49.92 43.93 51.4 44.6 52.91 44.49 C 55.84 44.29 58.1 41.33 58.04 37.81 C 58 34.37 55.76 31.55 52.91 31.36 C 51.43 31.26 49.98 31.89 48.9 33.1 C 47.81 34.32 47.19 36.02 47.17 37.81 Z M 48.18 37.43 C 47.81 37.19 47.67 36.62 47.87 36.17 C 48.32 34.46 49.37 33.08 50.74 32.39 C 50.93 32.57 51.06 32.81 51.13 33.09 C 51.42 33.42 51.8 33.36 52.06 32.95 C 52.32 32.58 52.78 32.52 53.11 32.81 C 53.34 33.33 53.36 33.95 53.15 34.49 C 52.86 34.44 52.57 34.53 52.33 34.72 C 52.19 34.98 51.99 35.18 51.75 35.28 C 51.54 35.3 51.34 35.42 51.21 35.61 C 51.05 35.85 50.93 36.12 50.86 36.41 C 50.81 36.68 50.81 36.97 50.86 37.25 L 51.05 37.95 C 50.67 37.86 50.35 37.54 50.2 37.11 C 50.19 36.91 50.08 36.74 49.93 36.69 C 49.65 36.62 49.37 36.79 49.27 37.11 C 49.37 37.56 49.59 37.97 49.89 38.27 C 50.18 38.68 50.5 39.04 50.86 39.35 C 51.45 39.27 52.05 39.27 52.64 39.35 C 52.92 39.57 53.1 39.93 53.15 40.33 C 53.12 40.69 53.03 41.05 52.87 41.36 C 52.68 41.66 52.54 42.01 52.49 42.39 C 52.4 42.87 52.27 43.34 52.1 43.79 C 51.74 43.75 51.39 43.67 51.05 43.56 C 50.56 43.35 50.1 43.05 49.69 42.67 C 49.21 42.24 48.8 41.7 48.49 41.08 C 48.34 40.72 48.28 40.31 48.3 39.91 C 48.67 39.49 49.15 39.23 49.65 39.16 L 48.84 38.32 Z M 56.68 41.17 C 56.15 40.67 55.82 39.92 55.78 39.12 C 55.3 38.99 54.83 38.78 54.39 38.51 C 54 38.33 53.79 37.82 53.92 37.34 C 54.12 36.69 54.49 36.13 54.97 35.75 L 56.02 34.77 L 54.97 34.77 C 54.68 34.66 54.51 34.29 54.58 33.93 C 54.77 33.56 54.99 33.21 55.24 32.9 C 57.49 34.74 58.13 38.4 56.68 41.17 Z" fill="#00ff00" stroke="none" pointer-events="all"/></g></g><g data-cell-id="f6pmm0lQQjv1o45NG8nA-22"><g><rect x="7" y="22.2" width="36.67" height="25.8" fill="none" stroke="none" pointer-events="all"/><path d="M 12.87 48 C 9.69 48 7.02 44.78 7.02 40.7 C 7 37.12 9.35 33.21 13.23 33.37 C 14.19 31.64 16.36 30.18 18.42 30.73 C 18.58 27.5 20.47 23.91 23.87 23 C 27.27 22.2 29.89 24.46 31.19 27.22 C 33.81 25.66 36.79 26.66 38.47 28.74 C 40.07 30.66 40.63 33.25 40.42 35.48 C 42.31 36.62 43.67 39.39 43.28 42.44 C 42.88 45.21 41.17 47.62 38.43 48 Z" fill="#00ff00" stroke="none" pointer-events="all"/></g></g></g></g></g></g></g></svg>