<?xml version="1.0" encoding="UTF-8"?>
<!-- Do not edit this file with editors other than draw.io -->
<!DOCTYPE svg PUBLIC "-//W3C//DTD SVG 1.1//EN" "http://www.w3.org/Graphics/SVG/1.1/DTD/svg11.dtd">
<svg xmlns="http://www.w3.org/2000/svg" xmlns:xlink="http://www.w3.org/1999/xlink" version="1.1" width="71px" height="71px" viewBox="-0.5 -0.5 71 71" class="ge-export-svg-dark" content="&lt;mxfile host=&quot;app.diagrams.net&quot; agent=&quot;Mozilla/5.0 (Windows NT 10.0; Win64; x64) AppleWebKit/537.36 (KHTML, like Gecko) Chrome/129.0.0.0 Safari/537.36&quot; version=&quot;24.7.16&quot; scale=&quot;1&quot; border=&quot;0&quot;&gt;&#10;  &lt;diagram name=&quot;Página-1&quot; id=&quot;cHoTVuZz9rcjcoefg9mx&quot;&gt;&#10;    &lt;mxGraphModel dx=&quot;503&quot; dy=&quot;248&quot; grid=&quot;1&quot; gridSize=&quot;10&quot; guides=&quot;1&quot; tooltips=&quot;1&quot; connect=&quot;1&quot; arrows=&quot;1&quot; fold=&quot;1&quot; page=&quot;1&quot; pageScale=&quot;1&quot; pageWidth=&quot;2970&quot; pageHeight=&quot;2100&quot; background=&quot;#ffffff&quot; math=&quot;0&quot; shadow=&quot;0&quot;&gt;&#10;      &lt;root&gt;&#10;        &lt;mxCell id=&quot;0&quot; /&gt;&#10;        &lt;mxCell id=&quot;1&quot; parent=&quot;0&quot; /&gt;&#10;        &lt;mxCell id=&quot;Hdg0KMK2BAXWInw-SZbt-25&quot; value=&quot;&quot; style=&quot;group&quot; vertex=&quot;1&quot; connectable=&quot;0&quot; parent=&quot;1&quot;&gt;&#10;          &lt;mxGeometry x=&quot;530&quot; y=&quot;270&quot; width=&quot;70&quot; height=&quot;70&quot; as=&quot;geometry&quot; /&gt;&#10;        &lt;/mxCell&gt;&#10;        &lt;mxCell id=&quot;Hdg0KMK2BAXWInw-SZbt-8&quot; value=&quot;&quot; style=&quot;ellipse;shape=doubleEllipse;whiteSpace=wrap;html=1;aspect=fixed;container=0;&quot; vertex=&quot;1&quot; parent=&quot;Hdg0KMK2BAXWInw-SZbt-25&quot;&gt;&#10;          &lt;mxGeometry width=&quot;70&quot; height=&quot;70&quot; as=&quot;geometry&quot; /&gt;&#10;        &lt;/mxCell&gt;&#10;        &lt;mxCell id=&quot;Hdg0KMK2BAXWInw-SZbt-10&quot; value=&quot;&quot; style=&quot;ellipse;whiteSpace=wrap;html=1;aspect=fixed;container=0;&quot; vertex=&quot;1&quot; parent=&quot;Hdg0KMK2BAXWInw-SZbt-25&quot;&gt;&#10;          &lt;mxGeometry x=&quot;5&quot; y=&quot;5&quot; width=&quot;60&quot; height=&quot;60&quot; as=&quot;geometry&quot; /&gt;&#10;        &lt;/mxCell&gt;&#10;        &lt;mxCell id=&quot;Hdg0KMK2BAXWInw-SZbt-44&quot; value=&quot;&quot; style=&quot;sketch=0;pointerEvents=1;shadow=0;dashed=0;html=1;strokeColor=none;fillColor=#00FF00;labelPosition=center;verticalLabelPosition=bottom;verticalAlign=top;outlineConnect=0;align=center;shape=mxgraph.office.servers.monitoring_sql_reporting_services;&quot; vertex=&quot;1&quot; parent=&quot;Hdg0KMK2BAXWInw-SZbt-25&quot;&gt;&#10;          &lt;mxGeometry x=&quot;19.38&quot; y=&quot;13.75&quot; width=&quot;31.25&quot; height=&quot;42.5&quot; as=&quot;geometry&quot; /&gt;&#10;        &lt;/mxCell&gt;&#10;      &lt;/root&gt;&#10;    &lt;/mxGraphModel&gt;&#10;  &lt;/diagram&gt;&#10;&lt;/mxfile&gt;&#10;"><defs><style type="text/css">svg.ge-export-svg-dark:not(mjx-container &gt; svg) { filter: invert(100%) hue-rotate(180deg); }&#xa;svg.ge-export-svg-dark foreignObject img,&#xa;svg.ge-export-svg-dark image:not(svg.ge-export-svg-dark switch image),&#xa;svg.ge-export-svg-dark svg:not(mjx-container &gt; svg)&#xa;{ filter: invert(100%) hue-rotate(180deg) }</style></defs><g><g data-cell-id="0"><g data-cell-id="1"><g data-cell-id="Hdg0KMK2BAXWInw-SZbt-25"><g/><g data-cell-id="Hdg0KMK2BAXWInw-SZbt-8"><g><ellipse cx="35" cy="35" rx="35" ry="35" fill="rgb(255, 255, 255)" stroke="rgb(0, 0, 0)" pointer-events="all"/><ellipse cx="35" cy="35" rx="31" ry="31" fill="none" stroke="rgb(0, 0, 0)" pointer-events="all"/></g></g><g data-cell-id="Hdg0KMK2BAXWInw-SZbt-10"><g><ellipse cx="35" cy="35" rx="30" ry="30" fill="rgb(255, 255, 255)" stroke="rgb(0, 0, 0)" pointer-events="all"/></g></g><g data-cell-id="Hdg0KMK2BAXWInw-SZbt-44"><g><rect x="19.38" y="13.75" width="31.25" height="42.5" fill="none" stroke="none" pointer-events="all"/><path d="M 34.35 44.23 L 32.42 43.32 C 32.15 43.15 32.03 42.9 32.14 42.53 L 32.87 40.55 C 33.03 40.24 33.24 40.07 33.57 40.22 L 35.37 41.25 C 35.94 40.48 36.56 39.71 37.26 39.04 L 36.47 36.85 C 36.42 36.6 36.39 36.34 36.72 36.09 L 38.53 35.22 C 38.87 35.1 39.07 35.27 39.18 35.5 L 39.99 37.75 C 40.8 37.56 41.6 37.48 42.55 37.79 L 43.36 35.52 C 43.54 35.2 43.77 35.11 44.04 35.23 L 45.83 36.1 C 46.13 36.3 46.16 36.55 46.08 36.83 L 45.29 39.07 C 45.99 39.71 46.63 40.39 47.16 41.16 L 49.09 40.27 C 49.44 40.16 49.64 40.31 49.77 40.6 L 50.52 42.64 C 50.57 42.94 50.52 43.2 50.25 43.36 L 48.29 44.27 C 48.39 45.14 48.37 46.24 48.29 47.2 L 50.25 48.11 C 50.52 48.29 50.63 48.53 50.55 48.85 L 49.84 50.77 C 49.7 51.01 49.5 51.14 49.22 51.05 L 47.24 50.14 C 46.72 50.96 46.07 51.68 45.34 52.31 L 46.12 54.5 C 46.24 54.85 46.08 55.15 45.9 55.26 L 44 56.16 C 43.74 56.21 43.51 56.19 43.4 55.83 L 42.6 53.58 C 41.87 53.81 40.97 53.87 40.04 53.6 L 39.25 55.82 C 39.13 56.05 38.97 56.25 38.62 56.16 L 36.77 55.28 C 36.51 55.07 36.39 54.8 36.55 54.45 L 37.43 52.44 C 36.66 51.78 36.01 51.06 35.49 50.31 L 33.61 51.19 C 33.3 51.31 33.07 51.23 32.89 50.92 L 32.14 48.86 C 32.05 48.58 32.12 48.26 32.39 48.11 L 34.35 47.14 C 34.28 46.17 34.27 45.2 34.35 44.23 Z M 36.46 45.64 C 36.46 49.07 38.95 51.2 41.37 51.2 C 44 51.2 46.19 48.65 46.19 45.69 C 46.19 42.52 43.83 40.14 41.38 40.14 C 38.98 40.14 36.46 42.19 36.46 45.64 Z M 33.05 21.67 L 33.05 15.9 L 48.61 15.9 L 48.61 21.67 L 45.3 21.67 C 45.02 21.69 44.85 21.85 44.75 22.11 L 44.41 23.25 L 43.51 19.45 C 43.45 19.25 43.25 19.02 43 19.01 C 42.74 19.02 42.52 19.19 42.44 19.43 L 41.63 21.67 L 39.66 21.67 C 39.4 21.67 39.2 21.87 39.09 22.18 L 38.29 24.86 L 36.92 18.95 C 36.81 18.67 36.64 18.49 36.35 18.47 C 36.1 18.48 35.88 18.7 35.78 18.97 L 34.98 21.67 Z M 33.05 29.85 L 33.05 23.04 L 35.38 23.04 C 35.71 23.05 35.89 22.82 36 22.5 L 36.31 21.48 L 37.67 27.36 C 37.77 27.71 37.99 27.87 38.23 27.87 C 38.52 27.87 38.69 27.69 38.8 27.4 L 40.08 23.04 L 42.06 23.04 C 42.34 23.03 42.47 22.85 42.56 22.65 L 42.86 21.81 L 43.8 25.77 C 43.89 26.05 44.09 26.26 44.37 26.27 C 44.58 26.26 44.83 26.07 44.94 25.76 L 45.74 23.04 L 48.61 23.04 L 48.61 29.85 Z M 32.11 30.93 L 49.56 30.93 L 49.56 14.82 L 32.11 14.82 Z M 31.17 32 L 31.17 13.75 L 50.5 13.75 L 50.5 32 Z M 19.38 54.01 L 19.38 18.52 C 19.38 17.52 20.13 16.43 21.27 16.43 L 29.75 16.43 L 29.75 21.27 L 22.68 21.27 L 22.68 22.88 L 29.75 22.88 L 29.75 33.62 L 36.35 33.62 L 36.35 34.58 C 35.27 35.05 34.83 36.34 35.22 37.49 L 35.64 38.61 L 35.13 39.19 L 34.09 38.69 C 33.01 38.24 32.08 38.93 31.71 39.82 L 30.92 41.96 C 30.78 42.39 30.75 42.83 30.84 43.27 L 22.68 43.27 L 22.68 44.88 L 32.18 44.88 L 32.95 45.26 L 32.95 46.12 L 31.88 46.64 C 31.31 46.96 30.97 47.49 30.84 48.11 L 22.68 48.11 L 22.68 49.72 L 31.03 49.72 L 31.72 51.58 C 32.12 52.57 33.13 53.1 34.11 52.69 L 35.12 52.18 L 35.64 52.78 L 35.18 54.01 Z" fill="#00ff00" stroke="none" pointer-events="all"/></g></g></g></g></g></g></svg>