<?xml version="1.0" encoding="UTF-8"?>
<!-- Do not edit this file with editors other than draw.io -->
<!DOCTYPE svg PUBLIC "-//W3C//DTD SVG 1.1//EN" "http://www.w3.org/Graphics/SVG/1.1/DTD/svg11.dtd">
<svg xmlns="http://www.w3.org/2000/svg" xmlns:xlink="http://www.w3.org/1999/xlink" version="1.1" width="71px" height="71px" viewBox="-0.5 -0.5 71 71" class="ge-export-svg-dark" content="&lt;mxfile host=&quot;app.diagrams.net&quot; agent=&quot;Mozilla/5.0 (Windows NT 10.0; Win64; x64) AppleWebKit/537.36 (KHTML, like Gecko) Chrome/129.0.0.0 Safari/537.36&quot; version=&quot;24.7.16&quot; scale=&quot;1&quot; border=&quot;0&quot;&gt;&#10;  &lt;diagram name=&quot;Página-1&quot; id=&quot;cHoTVuZz9rcjcoefg9mx&quot;&gt;&#10;    &lt;mxGraphModel dx=&quot;503&quot; dy=&quot;248&quot; grid=&quot;1&quot; gridSize=&quot;10&quot; guides=&quot;1&quot; tooltips=&quot;1&quot; connect=&quot;1&quot; arrows=&quot;1&quot; fold=&quot;1&quot; page=&quot;1&quot; pageScale=&quot;1&quot; pageWidth=&quot;2970&quot; pageHeight=&quot;2100&quot; background=&quot;#ffffff&quot; math=&quot;0&quot; shadow=&quot;0&quot;&gt;&#10;      &lt;root&gt;&#10;        &lt;mxCell id=&quot;0&quot; /&gt;&#10;        &lt;mxCell id=&quot;1&quot; parent=&quot;0&quot; /&gt;&#10;        &lt;mxCell id=&quot;Hdg0KMK2BAXWInw-SZbt-25&quot; value=&quot;&quot; style=&quot;group&quot; vertex=&quot;1&quot; connectable=&quot;0&quot; parent=&quot;1&quot;&gt;&#10;          &lt;mxGeometry x=&quot;530&quot; y=&quot;280&quot; width=&quot;70&quot; height=&quot;70&quot; as=&quot;geometry&quot; /&gt;&#10;        &lt;/mxCell&gt;&#10;        &lt;mxCell id=&quot;Hdg0KMK2BAXWInw-SZbt-8&quot; value=&quot;&quot; style=&quot;ellipse;shape=doubleEllipse;whiteSpace=wrap;html=1;aspect=fixed;container=0;&quot; vertex=&quot;1&quot; parent=&quot;Hdg0KMK2BAXWInw-SZbt-25&quot;&gt;&#10;          &lt;mxGeometry width=&quot;70&quot; height=&quot;70&quot; as=&quot;geometry&quot; /&gt;&#10;        &lt;/mxCell&gt;&#10;        &lt;mxCell id=&quot;Hdg0KMK2BAXWInw-SZbt-10&quot; value=&quot;&quot; style=&quot;ellipse;whiteSpace=wrap;html=1;aspect=fixed;container=0;&quot; vertex=&quot;1&quot; parent=&quot;Hdg0KMK2BAXWInw-SZbt-25&quot;&gt;&#10;          &lt;mxGeometry x=&quot;5&quot; y=&quot;5&quot; width=&quot;60&quot; height=&quot;60&quot; as=&quot;geometry&quot; /&gt;&#10;        &lt;/mxCell&gt;&#10;        &lt;mxCell id=&quot;Hdg0KMK2BAXWInw-SZbt-26&quot; value=&quot;&quot; style=&quot;sketch=0;pointerEvents=1;shadow=0;dashed=0;html=1;strokeColor=none;fillColor=#00FF00;aspect=fixed;labelPosition=center;verticalLabelPosition=bottom;verticalAlign=top;align=center;outlineConnect=0;shape=mxgraph.vvd.networking;&quot; vertex=&quot;1&quot; parent=&quot;Hdg0KMK2BAXWInw-SZbt-25&quot;&gt;&#10;          &lt;mxGeometry x=&quot;10&quot; y=&quot;10&quot; width=&quot;50&quot; height=&quot;50&quot; as=&quot;geometry&quot; /&gt;&#10;        &lt;/mxCell&gt;&#10;      &lt;/root&gt;&#10;    &lt;/mxGraphModel&gt;&#10;  &lt;/diagram&gt;&#10;&lt;/mxfile&gt;&#10;"><defs><style type="text/css">svg.ge-export-svg-dark:not(mjx-container &gt; svg) { filter: invert(100%) hue-rotate(180deg); }&#xa;svg.ge-export-svg-dark foreignObject img,&#xa;svg.ge-export-svg-dark image:not(svg.ge-export-svg-dark switch image),&#xa;svg.ge-export-svg-dark svg:not(mjx-container &gt; svg)&#xa;{ filter: invert(100%) hue-rotate(180deg) }</style></defs><g><g data-cell-id="0"><g data-cell-id="1"><g data-cell-id="Hdg0KMK2BAXWInw-SZbt-25"><g/><g data-cell-id="Hdg0KMK2BAXWInw-SZbt-8"><g><ellipse cx="35" cy="35" rx="35" ry="35" fill="rgb(255, 255, 255)" stroke="rgb(0, 0, 0)" pointer-events="all"/><ellipse cx="35" cy="35" rx="31" ry="31" fill="none" stroke="rgb(0, 0, 0)" pointer-events="all"/></g></g><g data-cell-id="Hdg0KMK2BAXWInw-SZbt-10"><g><ellipse cx="35" cy="35" rx="30" ry="30" fill="rgb(255, 255, 255)" stroke="rgb(0, 0, 0)" pointer-events="all"/></g></g><g data-cell-id="Hdg0KMK2BAXWInw-SZbt-26"><g><rect x="10" y="10" width="50" height="50" fill="none" stroke="none" pointer-events="all"/><path d="M 23.14 17.02 C 22.86 17.01 22.91 16.98 22.76 16.82 C 22.66 16.73 22.54 16.8 22.5 16.57 C 22.48 16.46 22.47 16.29 22.59 16.21 C 22.87 16.02 23.3 16.09 23.53 16.26 C 23.71 16.39 23.41 17.02 23.14 17.02 Z M 35 10 C 21.2 10 10 21.2 10 35 C 10 48.8 21.2 60 35 60 C 48.8 60 60 48.8 60 35 C 60 21.2 48.8 10 35 10 Z M 35 11.15 C 39.89 11.15 44.43 12.62 48.22 15.14 C 48.19 15.3 48.06 15.42 47.86 15.58 C 47.72 15.7 47.59 15.78 47.59 16.12 C 47.58 16.37 47.19 16.64 47.4 16.95 C 47.73 17.43 48.38 17.7 48.62 17.45 C 48.83 17.23 48.31 17.25 48.31 16.63 C 48.31 16.26 48.6 15.79 48.79 15.54 C 49.44 16 50.07 16.5 50.68 17.03 C 50.63 17.11 50.58 17.2 50.55 17.3 C 50.5 17.42 50.51 17.95 50.55 18.06 C 50.75 18.52 50.52 18.3 50.39 18.13 C 50.23 17.93 50.03 17.9 49.86 17.87 C 49.55 17.82 49.64 18.02 49.32 17.72 C 49.1 17.53 48.94 17.77 49.15 17.93 C 49.34 18.07 49.52 18.17 49.36 18.25 C 48.84 18.5 48.68 18.37 48.37 18.34 C 47.94 18.29 48.07 18.5 47.78 18.54 C 47.59 18.56 47.59 18.5 47.46 18.62 C 47.17 18.87 47.21 18.75 47.04 18.89 C 46.94 18.97 46.78 19.25 46.65 19.22 C 46.29 19.13 46.5 18.81 46.28 18.73 C 46.09 18.67 46.07 18.82 46.09 18.98 C 46.12 19.3 45.98 19.32 45.79 19.27 C 45.57 19.22 45.61 19.21 45.4 19.44 C 45.32 19.53 45.21 19.52 45.27 19.7 C 45.3 19.81 45.19 19.83 45.14 19.88 C 45.04 19.98 45.13 19.96 45 20.1 C 44.7 20.41 44.66 20.27 44.46 20.09 C 44.18 19.84 44.35 19.73 44.15 19.48 C 43.73 18.95 43.91 18.95 44.37 19.2 C 44.75 19.41 45.37 19.39 45.45 19.02 C 45.55 18.55 44.28 17.89 43.98 17.87 C 43.57 17.83 43.69 17.59 43.46 17.53 C 43.25 17.48 43.38 17.51 43.14 17.24 C 42.73 16.77 42.77 16.91 42.17 16.96 C 41.45 17.02 41.44 17.18 41.15 17.16 C 40.8 17.15 40.63 17.78 40.14 18.02 C 39.74 18.21 39.42 18.45 39.95 18.51 C 40.42 18.57 39.99 19.06 39.67 19.35 C 39.5 19.51 39.18 20 38.97 20.03 C 38.7 20.08 38.52 20.44 38.24 20.66 C 37.99 20.86 37.8 20.79 37.77 21.1 C 37.71 21.82 37.81 22.18 38 22.48 C 38.19 22.79 38.37 22.39 38.61 22.4 C 38.83 22.4 38.73 22.34 38.96 22.33 C 39.33 22.31 39.09 22.61 39.4 22.99 C 39.69 23.35 39.49 23.44 39.65 23.48 C 39.79 23.51 39.76 23.39 39.97 23.22 C 40.07 23.13 40.34 23.37 40.33 23.03 C 40.3 22.3 40.38 22.43 40.65 22.19 C 40.94 21.95 40.34 21.87 40.35 21.52 C 40.36 21.22 40.59 20.66 40.74 20.46 C 40.94 20.18 41.28 20.23 41.27 19.92 C 41.26 19.41 41.5 19.27 41.79 19.33 C 42.45 19.48 41.7 20.27 41.49 20.47 C 41.29 20.65 41.49 20.71 41.46 21.15 C 41.45 21.36 41.62 21.56 41.83 21.69 C 42.11 21.85 42.2 21.51 42.37 21.5 C 42.65 21.5 42.66 21.38 42.82 21.37 C 43.16 21.34 43.17 20.88 43.58 21.31 C 43.79 21.54 43.13 21.93 42.89 21.96 C 42.32 22.04 42.52 22.13 42.2 22.22 C 41.9 22.29 41.87 22.34 41.93 22.5 C 42.04 22.84 41.83 22.92 41.74 22.9 C 41.52 22.83 41.48 22.76 41.38 22.93 C 41.22 23.21 41.34 23.26 41.23 23.41 C 40.78 23.95 40.13 24.15 39.93 24.14 C 39.27 24.11 39.36 24.3 39.04 24.29 C 38.48 24.25 38.65 24.35 38.27 24.43 C 37.87 24.53 37.91 24.4 37.74 24.57 C 37.55 24.75 37.6 24.89 37.3 25.16 C 37.07 25.38 37.04 25.43 37.08 25.17 C 37.1 25 37.04 25.01 36.89 24.85 C 36.76 24.71 36.74 24.89 36.72 24.63 C 36.71 24.43 36.61 24.44 36.41 24.16 C 36.14 23.75 36.17 23.74 36.16 23.62 C 36.13 23.32 36.33 23.4 36.23 23.19 C 36.15 23.04 36.01 23.22 35.95 22.81 C 35.93 22.66 35.64 22.76 35.47 22.81 C 35.25 22.88 35.13 23.1 35.08 23.37 C 35.04 23.67 35.39 23.93 35.5 24.11 C 35.6 24.27 35.73 24.12 35.94 24.32 C 36.1 24.47 36.1 24.54 35.96 24.63 C 35.59 24.87 35.75 24.83 35.59 25 C 35.42 25.17 35.53 25.25 35.43 25.5 C 35.29 25.85 35.54 26.01 35.9 25.84 C 36.12 25.74 36.18 25.67 36.34 25.69 C 36.61 25.73 36.56 25.6 36.67 25.58 C 37.06 25.5 36.53 25.83 36.35 25.94 C 35.95 26.16 35.97 26.06 35.82 26.06 C 35.54 26.07 35.46 26.29 35.66 26.41 C 36.1 26.66 35.97 26.66 36.13 26.92 C 36.3 27.2 36.57 27.37 36.27 27.82 C 36.08 28.1 35.95 27.88 35.45 27.85 C 34.78 27.81 34.82 27.9 34.6 27.94 C 34.45 27.97 34.44 27.98 34.5 28.1 C 34.62 28.35 34.57 28.81 34.52 29.01 C 34.42 29.42 34.4 29.62 34.52 29.88 C 34.67 30.18 34.81 29.75 35.15 30.21 C 35.29 30.38 35.33 30.3 35.45 30.21 C 35.67 30.03 35.79 30.19 35.97 30.07 C 36.13 29.97 36.02 29.91 36.24 29.81 C 36.43 29.73 36.58 29.56 36.57 29.33 C 36.56 28.89 36.64 28.98 36.67 28.96 C 36.82 28.86 36.83 28.73 37.01 28.59 C 37.24 28.42 37.24 28.5 37.31 28.22 C 37.38 27.94 37.54 27.85 37.74 27.94 C 37.88 28.01 37.92 28.17 38.26 27.85 C 38.68 27.46 38.79 27.65 38.95 28.02 C 39.2 28.57 39.78 28.85 39.97 29.01 C 40.04 29.09 40.18 29.24 40.16 29.4 C 40.15 29.5 40.07 29.74 39.93 29.72 C 39.63 29.69 39.82 29.93 39.88 30.01 C 40.02 30.21 40.04 29.77 40.19 29.76 C 40.37 29.74 40.39 29.38 40.36 29.29 C 40.24 28.97 40.72 29.24 40.68 29.04 C 40.64 28.82 39.89 28.52 39.77 28.23 C 39.66 27.96 39.3 27.87 39.33 27.49 C 39.35 27.14 39.85 27.52 39.93 27.63 C 40.22 28.03 40.38 28.05 40.5 28.11 C 41.04 28.4 41.01 28.58 41 28.71 C 40.94 29.4 41.29 29.05 41.31 29.71 C 41.32 30.29 41.95 30.08 42.05 30 C 42.5 29.65 41.64 29.42 41.89 29.1 C 42.31 28.57 42.55 28.92 42.67 29.19 C 42.78 29.45 42.66 29.75 42.9 29.96 C 43.11 30.15 43.04 30.22 43.39 30.32 C 43.71 30.42 43.6 30.03 43.91 30.3 C 44.01 30.38 44.21 30.47 44.38 30.32 C 44.66 30.1 44.81 30.52 44.8 30.93 C 44.8 30.94 44.68 31.2 44.68 31.52 C 44.68 31.75 44.31 32.02 44 31.97 C 43.43 31.86 43.15 32.18 42.8 31.97 C 42.47 31.77 42.28 31.83 42.04 31.66 C 41.51 31.29 41.21 31.45 41.14 31.63 C 41.05 31.9 41.3 32.21 40.59 32.1 C 40.13 32.03 40.28 31.7 39.59 31.5 C 39.11 31.37 38.86 31.07 38.9 30.98 C 39.09 30.55 38.94 30.51 39.02 30.22 C 39.14 29.82 38.52 30.07 37.34 30.09 C 36.76 30.1 36.79 30.23 36.67 30.27 C 36.21 30.44 36.18 30.58 36.03 30.6 C 35.78 30.63 35.76 30.45 35.63 30.57 C 35.57 30.63 35.53 30.6 35.41 30.51 C 35.24 30.37 35.11 30.61 35.08 30.74 C 34.97 31.29 34.72 30.96 34.41 31.46 C 34.04 32.05 34.7 32.29 33.71 33.02 C 33.11 33.45 32.99 34.11 32.81 34.27 C 32.34 34.65 32.55 35.17 32.71 35.78 C 32.98 36.78 32.39 36.46 32.62 37.37 C 32.76 37.95 33.12 37.99 33.33 38.6 C 33.57 39.33 33.93 39.36 34.21 39.69 C 34.57 40.1 34.69 40.08 35.06 39.94 C 35.61 39.72 35.59 40.07 35.78 39.98 C 36.54 39.6 36.47 39.75 36.74 39.63 C 37.42 39.33 37.55 39.37 37.83 39.92 C 38.01 40.28 38.31 39.88 38.43 39.97 C 38.88 40.28 38.74 40.5 38.76 40.72 C 38.8 41.47 38.62 41.23 38.61 41.57 C 38.58 42.18 38.79 41.75 39.33 43.04 C 39.65 43.8 39.45 43.98 39.63 44.49 C 39.87 45.15 39.38 45.19 39.41 45.57 C 39.44 46 39.18 45.79 39.23 46.48 C 39.27 47.03 39.37 46.82 39.48 47.34 C 39.61 47.99 39.85 47.45 39.85 49 C 39.85 49.79 40.13 49.65 40.32 50.27 C 40.51 50.86 40.64 50.95 40.5 51.24 C 40.4 51.46 40.37 51.59 40.77 51.83 C 40.94 51.94 41.29 51.66 41.54 51.62 C 41.84 51.57 42.02 51.69 42.41 51.51 C 42.62 51.41 43.49 50.18 43.64 49.84 C 43.91 49.25 43.47 49.11 44 48.86 C 44.29 48.72 44.52 48.59 44.32 47.97 C 44.15 47.47 44.24 47.36 44.37 47.13 C 44.87 46.33 44.85 46.99 45.44 46.22 C 45.64 45.97 45.67 44.91 45.64 44.56 C 45.6 44.16 45.3 44.23 45.46 43.79 C 45.56 43.49 45.43 43.09 45.43 42.96 C 45.42 42.56 45.78 42.23 45.98 41.96 C 46.22 41.63 46.03 41.74 46.29 41.4 C 46.99 40.45 46.61 41.26 47.28 40.4 C 47.67 39.9 47.65 39.77 47.84 39.18 C 47.99 38.74 48.11 38.96 48.22 38.31 C 48.29 37.9 48.1 37.99 47.93 38.04 C 47.66 38.12 47.66 37.96 47.44 38.14 C 47.17 38.36 47.11 38.21 46.92 38.21 C 46.51 38.21 46.63 38.16 46.56 38.06 C 46.36 37.79 46.45 37.79 46.49 37.72 C 46.57 37.58 46.76 37.7 47 37.38 C 47.1 37.24 47.24 37.17 47.57 37.1 C 48.51 36.91 48.49 36.65 48.72 36.39 C 49.08 36.01 49.18 36.1 49.33 35.98 C 49.47 35.87 49.53 35.65 49.58 35.61 C 50.03 35.19 50.23 34.93 50.22 34.69 C 50.21 34.3 49.35 33.88 49.1 33.98 C 48.63 34.18 48.53 34.07 48.28 33.94 C 47.86 33.7 48.15 33.57 47.97 33.37 C 47.72 33.1 47.78 33.07 47.69 32.89 C 47.47 32.43 47.6 32.26 47.88 32.26 C 48.17 32.27 48.23 32.84 48.39 33.01 C 48.7 33.33 48.99 33.45 49.27 33.34 C 49.63 33.19 49.7 33.54 50.05 33.72 C 50.41 33.9 50.46 33.61 50.62 33.76 C 50.73 33.85 50.51 33.93 50.76 34.21 C 51.19 34.68 51.04 34.72 51.09 34.97 C 51.17 35.35 51.32 35.3 51.56 35.2 C 51.77 35.11 51.71 35.39 51.7 35.6 C 51.69 35.87 51.8 35.79 51.77 36.03 C 51.69 36.71 51.85 36.62 51.89 37.07 C 51.97 38.01 52.3 38.93 52.39 38.94 C 52.65 38.99 52.46 38.84 52.69 38.73 C 52.9 38.64 52.9 38.63 52.92 38.25 C 52.93 38.08 53.04 38 53.04 37.57 C 53.04 36.82 53.34 36.88 53.64 36.54 C 54.55 35.49 54.47 35.85 54.57 35.71 C 54.67 35.57 54.62 35.53 54.72 35.39 C 54.89 35.12 55 35.45 55.27 35.17 C 55.61 34.81 55.63 35.15 55.68 35.45 C 55.73 35.78 55.78 35.65 55.91 35.84 C 56.03 36.02 55.98 36.12 56.05 36.23 C 56.29 36.56 56.44 36.13 56.69 37.13 C 57.1 38.76 56.65 38.65 56.78 39.1 C 56.9 39.53 56.98 39.3 57 40 C 57.01 40.48 57.08 40.88 57.48 41 C 57.72 41.07 57.55 40.79 57.55 40.48 C 57.56 39.95 57.47 39.97 57.23 39.56 C 56.72 38.66 57.07 38.65 57.09 38.29 C 57.13 37.59 57.47 37.9 57.67 38.4 C 57.91 39.02 58.25 38.83 58.58 38.6 C 58.34 40.17 57.95 41.69 57.42 43.14 C 57.23 43.09 57.03 43.04 57.02 42.86 C 57 42.67 57.14 42.66 57.13 42.4 C 57.11 42.03 56.86 42.19 56.87 41.9 C 56.88 41.53 56.52 41.64 56.31 40.97 C 56.23 40.7 55.93 40.38 55.77 40.51 C 55.57 40.66 55.99 40.84 55.98 41.42 C 55.98 41.73 56.28 41.71 56.38 42.17 C 56.46 42.55 56.57 42.7 56.66 42.92 C 56.85 43.38 57.09 43.44 57.26 43.56 C 56.36 45.91 55.1 48.08 53.54 50 C 53.39 49.91 53.23 49.78 53.16 49.64 C 53.06 49.46 53.2 49.27 53.06 49.11 C 52.95 49 52.8 49.12 52.8 49.28 C 52.82 49.58 52.64 49.69 52.65 49.81 C 52.66 50.25 52.5 50.15 52.44 50.35 C 52.3 50.81 52.14 50.81 51.99 50.61 C 51.7 50.23 51.67 50.32 51.44 50.25 C 51.2 50.18 51.39 49.67 51.66 49.47 C 51.87 49.32 51.79 49.21 51.64 49.2 C 51.12 49.18 50.88 49.04 50.58 49.16 C 50.26 49.29 50.35 49.43 50.11 49.75 C 49.88 50.07 49.78 49.95 49.66 49.89 C 49.53 49.81 49.36 49.8 49.22 49.9 C 48.77 50.21 48.67 50.48 48.44 50.62 C 48.23 50.74 48.12 50.91 48.12 51.06 C 48.14 51.41 47.72 51.56 47.62 51.57 C 47.44 51.59 47.5 51.51 47.13 51.64 C 46.82 51.76 46.39 52.17 46.12 52.43 C 46.06 52.5 46.02 52.48 46.02 52.67 C 46.01 53.03 45.9 53.01 45.88 53.4 C 45.85 53.92 45.94 54.3 45.98 54.32 C 46.07 54.35 45.97 54.43 45.93 54.58 C 45.85 54.98 46.21 54.87 45.8 55.6 C 45.69 55.78 45.8 56 46.01 56.16 C 42.72 57.88 38.98 58.85 35 58.85 C 30.53 58.85 26.34 57.62 22.77 55.48 C 22.93 55.24 22.97 54.91 22.59 54.82 C 22.42 54.81 22.41 54.69 22.11 54.54 C 21.86 54.34 21.47 53.97 21.07 53.71 C 20.91 53.7 20.8 53.82 20.6 53.64 C 20.48 53.53 20.41 53.45 20.44 53.27 C 20.44 53.19 20.21 53.08 20.09 53.05 C 20.06 52.91 20.18 52.78 20.07 52.65 C 19.81 52.4 20.06 52.16 19.94 52.1 C 19.85 52.06 19.6 52.31 19.65 52.48 C 19.7 52.64 19.93 52.82 19.75 52.92 C 19.66 52.98 19.57 53.04 19.45 53.09 C 14.37 48.72 11.15 42.24 11.15 35 C 11.15 32.84 11.44 30.75 11.98 28.76 C 12.21 29.18 11.97 29.39 12.24 29.53 C 12.45 29.62 12.52 30.15 12.51 30.51 C 12.51 30.79 12.83 30.71 12.84 30.91 C 12.84 31.17 12.94 31.11 13.03 31.42 C 13.1 31.58 13.24 31.36 13.3 31.53 C 13.51 32.1 13.49 32.96 13.85 33.63 C 13.98 33.84 13.94 34.09 13.82 34.35 C 13.64 34.84 14.08 35.19 14.48 35.71 C 14.65 35.87 14.71 35.8 14.86 35.98 C 15.05 36.18 15.19 36.34 15.41 36.37 C 15.92 36.43 15.93 36.47 16 36.71 C 16.14 37.17 16.35 37.38 16.57 37.48 C 16.97 37.65 17 38.03 17 38.28 C 16.99 38.54 17.06 38.8 17.15 38.96 C 17.37 39.31 17.4 39.26 17.55 39.51 C 17.66 39.67 17.77 39.85 17.91 39.69 C 18.13 39.4 18.21 39.62 18.35 39.85 C 18.61 40.21 18.88 40.09 18.76 40.48 C 18.59 40.98 18.58 41.25 18.57 41.54 C 18.56 42.15 18.93 42.31 18.87 42.58 C 18.78 43.01 19.05 43.15 19.25 43.31 C 19.73 43.69 20.13 43.68 20.28 44.07 C 20.49 44.63 20.83 44.66 20.97 44.94 C 21.22 45.4 21.3 45.4 21.96 45.55 C 22.53 45.67 22.85 45.83 22.97 46.19 C 23.09 46.68 23.25 46.9 23.42 47.39 C 23.55 47.78 23.57 48.07 23.75 48.51 C 23.84 48.72 23.93 48.88 23.99 49.28 C 24.12 50.06 24.49 49.73 24.49 50.48 C 24.49 50.84 24.58 51.22 24.72 51.61 C 24.82 51.87 24.77 52.05 24.99 52.2 C 25.16 52.31 25.11 52.4 25.15 52.58 C 25.19 52.74 25.32 52.79 25.33 53.08 C 25.33 53.51 25.58 53.96 25.72 54.18 C 25.91 54.45 25.7 54.61 26.01 54.73 C 26.23 54.82 26.21 54.98 26.15 55.14 C 26.12 55.28 26.17 55.42 26.26 55.55 C 26.6 56.09 26.85 56.59 27.25 56.77 C 27.96 57.12 28.44 57.3 28.99 57.26 L 28.99 57.26 C 29.12 57.25 29.3 57.11 29.14 56.92 C 29 56.76 28.78 56.81 28.4 56.52 C 28.15 56.33 28.1 55.99 28.06 55.82 C 27.89 55.05 27.81 55.13 27.88 54.93 C 27.99 54.56 27.9 54.45 27.59 54.29 C 27.22 54.08 27.44 54 27.47 53.63 C 27.51 53.07 27.67 52.93 27.33 52.7 C 27.1 52.54 27.01 52.48 27.32 52.35 C 27.5 52.27 27.49 52.22 27.43 52.05 C 27.3 51.74 27.49 51.46 27.76 51.36 C 28.24 51.19 28.2 50.62 27.84 50.27 C 27.43 49.89 27.76 50.03 28.06 49.95 C 28.52 49.83 28.21 49.66 28.46 49.21 C 28.69 48.78 28.65 48.74 28.64 48.44 C 28.63 48.01 28.7 47.93 28.66 47.58 C 28.63 47.37 28.26 47.09 28.49 46.64 C 28.69 46.27 28.72 46.46 28.86 46.33 C 29.2 46.02 29.02 46.02 29.26 45.84 C 29.71 45.51 29.48 45.46 29.57 44.65 C 29.69 43.58 29.17 42.87 29.2 42.7 C 29.26 42.41 29.36 42.32 29.45 42.01 C 29.61 41.5 29.41 41.86 29.61 41.25 C 29.72 40.92 29.47 40.09 28.99 39.96 C 28.4 39.8 28.53 39.61 28.09 39.58 C 27.5 39.53 27.36 39.84 26.66 39.52 C 25.98 39.21 25.78 39.51 25.52 39.27 C 25.2 38.96 25.25 38.34 24.34 37.9 C 23.73 37.6 23.57 38.27 23.04 37.85 C 22.69 37.57 22.6 37.72 22.32 37.55 C 21.97 37.32 21.92 36.65 21.59 36.93 C 21.34 37.15 21.5 36.99 21.13 36.82 C 20.54 36.55 20.38 37.03 20.67 37.14 C 21.05 37.29 21.23 37.2 21.14 37.32 C 20.84 37.71 21.02 37.35 20.69 37.44 C 20.13 37.6 20.47 37.45 19.89 37.26 C 19.74 37.21 19.54 37.14 19.39 37.35 C 19.09 37.75 18.98 37.71 18.67 38.05 C 18.58 38.14 18.62 39.01 18.62 39.38 C 18.62 39.81 18.53 39.58 18.38 39.37 C 18.08 38.92 18.01 39.47 17.73 39.11 C 17.32 38.57 17.54 37.99 17.65 37.87 C 17.96 37.52 17.73 36.89 17.47 36.86 C 17.3 36.84 16.8 36.71 17.08 36.35 C 17.47 35.83 17.17 35.96 17.34 35.67 C 17.6 35.26 17.65 35.19 17.37 35.11 C 17.04 35.01 16.99 35.17 16.79 35.42 C 16.42 35.89 16.56 35.55 16.15 35.63 C 16 35.65 15.88 35.97 15.63 35.18 C 15.25 33.93 15.96 33.4 15.93 33.22 C 15.86 32.83 16.11 32.66 16.3 32.6 C 16.97 32.39 17.14 32.18 17.35 32.59 C 17.64 33.14 17.97 32.56 18.24 32.59 C 19.33 32.69 18.79 34.63 19.21 34.39 C 19.68 34.13 19.04 32.67 19.99 32.3 C 20.55 32.09 21.21 31.87 21.12 31.39 C 21.02 30.88 21.28 30.96 21.38 30.86 C 21.62 30.63 21.13 30.68 21.82 30.29 C 22.94 29.65 23.16 29.41 23.64 29.4 C 24.1 29.39 23.8 29.64 24.74 29.45 C 26 29.2 25.7 28.56 25.28 28.73 C 24.58 29.02 24.81 28.35 24.87 28.06 C 25.01 27.44 24.66 27.82 24.41 27.79 C 24.1 27.76 24.07 28.14 23.84 27.88 C 23.72 27.75 23.81 27.63 24.19 27.51 C 24.44 27.43 24.43 27.13 25.18 27.37 C 25.65 27.53 26.05 27.54 26.32 27.38 C 26.69 27.15 26.97 27.19 27.09 26.95 C 27.25 26.62 26.41 26.03 26.37 25.72 C 26.33 25.35 26.21 25.42 26.32 25.17 C 26.54 24.69 26.35 24.67 26.34 24.32 C 26.33 24.04 26.4 23.82 26.16 23.98 C 25.64 24.32 25.56 24.51 25.31 23.9 C 25.23 23.69 25.41 23.47 25.41 23.31 C 25.43 23.01 25.3 23.05 25.19 22.84 C 25.09 22.63 25.26 22.51 24.91 22.53 C 24.56 22.55 24.66 22.47 24.41 22.47 C 24.03 22.48 24.1 23.22 23.89 23.35 C 23.56 23.55 23.55 23.57 23.58 23.8 C 23.61 24.13 23.59 24.74 23.18 24.92 C 22.56 25.2 22.67 26.08 22.16 26.24 C 21.85 26.33 21.85 25.62 21.96 25.25 C 22.03 24.99 22.03 24.89 21.8 24.79 C 21.18 24.55 21.38 24.25 21.14 23.9 C 20.9 23.54 20.54 23.56 20.59 23.32 C 20.7 22.86 20.58 23.04 20.49 22.86 C 20.17 22.26 20.98 21.95 21.2 21.81 C 21.64 21.52 21.74 21.2 22.3 21.23 C 22.69 21.25 22.68 21.15 22.78 21.18 C 23.06 21.27 22.66 21.69 23.05 21.69 C 23.34 21.69 23.57 21.44 23.43 21.15 C 23.24 20.76 23.8 20.8 24.14 20.6 C 24.67 20.28 24.18 19.61 24.55 19.3 C 25.17 18.8 25.68 18.93 25.83 19.52 C 25.98 20.15 26.33 20.22 26.04 20.54 C 25.64 20.98 25.55 21.37 25.32 21.36 C 24.77 21.35 24.22 21.65 24.46 21.91 C 24.69 22.17 24.78 21.74 25.46 22.32 C 25.89 22.68 25.35 22.59 26.13 22.88 C 26.6 23.06 26.46 22.75 26.21 22.56 C 25.91 22.33 26.2 21.97 26.58 22.33 C 26.86 22.59 27.06 22.21 26.81 21.9 C 26.54 21.58 26.86 21.19 26.99 21.44 C 27.12 21.67 27.2 21.47 27.24 21.71 C 27.32 22.15 27.46 21.91 27.78 21.57 C 27.93 21.38 28.01 21 27.77 20.74 C 27.58 20.55 27.56 20.39 27.52 20.34 C 27.47 20.29 27.37 20.25 27.31 20.18 C 27.22 20.08 27.21 19.98 27.29 19.82 C 27.37 19.67 27.44 19.47 27.24 19.27 C 27.01 19.07 26.78 18.91 26.94 18.52 C 26.98 18.36 26.96 18.26 26.81 18.26 C 26.61 18.25 26.36 18.14 26.38 17.98 C 26.43 17.74 26.43 17.64 26.22 17.6 C 25.9 17.58 25.63 17.59 25.1 17.43 C 24.48 17.27 24.51 17.47 24.44 17.46 C 24.29 17.46 24.39 17.25 24.42 17.04 C 24.44 16.93 24.31 16.97 24.41 16.89 C 24.49 16.82 24.73 16.59 24.59 16.5 C 24.38 16.42 24.35 16.7 24.21 16.93 C 24.13 17.07 23.99 17.39 24.05 17.43 C 24.11 17.46 24.17 17.36 24.21 17.41 C 24.27 17.48 24.19 17.53 24.27 17.57 C 24.43 17.7 24.22 17.78 24.19 17.73 C 24.16 17.62 24.04 17.8 23.97 17.85 C 23.8 17.98 23.8 18.06 23.84 18.17 C 23.95 18.45 23.88 18.49 23.9 18.65 C 23.94 18.99 23.81 19.03 24.01 19.19 C 24.23 19.37 24.09 19.44 24.01 19.54 C 23.84 19.73 23.78 19.66 23.73 19.75 C 23.65 19.87 23.71 19.9 23.6 20.03 C 23.43 20.2 23.29 20.27 23.25 20.11 C 23.23 19.97 23.15 19.91 23.03 19.9 C 22.84 19.89 22.83 19.78 22.88 19.52 C 22.89 19.43 22.81 19.4 22.83 19.37 C 22.87 19.32 22.89 19.19 22.86 19.15 C 22.74 18.96 22.78 18.82 22.99 18.65 C 23.36 18.35 22.86 18.26 22.86 17.95 C 22.86 17.74 23.11 17.58 23.56 17.56 C 23.69 17.56 23.99 17.34 24.03 17.13 C 24.04 17.07 24.06 16.97 24.03 16.94 C 23.91 16.87 23.85 16.93 23.79 16.97 C 23.7 17.03 23.66 17.1 23.7 17.22 C 23.74 17.43 23.57 17.52 23.41 17.52 C 23.11 17.52 23.13 17.4 22.92 17.33 C 22.64 17.26 22.63 17.38 22.53 17.38 C 22.24 17.36 22.22 17.51 22.01 17.66 C 21.87 17.8 21.9 17.98 22 18.02 C 22.12 18.06 22.19 18.12 22.2 18.22 C 22.21 18.38 22.3 18.45 22.42 18.44 C 22.71 18.44 22.73 18.58 22.64 18.76 C 22.58 18.88 22.59 18.96 22.64 19.07 C 22.89 19.32 22.72 19.49 22.47 19.67 C 22.23 19.83 21.99 19.91 21.8 19.84 C 21.38 19.7 21.26 19.66 20.86 19.69 C 20.55 19.7 20.47 19.63 20.41 19.4 C 20.37 19.25 20.21 19.33 20.14 19.37 C 19.44 19.74 19.47 19.43 19.01 19.43 C 18.74 19.43 18.53 19.43 18.61 19.28 C 18.77 19.06 18.59 19.03 18.35 18.98 L 18.64 18.58 C 19.2 19.11 19.48 19.17 20.02 18.96 C 20.21 18.89 20.51 18.82 20.6 19.02 C 20.76 19.26 20.83 19.24 21.27 19.1 C 21.63 18.99 21.73 18.92 21.48 18.6 C 21.05 18.12 21.27 18.02 21.28 17.66 C 21.37 17.31 20.63 17.3 20.26 17.31 C 20.2 17.3 20.24 17.23 20.13 17.21 L 20.84 16.71 C 21.29 16.71 21.72 16.77 21.92 16.55 C 22.07 16.38 21.97 16.26 21.63 16.11 L 22.45 15.52 C 22.62 15.38 22.66 15.52 22.83 15.52 C 23 15.51 23.11 15.53 23.15 15.68 C 23.17 15.83 23.25 15.93 23.42 15.92 C 23.69 15.91 23.76 15.8 23.67 15.55 C 23.52 15.26 23.6 15.13 23.15 15.11 L 24.87 14.18 C 24.9 14.39 24.88 14.55 24.85 14.68 C 24.81 14.87 24.77 15.12 24.61 15.14 C 24.41 15.17 24.21 14.91 24.08 15.13 C 23.93 15.38 24.31 15.6 24.22 15.75 C 23.95 16.25 24.61 16.05 24.66 16.23 C 24.71 16.35 24.67 16.45 24.99 16.37 C 25.28 16.32 25.6 16.37 25.92 16.35 C 26.27 16.34 26.24 15.95 26.84 15.5 C 26.95 15.41 27.1 15.05 27.45 14.81 C 27.75 14.73 27.9 14.5 28.08 14.26 C 28.26 14.01 28.48 13.93 28.75 13.81 C 29.07 13.69 29.24 13.58 29.34 13.44 C 29.42 13.32 29.78 13.13 30.01 13.1 C 30.2 13.07 30.86 12.74 30.77 12.47 C 30.69 12.12 29.15 12.24 28.87 12.35 C 28.64 12.42 28.44 12.17 28.28 12.31 C 28.17 12.41 28 12.36 27.7 12.46 C 27.26 12.63 26.95 12.66 26.68 12.65 C 29.27 11.68 32.07 11.15 35 11.15 Z M 34.91 12.79 C 34.57 12.78 34.25 12.85 34.02 13.02 C 33.45 13.44 33.75 13.14 33.43 13.17 C 33 13.22 33.09 13.41 32.89 13.53 C 32.73 13.63 32.9 13.92 32.7 13.93 C 32.53 13.94 32.71 13.59 32.44 13.6 C 31.68 13.61 31.52 13.79 31.22 13.84 C 30.35 13.98 30.43 14.26 29.91 14.47 C 29.73 14.54 29.5 14.6 29.79 14.72 C 29.98 14.81 29.98 14.95 29.75 15.05 C 29.37 15.23 29.4 15 28.81 15.42 C 28.62 15.55 28.93 15.7 28.78 15.84 C 28.58 16.02 28.64 16.06 28.75 16.19 C 28.98 16.45 28.75 16.09 29.81 16.14 C 30.45 16.17 30.37 16.29 30.54 16.43 C 30.8 16.64 30.81 17.05 30.76 17.24 C 30.7 17.48 30.68 17.6 30.9 17.62 C 31.53 17.69 31.44 17.85 31.44 18.23 C 31.44 18.72 30.88 18.64 30.85 19.04 C 30.81 19.48 30.6 19.58 30.88 19.98 C 31.2 20.44 30.82 20.33 31.23 20.74 C 31.49 21 31.34 21.16 31.59 21.11 C 31.86 21.06 31.97 21.28 32.11 21.31 C 32.34 21.37 32.32 21.03 32.48 20.76 C 32.64 20.46 32.64 20.52 32.74 20.34 C 32.89 20.08 32.83 19.79 33.01 19.56 C 33.16 19.38 33.38 19.57 33.7 19.37 C 34.17 19.07 34.54 18.4 35.28 18.45 C 35.6 18.47 35.85 18.06 36.14 17.81 C 36.32 17.66 35.99 17.48 36.23 17.26 C 36.44 17.06 36.41 16.97 36.42 16.71 C 36.44 16.35 36.5 16.13 36.62 15.91 C 36.68 15.8 36.48 15.74 36.46 15.58 C 36.44 15.45 36.62 15.24 36.61 15.09 C 36.6 14.83 36.84 14.77 36.97 14.51 C 37.22 14.3 37.31 14.19 37.35 13.84 C 37.39 13.47 37.06 13.75 36.81 13.76 C 35.98 13.78 36.76 13.53 36.55 13.22 C 36.47 13.09 35.65 12.79 34.91 12.79 Z M 43.68 14.53 C 43.49 14.53 43.28 14.56 43.04 14.63 C 42.95 14.65 42.79 14.91 42.73 14.92 C 42.62 14.93 42.66 14.75 42.32 14.91 C 42.13 15.01 41.79 14.76 41.67 15.18 C 41.55 15.63 41.75 15.49 41.88 15.79 C 42.02 16.12 41.89 16.16 42.03 16.34 C 42.16 16.53 42.18 16.39 42.46 16.61 C 42.76 16.85 43.1 16.33 43.09 16.12 C 43.09 15.8 43.51 15.95 43.49 16.21 C 43.48 16.35 43.62 16.36 43.79 16.37 C 43.97 16.37 44.28 16.22 43.98 16.02 C 43.48 15.69 43.11 15.66 43.18 15.3 C 43.2 15.2 43.53 15.24 43.67 15.32 C 44.15 15.58 44.36 15.44 44.49 15.28 C 44.66 15.08 44.81 14.94 44.52 14.78 C 44.35 14.69 44.08 14.54 43.68 14.53 Z M 35.97 19.58 C 35.94 19.58 35.9 19.59 35.86 19.6 C 35.63 19.68 35.33 19.71 35.17 19.68 C 35.04 19.66 34.96 19.93 34.75 19.94 C 34.55 19.94 34.78 19.64 34.44 19.69 C 34.28 19.72 34.1 19.94 34.12 20.1 C 34.22 20.7 34.47 20.6 34.79 20.76 C 35.26 20.99 35.38 20.9 35.59 20.68 C 35.79 20.48 36.64 20.27 36.34 19.88 C 36.3 19.84 36.2 19.57 35.97 19.58 Z M 34.97 24.15 C 34.74 24.16 34.93 24.3 34.71 24.36 C 34.55 24.41 34.69 24.55 34.65 24.68 C 34.58 24.88 34.42 24.92 34.44 25.19 C 34.46 25.5 34.76 25.46 34.91 25.36 C 35.05 25.27 35.27 25.11 35.29 24.92 C 35.31 24.71 35.06 24.63 35.21 24.46 C 35.34 24.31 35.23 24.15 34.97 24.15 Z M 45.17 26.93 C 45.2 26.93 45.24 26.93 45.28 26.94 C 45.6 26.99 45.25 27.4 45.11 27.49 C 44.87 27.65 44.9 27.7 45.01 27.78 C 45.25 27.94 45.31 28.14 45.51 28.31 C 45.65 28.43 46.12 28.54 45.94 28.83 C 45.85 28.99 45.61 29.12 45.3 29.09 C 44.98 29.05 44.78 28.82 44.3 28.79 C 43.91 28.76 43.67 29.01 43.35 28.99 C 42.83 28.94 42.87 28.56 42.98 28.21 C 43.09 27.86 43.34 27.32 43.63 27.29 C 43.96 27.26 43.95 27.59 43.99 27.73 C 44.05 27.91 44.17 28.01 44.34 27.94 C 44.56 27.84 44.69 27.71 44.47 27.59 C 44.26 27.48 44.37 27.23 44.57 27.19 C 44.81 27.14 44.91 26.94 45.17 26.93 Z M 26.94 27.85 C 26.82 27.85 26.74 28.1 26.65 28.21 C 26.49 28.45 26.07 28.5 26.13 28.73 C 26.17 28.89 26.23 28.89 26.54 28.9 C 26.78 28.91 26.93 29.07 27.03 29.14 C 27.28 29.3 27.29 29.48 27.5 29.32 C 27.63 29.23 27.56 28.97 27.39 28.75 C 27.17 28.45 27.34 28.44 27.2 28.31 C 26.97 28.09 27.18 28.05 27.02 27.89 C 26.99 27.86 26.96 27.85 26.94 27.85 Z M 44.29 32.95 C 44.46 32.94 44.68 33.19 44.89 33.66 C 45.18 34.35 45.51 34.42 45.42 34.82 C 45.27 35.5 45.67 35.46 45.88 35.73 C 46.05 35.94 45.99 36.24 46.2 36.48 C 46.29 36.58 46.59 37.23 46.29 37.46 C 46.07 37.63 45.92 37.09 45.73 36.95 C 45.17 36.5 45.57 36.26 45.2 35.92 C 45.05 35.78 44.94 35.68 45.03 35.54 C 45.11 35.39 45.04 34.92 44.79 34.73 C 44.55 34.54 44.73 34.49 44.61 34.19 C 44.54 34.01 44.39 33.93 44.32 33.61 C 44.26 33.34 44.16 33.34 44.13 33.17 C 44.11 33.05 44.18 33 44.23 32.97 C 44.25 32.96 44.27 32.95 44.29 32.95 Z M 18.98 35.02 C 18.9 35.01 18.83 35.05 18.78 35.16 C 18.61 35.56 19.55 35.54 19.71 35.96 C 19.83 36.27 19.96 36.55 20.28 36.4 C 20.52 36.3 20.41 36.13 20.07 35.86 C 19.9 35.73 19.87 35.53 19.65 35.47 C 19.57 35.45 19.68 35.33 19.51 35.25 C 19.3 35.16 19.12 35.03 18.98 35.02 Z M 47.33 45.01 C 47.26 45.01 47.2 45.09 47.17 45.26 C 47.15 45.38 47.06 45.35 46.94 45.51 C 46.88 45.59 46.85 45.69 46.76 45.78 C 46.67 45.87 46.51 45.94 46.41 45.99 C 46.05 46.16 45.97 46.57 46.1 46.83 C 46.22 47.07 46.05 47.11 45.89 47.53 C 45.69 48.06 45.89 48.64 46.27 48.72 C 46.69 48.8 47.01 47.5 47.08 47.07 C 47.13 46.73 47.2 46.86 47.29 46.39 C 47.36 46.05 47.57 45.85 47.58 45.58 C 47.58 45.22 47.45 45.01 47.33 45.01 Z" fill="#00ff00" stroke="none" pointer-events="all"/></g></g></g></g></g></g></svg>