<?xml version="1.0" encoding="UTF-8"?>
<!-- Do not edit this file with editors other than draw.io -->
<!DOCTYPE svg PUBLIC "-//W3C//DTD SVG 1.1//EN" "http://www.w3.org/Graphics/SVG/1.1/DTD/svg11.dtd">
<svg xmlns="http://www.w3.org/2000/svg" xmlns:xlink="http://www.w3.org/1999/xlink" version="1.1" width="72px" height="71px" viewBox="-0.5 -0.5 72 71" class="ge-export-svg-dark" content="&lt;mxfile host=&quot;app.diagrams.net&quot; agent=&quot;Mozilla/5.0 (Windows NT 10.0; Win64; x64) AppleWebKit/537.36 (KHTML, like Gecko) Chrome/129.0.0.0 Safari/537.36&quot; scale=&quot;1&quot; border=&quot;0&quot; version=&quot;24.7.16&quot;&gt;&#10;  &lt;diagram name=&quot;Página-1&quot; id=&quot;cHoTVuZz9rcjcoefg9mx&quot;&gt;&#10;    &lt;mxGraphModel dx=&quot;419&quot; dy=&quot;207&quot; grid=&quot;1&quot; gridSize=&quot;10&quot; guides=&quot;1&quot; tooltips=&quot;1&quot; connect=&quot;1&quot; arrows=&quot;1&quot; fold=&quot;1&quot; page=&quot;1&quot; pageScale=&quot;1&quot; pageWidth=&quot;2970&quot; pageHeight=&quot;2100&quot; background=&quot;#ffffff&quot; math=&quot;0&quot; shadow=&quot;0&quot;&gt;&#10;      &lt;root&gt;&#10;        &lt;mxCell id=&quot;0&quot; /&gt;&#10;        &lt;mxCell id=&quot;1&quot; parent=&quot;0&quot; /&gt;&#10;        &lt;mxCell id=&quot;Hdg0KMK2BAXWInw-SZbt-25&quot; value=&quot;&quot; style=&quot;group&quot; parent=&quot;1&quot; vertex=&quot;1&quot; connectable=&quot;0&quot;&gt;&#10;          &lt;mxGeometry x=&quot;530&quot; y=&quot;280&quot; width=&quot;70&quot; height=&quot;70&quot; as=&quot;geometry&quot; /&gt;&#10;        &lt;/mxCell&gt;&#10;        &lt;mxCell id=&quot;Hdg0KMK2BAXWInw-SZbt-8&quot; value=&quot;&quot; style=&quot;ellipse;shape=doubleEllipse;whiteSpace=wrap;html=1;aspect=fixed;container=0;&quot; parent=&quot;Hdg0KMK2BAXWInw-SZbt-25&quot; vertex=&quot;1&quot;&gt;&#10;          &lt;mxGeometry width=&quot;70&quot; height=&quot;70&quot; as=&quot;geometry&quot; /&gt;&#10;        &lt;/mxCell&gt;&#10;        &lt;mxCell id=&quot;Hdg0KMK2BAXWInw-SZbt-10&quot; value=&quot;&quot; style=&quot;ellipse;whiteSpace=wrap;html=1;aspect=fixed;container=0;&quot; parent=&quot;Hdg0KMK2BAXWInw-SZbt-25&quot; vertex=&quot;1&quot;&gt;&#10;          &lt;mxGeometry x=&quot;5&quot; y=&quot;5&quot; width=&quot;60&quot; height=&quot;60&quot; as=&quot;geometry&quot; /&gt;&#10;        &lt;/mxCell&gt;&#10;        &lt;mxCell id=&quot;Hdg0KMK2BAXWInw-SZbt-30&quot; value=&quot;&quot; style=&quot;sketch=0;points=[[0.015,0.015,0],[0.985,0.015,0],[0.985,0.985,0],[0.015,0.985,0],[0.25,0,0],[0.5,0,0],[0.75,0,0],[1,0.25,0],[1,0.5,0],[1,0.75,0],[0.75,1,0],[0.5,1,0],[0.25,1,0],[0,0.75,0],[0,0.5,0],[0,0.25,0]];verticalLabelPosition=bottom;html=1;verticalAlign=top;aspect=fixed;align=center;pointerEvents=1;shape=mxgraph.cisco19.rect;prIcon=multipoint_meeting_server;fillColor=#00FF00;strokeColor=#FFFFFF;&quot; parent=&quot;Hdg0KMK2BAXWInw-SZbt-25&quot; vertex=&quot;1&quot;&gt;&#10;          &lt;mxGeometry x=&quot;15&quot; y=&quot;15&quot; width=&quot;40&quot; height=&quot;40&quot; as=&quot;geometry&quot; /&gt;&#10;        &lt;/mxCell&gt;&#10;      &lt;/root&gt;&#10;    &lt;/mxGraphModel&gt;&#10;  &lt;/diagram&gt;&#10;&lt;/mxfile&gt;&#10;"><defs><style type="text/css">svg.ge-export-svg-dark:not(mjx-container &gt; svg) { filter: invert(100%) hue-rotate(180deg); }&#xa;svg.ge-export-svg-dark foreignObject img,&#xa;svg.ge-export-svg-dark image:not(svg.ge-export-svg-dark switch image),&#xa;svg.ge-export-svg-dark svg:not(mjx-container &gt; svg)&#xa;{ filter: invert(100%) hue-rotate(180deg) }</style></defs><g><g data-cell-id="0"><g data-cell-id="1"><g data-cell-id="Hdg0KMK2BAXWInw-SZbt-25"><g/><g data-cell-id="Hdg0KMK2BAXWInw-SZbt-8"><g><ellipse cx="35" cy="35" rx="35" ry="35" fill="rgb(255, 255, 255)" stroke="rgb(0, 0, 0)" pointer-events="all"/><ellipse cx="35" cy="35" rx="31" ry="31" fill="none" stroke="rgb(0, 0, 0)" pointer-events="all"/></g></g><g data-cell-id="Hdg0KMK2BAXWInw-SZbt-10"><g><ellipse cx="35" cy="35" rx="30" ry="30" fill="rgb(255, 255, 255)" stroke="rgb(0, 0, 0)" pointer-events="all"/></g></g><g data-cell-id="Hdg0KMK2BAXWInw-SZbt-30"><g><rect x="15" y="15" width="40" height="40" fill="none" stroke="none" pointer-events="all"/><path d="M 17.45 15 C 16.1 15 15 16.1 15 17.44 L 15 52.56 C 15 53.9 16.1 55 17.45 55 L 52.55 55 C 53.9 55 55 53.9 55 52.56 L 55 17.44 C 55 16.1 53.9 15 52.55 15 Z" fill="#00ff00" stroke="none" pointer-events="all"/><rect x="15" y="15" width="40" height="40" fill="none" stroke="none" pointer-events="all"/><path d="M 36.18 20.72 C 34.57 20.72 33.27 22.01 33.27 23.61 C 33.27 24.61 33.79 25.54 34.65 26.06 C 33.58 27.33 32.97 28.99 32.97 30.64 L 32.97 33.44 L 35.05 33.44 L 27.54 41.7 C 27.23 40.88 26.76 40.11 26.22 39.44 C 27.13 38.92 27.68 37.97 27.68 36.93 C 27.68 35.34 26.38 34.04 24.78 34.04 C 23.18 34.04 21.88 35.34 21.88 36.93 C 21.88 37.93 22.4 38.86 23.25 39.39 C 22.18 40.65 21.57 42.32 21.57 43.96 L 21.57 46.77 L 27.98 46.77 L 27.98 43.96 C 27.98 43.63 27.95 43.29 27.9 42.97 L 42.42 44.32 C 42.22 44.99 42.11 45.68 42.11 46.37 L 42.11 49.18 L 48.52 49.18 L 48.52 46.37 C 48.52 44.71 47.77 43.11 46.76 41.85 C 47.67 41.34 48.22 40.38 48.22 39.35 C 48.22 38.58 47.92 37.85 47.37 37.3 C 46.83 36.76 46.09 36.46 45.32 36.46 C 43.72 36.46 42.41 37.75 42.41 39.35 C 42.42 40.35 42.94 41.28 43.79 41.8 C 43.41 42.25 43.09 42.74 42.84 43.27 L 36.53 33.44 L 39.38 33.44 L 39.38 30.64 C 39.38 28.97 38.62 27.37 37.62 26.11 C 38.52 25.6 39.08 24.64 39.08 23.61 C 39.08 22.01 37.78 20.72 36.18 20.72 Z M 35.75 33.44 L 35.91 33.44 L 42.56 43.81 L 27.78 42.43 C 27.77 42.38 27.75 42.32 27.73 42.27 Z M 17.45 16.1 L 52.55 16.1 C 53.3 16.1 53.89 16.69 53.89 17.44 L 53.89 52.56 C 53.89 53.31 53.3 53.9 52.55 53.9 L 17.45 53.9 C 16.7 53.9 16.11 53.31 16.11 52.56 L 16.11 17.44 C 16.11 16.69 16.7 16.1 17.45 16.1 Z M 17.45 15 C 16.1 15 15 16.1 15 17.44 L 15 52.56 C 15 53.9 16.1 55 17.45 55 L 52.55 55 C 53.9 55 55 53.9 55 52.56 L 55 17.44 C 55 16.1 53.9 15 52.55 15 Z" fill="#ffffff" stroke="none" pointer-events="all"/></g></g></g></g></g></g></svg>