<?xml version="1.0" encoding="UTF-8"?>
<!-- Do not edit this file with editors other than draw.io -->
<!DOCTYPE svg PUBLIC "-//W3C//DTD SVG 1.1//EN" "http://www.w3.org/Graphics/SVG/1.1/DTD/svg11.dtd">
<svg xmlns="http://www.w3.org/2000/svg" xmlns:xlink="http://www.w3.org/1999/xlink" version="1.1" width="71px" height="71px" viewBox="-0.5 -0.5 71 71" class="ge-export-svg-dark" content="&lt;mxfile host=&quot;app.diagrams.net&quot; agent=&quot;Mozilla/5.0 (Windows NT 10.0; Win64; x64) AppleWebKit/537.36 (KHTML, like Gecko) Chrome/129.0.0.0 Safari/537.36&quot; version=&quot;24.7.16&quot; scale=&quot;1&quot; border=&quot;0&quot;&gt;&#10;  &lt;diagram name=&quot;Página-1&quot; id=&quot;cHoTVuZz9rcjcoefg9mx&quot;&gt;&#10;    &lt;mxGraphModel dx=&quot;503&quot; dy=&quot;248&quot; grid=&quot;1&quot; gridSize=&quot;10&quot; guides=&quot;1&quot; tooltips=&quot;1&quot; connect=&quot;1&quot; arrows=&quot;1&quot; fold=&quot;1&quot; page=&quot;1&quot; pageScale=&quot;1&quot; pageWidth=&quot;2970&quot; pageHeight=&quot;2100&quot; background=&quot;#ffffff&quot; math=&quot;0&quot; shadow=&quot;0&quot;&gt;&#10;      &lt;root&gt;&#10;        &lt;mxCell id=&quot;0&quot; /&gt;&#10;        &lt;mxCell id=&quot;1&quot; parent=&quot;0&quot; /&gt;&#10;        &lt;mxCell id=&quot;Hdg0KMK2BAXWInw-SZbt-25&quot; value=&quot;&quot; style=&quot;group&quot; vertex=&quot;1&quot; connectable=&quot;0&quot; parent=&quot;1&quot;&gt;&#10;          &lt;mxGeometry x=&quot;530&quot; y=&quot;280&quot; width=&quot;70&quot; height=&quot;70&quot; as=&quot;geometry&quot; /&gt;&#10;        &lt;/mxCell&gt;&#10;        &lt;mxCell id=&quot;Hdg0KMK2BAXWInw-SZbt-8&quot; value=&quot;&quot; style=&quot;ellipse;shape=doubleEllipse;whiteSpace=wrap;html=1;aspect=fixed;container=0;&quot; vertex=&quot;1&quot; parent=&quot;Hdg0KMK2BAXWInw-SZbt-25&quot;&gt;&#10;          &lt;mxGeometry width=&quot;70&quot; height=&quot;70&quot; as=&quot;geometry&quot; /&gt;&#10;        &lt;/mxCell&gt;&#10;        &lt;mxCell id=&quot;Hdg0KMK2BAXWInw-SZbt-10&quot; value=&quot;&quot; style=&quot;ellipse;whiteSpace=wrap;html=1;aspect=fixed;container=0;&quot; vertex=&quot;1&quot; parent=&quot;Hdg0KMK2BAXWInw-SZbt-25&quot;&gt;&#10;          &lt;mxGeometry x=&quot;5&quot; y=&quot;5&quot; width=&quot;60&quot; height=&quot;60&quot; as=&quot;geometry&quot; /&gt;&#10;        &lt;/mxCell&gt;&#10;        &lt;mxCell id=&quot;Hdg0KMK2BAXWInw-SZbt-32&quot; value=&quot;&quot; style=&quot;sketch=0;outlineConnect=0;fontColor=#232F3E;gradientColor=none;fillColor=#00FF00;strokeColor=none;dashed=0;verticalLabelPosition=bottom;verticalAlign=top;align=center;html=1;fontSize=12;fontStyle=0;aspect=fixed;pointerEvents=1;shape=mxgraph.aws4.vpc_reachability_analyzer;&quot; vertex=&quot;1&quot; parent=&quot;Hdg0KMK2BAXWInw-SZbt-25&quot;&gt;&#10;          &lt;mxGeometry x=&quot;16&quot; y=&quot;16&quot; width=&quot;38&quot; height=&quot;38&quot; as=&quot;geometry&quot; /&gt;&#10;        &lt;/mxCell&gt;&#10;      &lt;/root&gt;&#10;    &lt;/mxGraphModel&gt;&#10;  &lt;/diagram&gt;&#10;&lt;/mxfile&gt;&#10;"><defs><style type="text/css">svg.ge-export-svg-dark:not(mjx-container &gt; svg) { filter: invert(100%) hue-rotate(180deg); }&#xa;svg.ge-export-svg-dark foreignObject img,&#xa;svg.ge-export-svg-dark image:not(svg.ge-export-svg-dark switch image),&#xa;svg.ge-export-svg-dark svg:not(mjx-container &gt; svg)&#xa;{ filter: invert(100%) hue-rotate(180deg) }</style></defs><g><g data-cell-id="0"><g data-cell-id="1"><g data-cell-id="Hdg0KMK2BAXWInw-SZbt-25"><g/><g data-cell-id="Hdg0KMK2BAXWInw-SZbt-8"><g><ellipse cx="35" cy="35" rx="35" ry="35" fill="rgb(255, 255, 255)" stroke="rgb(0, 0, 0)" pointer-events="all"/><ellipse cx="35" cy="35" rx="31" ry="31" fill="none" stroke="rgb(0, 0, 0)" pointer-events="all"/></g></g><g data-cell-id="Hdg0KMK2BAXWInw-SZbt-10"><g><ellipse cx="35" cy="35" rx="30" ry="30" fill="rgb(255, 255, 255)" stroke="rgb(0, 0, 0)" pointer-events="all"/></g></g><g data-cell-id="Hdg0KMK2BAXWInw-SZbt-32"><g><rect x="16" y="16" width="38" height="38" fill="none" stroke="none" pointer-events="all"/><path d="M 50.55 48.82 C 50.55 49.77 49.77 50.55 48.82 50.55 C 47.87 50.55 47.09 49.77 47.09 48.82 C 47.09 47.87 47.87 47.09 48.82 47.09 C 49.77 47.09 50.55 47.87 50.55 48.82 M 22.91 21.18 C 22.91 22.13 22.13 22.91 21.18 22.91 C 20.23 22.91 19.45 22.13 19.45 21.18 C 19.45 20.23 20.23 19.45 21.18 19.45 C 22.13 19.45 22.91 20.23 22.91 21.18 M 48.82 52.27 C 46.91 52.27 45.36 50.72 45.36 48.82 C 45.36 46.91 46.91 45.36 48.82 45.36 C 50.72 45.36 52.27 46.91 52.27 48.82 C 52.27 50.72 50.72 52.27 48.82 52.27 M 35 31.55 C 36.91 31.55 38.45 33.09 38.45 35 C 38.45 36.91 36.91 38.45 35 38.45 C 33.09 38.45 31.55 36.91 31.55 35 C 31.55 33.09 33.09 31.55 35 31.55 M 21.18 24.64 C 19.28 24.64 17.73 23.09 17.73 21.18 C 17.73 19.28 19.28 17.73 21.18 17.73 C 23.09 17.73 24.64 19.28 24.64 21.18 C 24.64 23.09 23.09 24.64 21.18 24.64 M 48.82 43.64 C 46.26 43.64 44.13 45.51 43.71 47.95 L 26.36 47.95 C 23.03 47.95 20.32 45.24 20.32 41.91 C 20.32 38.58 23.03 35.86 26.36 35.86 L 29.9 35.86 C 30.31 38.31 32.44 40.18 35 40.18 C 37.56 40.18 39.69 38.31 40.1 35.86 L 43.64 35.86 C 47.92 35.86 51.41 32.38 51.41 28.09 C 51.41 23.81 47.92 20.32 43.64 20.32 L 26.29 20.32 C 25.87 17.87 23.74 16 21.18 16 C 18.32 16 16 18.32 16 21.18 C 16 24.04 18.32 26.36 21.18 26.36 C 23.74 26.36 25.87 24.49 26.29 22.05 L 43.64 22.05 C 46.97 22.05 49.68 24.76 49.68 28.09 C 49.68 31.42 46.97 34.14 43.64 34.14 L 40.1 34.14 C 39.69 31.69 37.56 29.82 35 29.82 C 32.44 29.82 30.31 31.69 29.9 34.14 L 26.36 34.14 C 22.08 34.14 18.59 37.62 18.59 41.91 C 18.59 46.19 22.08 49.68 26.36 49.68 L 43.71 49.68 C 44.13 52.13 46.26 54 48.82 54 C 51.68 54 54 51.68 54 48.82 C 54 45.96 51.68 43.64 48.82 43.64" fill="#00ff00" stroke="none" pointer-events="all"/></g></g></g></g></g></g></svg>