<?xml version="1.0" encoding="UTF-8"?>
<!-- Do not edit this file with editors other than draw.io -->
<!DOCTYPE svg PUBLIC "-//W3C//DTD SVG 1.1//EN" "http://www.w3.org/Graphics/SVG/1.1/DTD/svg11.dtd">
<svg xmlns="http://www.w3.org/2000/svg" xmlns:xlink="http://www.w3.org/1999/xlink" version="1.1" width="71px" height="71px" viewBox="-0.5 -0.5 71 71" class="ge-export-svg-dark" content="&lt;mxfile host=&quot;app.diagrams.net&quot; agent=&quot;Mozilla/5.0 (Windows NT 10.0; Win64; x64) AppleWebKit/537.36 (KHTML, like Gecko) Chrome/129.0.0.0 Safari/537.36&quot; version=&quot;24.7.16&quot; scale=&quot;1&quot; border=&quot;0&quot;&gt;&#10;  &lt;diagram name=&quot;Página-1&quot; id=&quot;cHoTVuZz9rcjcoefg9mx&quot;&gt;&#10;    &lt;mxGraphModel dx=&quot;503&quot; dy=&quot;248&quot; grid=&quot;1&quot; gridSize=&quot;10&quot; guides=&quot;1&quot; tooltips=&quot;1&quot; connect=&quot;1&quot; arrows=&quot;1&quot; fold=&quot;1&quot; page=&quot;1&quot; pageScale=&quot;1&quot; pageWidth=&quot;2970&quot; pageHeight=&quot;2100&quot; background=&quot;#ffffff&quot; math=&quot;0&quot; shadow=&quot;0&quot;&gt;&#10;      &lt;root&gt;&#10;        &lt;mxCell id=&quot;0&quot; /&gt;&#10;        &lt;mxCell id=&quot;1&quot; parent=&quot;0&quot; /&gt;&#10;        &lt;mxCell id=&quot;Hdg0KMK2BAXWInw-SZbt-25&quot; value=&quot;&quot; style=&quot;group&quot; vertex=&quot;1&quot; connectable=&quot;0&quot; parent=&quot;1&quot;&gt;&#10;          &lt;mxGeometry x=&quot;530&quot; y=&quot;280&quot; width=&quot;70&quot; height=&quot;70&quot; as=&quot;geometry&quot; /&gt;&#10;        &lt;/mxCell&gt;&#10;        &lt;mxCell id=&quot;Hdg0KMK2BAXWInw-SZbt-8&quot; value=&quot;&quot; style=&quot;ellipse;shape=doubleEllipse;whiteSpace=wrap;html=1;aspect=fixed;container=0;&quot; vertex=&quot;1&quot; parent=&quot;Hdg0KMK2BAXWInw-SZbt-25&quot;&gt;&#10;          &lt;mxGeometry width=&quot;70&quot; height=&quot;70&quot; as=&quot;geometry&quot; /&gt;&#10;        &lt;/mxCell&gt;&#10;        &lt;mxCell id=&quot;Hdg0KMK2BAXWInw-SZbt-10&quot; value=&quot;&quot; style=&quot;ellipse;whiteSpace=wrap;html=1;aspect=fixed;container=0;&quot; vertex=&quot;1&quot; parent=&quot;Hdg0KMK2BAXWInw-SZbt-25&quot;&gt;&#10;          &lt;mxGeometry x=&quot;5&quot; y=&quot;5&quot; width=&quot;60&quot; height=&quot;60&quot; as=&quot;geometry&quot; /&gt;&#10;        &lt;/mxCell&gt;&#10;        &lt;mxCell id=&quot;Hdg0KMK2BAXWInw-SZbt-42&quot; value=&quot;&quot; style=&quot;sketch=0;pointerEvents=1;shadow=0;dashed=0;html=1;strokeColor=none;fillColor=#00FF00;labelPosition=center;verticalLabelPosition=bottom;verticalAlign=top;outlineConnect=0;align=center;shape=mxgraph.office.servers.topology_builder;&quot; vertex=&quot;1&quot; parent=&quot;Hdg0KMK2BAXWInw-SZbt-25&quot;&gt;&#10;          &lt;mxGeometry x=&quot;15.5&quot; y=&quot;15&quot; width=&quot;39&quot; height=&quot;40&quot; as=&quot;geometry&quot; /&gt;&#10;        &lt;/mxCell&gt;&#10;      &lt;/root&gt;&#10;    &lt;/mxGraphModel&gt;&#10;  &lt;/diagram&gt;&#10;&lt;/mxfile&gt;&#10;"><defs><style type="text/css">svg.ge-export-svg-dark:not(mjx-container &gt; svg) { filter: invert(100%) hue-rotate(180deg); }&#xa;svg.ge-export-svg-dark foreignObject img,&#xa;svg.ge-export-svg-dark image:not(svg.ge-export-svg-dark switch image),&#xa;svg.ge-export-svg-dark svg:not(mjx-container &gt; svg)&#xa;{ filter: invert(100%) hue-rotate(180deg) }</style></defs><g><g data-cell-id="0"><g data-cell-id="1"><g data-cell-id="Hdg0KMK2BAXWInw-SZbt-25"><g/><g data-cell-id="Hdg0KMK2BAXWInw-SZbt-8"><g><ellipse cx="35" cy="35" rx="35" ry="35" fill="rgb(255, 255, 255)" stroke="rgb(0, 0, 0)" pointer-events="all"/><ellipse cx="35" cy="35" rx="31" ry="31" fill="none" stroke="rgb(0, 0, 0)" pointer-events="all"/></g></g><g data-cell-id="Hdg0KMK2BAXWInw-SZbt-10"><g><ellipse cx="35" cy="35" rx="30" ry="30" fill="rgb(255, 255, 255)" stroke="rgb(0, 0, 0)" pointer-events="all"/></g></g><g data-cell-id="Hdg0KMK2BAXWInw-SZbt-42"><g><rect x="15.5" y="15" width="39" height="40" fill="none" stroke="none" pointer-events="all"/><path d="M 53.02 49.98 L 53.02 42.89 L 40.18 42.89 L 40.18 49.98 Z M 42.63 55 C 42.37 55 42.16 54.8 42.16 54.39 C 42.16 54.15 42.27 53.8 42.62 53.79 C 43.23 53.76 43.9 53.76 44.48 53.55 C 44.94 53.38 45.05 53.07 44.96 52.63 C 44.9 52.26 44.75 51.88 44.63 51.5 L 39.67 51.5 C 39.19 51.5 38.7 51.07 38.7 50.51 L 38.7 42.41 C 38.7 41.78 39.17 41.36 39.68 41.36 L 53.49 41.36 C 54.11 41.36 54.5 41.89 54.5 42.35 L 54.5 50.49 C 54.5 51.05 54.05 51.5 53.52 51.5 L 48.58 51.5 C 48.44 51.94 48.26 52.41 48.23 52.74 C 48.16 53.23 48.42 53.43 48.75 53.57 C 49.34 53.76 49.96 53.76 50.58 53.78 C 50.93 53.8 51.04 54.09 51.04 54.41 C 51.04 54.69 50.89 54.99 50.57 55 Z M 53.02 23.62 L 53.02 16.52 L 40.18 16.52 L 40.18 23.62 Z M 42.63 28.64 C 42.36 28.64 42.16 28.44 42.16 28.03 C 42.16 27.78 42.26 27.44 42.61 27.42 C 43.22 27.4 43.9 27.4 44.48 27.19 C 44.94 27.01 45.04 26.7 44.96 26.27 C 44.9 25.89 44.74 25.51 44.63 25.14 L 39.66 25.14 C 39.19 25.14 38.7 24.71 38.7 24.15 L 38.7 16.05 C 38.7 15.42 39.16 15 39.68 15 L 53.49 15 C 54.11 15 54.5 15.52 54.5 15.99 L 54.5 24.13 C 54.5 24.69 54.05 25.14 53.52 25.14 L 48.58 25.14 C 48.43 25.57 48.26 26.05 48.22 26.38 C 48.16 26.86 48.42 27.07 48.75 27.2 C 49.34 27.39 49.96 27.4 50.57 27.42 C 50.93 27.44 51.04 27.72 51.04 28.04 C 51.04 28.32 50.89 28.63 50.56 28.64 Z M 29.82 23.63 L 29.82 16.52 L 16.98 16.52 L 16.98 23.63 Z M 19.43 28.64 C 19.16 28.64 18.96 28.44 18.96 28.03 C 18.96 27.78 19.06 27.44 19.41 27.43 C 20.02 27.4 20.7 27.4 21.27 27.19 C 21.73 27.01 21.85 26.7 21.76 26.28 C 21.7 25.9 21.54 25.51 21.42 25.14 L 16.46 25.14 C 15.99 25.14 15.5 24.71 15.5 24.15 L 15.5 16.05 C 15.5 15.43 15.96 15 16.48 15 L 30.29 15 C 30.91 15 31.3 15.53 31.3 15.99 L 31.3 24.13 C 31.3 24.69 30.84 25.14 30.32 25.14 L 25.37 25.14 C 25.23 25.58 25.06 26.05 25.02 26.38 C 24.96 26.87 25.22 27.07 25.55 27.2 C 26.14 27.39 26.76 27.4 27.37 27.42 C 27.73 27.44 27.84 27.72 27.84 28.05 C 27.84 28.32 27.69 28.63 27.37 28.64 Z M 44.24 38.64 C 44.09 38.43 44.09 38.16 44.29 37.96 C 44.45 37.81 44.73 37.75 44.94 37.94 L 46.96 40.02 C 47.15 40.24 47.11 40.53 46.94 40.71 C 46.73 40.92 46.43 40.88 46.28 40.73 Z M 44.94 32.12 C 44.8 32.25 44.5 32.3 44.3 32.11 C 44.11 31.92 44.06 31.62 44.26 31.39 L 46.29 29.32 C 46.51 29.12 46.79 29.17 46.96 29.36 C 47.11 29.53 47.16 29.8 46.98 30.02 Z M 40.2 34.77 C 39.92 34.77 39.69 34.56 39.69 34.27 C 39.69 34.05 39.85 33.76 40.18 33.76 C 40.51 33.76 40.68 34.03 40.68 34.25 C 40.68 34.6 40.4 34.77 40.2 34.77 Z M 39.2 36.29 C 38.95 36.29 38.7 36.09 38.7 35.79 C 38.7 35.53 38.9 35.27 39.2 35.27 L 41.16 35.27 C 41.5 35.27 41.66 35.56 41.66 35.77 C 41.66 36.06 41.49 36.29 41.17 36.29 Z M 36.74 34.77 C 36.46 34.77 36.23 34.56 36.23 34.27 C 36.23 34.05 36.4 33.76 36.73 33.76 C 37.05 33.76 37.22 34.03 37.22 34.25 C 37.22 34.6 36.95 34.77 36.74 34.77 Z M 35.74 36.29 C 35.5 36.29 35.25 36.09 35.25 35.79 C 35.25 35.53 35.44 35.27 35.74 35.27 L 37.7 35.27 C 38.04 35.27 38.21 35.56 38.21 35.77 C 38.21 36.06 38.04 36.29 37.72 36.29 Z M 33.28 34.77 C 33.01 34.77 32.78 34.56 32.78 34.27 C 32.78 34.05 32.94 33.76 33.27 33.76 C 33.59 33.76 33.77 34.03 33.77 34.25 C 33.77 34.6 33.49 34.77 33.28 34.77 Z M 32.28 36.29 C 32.04 36.29 31.79 36.09 31.79 35.79 C 31.79 35.53 31.99 35.27 32.28 35.27 L 34.25 35.27 C 34.59 35.27 34.75 35.56 34.75 35.77 C 34.75 36.06 34.58 36.29 34.26 36.29 Z M 29.82 49.98 L 29.82 42.89 L 16.98 42.89 L 16.98 49.98 Z M 19.43 55 C 19.16 55 18.96 54.8 18.96 54.39 C 18.96 54.15 19.06 53.8 19.41 53.78 C 20.02 53.76 20.7 53.76 21.27 53.55 C 21.73 53.38 21.85 53.07 21.76 52.63 C 21.7 52.26 21.54 51.88 21.42 51.5 L 16.46 51.5 C 15.99 51.5 15.5 51.07 15.5 50.51 L 15.5 42.41 C 15.5 41.78 15.96 41.36 16.48 41.36 L 30.29 41.36 C 30.91 41.36 31.3 41.89 31.3 42.35 L 31.3 50.49 C 31.3 51.05 30.84 51.5 30.32 51.5 L 25.37 51.5 C 25.23 51.94 25.06 52.41 25.02 52.74 C 24.96 53.23 25.22 53.43 25.55 53.56 C 26.14 53.76 26.76 53.76 27.37 53.78 C 27.73 53.8 27.84 54.09 27.84 54.41 C 27.84 54.69 27.69 54.99 27.37 55 Z M 29.82 34.77 C 29.55 34.77 29.32 34.56 29.32 34.27 C 29.32 34.05 29.49 33.76 29.82 33.76 C 30.14 33.76 30.31 34.03 30.31 34.25 C 30.31 34.6 30.03 34.77 29.82 34.77 Z M 28.83 36.29 C 28.59 36.29 28.34 36.09 28.34 35.79 C 28.34 35.53 28.53 35.27 28.83 35.27 L 30.79 35.27 C 31.13 35.27 31.3 35.56 31.3 35.77 C 31.3 36.06 31.13 36.29 30.8 36.29 Z M 27.35 37.31 L 42.65 37.31 L 42.65 33.3 C 42.65 33.02 42.39 32.74 42.1 32.74 L 27.85 32.74 C 27.68 32.74 27.35 32.99 27.35 33.28 Z M 26.36 38.32 L 26.36 33.25 C 26.36 32.54 27.06 31.72 27.85 31.72 L 42.13 31.72 C 43.01 31.72 43.64 32.54 43.64 33.25 L 43.64 38.32 Z M 23.02 30.02 C 22.86 29.81 22.87 29.54 23.06 29.34 C 23.23 29.18 23.5 29.13 23.71 29.32 L 25.74 31.39 C 25.93 31.61 25.89 31.91 25.72 32.09 C 25.51 32.3 25.21 32.27 25.05 32.11 Z M 23.71 40.74 C 23.58 40.87 23.27 40.92 23.08 40.73 C 22.88 40.54 22.83 40.25 23.04 40.01 L 25.06 37.94 C 25.28 37.74 25.56 37.79 25.74 37.98 C 25.89 38.15 25.93 38.42 25.75 38.64 Z" fill="#00ff00" stroke="none" pointer-events="all"/></g></g></g></g></g></g></svg>