<?xml version="1.0" encoding="UTF-8"?>
<!-- Do not edit this file with editors other than draw.io -->
<!DOCTYPE svg PUBLIC "-//W3C//DTD SVG 1.1//EN" "http://www.w3.org/Graphics/SVG/1.1/DTD/svg11.dtd">
<svg xmlns="http://www.w3.org/2000/svg" xmlns:xlink="http://www.w3.org/1999/xlink" version="1.1" width="71px" height="71px" viewBox="-0.5 -0.5 71 71" class="ge-export-svg-dark" content="&lt;mxfile host=&quot;app.diagrams.net&quot; agent=&quot;Mozilla/5.0 (Windows NT 10.0; Win64; x64) AppleWebKit/537.36 (KHTML, like Gecko) Chrome/129.0.0.0 Safari/537.36&quot; version=&quot;24.7.16&quot; scale=&quot;1&quot; border=&quot;0&quot;&gt;&#10;  &lt;diagram name=&quot;Página-1&quot; id=&quot;cHoTVuZz9rcjcoefg9mx&quot;&gt;&#10;    &lt;mxGraphModel dx=&quot;503&quot; dy=&quot;248&quot; grid=&quot;1&quot; gridSize=&quot;10&quot; guides=&quot;1&quot; tooltips=&quot;1&quot; connect=&quot;1&quot; arrows=&quot;1&quot; fold=&quot;1&quot; page=&quot;1&quot; pageScale=&quot;1&quot; pageWidth=&quot;2970&quot; pageHeight=&quot;2100&quot; background=&quot;#ffffff&quot; math=&quot;0&quot; shadow=&quot;0&quot;&gt;&#10;      &lt;root&gt;&#10;        &lt;mxCell id=&quot;0&quot; /&gt;&#10;        &lt;mxCell id=&quot;1&quot; parent=&quot;0&quot; /&gt;&#10;        &lt;mxCell id=&quot;Hdg0KMK2BAXWInw-SZbt-25&quot; value=&quot;&quot; style=&quot;group&quot; vertex=&quot;1&quot; connectable=&quot;0&quot; parent=&quot;1&quot;&gt;&#10;          &lt;mxGeometry x=&quot;530&quot; y=&quot;280&quot; width=&quot;70&quot; height=&quot;70&quot; as=&quot;geometry&quot; /&gt;&#10;        &lt;/mxCell&gt;&#10;        &lt;mxCell id=&quot;Hdg0KMK2BAXWInw-SZbt-8&quot; value=&quot;&quot; style=&quot;ellipse;shape=doubleEllipse;whiteSpace=wrap;html=1;aspect=fixed;container=0;&quot; vertex=&quot;1&quot; parent=&quot;Hdg0KMK2BAXWInw-SZbt-25&quot;&gt;&#10;          &lt;mxGeometry width=&quot;70&quot; height=&quot;70&quot; as=&quot;geometry&quot; /&gt;&#10;        &lt;/mxCell&gt;&#10;        &lt;mxCell id=&quot;Hdg0KMK2BAXWInw-SZbt-10&quot; value=&quot;&quot; style=&quot;ellipse;whiteSpace=wrap;html=1;aspect=fixed;container=0;&quot; vertex=&quot;1&quot; parent=&quot;Hdg0KMK2BAXWInw-SZbt-25&quot;&gt;&#10;          &lt;mxGeometry x=&quot;5&quot; y=&quot;5&quot; width=&quot;60&quot; height=&quot;60&quot; as=&quot;geometry&quot; /&gt;&#10;        &lt;/mxCell&gt;&#10;        &lt;mxCell id=&quot;Hdg0KMK2BAXWInw-SZbt-31&quot; value=&quot;&quot; style=&quot;sketch=0;outlineConnect=0;fontColor=#232F3E;gradientColor=none;fillColor=#00FF00;strokeColor=none;dashed=0;verticalLabelPosition=bottom;verticalAlign=top;align=center;html=1;fontSize=12;fontStyle=0;aspect=fixed;pointerEvents=1;shape=mxgraph.aws4.network_load_balancer;&quot; vertex=&quot;1&quot; parent=&quot;Hdg0KMK2BAXWInw-SZbt-25&quot;&gt;&#10;          &lt;mxGeometry x=&quot;11&quot; y=&quot;11&quot; width=&quot;48&quot; height=&quot;48&quot; as=&quot;geometry&quot; /&gt;&#10;        &lt;/mxCell&gt;&#10;      &lt;/root&gt;&#10;    &lt;/mxGraphModel&gt;&#10;  &lt;/diagram&gt;&#10;&lt;/mxfile&gt;&#10;"><defs><style type="text/css">svg.ge-export-svg-dark:not(mjx-container &gt; svg) { filter: invert(100%) hue-rotate(180deg); }&#xa;svg.ge-export-svg-dark foreignObject img,&#xa;svg.ge-export-svg-dark image:not(svg.ge-export-svg-dark switch image),&#xa;svg.ge-export-svg-dark svg:not(mjx-container &gt; svg)&#xa;{ filter: invert(100%) hue-rotate(180deg) }</style></defs><g><g data-cell-id="0"><g data-cell-id="1"><g data-cell-id="Hdg0KMK2BAXWInw-SZbt-25"><g/><g data-cell-id="Hdg0KMK2BAXWInw-SZbt-8"><g><ellipse cx="35" cy="35" rx="35" ry="35" fill="rgb(255, 255, 255)" stroke="rgb(0, 0, 0)" pointer-events="all"/><ellipse cx="35" cy="35" rx="31" ry="31" fill="none" stroke="rgb(0, 0, 0)" pointer-events="all"/></g></g><g data-cell-id="Hdg0KMK2BAXWInw-SZbt-10"><g><ellipse cx="35" cy="35" rx="30" ry="30" fill="rgb(255, 255, 255)" stroke="rgb(0, 0, 0)" pointer-events="all"/></g></g><g data-cell-id="Hdg0KMK2BAXWInw-SZbt-31"><g><rect x="11" y="11" width="48" height="48" fill="none" stroke="none" pointer-events="all"/><path d="M 48.36 31.05 L 42.64 31.05 C 42.03 31.05 41.55 31.53 41.55 32.14 L 41.55 37.86 C 41.55 38.47 42.03 38.95 42.64 38.95 L 48.36 38.95 C 48.97 38.95 49.45 38.47 49.45 37.86 L 49.45 32.14 C 49.45 31.53 48.97 31.05 48.36 31.05 Z M 43.73 36.77 L 43.73 33.23 L 47.27 33.23 L 47.27 36.77 Z M 40.06 44.98 C 40.22 45.56 39.87 46.16 39.29 46.32 L 34.91 47.51 L 34.34 45.4 L 36.05 44.94 L 28.09 40.74 L 29.11 38.81 L 37.3 43.13 L 36.77 41.16 L 38.87 40.59 Z M 26.31 29.17 L 16.83 29.17 C 16.23 29.17 15.74 29.66 15.74 30.26 L 15.74 39.74 C 15.74 40.34 16.23 40.83 16.83 40.83 L 26.31 40.83 C 26.91 40.83 27.4 40.34 27.4 39.74 L 27.4 30.26 C 27.4 29.66 26.91 29.17 26.31 29.17 Z M 17.92 38.65 L 17.92 31.35 L 25.22 31.35 L 25.22 38.65 Z M 48.36 20.55 L 42.64 20.55 C 42.03 20.55 41.55 21.03 41.55 21.64 L 41.55 27.36 C 41.55 27.97 42.03 28.45 42.64 28.45 L 48.36 28.45 C 48.97 28.45 49.45 27.97 49.45 27.36 L 49.45 21.64 C 49.45 21.03 48.97 20.55 48.36 20.55 Z M 43.73 26.27 L 43.73 22.73 L 47.27 22.73 L 47.27 26.27 Z M 28.09 29.26 L 36.05 25.06 L 34.34 24.6 L 34.91 22.49 L 39.29 23.68 C 39.87 23.84 40.22 24.44 40.06 25.02 L 38.87 29.41 L 36.77 28.84 L 37.3 26.87 L 29.11 31.19 Z M 48.36 41.55 L 42.64 41.55 C 42.03 41.55 41.55 42.03 41.55 42.64 L 41.55 48.36 C 41.55 48.97 42.03 49.45 42.64 49.45 L 48.36 49.45 C 48.97 49.45 49.45 48.97 49.45 48.36 L 49.45 42.64 C 49.45 42.03 48.97 41.55 48.36 41.55 Z M 43.73 47.27 L 43.73 43.73 L 47.27 43.73 L 47.27 47.27 Z M 40.54 34.23 C 40.97 34.65 40.97 35.34 40.54 35.77 L 37.33 38.98 L 35.79 37.44 L 37.14 36.09 L 29.27 36.09 L 29.27 33.91 L 37.14 33.91 L 35.79 32.56 L 37.33 31.01 Z M 35 11 C 21.77 11 11 21.77 11 35 C 11 48.23 21.77 59 35 59 C 48.23 59 59 48.23 59 35 C 59 21.77 48.23 11 35 11 Z M 35 56.82 C 22.97 56.82 13.18 47.03 13.18 35 C 13.18 22.97 22.97 13.18 35 13.18 C 47.03 13.18 56.82 22.97 56.82 35 C 56.82 47.03 47.03 56.82 35 56.82 Z" fill="#00ff00" stroke="none" pointer-events="all"/></g></g></g></g></g></g></svg>