<?xml version="1.0" encoding="UTF-8"?>
<!-- Do not edit this file with editors other than draw.io -->
<!DOCTYPE svg PUBLIC "-//W3C//DTD SVG 1.1//EN" "http://www.w3.org/Graphics/SVG/1.1/DTD/svg11.dtd">
<svg xmlns="http://www.w3.org/2000/svg" xmlns:xlink="http://www.w3.org/1999/xlink" version="1.1" width="71px" height="71px" viewBox="-0.5 -0.5 71 71" class="ge-export-svg-dark" content="&lt;mxfile host=&quot;app.diagrams.net&quot; agent=&quot;Mozilla/5.0 (Windows NT 10.0; Win64; x64) AppleWebKit/537.36 (KHTML, like Gecko) Chrome/129.0.0.0 Safari/537.36&quot; version=&quot;24.7.16&quot; scale=&quot;1&quot; border=&quot;0&quot;&gt;&#10;  &lt;diagram name=&quot;Página-1&quot; id=&quot;cHoTVuZz9rcjcoefg9mx&quot;&gt;&#10;    &lt;mxGraphModel dx=&quot;503&quot; dy=&quot;248&quot; grid=&quot;1&quot; gridSize=&quot;10&quot; guides=&quot;1&quot; tooltips=&quot;1&quot; connect=&quot;1&quot; arrows=&quot;1&quot; fold=&quot;1&quot; page=&quot;1&quot; pageScale=&quot;1&quot; pageWidth=&quot;2970&quot; pageHeight=&quot;2100&quot; background=&quot;#ffffff&quot; math=&quot;0&quot; shadow=&quot;0&quot;&gt;&#10;      &lt;root&gt;&#10;        &lt;mxCell id=&quot;0&quot; /&gt;&#10;        &lt;mxCell id=&quot;1&quot; parent=&quot;0&quot; /&gt;&#10;        &lt;mxCell id=&quot;Hdg0KMK2BAXWInw-SZbt-25&quot; value=&quot;&quot; style=&quot;group&quot; vertex=&quot;1&quot; connectable=&quot;0&quot; parent=&quot;1&quot;&gt;&#10;          &lt;mxGeometry x=&quot;530&quot; y=&quot;280&quot; width=&quot;70&quot; height=&quot;70&quot; as=&quot;geometry&quot; /&gt;&#10;        &lt;/mxCell&gt;&#10;        &lt;mxCell id=&quot;Hdg0KMK2BAXWInw-SZbt-8&quot; value=&quot;&quot; style=&quot;ellipse;shape=doubleEllipse;whiteSpace=wrap;html=1;aspect=fixed;container=0;&quot; vertex=&quot;1&quot; parent=&quot;Hdg0KMK2BAXWInw-SZbt-25&quot;&gt;&#10;          &lt;mxGeometry width=&quot;70&quot; height=&quot;70&quot; as=&quot;geometry&quot; /&gt;&#10;        &lt;/mxCell&gt;&#10;        &lt;mxCell id=&quot;Hdg0KMK2BAXWInw-SZbt-10&quot; value=&quot;&quot; style=&quot;ellipse;whiteSpace=wrap;html=1;aspect=fixed;container=0;&quot; vertex=&quot;1&quot; parent=&quot;Hdg0KMK2BAXWInw-SZbt-25&quot;&gt;&#10;          &lt;mxGeometry x=&quot;5&quot; y=&quot;5&quot; width=&quot;60&quot; height=&quot;60&quot; as=&quot;geometry&quot; /&gt;&#10;        &lt;/mxCell&gt;&#10;        &lt;mxCell id=&quot;Hdg0KMK2BAXWInw-SZbt-35&quot; value=&quot;&quot; style=&quot;sketch=0;outlineConnect=0;fontColor=#232F3E;gradientColor=none;fillColor=#00FF00;strokeColor=none;dashed=0;verticalLabelPosition=bottom;verticalAlign=top;align=center;html=1;fontSize=12;fontStyle=0;aspect=fixed;pointerEvents=1;shape=mxgraph.aws4.route_53_resolver;&quot; vertex=&quot;1&quot; parent=&quot;Hdg0KMK2BAXWInw-SZbt-25&quot;&gt;&#10;          &lt;mxGeometry x=&quot;13&quot; y=&quot;13&quot; width=&quot;44&quot; height=&quot;44&quot; as=&quot;geometry&quot; /&gt;&#10;        &lt;/mxCell&gt;&#10;      &lt;/root&gt;&#10;    &lt;/mxGraphModel&gt;&#10;  &lt;/diagram&gt;&#10;&lt;/mxfile&gt;&#10;"><defs><style type="text/css">svg.ge-export-svg-dark:not(mjx-container &gt; svg) { filter: invert(100%) hue-rotate(180deg); }&#xa;svg.ge-export-svg-dark foreignObject img,&#xa;svg.ge-export-svg-dark image:not(svg.ge-export-svg-dark switch image),&#xa;svg.ge-export-svg-dark svg:not(mjx-container &gt; svg)&#xa;{ filter: invert(100%) hue-rotate(180deg) }</style></defs><g><g data-cell-id="0"><g data-cell-id="1"><g data-cell-id="Hdg0KMK2BAXWInw-SZbt-25"><g/><g data-cell-id="Hdg0KMK2BAXWInw-SZbt-8"><g><ellipse cx="35" cy="35" rx="35" ry="35" fill="rgb(255, 255, 255)" stroke="rgb(0, 0, 0)" pointer-events="all"/><ellipse cx="35" cy="35" rx="31" ry="31" fill="none" stroke="rgb(0, 0, 0)" pointer-events="all"/></g></g><g data-cell-id="Hdg0KMK2BAXWInw-SZbt-10"><g><ellipse cx="35" cy="35" rx="30" ry="30" fill="rgb(255, 255, 255)" stroke="rgb(0, 0, 0)" pointer-events="all"/></g></g><g data-cell-id="Hdg0KMK2BAXWInw-SZbt-35"><g><rect x="13" y="13" width="44" height="44" fill="none" stroke="none" pointer-events="all"/><path d="M 43.99 43.02 C 42.33 43.02 40.99 41.68 40.99 40.02 C 40.99 38.37 42.33 37.02 43.99 37.02 C 45.64 37.02 46.99 38.37 46.99 40.02 C 46.99 41.68 45.64 43.02 43.99 43.02 M 31.98 28.02 C 31.98 26.36 33.33 25.02 34.99 25.02 C 36.64 25.02 37.99 26.36 37.99 28.02 C 37.99 29.67 36.64 31.02 34.99 31.02 C 33.33 31.02 31.98 29.67 31.98 28.02 M 25.98 43.02 C 24.33 43.02 22.98 41.68 22.98 40.02 C 22.98 38.37 24.33 37.02 25.98 37.02 C 27.64 37.02 28.98 38.37 28.98 40.02 C 28.98 41.68 27.64 43.02 25.98 43.02 M 43.99 35.02 C 43.24 35.02 42.54 35.2 41.9 35.49 L 38.73 31.3 C 39.5 30.42 39.99 29.28 39.99 28.02 C 39.99 25.26 37.74 23.02 34.99 23.02 C 32.23 23.02 29.98 25.26 29.98 28.02 C 29.98 29.21 30.42 30.29 31.12 31.15 L 27.9 35.41 C 27.31 35.16 26.66 35.02 25.98 35.02 C 23.22 35.02 20.98 37.26 20.98 40.02 C 20.98 42.78 23.22 45.02 25.98 45.02 C 28.74 45.02 30.98 42.78 30.98 40.02 C 30.98 38.66 30.44 37.44 29.56 36.53 L 32.67 32.42 C 33.37 32.79 34.15 33.02 34.99 33.02 C 35.76 33.02 36.48 32.83 37.13 32.52 L 40.29 36.68 C 39.49 37.57 38.99 38.73 38.99 40.02 C 38.99 42.78 41.23 45.02 43.99 45.02 C 46.75 45.02 48.99 42.78 48.99 40.02 C 48.99 37.26 46.75 35.02 43.99 35.02 M 45.07 50.46 C 40.4 51.3 36.47 53.76 35 54.77 C 33.53 53.76 29.6 51.3 24.93 50.46 C 22.6 50.04 15 48.18 15 41.83 C 15 39.18 16.01 37.45 17.07 35.62 C 18.07 33.9 19.1 32.12 19.1 29.69 C 19.1 26.02 17.07 23.39 15.94 22.2 C 17.1 20.8 19.64 17.7 21.03 15.92 C 23.15 17.85 25.6 18.9 28.02 18.9 C 30.73 18.9 32.97 17.84 35 15.57 C 37.03 17.84 39.27 18.9 41.98 18.9 C 44.4 18.9 46.85 17.85 48.97 15.92 C 50.36 17.7 52.9 20.8 54.06 22.2 C 52.93 23.39 50.9 26.02 50.9 29.69 C 50.9 32.12 51.93 33.9 52.93 35.62 C 53.99 37.45 55 39.18 55 41.83 C 55 48.18 47.4 50.04 45.07 50.46 M 54.66 34.61 C 53.72 32.99 52.9 31.58 52.9 29.69 C 52.9 25.69 56.02 23.09 56.05 23.07 C 56.26 22.9 56.39 22.65 56.42 22.39 C 56.44 22.12 56.36 21.86 56.19 21.65 C 56.14 21.59 51.05 15.41 49.89 13.82 C 49.71 13.58 49.44 13.43 49.14 13.41 C 48.86 13.39 48.55 13.51 48.35 13.72 C 46.43 15.78 44.17 16.9 41.98 16.9 C 39.56 16.9 37.65 15.82 35.8 13.39 C 35.61 13.15 35.31 13 35 13 C 34.69 13 34.4 13.15 34.21 13.39 C 32.35 15.82 30.44 16.9 28.02 16.9 C 25.83 16.9 23.57 15.78 21.65 13.72 C 21.45 13.51 21.14 13.39 20.86 13.41 C 20.56 13.43 20.29 13.58 20.12 13.82 C 18.95 15.41 13.86 21.59 13.81 21.65 C 13.64 21.85 13.56 22.12 13.58 22.38 C 13.61 22.65 13.74 22.89 13.95 23.06 C 13.98 23.09 17.1 25.69 17.1 29.69 C 17.1 31.58 16.28 32.99 15.34 34.61 C 14.24 36.5 13 38.64 13 41.83 C 13 47.17 17.33 51.13 24.58 52.43 C 29.9 53.38 34.35 56.76 34.39 56.79 C 34.57 56.93 34.79 57 35 57 C 35.22 57 35.43 56.93 35.61 56.79 C 35.65 56.76 40.11 53.38 45.42 52.43 C 52.67 51.13 57 47.17 57 41.83 C 57 38.64 55.76 36.5 54.66 34.61" fill="#00ff00" stroke="none" pointer-events="all"/></g></g></g></g></g></g></svg>