<?xml version="1.0" encoding="UTF-8"?>
<!-- Do not edit this file with editors other than draw.io -->
<!DOCTYPE svg PUBLIC "-//W3C//DTD SVG 1.1//EN" "http://www.w3.org/Graphics/SVG/1.1/DTD/svg11.dtd">
<svg xmlns="http://www.w3.org/2000/svg" xmlns:xlink="http://www.w3.org/1999/xlink" version="1.1" width="71px" height="71px" viewBox="-0.5 -0.5 71 71" class="ge-export-svg-dark" content="&lt;mxfile host=&quot;app.diagrams.net&quot; agent=&quot;Mozilla/5.0 (Windows NT 10.0; Win64; x64) AppleWebKit/537.36 (KHTML, like Gecko) Chrome/129.0.0.0 Safari/537.36&quot; version=&quot;24.7.16&quot; scale=&quot;1&quot; border=&quot;0&quot;&gt;&#10;  &lt;diagram name=&quot;Página-1&quot; id=&quot;cHoTVuZz9rcjcoefg9mx&quot;&gt;&#10;    &lt;mxGraphModel dx=&quot;503&quot; dy=&quot;248&quot; grid=&quot;1&quot; gridSize=&quot;10&quot; guides=&quot;1&quot; tooltips=&quot;1&quot; connect=&quot;1&quot; arrows=&quot;1&quot; fold=&quot;1&quot; page=&quot;1&quot; pageScale=&quot;1&quot; pageWidth=&quot;2970&quot; pageHeight=&quot;2100&quot; background=&quot;#ffffff&quot; math=&quot;0&quot; shadow=&quot;0&quot;&gt;&#10;      &lt;root&gt;&#10;        &lt;mxCell id=&quot;0&quot; /&gt;&#10;        &lt;mxCell id=&quot;1&quot; parent=&quot;0&quot; /&gt;&#10;        &lt;mxCell id=&quot;Hdg0KMK2BAXWInw-SZbt-25&quot; value=&quot;&quot; style=&quot;group&quot; vertex=&quot;1&quot; connectable=&quot;0&quot; parent=&quot;1&quot;&gt;&#10;          &lt;mxGeometry x=&quot;530&quot; y=&quot;280&quot; width=&quot;70&quot; height=&quot;70&quot; as=&quot;geometry&quot; /&gt;&#10;        &lt;/mxCell&gt;&#10;        &lt;mxCell id=&quot;Hdg0KMK2BAXWInw-SZbt-8&quot; value=&quot;&quot; style=&quot;ellipse;shape=doubleEllipse;whiteSpace=wrap;html=1;aspect=fixed;container=0;&quot; vertex=&quot;1&quot; parent=&quot;Hdg0KMK2BAXWInw-SZbt-25&quot;&gt;&#10;          &lt;mxGeometry width=&quot;70&quot; height=&quot;70&quot; as=&quot;geometry&quot; /&gt;&#10;        &lt;/mxCell&gt;&#10;        &lt;mxCell id=&quot;Hdg0KMK2BAXWInw-SZbt-10&quot; value=&quot;&quot; style=&quot;ellipse;whiteSpace=wrap;html=1;aspect=fixed;container=0;&quot; vertex=&quot;1&quot; parent=&quot;Hdg0KMK2BAXWInw-SZbt-25&quot;&gt;&#10;          &lt;mxGeometry x=&quot;5&quot; y=&quot;5&quot; width=&quot;60&quot; height=&quot;60&quot; as=&quot;geometry&quot; /&gt;&#10;        &lt;/mxCell&gt;&#10;        &lt;mxCell id=&quot;Hdg0KMK2BAXWInw-SZbt-33&quot; value=&quot;&quot; style=&quot;sketch=0;outlineConnect=0;fontColor=#232F3E;gradientColor=none;fillColor=#00FF00;strokeColor=none;dashed=0;verticalLabelPosition=bottom;verticalAlign=top;align=center;html=1;fontSize=12;fontStyle=0;aspect=fixed;pointerEvents=1;shape=mxgraph.aws4.fleet_management;&quot; vertex=&quot;1&quot; parent=&quot;Hdg0KMK2BAXWInw-SZbt-25&quot;&gt;&#10;          &lt;mxGeometry x=&quot;11&quot; y=&quot;11&quot; width=&quot;48&quot; height=&quot;48&quot; as=&quot;geometry&quot; /&gt;&#10;        &lt;/mxCell&gt;&#10;      &lt;/root&gt;&#10;    &lt;/mxGraphModel&gt;&#10;  &lt;/diagram&gt;&#10;&lt;/mxfile&gt;&#10;"><defs><style type="text/css">svg.ge-export-svg-dark:not(mjx-container &gt; svg) { filter: invert(100%) hue-rotate(180deg); }&#xa;svg.ge-export-svg-dark foreignObject img,&#xa;svg.ge-export-svg-dark image:not(svg.ge-export-svg-dark switch image),&#xa;svg.ge-export-svg-dark svg:not(mjx-container &gt; svg)&#xa;{ filter: invert(100%) hue-rotate(180deg) }</style></defs><g><g data-cell-id="0"><g data-cell-id="1"><g data-cell-id="Hdg0KMK2BAXWInw-SZbt-25"><g/><g data-cell-id="Hdg0KMK2BAXWInw-SZbt-8"><g><ellipse cx="35" cy="35" rx="35" ry="35" fill="rgb(255, 255, 255)" stroke="rgb(0, 0, 0)" pointer-events="all"/><ellipse cx="35" cy="35" rx="31" ry="31" fill="none" stroke="rgb(0, 0, 0)" pointer-events="all"/></g></g><g data-cell-id="Hdg0KMK2BAXWInw-SZbt-10"><g><ellipse cx="35" cy="35" rx="30" ry="30" fill="rgb(255, 255, 255)" stroke="rgb(0, 0, 0)" pointer-events="all"/></g></g><g data-cell-id="Hdg0KMK2BAXWInw-SZbt-33"><g><rect x="11" y="11" width="48" height="48" fill="none" stroke="none" pointer-events="all"/><path d="M 44.44 31.53 C 44.1 30.39 43.7 29.32 43.23 28.42 C 44.82 28.81 46.29 29.53 47.57 30.53 C 46.95 30.9 46.11 31.26 45.06 31.44 C 44.86 31.47 44.64 31.5 44.44 31.53 M 43.53 38.3 L 37.29 38.3 C 37.39 36.86 37.63 35.3 37.96 33.85 C 38.78 33.91 39.64 33.95 40.52 33.95 C 41.32 33.95 42.08 33.92 42.82 33.87 C 43.17 35.32 43.43 36.87 43.53 38.3 M 52.95 38.77 C 53.35 38.77 53.67 39.09 53.67 39.49 C 53.67 39.88 53.35 40.21 52.95 40.21 C 52.56 40.21 52.24 39.88 52.24 39.49 C 52.24 39.09 52.56 38.77 52.95 38.77 M 42.88 45.01 C 42.13 44.96 41.34 44.93 40.52 44.93 C 39.62 44.93 38.75 44.97 37.92 45.04 C 37.59 43.53 37.34 41.94 37.27 40.47 L 43.56 40.47 C 43.49 41.91 43.23 43.51 42.88 45.01 M 45.06 47.44 C 46.19 47.64 47.09 48.03 47.72 48.44 C 46.41 49.5 44.88 50.25 43.24 50.66 C 43.73 49.71 44.15 48.56 44.5 47.36 C 44.68 47.39 44.88 47.41 45.06 47.44 M 40.37 50.97 C 39.82 50.83 39.09 49.26 38.47 47.17 C 39.13 47.12 39.81 47.09 40.52 47.09 C 41.13 47.09 41.73 47.12 42.31 47.15 C 41.67 49.25 40.92 50.83 40.37 50.97 M 35.25 47.58 C 35.58 47.51 35.93 47.45 36.29 47.4 C 36.61 48.56 37 49.67 37.47 50.59 C 35.92 50.17 34.49 49.42 33.25 48.41 C 33.74 48.08 34.39 47.77 35.25 47.58 M 28 40.21 C 27.6 40.21 27.28 39.88 27.28 39.49 C 27.28 39.09 27.6 38.77 28 38.77 C 28.4 38.77 28.72 39.09 28.72 39.49 C 28.72 39.88 28.4 40.21 28 40.21 M 35.25 31.3 C 34.47 31.13 33.86 30.86 33.38 30.57 C 34.59 29.61 35.98 28.9 37.47 28.48 C 37.03 29.36 36.65 30.4 36.34 31.49 C 35.96 31.44 35.6 31.37 35.25 31.3 M 40.33 28.09 C 40.88 28.24 41.61 29.73 42.24 31.74 C 41.68 31.77 41.11 31.79 40.52 31.79 C 39.83 31.79 39.17 31.76 38.52 31.72 C 39.12 29.72 39.82 28.24 40.33 28.09 M 49.19 32.06 C 49.85 32.82 50.42 33.66 50.87 34.58 L 52.82 33.65 C 50.56 28.94 45.73 25.89 40.5 25.89 C 35.29 25.89 30.46 28.93 28.2 33.63 L 30.15 34.57 C 30.59 33.66 31.15 32.84 31.78 32.1 C 32.6 32.7 33.64 33.17 34.8 33.42 C 35.12 33.48 35.47 33.54 35.82 33.6 C 35.45 35.33 35.23 37.02 35.13 38.3 L 30.62 38.3 C 30.17 37.31 29.16 36.61 28 36.61 C 26.41 36.61 25.12 37.9 25.12 39.49 C 25.12 41.08 26.41 42.37 28 42.37 C 29.24 42.37 30.3 41.57 30.7 40.47 L 35.11 40.47 C 35.19 41.74 35.4 43.48 35.78 45.29 C 35.44 45.34 35.11 45.4 34.8 45.47 C 33.59 45.73 32.51 46.22 31.69 46.86 C 31.06 46.1 30.5 45.27 30.08 44.35 L 28.11 45.26 C 30.34 50.07 35.2 53.18 40.5 53.18 C 45.77 53.18 50.61 50.11 52.85 45.35 L 50.9 44.43 C 50.47 45.33 49.92 46.15 49.29 46.9 C 48.27 46.14 46.92 45.56 45.42 45.31 C 45.29 45.29 45.16 45.27 45.03 45.25 C 45.41 43.45 45.64 41.71 45.72 40.47 L 50.25 40.47 C 50.66 41.57 51.71 42.37 52.95 42.37 C 54.54 42.37 55.83 41.08 55.83 39.49 C 55.83 37.9 54.54 36.61 52.95 36.61 C 51.79 36.61 50.78 37.31 50.33 38.3 L 45.69 38.3 C 45.59 37.03 45.35 35.35 44.97 33.63 C 45.12 33.61 45.28 33.6 45.42 33.57 C 46.87 33.33 48.19 32.78 49.19 32.06 M 40.46 56.83 C 40.07 56.83 39.75 56.51 39.75 56.12 C 39.75 55.72 40.07 55.4 40.46 55.4 C 40.86 55.4 41.18 55.72 41.18 56.12 C 41.18 56.51 40.86 56.83 40.46 56.83 M 40.46 53.24 C 39.36 53.24 38.4 53.87 37.92 54.79 C 30.46 53.57 24.91 47.11 24.91 39.47 C 24.91 34.47 27.34 29.74 31.41 26.82 L 30.15 25.06 C 25.51 28.38 22.74 33.77 22.74 39.47 C 22.74 48.22 29.14 55.62 37.72 56.95 C 38.07 58.13 39.16 59 40.46 59 C 42.05 59 43.34 57.71 43.34 56.12 C 43.34 54.53 42.05 53.24 40.46 53.24 M 15.73 45.12 C 15.73 45.02 15.81 44.94 15.91 44.94 C 16.01 44.94 16.1 45.02 16.1 45.12 C 16.1 45.32 15.73 45.32 15.73 45.12 M 15.91 43.31 C 14.92 43.31 14.11 44.12 14.11 45.12 C 14.11 46.11 14.92 46.93 15.91 46.93 C 16.91 46.93 17.72 46.11 17.72 45.12 C 17.72 44.12 16.91 43.31 15.91 43.31 M 15.89 14.93 C 15.99 14.93 16.07 15.01 16.07 15.11 C 16.07 15.31 15.7 15.31 15.7 15.11 C 15.7 15.01 15.79 14.93 15.89 14.93 M 15.89 16.92 C 16.88 16.92 17.69 16.11 17.69 15.11 C 17.69 14.11 16.88 13.3 15.89 13.3 C 14.89 13.3 14.08 14.11 14.08 15.11 C 14.08 16.11 14.89 16.92 15.89 16.92 M 25.45 25 C 25.45 25.2 25.08 25.2 25.08 25 C 25.08 24.89 25.16 24.81 25.26 24.81 C 25.36 24.81 25.45 24.89 25.45 25 M 23.46 25 C 23.46 25.99 24.27 26.8 25.26 26.8 C 26.26 26.8 27.07 25.99 27.07 25 C 27.07 24 26.26 23.19 25.26 23.19 C 24.27 23.19 23.46 24 23.46 25 M 34.75 14.91 C 34.85 14.91 34.93 14.99 34.93 15.1 C 34.93 15.3 34.56 15.3 34.56 15.1 C 34.56 14.99 34.65 14.91 34.75 14.91 M 34.75 16.9 C 35.74 16.9 36.55 16.09 36.55 15.1 C 36.55 14.1 35.74 13.29 34.75 13.29 C 33.75 13.29 32.94 14.1 32.94 15.1 C 32.94 16.09 33.75 16.9 34.75 16.9 M 44.56 13.94 C 45.2 13.94 45.72 14.46 45.72 15.09 C 45.72 15.73 45.2 16.25 44.56 16.25 C 43.92 16.25 43.41 15.73 43.41 15.09 C 43.41 14.46 43.92 13.94 44.56 13.94 M 44.56 18.41 C 46.39 18.41 47.88 16.92 47.88 15.09 C 47.88 13.26 46.39 11.77 44.56 11.77 C 42.73 11.77 41.24 13.26 41.24 15.09 C 41.24 16.92 42.73 18.41 44.56 18.41 M 15.66 35.97 C 15.03 35.97 14.51 35.45 14.51 34.82 C 14.51 34.18 15.03 33.66 15.66 33.66 C 16.3 33.66 16.82 34.18 16.82 34.82 C 16.82 35.45 16.3 35.97 15.66 35.97 M 15.66 31.5 C 13.83 31.5 12.34 32.99 12.34 34.82 C 12.34 36.65 13.83 38.14 15.66 38.14 C 17.49 38.14 18.98 36.65 18.98 34.82 C 18.98 32.99 17.49 31.5 15.66 31.5 M 22.99 15.07 C 22.99 14.02 23.85 13.17 24.9 13.17 C 25.95 13.17 26.81 14.02 26.81 15.07 C 26.81 16.12 25.95 16.98 24.9 16.98 C 23.85 16.98 22.99 16.12 22.99 15.07 M 28.97 15.07 C 28.97 12.83 27.15 11 24.9 11 C 22.66 11 20.83 12.83 20.83 15.07 C 20.83 17.32 22.66 19.15 24.9 19.15 C 27.15 19.15 28.97 17.32 28.97 15.07 M 15.92 26.07 C 14.87 26.07 14.01 25.21 14.01 24.16 C 14.01 23.11 14.87 22.25 15.92 22.25 C 16.97 22.25 17.83 23.11 17.83 24.16 C 17.83 25.21 16.97 26.07 15.92 26.07 M 15.92 20.09 C 13.67 20.09 11.85 21.91 11.85 24.16 C 11.85 26.4 13.67 28.23 15.92 28.23 C 18.16 28.23 19.99 26.4 19.99 24.16 C 19.99 21.91 18.16 20.09 15.92 20.09 M 40.46 23.58 C 40.07 23.58 39.75 23.25 39.75 22.86 C 39.75 22.46 40.07 22.14 40.46 22.14 C 40.86 22.14 41.18 22.46 41.18 22.86 C 41.18 23.25 40.86 23.58 40.46 23.58 M 43.2 21.99 C 42.82 20.83 41.75 19.98 40.46 19.98 C 38.87 19.98 37.58 21.27 37.58 22.86 C 37.58 24.45 38.87 25.74 40.46 25.74 C 41.59 25.74 42.55 25.09 43.03 24.15 C 50.49 25.38 55.99 31.76 55.99 39.47 C 55.99 44.45 53.57 49.17 49.52 52.08 L 50.79 53.84 C 55.4 50.52 58.15 45.14 58.15 39.47 C 58.15 30.63 51.8 23.32 43.2 21.99" fill="#00ff00" stroke="none" pointer-events="all"/></g></g></g></g></g></g></svg>