<?xml version="1.0" encoding="UTF-8"?>
<!-- Do not edit this file with editors other than draw.io -->
<!DOCTYPE svg PUBLIC "-//W3C//DTD SVG 1.1//EN" "http://www.w3.org/Graphics/SVG/1.1/DTD/svg11.dtd">
<svg xmlns="http://www.w3.org/2000/svg" xmlns:xlink="http://www.w3.org/1999/xlink" version="1.1" width="66px" height="48px" viewBox="-0.5 -0.5 66 48" class="ge-export-svg-dark" content="&lt;mxfile host=&quot;app.diagrams.net&quot; agent=&quot;Mozilla/5.0 (Windows NT 10.0; Win64; x64) AppleWebKit/537.36 (KHTML, like Gecko) Chrome/129.0.0.0 Safari/537.36&quot; version=&quot;24.7.16&quot; scale=&quot;1&quot; border=&quot;0&quot;&gt;&#10;  &lt;diagram name=&quot;Página-1&quot; id=&quot;xU4MIKBfJ6ytyR_JvX0-&quot;&gt;&#10;    &lt;mxGraphModel dx=&quot;880&quot; dy=&quot;434&quot; grid=&quot;1&quot; gridSize=&quot;10&quot; guides=&quot;1&quot; tooltips=&quot;1&quot; connect=&quot;1&quot; arrows=&quot;1&quot; fold=&quot;1&quot; page=&quot;1&quot; pageScale=&quot;1&quot; pageWidth=&quot;2970&quot; pageHeight=&quot;2100&quot; math=&quot;0&quot; shadow=&quot;0&quot;&gt;&#10;      &lt;root&gt;&#10;        &lt;mxCell id=&quot;0&quot; /&gt;&#10;        &lt;mxCell id=&quot;1&quot; parent=&quot;0&quot; /&gt;&#10;        &lt;mxCell id=&quot;kIsEK8atTIuYEhtU_ls3-35&quot; value=&quot;&quot; style=&quot;dashed=0;outlineConnect=0;html=1;align=center;labelPosition=center;verticalLabelPosition=bottom;verticalAlign=top;shape=mxgraph.weblogos.gmail&quot; vertex=&quot;1&quot; parent=&quot;1&quot;&gt;&#10;          &lt;mxGeometry x=&quot;420&quot; y=&quot;680&quot; width=&quot;64.8&quot; height=&quot;46.800000000000004&quot; as=&quot;geometry&quot; /&gt;&#10;        &lt;/mxCell&gt;&#10;      &lt;/root&gt;&#10;    &lt;/mxGraphModel&gt;&#10;  &lt;/diagram&gt;&#10;&lt;/mxfile&gt;&#10;"><defs><style type="text/css">svg.ge-export-svg-dark:not(mjx-container &gt; svg) { filter: invert(100%) hue-rotate(180deg); }&#xa;svg.ge-export-svg-dark foreignObject img,&#xa;svg.ge-export-svg-dark image:not(svg.ge-export-svg-dark switch image),&#xa;svg.ge-export-svg-dark svg:not(mjx-container &gt; svg)&#xa;{ filter: invert(100%) hue-rotate(180deg) }</style></defs><g><g data-cell-id="0"><g data-cell-id="1"><g data-cell-id="kIsEK8atTIuYEhtU_ls3-35"><g><path d="M 5.51 46.76 L 4.55 0 L 61.53 0.05 L 62.25 46.8 Z" fill="#fffef9" stroke="none" pointer-events="all"/><path d="M 7.16 45.65 L 60.66 9.42 L 62.25 46.8 L 57.63 46.8 L 32.44 29.88 L 7.8 46.74 L 7.17 46.77 Z" fill="#ccccbe" stroke="none" pointer-events="all"/><path d="M 7.17 46.77 L 2.89 46.76 C 1.39 46.76 0 45.52 0 43.88 L 0.03 3.06 C 0.03 1.37 1.44 0.06 2.78 0.06 L 4.72 0 L 32.4 19.9 L 57.93 1.68 L 58.02 11.61 L 32.44 29.88 L 7.16 11.75 Z" fill="#ed4335" stroke="none" pointer-events="all"/><path d="M 57.63 46.8 L 57.6 1.9 L 60.41 0.04 L 62.22 0.09 C 63.44 0.09 64.8 1.33 64.8 2.95 L 64.8 43.69 C 64.8 45.85 63.06 46.8 62.25 46.8 Z" fill="#a6332a" stroke="none" pointer-events="all"/></g></g></g></g></g></svg>