<?xml version="1.0" encoding="UTF-8"?>
<!-- Do not edit this file with editors other than draw.io -->
<!DOCTYPE svg PUBLIC "-//W3C//DTD SVG 1.1//EN" "http://www.w3.org/Graphics/SVG/1.1/DTD/svg11.dtd">
<svg xmlns="http://www.w3.org/2000/svg" xmlns:xlink="http://www.w3.org/1999/xlink" version="1.1" width="104px" height="104px" viewBox="-0.5 -0.5 104 104" class="ge-export-svg-dark" content="&lt;mxfile host=&quot;app.diagrams.net&quot; agent=&quot;Mozilla/5.0 (Windows NT 10.0; Win64; x64) AppleWebKit/537.36 (KHTML, like Gecko) Chrome/129.0.0.0 Safari/537.36&quot; version=&quot;24.7.16&quot; scale=&quot;1&quot; border=&quot;0&quot;&gt;&#10;  &lt;diagram name=&quot;Página-1&quot; id=&quot;xU4MIKBfJ6ytyR_JvX0-&quot;&gt;&#10;    &lt;mxGraphModel dx=&quot;880&quot; dy=&quot;434&quot; grid=&quot;1&quot; gridSize=&quot;10&quot; guides=&quot;1&quot; tooltips=&quot;1&quot; connect=&quot;1&quot; arrows=&quot;1&quot; fold=&quot;1&quot; page=&quot;1&quot; pageScale=&quot;1&quot; pageWidth=&quot;2970&quot; pageHeight=&quot;2100&quot; math=&quot;0&quot; shadow=&quot;0&quot;&gt;&#10;      &lt;root&gt;&#10;        &lt;mxCell id=&quot;0&quot; /&gt;&#10;        &lt;mxCell id=&quot;1&quot; parent=&quot;0&quot; /&gt;&#10;        &lt;mxCell id=&quot;kIsEK8atTIuYEhtU_ls3-31&quot; value=&quot;&quot; style=&quot;dashed=0;outlineConnect=0;html=1;align=center;labelPosition=center;verticalLabelPosition=bottom;verticalAlign=top;shape=mxgraph.webicons.facebook;fillColor=#6294E4;gradientColor=#1A2665&quot; vertex=&quot;1&quot; parent=&quot;1&quot;&gt;&#10;          &lt;mxGeometry x=&quot;400&quot; y=&quot;650&quot; width=&quot;102.4&quot; height=&quot;102.4&quot; as=&quot;geometry&quot; /&gt;&#10;        &lt;/mxCell&gt;&#10;      &lt;/root&gt;&#10;    &lt;/mxGraphModel&gt;&#10;  &lt;/diagram&gt;&#10;&lt;/mxfile&gt;&#10;"><defs><linearGradient x1="0%" y1="0%" x2="0%" y2="100%" id="mx-gradient-6294e4-1-1a2665-1-s-0"><stop offset="0%" style="stop-color: rgb(98, 148, 228); stop-opacity: 1;"/><stop offset="100%" style="stop-color: rgb(26, 38, 101); stop-opacity: 1;"/></linearGradient><style type="text/css">svg.ge-export-svg-dark:not(mjx-container &gt; svg) { filter: invert(100%) hue-rotate(180deg); }&#xa;svg.ge-export-svg-dark foreignObject img,&#xa;svg.ge-export-svg-dark image:not(svg.ge-export-svg-dark switch image),&#xa;svg.ge-export-svg-dark svg:not(mjx-container &gt; svg)&#xa;{ filter: invert(100%) hue-rotate(180deg) }</style></defs><g><g data-cell-id="0"><g data-cell-id="1"><g data-cell-id="kIsEK8atTIuYEhtU_ls3-31"><g><path d="M 11 102.4 C 4.92 102.4 0 97.44 0 91.33 L 0 11.07 C 0 4.96 4.92 0 11 0 L 91.4 0 C 94.32 0 97.12 1.17 99.18 3.24 C 101.24 5.32 102.4 8.13 102.4 11.07 L 102.4 91.33 C 102.4 94.27 101.24 97.08 99.18 99.16 C 97.12 101.23 94.32 102.4 91.4 102.4 Z" fill="url(#mx-gradient-6294e4-1-1a2665-1-s-0)" stroke="none" pointer-events="all"/><path d="M 51.47 102.4 L 51.47 68.98 L 38.61 68.98 L 38.61 52.7 L 51.47 52.7 L 51.47 44.36 C 51.47 32.64 60.7 23.43 71.1 23.43 L 83.92 23.43 L 83.92 39.74 L 71.09 39.74 C 69.7 39.74 67.85 41.77 67.85 44.04 L 67.85 52.7 L 83.92 52.7 L 83.92 68.98 L 67.85 68.98 L 67.85 102.4 Z" fill="#ffffff" stroke="none" pointer-events="all"/><path d="M 0 11.07 C 0 4.96 4.92 0 11 0 L 91.4 0 C 94.32 0 97.12 1.17 99.18 3.24 C 101.24 5.32 102.4 8.13 102.4 11.07 L 102.4 38.05 C 70.08 53.92 32.32 53.92 0 38.05 Z" fill-opacity="0.2" fill="#ffffff" stroke="none" pointer-events="all"/></g></g></g></g></g></svg>