<?xml version="1.0" encoding="UTF-8"?>
<!-- Do not edit this file with editors other than draw.io -->
<!DOCTYPE svg PUBLIC "-//W3C//DTD SVG 1.1//EN" "http://www.w3.org/Graphics/SVG/1.1/DTD/svg11.dtd">
<svg xmlns="http://www.w3.org/2000/svg" xmlns:xlink="http://www.w3.org/1999/xlink" version="1.1" width="71px" height="71px" viewBox="-0.5 -0.5 71 71" class="ge-export-svg-dark" content="&lt;mxfile host=&quot;app.diagrams.net&quot; agent=&quot;Mozilla/5.0 (Windows NT 10.0; Win64; x64) AppleWebKit/537.36 (KHTML, like Gecko) Chrome/129.0.0.0 Safari/537.36&quot; version=&quot;24.7.16&quot; scale=&quot;1&quot; border=&quot;0&quot;&gt;&#10;  &lt;diagram name=&quot;Página-1&quot; id=&quot;cHoTVuZz9rcjcoefg9mx&quot;&gt;&#10;    &lt;mxGraphModel dx=&quot;503&quot; dy=&quot;248&quot; grid=&quot;1&quot; gridSize=&quot;10&quot; guides=&quot;1&quot; tooltips=&quot;1&quot; connect=&quot;1&quot; arrows=&quot;1&quot; fold=&quot;1&quot; page=&quot;1&quot; pageScale=&quot;1&quot; pageWidth=&quot;2970&quot; pageHeight=&quot;2100&quot; background=&quot;#ffffff&quot; math=&quot;0&quot; shadow=&quot;0&quot;&gt;&#10;      &lt;root&gt;&#10;        &lt;mxCell id=&quot;0&quot; /&gt;&#10;        &lt;mxCell id=&quot;1&quot; parent=&quot;0&quot; /&gt;&#10;        &lt;mxCell id=&quot;Hdg0KMK2BAXWInw-SZbt-15&quot; value=&quot;&quot; style=&quot;group&quot; vertex=&quot;1&quot; connectable=&quot;0&quot; parent=&quot;1&quot;&gt;&#10;          &lt;mxGeometry x=&quot;350&quot; y=&quot;280&quot; width=&quot;70&quot; height=&quot;70&quot; as=&quot;geometry&quot; /&gt;&#10;        &lt;/mxCell&gt;&#10;        &lt;mxCell id=&quot;Hdg0KMK2BAXWInw-SZbt-8&quot; value=&quot;&quot; style=&quot;ellipse;shape=doubleEllipse;whiteSpace=wrap;html=1;aspect=fixed;container=0;&quot; vertex=&quot;1&quot; parent=&quot;Hdg0KMK2BAXWInw-SZbt-15&quot;&gt;&#10;          &lt;mxGeometry width=&quot;70&quot; height=&quot;70&quot; as=&quot;geometry&quot; /&gt;&#10;        &lt;/mxCell&gt;&#10;        &lt;mxCell id=&quot;Hdg0KMK2BAXWInw-SZbt-10&quot; value=&quot;&quot; style=&quot;ellipse;whiteSpace=wrap;html=1;aspect=fixed;container=0;&quot; vertex=&quot;1&quot; parent=&quot;Hdg0KMK2BAXWInw-SZbt-15&quot;&gt;&#10;          &lt;mxGeometry x=&quot;5.000000000000012&quot; y=&quot;5.000000000000012&quot; width=&quot;60&quot; height=&quot;60&quot; as=&quot;geometry&quot; /&gt;&#10;        &lt;/mxCell&gt;&#10;        &lt;mxCell id=&quot;Hdg0KMK2BAXWInw-SZbt-22&quot; value=&quot;&quot; style=&quot;sketch=0;pointerEvents=1;shadow=0;dashed=0;html=1;strokeColor=none;fillColor=#00FF00;labelPosition=center;verticalLabelPosition=bottom;verticalAlign=top;outlineConnect=0;align=center;shape=mxgraph.office.devices.data_jack;&quot; vertex=&quot;1&quot; parent=&quot;Hdg0KMK2BAXWInw-SZbt-15&quot;&gt;&#10;          &lt;mxGeometry x=&quot;16.5&quot; y=&quot;15.75&quot; width=&quot;37&quot; height=&quot;38.5&quot; as=&quot;geometry&quot; /&gt;&#10;        &lt;/mxCell&gt;&#10;      &lt;/root&gt;&#10;    &lt;/mxGraphModel&gt;&#10;  &lt;/diagram&gt;&#10;&lt;/mxfile&gt;&#10;"><defs><style type="text/css">svg.ge-export-svg-dark:not(mjx-container &gt; svg) { filter: invert(100%) hue-rotate(180deg); }&#xa;svg.ge-export-svg-dark foreignObject img,&#xa;svg.ge-export-svg-dark image:not(svg.ge-export-svg-dark switch image),&#xa;svg.ge-export-svg-dark svg:not(mjx-container &gt; svg)&#xa;{ filter: invert(100%) hue-rotate(180deg) }</style></defs><g><g data-cell-id="0"><g data-cell-id="1"><g data-cell-id="Hdg0KMK2BAXWInw-SZbt-15"><g/><g data-cell-id="Hdg0KMK2BAXWInw-SZbt-8"><g><ellipse cx="35" cy="35" rx="35" ry="35" fill="rgb(255, 255, 255)" stroke="rgb(0, 0, 0)" pointer-events="all"/><ellipse cx="35" cy="35" rx="31" ry="31" fill="none" stroke="rgb(0, 0, 0)" pointer-events="all"/></g></g><g data-cell-id="Hdg0KMK2BAXWInw-SZbt-10"><g><ellipse cx="35" cy="35" rx="30" ry="30" fill="rgb(255, 255, 255)" stroke="rgb(0, 0, 0)" pointer-events="all"/></g></g><g data-cell-id="Hdg0KMK2BAXWInw-SZbt-22"><g><rect x="16.5" y="15.75" width="37" height="38.5" fill="none" stroke="none" pointer-events="all"/><path d="M 37.64 43.86 L 32.36 43.86 L 32.36 42.03 L 29.42 42.03 L 29.42 39.58 L 24.13 39.58 L 24.13 27.37 L 27.07 27.37 L 27.07 29.81 L 28.84 29.81 L 28.84 27.37 L 29.42 27.37 L 29.42 29.81 L 31.18 29.81 L 31.18 27.37 L 31.77 27.37 L 31.77 29.81 L 33.53 29.81 L 33.53 27.37 L 34.12 27.37 L 34.12 29.81 L 35.89 29.81 L 35.89 27.37 L 36.47 27.37 L 36.47 29.81 L 38.23 29.81 L 38.23 27.37 L 38.82 27.37 L 38.82 29.81 L 40.58 29.81 L 40.58 27.37 L 41.17 27.37 L 41.17 29.81 L 42.93 29.81 L 42.93 27.37 L 45.87 27.37 L 45.87 39.58 L 40.58 39.58 L 40.58 42.03 L 37.64 42.03 Z M 39.4 43.86 L 42.34 43.86 L 42.34 41.42 L 47.63 41.42 L 47.63 25.53 L 22.37 25.53 L 22.37 41.42 L 27.66 41.42 L 27.66 43.86 L 30.6 43.86 L 30.6 45.69 L 39.4 45.7 Z M 19.26 54.25 C 17.85 54.25 16.5 52.9 16.5 51.32 L 16.5 18.79 C 16.5 17.07 17.82 15.75 19.38 15.75 L 50.52 15.75 C 52.4 15.75 53.5 17.38 53.5 18.75 L 53.5 51.29 C 53.5 52.98 52.11 54.25 50.67 54.25 Z" fill="#00ff00" stroke="none" pointer-events="all"/></g></g></g></g></g></g></svg>