<?xml version="1.0" encoding="UTF-8"?>
<!-- Do not edit this file with editors other than draw.io -->
<!DOCTYPE svg PUBLIC "-//W3C//DTD SVG 1.1//EN" "http://www.w3.org/Graphics/SVG/1.1/DTD/svg11.dtd">
<svg xmlns="http://www.w3.org/2000/svg" xmlns:xlink="http://www.w3.org/1999/xlink" version="1.1" width="71px" height="71px" viewBox="-0.5 -0.5 71 71" class="ge-export-svg-dark" content="&lt;mxfile host=&quot;app.diagrams.net&quot; agent=&quot;Mozilla/5.0 (Windows NT 10.0; Win64; x64) AppleWebKit/537.36 (KHTML, like Gecko) Chrome/129.0.0.0 Safari/537.36&quot; version=&quot;24.7.16&quot; scale=&quot;1&quot; border=&quot;0&quot;&gt;&#10;  &lt;diagram name=&quot;Página-1&quot; id=&quot;cHoTVuZz9rcjcoefg9mx&quot;&gt;&#10;    &lt;mxGraphModel dx=&quot;503&quot; dy=&quot;248&quot; grid=&quot;1&quot; gridSize=&quot;10&quot; guides=&quot;1&quot; tooltips=&quot;1&quot; connect=&quot;1&quot; arrows=&quot;1&quot; fold=&quot;1&quot; page=&quot;1&quot; pageScale=&quot;1&quot; pageWidth=&quot;2970&quot; pageHeight=&quot;2100&quot; background=&quot;#ffffff&quot; math=&quot;0&quot; shadow=&quot;0&quot;&gt;&#10;      &lt;root&gt;&#10;        &lt;mxCell id=&quot;0&quot; /&gt;&#10;        &lt;mxCell id=&quot;1&quot; parent=&quot;0&quot; /&gt;&#10;        &lt;mxCell id=&quot;Hdg0KMK2BAXWInw-SZbt-15&quot; value=&quot;&quot; style=&quot;group&quot; vertex=&quot;1&quot; connectable=&quot;0&quot; parent=&quot;1&quot;&gt;&#10;          &lt;mxGeometry x=&quot;480&quot; y=&quot;260&quot; width=&quot;70&quot; height=&quot;70&quot; as=&quot;geometry&quot; /&gt;&#10;        &lt;/mxCell&gt;&#10;        &lt;mxCell id=&quot;Hdg0KMK2BAXWInw-SZbt-8&quot; value=&quot;&quot; style=&quot;ellipse;shape=doubleEllipse;whiteSpace=wrap;html=1;aspect=fixed;container=0;&quot; vertex=&quot;1&quot; parent=&quot;Hdg0KMK2BAXWInw-SZbt-15&quot;&gt;&#10;          &lt;mxGeometry width=&quot;70&quot; height=&quot;70&quot; as=&quot;geometry&quot; /&gt;&#10;        &lt;/mxCell&gt;&#10;        &lt;mxCell id=&quot;Hdg0KMK2BAXWInw-SZbt-10&quot; value=&quot;&quot; style=&quot;ellipse;whiteSpace=wrap;html=1;aspect=fixed;container=0;&quot; vertex=&quot;1&quot; parent=&quot;Hdg0KMK2BAXWInw-SZbt-15&quot;&gt;&#10;          &lt;mxGeometry x=&quot;5.000000000000012&quot; y=&quot;5.000000000000012&quot; width=&quot;60&quot; height=&quot;60&quot; as=&quot;geometry&quot; /&gt;&#10;        &lt;/mxCell&gt;&#10;        &lt;mxCell id=&quot;Hdg0KMK2BAXWInw-SZbt-12&quot; value=&quot;&quot; style=&quot;sketch=0;outlineConnect=0;fontColor=#232F3E;gradientColor=none;fillColor=#00FF00;strokeColor=none;dashed=0;verticalLabelPosition=bottom;verticalAlign=top;align=center;html=1;fontSize=12;fontStyle=0;aspect=fixed;pointerEvents=1;shape=mxgraph.aws4.external_toolkit;container=0;&quot; vertex=&quot;1&quot; parent=&quot;Hdg0KMK2BAXWInw-SZbt-15&quot;&gt;&#10;          &lt;mxGeometry x=&quot;11.000000000000018&quot; y=&quot;7.469999999999995&quot; width=&quot;47.99999999999999&quot; height=&quot;55.059999999999995&quot; as=&quot;geometry&quot; /&gt;&#10;        &lt;/mxCell&gt;&#10;      &lt;/root&gt;&#10;    &lt;/mxGraphModel&gt;&#10;  &lt;/diagram&gt;&#10;&lt;/mxfile&gt;&#10;"><defs><style type="text/css">svg.ge-export-svg-dark:not(mjx-container &gt; svg) { filter: invert(100%) hue-rotate(180deg); }&#xa;svg.ge-export-svg-dark foreignObject img,&#xa;svg.ge-export-svg-dark image:not(svg.ge-export-svg-dark switch image),&#xa;svg.ge-export-svg-dark svg:not(mjx-container &gt; svg)&#xa;{ filter: invert(100%) hue-rotate(180deg) }</style></defs><g><g data-cell-id="0"><g data-cell-id="1"><g data-cell-id="Hdg0KMK2BAXWInw-SZbt-15"><g/><g data-cell-id="Hdg0KMK2BAXWInw-SZbt-8"><g><ellipse cx="35" cy="35" rx="35" ry="35" fill="rgb(255, 255, 255)" stroke="rgb(0, 0, 0)" pointer-events="all"/><ellipse cx="35" cy="35" rx="31" ry="31" fill="none" stroke="rgb(0, 0, 0)" pointer-events="all"/></g></g><g data-cell-id="Hdg0KMK2BAXWInw-SZbt-10"><g><ellipse cx="35" cy="35" rx="30" ry="30" fill="rgb(255, 255, 255)" stroke="rgb(0, 0, 0)" pointer-events="all"/></g></g><g data-cell-id="Hdg0KMK2BAXWInw-SZbt-12"><g><rect x="11" y="7.47" width="48" height="55.06" fill="none" stroke="none" pointer-events="all"/><path d="M 45.34 47.63 L 36.21 38.5 L 38.5 36.21 L 47.63 45.34 Z M 22.25 22.68 L 22.68 22.25 L 26.23 24.83 L 24.83 26.23 Z M 39.38 33.56 C 38.91 33.1 38.09 33.1 37.62 33.56 L 36.47 34.71 L 28.18 26.41 L 29.02 25.57 C 29.28 25.31 29.41 24.95 29.39 24.59 C 29.36 24.22 29.17 23.89 28.88 23.68 L 23.29 19.6 C 22.79 19.24 22.11 19.3 21.67 19.73 L 19.73 21.67 C 19.29 22.11 19.24 22.8 19.6 23.29 L 23.68 28.88 C 23.89 29.17 24.22 29.36 24.59 29.39 C 24.62 29.39 24.65 29.39 24.68 29.39 C 25.01 29.39 25.33 29.26 25.57 29.02 L 26.41 28.18 L 34.71 36.47 L 33.57 37.62 C 33.08 38.11 33.08 38.89 33.57 39.38 L 44.45 50.27 C 44.69 50.51 45 50.64 45.34 50.64 C 45.67 50.64 45.98 50.51 46.22 50.27 L 50.27 46.22 C 50.76 45.73 50.76 44.94 50.27 44.45 Z M 38.77 26.51 C 38.4 24.58 39 22.53 40.42 21.12 C 42.22 19.31 44.98 18.85 47.28 19.97 C 47.65 20.14 47.9 20.48 47.97 20.88 C 48.03 21.28 47.9 21.69 47.62 21.97 L 45.77 23.82 L 46.18 24.23 L 48.03 22.39 C 48.31 22.1 48.72 21.97 49.11 22.04 C 49.51 22.1 49.85 22.36 50.03 22.72 C 51.16 25.01 50.7 27.77 48.89 29.58 C 47.45 31.02 45.43 31.62 43.48 31.23 L 41.36 33.35 L 39.6 31.59 L 42.23 28.95 C 42.56 28.62 43.06 28.5 43.51 28.66 C 44.79 29.09 46.17 28.77 47.12 27.82 C 47.68 27.27 48.01 26.56 48.11 25.83 L 47.06 26.88 C 46.83 27.11 46.51 27.24 46.18 27.24 L 46.18 27.24 C 45.85 27.24 45.53 27.11 45.3 26.88 L 43.12 24.7 C 42.64 24.21 42.64 23.42 43.13 22.94 L 44.17 21.89 C 43.43 21.99 42.73 22.33 42.18 22.88 C 41.24 23.82 40.91 25.23 41.34 26.48 C 41.5 26.93 41.38 27.43 41.04 27.77 L 36.39 32.43 L 34.62 30.66 Z M 33.35 41.36 L 31.23 43.49 C 31.6 45.43 31 47.48 29.58 48.89 C 28.43 50.04 26.91 50.64 25.35 50.64 C 24.46 50.64 23.55 50.44 22.71 50.03 C 22.35 49.85 22.1 49.51 22.03 49.11 C 21.97 48.71 22.1 48.31 22.38 48.02 L 24.23 46.18 L 23.82 45.77 L 21.97 47.62 C 21.69 47.9 21.28 48.03 20.89 47.97 C 20.49 47.9 20.15 47.65 19.97 47.29 C 18.84 44.99 19.3 42.23 21.11 40.42 C 22.53 39 24.58 38.39 26.51 38.78 L 30.67 34.62 L 32.43 36.38 L 27.77 41.05 C 27.43 41.38 26.93 41.5 26.48 41.34 C 25.23 40.91 23.81 41.24 22.88 42.18 C 22.32 42.73 21.99 43.44 21.89 44.18 L 22.94 43.12 C 23.43 42.64 24.22 42.64 24.7 43.12 L 26.87 45.3 C 27.36 45.78 27.36 46.57 26.87 47.06 L 25.82 48.11 C 26.56 48.01 27.26 47.68 27.81 47.12 C 28.76 46.18 29.09 44.77 28.66 43.52 C 28.51 43.07 28.62 42.57 28.96 42.23 L 31.59 39.6 Z M 56.32 47.38 L 34.93 59.65 L 13.62 47.27 L 13.69 22.62 L 35.07 10.35 L 56.38 22.73 Z M 35.07 7.47 L 11.2 21.17 L 11.12 48.7 L 34.92 62.53 L 58.8 48.83 L 58.88 21.3 Z" fill="#00ff00" stroke="none" pointer-events="all"/></g></g></g></g></g></g></svg>