<?xml version="1.0" encoding="UTF-8"?>
<!-- Do not edit this file with editors other than draw.io -->
<!DOCTYPE svg PUBLIC "-//W3C//DTD SVG 1.1//EN" "http://www.w3.org/Graphics/SVG/1.1/DTD/svg11.dtd">
<svg xmlns="http://www.w3.org/2000/svg" xmlns:xlink="http://www.w3.org/1999/xlink" version="1.1" width="71px" height="71px" viewBox="-0.5 -0.5 71 71" class="ge-export-svg-dark" content="&lt;mxfile host=&quot;app.diagrams.net&quot; agent=&quot;Mozilla/5.0 (Windows NT 10.0; Win64; x64) AppleWebKit/537.36 (KHTML, like Gecko) Chrome/129.0.0.0 Safari/537.36&quot; version=&quot;24.7.16&quot; scale=&quot;1&quot; border=&quot;0&quot;&gt;&#10;  &lt;diagram name=&quot;Página-1&quot; id=&quot;cHoTVuZz9rcjcoefg9mx&quot;&gt;&#10;    &lt;mxGraphModel dx=&quot;503&quot; dy=&quot;248&quot; grid=&quot;1&quot; gridSize=&quot;10&quot; guides=&quot;1&quot; tooltips=&quot;1&quot; connect=&quot;1&quot; arrows=&quot;1&quot; fold=&quot;1&quot; page=&quot;1&quot; pageScale=&quot;1&quot; pageWidth=&quot;2970&quot; pageHeight=&quot;2100&quot; background=&quot;#ffffff&quot; math=&quot;0&quot; shadow=&quot;0&quot;&gt;&#10;      &lt;root&gt;&#10;        &lt;mxCell id=&quot;0&quot; /&gt;&#10;        &lt;mxCell id=&quot;1&quot; parent=&quot;0&quot; /&gt;&#10;        &lt;mxCell id=&quot;Hdg0KMK2BAXWInw-SZbt-15&quot; value=&quot;&quot; style=&quot;group&quot; vertex=&quot;1&quot; connectable=&quot;0&quot; parent=&quot;1&quot;&gt;&#10;          &lt;mxGeometry x=&quot;480&quot; y=&quot;260&quot; width=&quot;70&quot; height=&quot;70&quot; as=&quot;geometry&quot; /&gt;&#10;        &lt;/mxCell&gt;&#10;        &lt;mxCell id=&quot;Hdg0KMK2BAXWInw-SZbt-8&quot; value=&quot;&quot; style=&quot;ellipse;shape=doubleEllipse;whiteSpace=wrap;html=1;aspect=fixed;container=0;&quot; vertex=&quot;1&quot; parent=&quot;Hdg0KMK2BAXWInw-SZbt-15&quot;&gt;&#10;          &lt;mxGeometry width=&quot;70&quot; height=&quot;70&quot; as=&quot;geometry&quot; /&gt;&#10;        &lt;/mxCell&gt;&#10;        &lt;mxCell id=&quot;Hdg0KMK2BAXWInw-SZbt-10&quot; value=&quot;&quot; style=&quot;ellipse;whiteSpace=wrap;html=1;aspect=fixed;container=0;&quot; vertex=&quot;1&quot; parent=&quot;Hdg0KMK2BAXWInw-SZbt-15&quot;&gt;&#10;          &lt;mxGeometry x=&quot;5.000000000000012&quot; y=&quot;5.000000000000012&quot; width=&quot;60&quot; height=&quot;60&quot; as=&quot;geometry&quot; /&gt;&#10;        &lt;/mxCell&gt;&#10;        &lt;mxCell id=&quot;Hdg0KMK2BAXWInw-SZbt-19&quot; value=&quot;&quot; style=&quot;sketch=0;pointerEvents=1;shadow=0;dashed=0;html=1;strokeColor=none;fillColor=#00FF00;labelPosition=center;verticalLabelPosition=bottom;verticalAlign=top;outlineConnect=0;align=center;shape=mxgraph.office.devices.lcd_monitor;&quot; vertex=&quot;1&quot; parent=&quot;Hdg0KMK2BAXWInw-SZbt-15&quot;&gt;&#10;          &lt;mxGeometry x=&quot;15&quot; y=&quot;15&quot; width=&quot;40&quot; height=&quot;40&quot; as=&quot;geometry&quot; /&gt;&#10;        &lt;/mxCell&gt;&#10;        &lt;mxCell id=&quot;Hdg0KMK2BAXWInw-SZbt-17&quot; value=&quot;&quot; style=&quot;sketch=0;points=[[0,0,0],[0.25,0,0],[0.5,0,0],[0.75,0,0],[1,0,0],[0,1,0],[0.25,1,0],[0.5,1,0],[0.75,1,0],[1,1,0],[0,0.25,0],[0,0.5,0],[0,0.75,0],[1,0.25,0],[1,0.5,0],[1,0.75,0]];outlineConnect=0;fontColor=#232F3E;fillColor=#00FF00;strokeColor=#ffffff;dashed=0;verticalLabelPosition=bottom;verticalAlign=top;align=center;html=1;fontSize=12;fontStyle=0;aspect=fixed;shape=mxgraph.aws4.resourceIcon;resIcon=mxgraph.aws4.compute;&quot; vertex=&quot;1&quot; parent=&quot;Hdg0KMK2BAXWInw-SZbt-15&quot;&gt;&#10;          &lt;mxGeometry x=&quot;24.52000000000001&quot; y=&quot;20&quot; width=&quot;20.96&quot; height=&quot;20.96&quot; as=&quot;geometry&quot; /&gt;&#10;        &lt;/mxCell&gt;&#10;      &lt;/root&gt;&#10;    &lt;/mxGraphModel&gt;&#10;  &lt;/diagram&gt;&#10;&lt;/mxfile&gt;&#10;"><defs><style type="text/css">svg.ge-export-svg-dark:not(mjx-container &gt; svg) { filter: invert(100%) hue-rotate(180deg); }&#xa;svg.ge-export-svg-dark foreignObject img,&#xa;svg.ge-export-svg-dark image:not(svg.ge-export-svg-dark switch image),&#xa;svg.ge-export-svg-dark svg:not(mjx-container &gt; svg)&#xa;{ filter: invert(100%) hue-rotate(180deg) }</style></defs><g><g data-cell-id="0"><g data-cell-id="1"><g data-cell-id="Hdg0KMK2BAXWInw-SZbt-15"><g/><g data-cell-id="Hdg0KMK2BAXWInw-SZbt-8"><g><ellipse cx="35" cy="35" rx="35" ry="35" fill="rgb(255, 255, 255)" stroke="rgb(0, 0, 0)" pointer-events="all"/><ellipse cx="35" cy="35" rx="31" ry="31" fill="none" stroke="rgb(0, 0, 0)" pointer-events="all"/></g></g><g data-cell-id="Hdg0KMK2BAXWInw-SZbt-10"><g><ellipse cx="35" cy="35" rx="30" ry="30" fill="rgb(255, 255, 255)" stroke="rgb(0, 0, 0)" pointer-events="all"/></g></g><g data-cell-id="Hdg0KMK2BAXWInw-SZbt-19"><g><rect x="15" y="15" width="40" height="40" fill="none" stroke="none" pointer-events="all"/><path d="M 17.6 43.13 L 52.4 43.13 L 52.4 18.13 L 17.6 18.13 Z M 16.99 46.25 C 16.09 46.25 15 45.2 15 43.79 L 15 17.51 C 15 16.17 15.98 15 16.97 15 L 53.01 15 C 54.06 15 55 16.23 55 17.44 L 55 43.77 C 55 44.9 54.25 46.25 52.94 46.25 L 39.57 46.25 C 39.35 47.17 39.15 48.11 39.15 49.03 C 39.14 50.58 39.89 51.17 41 51.52 C 42.38 51.9 43.84 51.9 45.3 51.93 C 45.9 51.93 46.58 52.55 46.58 53.52 C 46.58 54.32 45.97 55 45.43 55 L 24.53 55 C 23.95 55 23.31 54.34 23.31 53.55 C 23.31 52.65 23.85 51.93 24.56 51.93 C 26.26 51.88 28.47 51.92 29.75 51.2 C 30.32 50.88 30.81 50.36 30.84 49.23 C 30.89 48.25 30.65 47.24 30.43 46.25 Z" fill="#00ff00" stroke="none" pointer-events="all"/></g></g><g data-cell-id="Hdg0KMK2BAXWInw-SZbt-17"><g><path d="M 24.52 20 L 45.48 20 L 45.48 40.96 L 24.52 40.96 Z" fill="#00ff00" stroke="none" pointer-events="all"/><path d="M 31.8 33.68 L 31.8 27.28 L 38.2 27.28 L 38.2 33.68 Z M 31.49 34.29 L 38.51 34.29 C 38.67 34.29 38.81 34.15 38.81 33.99 L 38.81 26.97 C 38.81 26.81 38.67 26.67 38.51 26.67 L 31.49 26.67 C 31.33 26.67 31.19 26.81 31.19 26.97 L 31.19 33.99 C 31.19 34.15 31.33 34.29 31.49 34.29 Z M 29.36 36.12 L 29.36 24.84 L 40.64 24.84 L 40.64 36.12 Z M 43.38 25.45 L 43.38 24.84 L 41.25 24.84 L 41.25 24.53 C 41.25 24.37 41.11 24.23 40.95 24.23 L 40.64 24.23 L 40.64 22.1 L 40.03 22.1 L 40.03 24.23 L 38.51 24.23 L 38.51 22.1 L 37.9 22.1 L 37.9 24.23 L 36.37 24.23 L 36.37 22.1 L 35.76 22.1 L 35.76 24.23 L 34.24 24.23 L 34.24 22.1 L 33.63 22.1 L 33.63 24.23 L 32.1 24.23 L 32.1 22.1 L 31.49 22.1 L 31.49 24.23 L 29.97 24.23 L 29.97 22.1 L 29.36 22.1 L 29.36 24.23 L 29.05 24.23 C 28.89 24.23 28.75 24.37 28.75 24.53 L 28.75 24.84 L 26.62 24.84 L 26.62 25.45 L 28.75 25.45 L 28.75 26.97 L 26.62 26.97 L 26.62 27.58 L 28.75 27.58 L 28.75 29.11 L 26.62 29.11 L 26.62 29.72 L 28.75 29.72 L 28.75 31.24 L 26.62 31.24 L 26.62 31.85 L 28.75 31.85 L 28.75 33.38 L 26.62 33.38 L 26.62 33.99 L 28.75 33.99 L 28.75 35.51 L 26.62 35.51 L 26.62 36.12 L 28.75 36.12 L 28.75 36.43 C 28.75 36.59 28.89 36.73 29.05 36.73 L 29.36 36.73 L 29.36 38.86 L 29.97 38.86 L 29.97 36.73 L 31.49 36.73 L 31.49 38.86 L 32.1 38.86 L 32.1 36.73 L 33.63 36.73 L 33.63 38.86 L 34.24 38.86 L 34.24 36.73 L 35.76 36.73 L 35.76 38.86 L 36.37 38.86 L 36.37 36.73 L 37.9 36.73 L 37.9 38.86 L 38.51 38.86 L 38.51 36.73 L 40.03 36.73 L 40.03 38.86 L 40.64 38.86 L 40.64 36.73 L 40.95 36.73 C 41.11 36.73 41.25 36.59 41.25 36.43 L 41.25 36.12 L 43.38 36.12 L 43.38 35.51 L 41.25 35.51 L 41.25 33.99 L 43.38 33.99 L 43.38 33.38 L 41.25 33.38 L 41.25 31.85 L 43.38 31.85 L 43.38 31.24 L 41.25 31.24 L 41.25 29.72 L 43.38 29.72 L 43.38 29.11 L 41.25 29.11 L 41.25 27.58 L 43.38 27.58 L 43.38 26.97 L 41.25 26.97 L 41.25 25.45 Z" fill="#ffffff" stroke="none" pointer-events="all"/></g></g></g></g></g></g></svg>