<?xml version="1.0" encoding="UTF-8"?>
<!-- Do not edit this file with editors other than draw.io -->
<!DOCTYPE svg PUBLIC "-//W3C//DTD SVG 1.1//EN" "http://www.w3.org/Graphics/SVG/1.1/DTD/svg11.dtd">
<svg xmlns="http://www.w3.org/2000/svg" xmlns:xlink="http://www.w3.org/1999/xlink" version="1.1" width="71px" height="71px" viewBox="-0.5 -0.5 71 71" class="ge-export-svg-dark" content="&lt;mxfile host=&quot;app.diagrams.net&quot; agent=&quot;Mozilla/5.0 (Windows NT 10.0; Win64; x64) AppleWebKit/537.36 (KHTML, like Gecko) Chrome/129.0.0.0 Safari/537.36&quot; scale=&quot;1&quot; border=&quot;0&quot; version=&quot;24.7.16&quot;&gt;&#10;  &lt;diagram name=&quot;Página-1&quot; id=&quot;m8l1A8O_j_JvbqTGVBao&quot;&gt;&#10;    &lt;mxGraphModel dx=&quot;587&quot; dy=&quot;289&quot; grid=&quot;1&quot; gridSize=&quot;10&quot; guides=&quot;1&quot; tooltips=&quot;1&quot; connect=&quot;1&quot; arrows=&quot;1&quot; fold=&quot;1&quot; page=&quot;1&quot; pageScale=&quot;1&quot; pageWidth=&quot;2970&quot; pageHeight=&quot;2100&quot; math=&quot;0&quot; shadow=&quot;0&quot;&gt;&#10;      &lt;root&gt;&#10;        &lt;mxCell id=&quot;0&quot; /&gt;&#10;        &lt;mxCell id=&quot;1&quot; parent=&quot;0&quot; /&gt;&#10;        &lt;mxCell id=&quot;f6pmm0lQQjv1o45NG8nA-42&quot; value=&quot;&quot; style=&quot;group&quot; vertex=&quot;1&quot; connectable=&quot;0&quot; parent=&quot;1&quot;&gt;&#10;          &lt;mxGeometry x=&quot;40&quot; y=&quot;220&quot; width=&quot;70&quot; height=&quot;70&quot; as=&quot;geometry&quot; /&gt;&#10;        &lt;/mxCell&gt;&#10;        &lt;mxCell id=&quot;sqtzE2Vg8_yKc3G_givv-2&quot; value=&quot;&quot; style=&quot;ellipse;shape=doubleEllipse;whiteSpace=wrap;html=1;aspect=fixed;container=0;&quot; parent=&quot;f6pmm0lQQjv1o45NG8nA-42&quot; vertex=&quot;1&quot;&gt;&#10;          &lt;mxGeometry width=&quot;70&quot; height=&quot;70&quot; as=&quot;geometry&quot; /&gt;&#10;        &lt;/mxCell&gt;&#10;        &lt;mxCell id=&quot;sqtzE2Vg8_yKc3G_givv-3&quot; value=&quot;&quot; style=&quot;ellipse;whiteSpace=wrap;html=1;aspect=fixed;container=0;fillColor=#00FF00;strokeColor=none;&quot; parent=&quot;f6pmm0lQQjv1o45NG8nA-42&quot; vertex=&quot;1&quot;&gt;&#10;          &lt;mxGeometry x=&quot;5&quot; y=&quot;5&quot; width=&quot;60&quot; height=&quot;60&quot; as=&quot;geometry&quot; /&gt;&#10;        &lt;/mxCell&gt;&#10;        &lt;mxCell id=&quot;f6pmm0lQQjv1o45NG8nA-69&quot; value=&quot;&quot; style=&quot;sketch=0;pointerEvents=1;shadow=0;dashed=0;html=1;strokeColor=#FFFFFF;fillColor=#00FF00;labelPosition=center;verticalLabelPosition=bottom;verticalAlign=top;outlineConnect=0;align=center;shape=mxgraph.office.concepts.learn;&quot; vertex=&quot;1&quot; parent=&quot;f6pmm0lQQjv1o45NG8nA-42&quot;&gt;&#10;          &lt;mxGeometry x=&quot;20&quot; y=&quot;16.5&quot; width=&quot;36&quot; height=&quot;37&quot; as=&quot;geometry&quot; /&gt;&#10;        &lt;/mxCell&gt;&#10;      &lt;/root&gt;&#10;    &lt;/mxGraphModel&gt;&#10;  &lt;/diagram&gt;&#10;&lt;/mxfile&gt;&#10;"><defs><style type="text/css">svg.ge-export-svg-dark:not(mjx-container &gt; svg) { filter: invert(100%) hue-rotate(180deg); }&#xa;svg.ge-export-svg-dark foreignObject img,&#xa;svg.ge-export-svg-dark image:not(svg.ge-export-svg-dark switch image),&#xa;svg.ge-export-svg-dark svg:not(mjx-container &gt; svg)&#xa;{ filter: invert(100%) hue-rotate(180deg) }</style></defs><g><g data-cell-id="0"><g data-cell-id="1"><g data-cell-id="f6pmm0lQQjv1o45NG8nA-42"><g/><g data-cell-id="sqtzE2Vg8_yKc3G_givv-2"><g><ellipse cx="35" cy="35" rx="35" ry="35" fill="rgb(255, 255, 255)" stroke="rgb(0, 0, 0)" pointer-events="all"/><ellipse cx="35" cy="35" rx="31" ry="31" fill="none" stroke="rgb(0, 0, 0)" pointer-events="all"/></g></g><g data-cell-id="sqtzE2Vg8_yKc3G_givv-3"><g><ellipse cx="35" cy="35" rx="30" ry="30" fill="#00ff00" stroke="none" pointer-events="all"/></g></g><g data-cell-id="f6pmm0lQQjv1o45NG8nA-69"><g><rect x="20" y="16.5" width="36" height="37" fill="none" stroke="none" pointer-events="all"/><path d="M 34.76 32.71 C 31.06 32.71 27.48 29.51 27.48 24.65 C 27.48 20.25 30.57 16.5 34.69 16.5 C 38.64 16.5 41.96 20.15 41.96 24.4 C 41.96 29.58 38.43 32.71 34.76 32.71 Z M 20 49.07 C 20.45 45.25 20.59 41.16 21.71 37.9 C 22.07 36.95 22.61 36.17 23.4 35.57 C 24.16 34.98 26.69 33.56 27.17 33.41 C 27.63 33.24 28.19 33.24 28.55 33.54 C 32.29 37.04 37.56 36.64 40.97 33.6 C 41.22 33.36 41.75 33.25 42.32 33.45 C 43.45 33.87 45.91 35.38 46.13 35.59 C 46.75 36.05 47.19 36.62 47.52 37.26 C 47.29 37.37 47.06 37.5 46.84 37.68 C 46.29 37.26 45.68 37 45.07 36.96 L 39.8 36.96 C 38.48 36.96 37.3 38.08 37.2 39.37 C 36.76 39.72 36.22 40.28 36.22 41.38 L 36.22 49.07 Z M 41.04 43.29 L 41.04 42.31 L 44.91 42.31 L 44.91 43.29 Z M 41.04 45.72 L 41.04 44.75 L 44.91 44.75 L 44.91 45.72 Z M 41.04 48.15 L 41.04 47.18 L 44.91 47.18 L 44.91 48.15 Z M 48.77 43.29 L 48.77 42.31 L 52.63 42.31 L 52.63 43.29 Z M 48.77 45.72 L 48.77 44.75 L 52.63 44.75 L 52.63 45.72 Z M 48.77 48.15 L 48.77 47.18 L 52.63 47.18 L 52.63 48.15 Z M 53.84 39.38 L 49.18 39.38 C 48.35 39.38 47.32 40.16 47.32 41.44 L 47.32 51.55 C 48.25 51.17 48.37 51.11 48.95 51.07 L 54.08 51.07 L 54.08 39.65 C 54.08 39.45 53.94 39.38 53.84 39.38 Z M 45.85 53.5 C 45.59 53.5 45.39 53.31 45.39 53.01 L 38.59 53.01 C 38.07 53.01 37.67 52.57 37.67 52.14 L 37.67 41.27 C 37.67 40.82 38.09 40.37 38.63 40.37 L 38.63 39.56 C 38.63 38.92 39.24 38.42 39.75 38.42 L 44.92 38.42 C 45.68 38.43 46.44 39.19 46.84 39.87 C 47.43 38.86 48.23 38.42 48.73 38.42 L 53.88 38.42 C 54.55 38.42 55.04 39.01 55.04 39.59 L 55.04 40.37 L 55.2 40.37 C 55.65 40.46 56 40.84 56 41.28 L 56 52.12 C 56 52.66 55.54 53.01 55.11 53.01 L 48.28 53.01 C 48.28 53.31 48.1 53.5 47.84 53.5 Z M 39.6 51.07 L 44.52 51.07 C 45.29 51.08 45.55 51.17 46.35 51.55 L 46.35 41.22 C 46.35 40.51 45.6 39.38 44.4 39.38 L 39.82 39.38 C 39.65 39.38 39.6 39.53 39.6 39.64 Z" fill="#00ff00" stroke="#ffffff" stroke-miterlimit="10" pointer-events="all"/></g></g></g></g></g></g></svg>