<?xml version="1.0" encoding="UTF-8"?>
<!-- Do not edit this file with editors other than draw.io -->
<!DOCTYPE svg PUBLIC "-//W3C//DTD SVG 1.1//EN" "http://www.w3.org/Graphics/SVG/1.1/DTD/svg11.dtd">
<svg xmlns="http://www.w3.org/2000/svg" xmlns:xlink="http://www.w3.org/1999/xlink" version="1.1" width="71px" height="100px" viewBox="-0.5 -0.5 71 100" class="ge-export-svg-dark" content="&lt;mxfile host=&quot;app.diagrams.net&quot; agent=&quot;Mozilla/5.0 (Windows NT 10.0; Win64; x64) AppleWebKit/537.36 (KHTML, like Gecko) Chrome/129.0.0.0 Safari/537.36&quot; scale=&quot;1&quot; border=&quot;0&quot; version=&quot;24.7.16&quot;&gt;&#10;  &lt;diagram name=&quot;Página-1&quot; id=&quot;m8l1A8O_j_JvbqTGVBao&quot;&gt;&#10;    &lt;mxGraphModel dx=&quot;587&quot; dy=&quot;289&quot; grid=&quot;1&quot; gridSize=&quot;10&quot; guides=&quot;1&quot; tooltips=&quot;1&quot; connect=&quot;1&quot; arrows=&quot;1&quot; fold=&quot;1&quot; page=&quot;1&quot; pageScale=&quot;1&quot; pageWidth=&quot;2970&quot; pageHeight=&quot;2100&quot; math=&quot;0&quot; shadow=&quot;0&quot;&gt;&#10;      &lt;root&gt;&#10;        &lt;mxCell id=&quot;0&quot; /&gt;&#10;        &lt;mxCell id=&quot;1&quot; parent=&quot;0&quot; /&gt;&#10;        &lt;mxCell id=&quot;f6pmm0lQQjv1o45NG8nA-42&quot; value=&quot;&quot; style=&quot;group&quot; vertex=&quot;1&quot; connectable=&quot;0&quot; parent=&quot;1&quot;&gt;&#10;          &lt;mxGeometry x=&quot;150&quot; y=&quot;230&quot; width=&quot;70&quot; height=&quot;99&quot; as=&quot;geometry&quot; /&gt;&#10;        &lt;/mxCell&gt;&#10;        &lt;mxCell id=&quot;sqtzE2Vg8_yKc3G_givv-2&quot; value=&quot;&quot; style=&quot;ellipse;shape=doubleEllipse;whiteSpace=wrap;html=1;aspect=fixed;container=0;&quot; parent=&quot;f6pmm0lQQjv1o45NG8nA-42&quot; vertex=&quot;1&quot;&gt;&#10;          &lt;mxGeometry width=&quot;70&quot; height=&quot;70&quot; as=&quot;geometry&quot; /&gt;&#10;        &lt;/mxCell&gt;&#10;        &lt;mxCell id=&quot;sqtzE2Vg8_yKc3G_givv-3&quot; value=&quot;&quot; style=&quot;ellipse;whiteSpace=wrap;html=1;aspect=fixed;container=0;fillColor=#00FF00;strokeColor=none;&quot; parent=&quot;f6pmm0lQQjv1o45NG8nA-42&quot; vertex=&quot;1&quot;&gt;&#10;          &lt;mxGeometry x=&quot;5&quot; y=&quot;5&quot; width=&quot;60&quot; height=&quot;60&quot; as=&quot;geometry&quot; /&gt;&#10;        &lt;/mxCell&gt;&#10;        &lt;mxCell id=&quot;f6pmm0lQQjv1o45NG8nA-70&quot; value=&quot;&quot; style=&quot;verticalLabelPosition=bottom;sketch=0;html=1;fillColor=#FFFFFF;strokeColor=none;verticalAlign=top;pointerEvents=1;align=center;shape=mxgraph.cisco_safe.security_icons.icon36;&quot; vertex=&quot;1&quot; parent=&quot;f6pmm0lQQjv1o45NG8nA-42&quot;&gt;&#10;          &lt;mxGeometry x=&quot;10&quot; y=&quot;10.5&quot; width=&quot;50&quot; height=&quot;49&quot; as=&quot;geometry&quot; /&gt;&#10;        &lt;/mxCell&gt;&#10;      &lt;/root&gt;&#10;    &lt;/mxGraphModel&gt;&#10;  &lt;/diagram&gt;&#10;&lt;/mxfile&gt;&#10;"><defs><style type="text/css">svg.ge-export-svg-dark:not(mjx-container &gt; svg) { filter: invert(100%) hue-rotate(180deg); }&#xa;svg.ge-export-svg-dark foreignObject img,&#xa;svg.ge-export-svg-dark image:not(svg.ge-export-svg-dark switch image),&#xa;svg.ge-export-svg-dark svg:not(mjx-container &gt; svg)&#xa;{ filter: invert(100%) hue-rotate(180deg) }</style></defs><g><g data-cell-id="0"><g data-cell-id="1"><g data-cell-id="f6pmm0lQQjv1o45NG8nA-42"><g/><g data-cell-id="sqtzE2Vg8_yKc3G_givv-2"><g><ellipse cx="35" cy="35" rx="35" ry="35" fill="rgb(255, 255, 255)" stroke="rgb(0, 0, 0)" pointer-events="all"/><ellipse cx="35" cy="35" rx="31" ry="31" fill="none" stroke="rgb(0, 0, 0)" pointer-events="all"/></g></g><g data-cell-id="sqtzE2Vg8_yKc3G_givv-3"><g><ellipse cx="35" cy="35" rx="30" ry="30" fill="#00ff00" stroke="none" pointer-events="all"/></g></g><g data-cell-id="f6pmm0lQQjv1o45NG8nA-70"><g><rect x="10" y="10.5" width="50" height="49" fill="none" stroke="none" pointer-events="all"/><path d="M 54.68 34.07 C 49.44 34.98 41.82 35.75 35.26 35.75 C 29.35 35.8 21.96 35.22 15.38 34.13 C 15.48 37.39 16.54 40.17 18.33 42.58 C 19.96 53.89 28.21 59.5 34.67 59.5 C 42.93 59.5 50.12 53.21 51.69 42.55 C 53.36 40.43 54.67 37.16 54.68 34.07 Z M 26.35 38.43 C 26.12 39.12 26.23 39.82 26.84 40.41 C 27.64 41.18 28.6 41.15 29.36 40.55 C 29.87 40.13 30.24 39.5 30.06 38.77 C 30.4 38.86 30.63 39.02 30.8 39.21 C 31.08 39.48 31.05 39.82 30.97 40.25 C 30.82 40.92 30.11 41.9 29.02 42.08 C 27.07 42.41 26.23 41.62 25.47 40.98 C 25.02 40.48 24.57 39.79 24.69 39.09 C 24.77 38.64 25.75 38.48 26.35 38.43 Z M 43.68 38.42 C 44.46 38.49 45.04 38.63 45.36 38.98 C 45.54 39.66 45.19 40.35 44.44 41.1 C 43.27 42.09 42.48 42.36 40.95 42.08 C 40.26 41.92 39.39 41.31 39.12 40.34 C 39.04 40.07 38.91 39.56 39.17 39.31 C 39.41 39.03 39.64 38.87 39.99 38.78 C 39.86 39.41 40.04 39.96 40.64 40.53 C 41.25 41.05 42.33 41.28 43.14 40.47 C 43.64 39.99 44.04 39.17 43.68 38.42 Z M 21.24 41.87 C 22.64 43.27 24.69 44.54 26.93 45.36 C 28.94 46.13 30.62 46.25 32.22 44.92 C 33.01 44.29 33.54 43.71 34.16 43.1 C 34.68 42.56 35.1 42.53 35.66 43.01 C 36.44 43.77 37.12 44.45 37.75 44.89 C 39.59 46.35 41.05 46.12 43.88 45.05 C 45.73 44.32 47.73 42.94 48.84 41.88 C 48.31 45.77 47.14 48.79 44.43 52.05 C 42.16 54.59 39.05 56.52 34.92 56.52 C 31.15 56.52 27.82 54.57 25.39 51.82 C 23.16 49.12 21.78 46.03 21.24 41.87 Z M 32.9 48.87 C 31.91 49.38 31.13 49.86 31.13 50.7 C 31.14 51.34 31.76 51.52 32.79 51.64 C 34.14 51.76 35.5 51.74 36.85 51.66 C 37.78 51.61 38.67 51.58 38.95 50.76 C 39.12 50.15 38.24 49.38 37.55 49.08 C 36.08 48.33 34.2 48.37 32.9 48.87 Z M 12.93 32 C 11.31 31.72 10 30.61 10.06 28.79 C 10.13 27.56 11 26.39 13.02 26.03 C 14.92 25.69 17.45 25.3 19.87 25.03 C 20.47 22.09 21.03 19.03 21.39 15.33 C 21.37 13.56 21.75 12.1 23.48 11.19 C 24.58 10.67 26.4 10.57 28.25 11.19 C 31.92 12.65 37.7 12.8 42.02 11.18 C 43.35 10.74 44.88 10.5 46.41 11.14 C 48.09 11.9 48.68 13.31 48.63 14.71 C 48.88 18.58 49.49 22.22 50.13 25.03 C 52.66 25.37 55.28 25.66 57.51 26.15 C 59.17 26.56 60 27.67 60 28.95 C 60 30.58 58.83 31.51 57.85 31.81 C 52.62 32.92 45.41 34.15 35.11 34.15 C 27.4 34.15 19.91 33.38 12.93 32 Z" fill="#ffffff" stroke="none" pointer-events="all"/></g></g></g></g></g></g></svg>