<?xml version="1.0" encoding="UTF-8"?>
<!-- Do not edit this file with editors other than draw.io -->
<!DOCTYPE svg PUBLIC "-//W3C//DTD SVG 1.1//EN" "http://www.w3.org/Graphics/SVG/1.1/DTD/svg11.dtd">
<svg xmlns="http://www.w3.org/2000/svg" xmlns:xlink="http://www.w3.org/1999/xlink" version="1.1" width="81px" height="111px" viewBox="-0.5 -0.5 81 111" class="ge-export-svg-dark" content="&lt;mxfile host=&quot;app.diagrams.net&quot; agent=&quot;Mozilla/5.0 (Windows NT 10.0; Win64; x64) AppleWebKit/537.36 (KHTML, like Gecko) Chrome/129.0.0.0 Safari/537.36&quot; scale=&quot;1&quot; border=&quot;0&quot; version=&quot;24.7.16&quot;&gt;&#10;  &lt;diagram name=&quot;Página-1&quot; id=&quot;m8l1A8O_j_JvbqTGVBao&quot;&gt;&#10;    &lt;mxGraphModel dx=&quot;293&quot; dy=&quot;145&quot; grid=&quot;1&quot; gridSize=&quot;10&quot; guides=&quot;1&quot; tooltips=&quot;1&quot; connect=&quot;1&quot; arrows=&quot;1&quot; fold=&quot;1&quot; page=&quot;1&quot; pageScale=&quot;1&quot; pageWidth=&quot;2970&quot; pageHeight=&quot;2100&quot; math=&quot;0&quot; shadow=&quot;0&quot;&gt;&#10;      &lt;root&gt;&#10;        &lt;mxCell id=&quot;0&quot; /&gt;&#10;        &lt;mxCell id=&quot;1&quot; parent=&quot;0&quot; /&gt;&#10;        &lt;mxCell id=&quot;l1s-WfeYHmzIl0k62fMm-2&quot; value=&quot;&quot; style=&quot;group&quot; parent=&quot;1&quot; vertex=&quot;1&quot; connectable=&quot;0&quot;&gt;&#10;          &lt;mxGeometry x=&quot;400&quot; y=&quot;280&quot; width=&quot;80&quot; height=&quot;110&quot; as=&quot;geometry&quot; /&gt;&#10;        &lt;/mxCell&gt;&#10;        &lt;mxCell id=&quot;sqtzE2Vg8_yKc3G_givv-2&quot; value=&quot;&quot; style=&quot;ellipse;shape=doubleEllipse;whiteSpace=wrap;html=1;aspect=fixed;container=0;&quot; parent=&quot;l1s-WfeYHmzIl0k62fMm-2&quot; vertex=&quot;1&quot;&gt;&#10;          &lt;mxGeometry width=&quot;70&quot; height=&quot;70&quot; as=&quot;geometry&quot; /&gt;&#10;        &lt;/mxCell&gt;&#10;        &lt;mxCell id=&quot;sqtzE2Vg8_yKc3G_givv-3&quot; value=&quot;&quot; style=&quot;ellipse;whiteSpace=wrap;html=1;aspect=fixed;container=0;&quot; parent=&quot;l1s-WfeYHmzIl0k62fMm-2&quot; vertex=&quot;1&quot;&gt;&#10;          &lt;mxGeometry x=&quot;5&quot; y=&quot;5&quot; width=&quot;60&quot; height=&quot;60&quot; as=&quot;geometry&quot; /&gt;&#10;        &lt;/mxCell&gt;&#10;        &lt;mxCell id=&quot;f6pmm0lQQjv1o45NG8nA-34&quot; value=&quot;&quot; style=&quot;sketch=0;outlineConnect=0;fontColor=#232F3E;gradientColor=none;fillColor=#00FF00;strokeColor=none;dashed=0;verticalLabelPosition=bottom;verticalAlign=top;align=center;html=1;fontSize=12;fontStyle=0;aspect=fixed;pointerEvents=1;shape=mxgraph.aws4.checklist_security;&quot; vertex=&quot;1&quot; parent=&quot;l1s-WfeYHmzIl0k62fMm-2&quot;&gt;&#10;          &lt;mxGeometry x=&quot;16&quot; y=&quot;16&quot; width=&quot;38&quot; height=&quot;38&quot; as=&quot;geometry&quot; /&gt;&#10;        &lt;/mxCell&gt;&#10;      &lt;/root&gt;&#10;    &lt;/mxGraphModel&gt;&#10;  &lt;/diagram&gt;&#10;&lt;/mxfile&gt;&#10;"><defs><style type="text/css">svg.ge-export-svg-dark:not(mjx-container &gt; svg) { filter: invert(100%) hue-rotate(180deg); }&#xa;svg.ge-export-svg-dark foreignObject img,&#xa;svg.ge-export-svg-dark image:not(svg.ge-export-svg-dark switch image),&#xa;svg.ge-export-svg-dark svg:not(mjx-container &gt; svg)&#xa;{ filter: invert(100%) hue-rotate(180deg) }</style></defs><g><g data-cell-id="0"><g data-cell-id="1"><g data-cell-id="l1s-WfeYHmzIl0k62fMm-2"><g/><g data-cell-id="sqtzE2Vg8_yKc3G_givv-2"><g><ellipse cx="35" cy="35" rx="35" ry="35" fill="rgb(255, 255, 255)" stroke="rgb(0, 0, 0)" pointer-events="all"/><ellipse cx="35" cy="35" rx="31" ry="31" fill="none" stroke="rgb(0, 0, 0)" pointer-events="all"/></g></g><g data-cell-id="sqtzE2Vg8_yKc3G_givv-3"><g><ellipse cx="35" cy="35" rx="30" ry="30" fill="rgb(255, 255, 255)" stroke="rgb(0, 0, 0)" pointer-events="all"/></g></g><g data-cell-id="f6pmm0lQQjv1o45NG8nA-34"><g><rect x="16" y="16" width="38" height="38" fill="none" stroke="none" pointer-events="all"/><path d="M 52.27 41.9 L 38.88 41.89 L 38.88 52.26 L 52.27 52.27 Z M 41.89 40.16 L 49.22 40.17 L 49.22 37.83 C 49.23 35.92 47.6 34.37 45.59 34.36 L 45.57 34.36 C 43.55 34.36 41.91 35.9 41.9 37.79 Z M 54 41.03 L 53.99 53.13 C 53.99 53.61 53.61 53.99 53.13 53.99 L 38.01 53.99 C 37.54 53.99 37.15 53.6 37.15 53.12 L 37.16 41.03 C 37.16 40.8 37.25 40.58 37.41 40.42 C 37.57 40.25 37.79 40.16 38.02 40.16 L 40.16 40.16 L 40.18 37.78 C 40.19 34.94 42.61 32.64 45.57 32.64 L 45.59 32.64 C 48.56 32.65 50.96 34.98 50.95 37.83 L 50.95 40.17 L 53.14 40.17 C 53.37 40.17 53.59 40.26 53.75 40.42 C 53.91 40.58 54 40.8 54 41.03 Z M 19.74 37.31 L 18.52 38.54 L 20.94 40.93 C 21.1 41.09 21.32 41.18 21.55 41.18 C 21.57 41.18 21.59 41.18 21.61 41.18 C 21.86 41.16 22.09 41.04 22.24 40.84 L 25.86 36.06 L 24.48 35.01 L 21.45 39.01 Z M 24.48 26.96 L 21.45 30.95 L 19.74 29.26 L 18.52 30.48 L 20.94 32.88 C 21.1 33.04 21.32 33.13 21.55 33.13 C 21.57 33.13 21.59 33.13 21.61 33.12 C 21.86 33.11 22.09 32.98 22.24 32.78 L 25.86 28 Z M 24.48 18.9 L 21.45 22.9 L 19.74 21.2 L 18.52 22.43 L 20.94 24.82 C 21.1 24.98 21.32 25.07 21.55 25.07 C 21.57 25.07 21.59 25.07 21.61 25.07 C 21.86 25.05 22.09 24.92 22.24 24.73 L 25.86 19.94 Z M 27.44 39.64 L 37.26 39.64 L 37.26 37.91 L 27.44 37.91 Z M 27.44 32.09 L 37.26 32.09 L 37.26 30.36 L 27.44 30.36 Z M 27.44 23.78 L 37.26 23.78 L 37.26 22.05 L 27.44 22.05 Z M 17.73 43.96 L 35.75 43.96 L 35.75 45.68 L 16.86 45.68 C 16.39 45.68 16 45.3 16 44.82 L 16 16.87 C 16 16.39 16.39 16.01 16.86 16.01 L 39.53 16.01 C 40 16.01 40.39 16.39 40.39 16.87 L 40.39 35 L 38.66 35 L 38.66 17.73 L 17.73 17.73 Z" fill="#00ff00" stroke="none" pointer-events="all"/></g></g></g></g></g></g></svg>