<?xml version="1.0" encoding="UTF-8"?>
<!-- Do not edit this file with editors other than draw.io -->
<!DOCTYPE svg PUBLIC "-//W3C//DTD SVG 1.1//EN" "http://www.w3.org/Graphics/SVG/1.1/DTD/svg11.dtd">
<svg xmlns="http://www.w3.org/2000/svg" xmlns:xlink="http://www.w3.org/1999/xlink" version="1.1" width="71px" height="71px" viewBox="-0.5 -0.5 71 71" class="ge-export-svg-dark" content="&lt;mxfile host=&quot;app.diagrams.net&quot; agent=&quot;Mozilla/5.0 (Windows NT 10.0; Win64; x64) AppleWebKit/537.36 (KHTML, like Gecko) Chrome/129.0.0.0 Safari/537.36&quot; scale=&quot;1&quot; border=&quot;0&quot; version=&quot;24.7.17&quot;&gt;&#10;  &lt;diagram name=&quot;Página-1&quot; id=&quot;m8l1A8O_j_JvbqTGVBao&quot;&gt;&#10;    &lt;mxGraphModel dx=&quot;880&quot; dy=&quot;434&quot; grid=&quot;1&quot; gridSize=&quot;10&quot; guides=&quot;1&quot; tooltips=&quot;1&quot; connect=&quot;1&quot; arrows=&quot;1&quot; fold=&quot;1&quot; page=&quot;1&quot; pageScale=&quot;1&quot; pageWidth=&quot;2970&quot; pageHeight=&quot;2100&quot; math=&quot;0&quot; shadow=&quot;0&quot;&gt;&#10;      &lt;root&gt;&#10;        &lt;mxCell id=&quot;0&quot; /&gt;&#10;        &lt;mxCell id=&quot;1&quot; parent=&quot;0&quot; /&gt;&#10;        &lt;mxCell id=&quot;sqtzE2Vg8_yKc3G_givv-2&quot; value=&quot;&quot; style=&quot;ellipse;shape=doubleEllipse;whiteSpace=wrap;html=1;aspect=fixed;container=0;&quot; parent=&quot;1&quot; vertex=&quot;1&quot;&gt;&#10;          &lt;mxGeometry x=&quot;400&quot; y=&quot;280&quot; width=&quot;70&quot; height=&quot;70&quot; as=&quot;geometry&quot; /&gt;&#10;        &lt;/mxCell&gt;&#10;        &lt;mxCell id=&quot;sqtzE2Vg8_yKc3G_givv-3&quot; value=&quot;&quot; style=&quot;ellipse;whiteSpace=wrap;html=1;aspect=fixed;container=0;&quot; parent=&quot;1&quot; vertex=&quot;1&quot;&gt;&#10;          &lt;mxGeometry x=&quot;405&quot; y=&quot;285&quot; width=&quot;60&quot; height=&quot;60&quot; as=&quot;geometry&quot; /&gt;&#10;        &lt;/mxCell&gt;&#10;        &lt;mxCell id=&quot;f6pmm0lQQjv1o45NG8nA-29&quot; value=&quot;&quot; style=&quot;sketch=0;outlineConnect=0;fontColor=#232F3E;gradientColor=none;fillColor=#00FF00;strokeColor=none;dashed=0;verticalLabelPosition=bottom;verticalAlign=top;align=center;html=1;fontSize=12;fontStyle=0;aspect=fixed;pointerEvents=1;shape=mxgraph.aws4.json_script;container=0;&quot; parent=&quot;1&quot; vertex=&quot;1&quot;&gt;&#10;          &lt;mxGeometry x=&quot;421.5&quot; y=&quot;296.53&quot; width=&quot;27&quot; height=&quot;36.95&quot; as=&quot;geometry&quot; /&gt;&#10;        &lt;/mxCell&gt;&#10;      &lt;/root&gt;&#10;    &lt;/mxGraphModel&gt;&#10;  &lt;/diagram&gt;&#10;&lt;/mxfile&gt;&#10;"><defs><style type="text/css">svg.ge-export-svg-dark:not(mjx-container &gt; svg) { filter: invert(100%) hue-rotate(180deg); }&#xa;svg.ge-export-svg-dark foreignObject img,&#xa;svg.ge-export-svg-dark image:not(svg.ge-export-svg-dark switch image),&#xa;svg.ge-export-svg-dark svg:not(mjx-container &gt; svg)&#xa;{ filter: invert(100%) hue-rotate(180deg) }</style></defs><g><g data-cell-id="0"><g data-cell-id="1"><g data-cell-id="sqtzE2Vg8_yKc3G_givv-2"><g><ellipse cx="35" cy="35" rx="35" ry="35" fill="rgb(255, 255, 255)" stroke="rgb(0, 0, 0)" pointer-events="all"/><ellipse cx="35" cy="35" rx="31" ry="31" fill="none" stroke="rgb(0, 0, 0)" pointer-events="all"/></g></g><g data-cell-id="sqtzE2Vg8_yKc3G_givv-3"><g><ellipse cx="35" cy="35" rx="30" ry="30" fill="rgb(255, 255, 255)" stroke="rgb(0, 0, 0)" pointer-events="all"/></g></g><g data-cell-id="f6pmm0lQQjv1o45NG8nA-29"><g><rect x="21.5" y="16.53" width="27" height="36.95" fill="none" stroke="none" pointer-events="all"/><path d="M 35.84 33.76 C 35.84 34.22 35.46 34.6 35 34.6 C 34.54 34.6 34.16 34.22 34.16 33.76 C 34.16 33.29 34.54 32.92 35 32.92 C 35.46 32.92 35.84 33.29 35.84 33.76 Z M 35.79 38.31 L 34.95 40.68 C 34.83 41.03 34.51 41.24 34.16 41.24 C 34.07 41.24 33.97 41.23 33.88 41.19 C 33.44 41.04 33.22 40.56 33.37 40.12 L 34.21 37.75 C 34.36 37.31 34.84 37.08 35.28 37.23 C 35.72 37.39 35.95 37.87 35.79 38.31 Z M 42.18 36.54 L 42.43 36.54 L 42.43 37.84 L 42.18 37.84 C 41.92 37.84 41.72 37.89 41.61 38.01 C 41.49 38.12 41.43 38.31 41.43 38.57 L 41.43 40.32 C 41.43 41.02 41.24 41.56 40.87 41.96 C 40.49 42.36 39.98 42.56 39.33 42.56 C 38.91 42.56 38.56 42.5 38.27 42.36 L 38.27 41.21 C 38.5 41.25 38.74 41.27 38.97 41.27 C 39.44 41.27 39.67 41.01 39.67 40.48 L 39.67 38.6 C 39.67 38.21 39.76 37.9 39.94 37.68 C 40.13 37.46 40.43 37.3 40.84 37.19 C 40.43 37.08 40.13 36.92 39.94 36.7 C 39.76 36.48 39.67 36.17 39.67 35.78 L 39.67 33.9 C 39.67 33.37 39.44 33.11 38.97 33.11 C 38.74 33.11 38.5 33.13 38.27 33.17 L 38.27 32.02 C 38.56 31.88 38.91 31.82 39.33 31.82 C 39.98 31.82 40.49 32.02 40.87 32.42 C 41.24 32.82 41.43 33.36 41.43 34.06 L 41.43 35.81 C 41.43 36.07 41.49 36.26 41.61 36.37 C 41.72 36.49 41.92 36.54 42.18 36.54 Z M 30.67 31.82 C 31.09 31.82 31.44 31.88 31.73 32.02 L 31.73 33.17 C 31.5 33.13 31.26 33.11 31.03 33.11 C 30.56 33.11 30.33 33.37 30.33 33.9 L 30.33 35.78 C 30.33 36.16 30.24 36.47 30.06 36.69 C 29.87 36.91 29.57 37.08 29.16 37.19 C 29.57 37.3 29.87 37.47 30.06 37.69 C 30.24 37.91 30.33 38.22 30.33 38.6 L 30.33 40.48 C 30.33 41.01 30.56 41.27 31.03 41.27 C 31.26 41.27 31.5 41.25 31.73 41.21 L 31.73 42.36 C 31.44 42.5 31.09 42.56 30.67 42.56 C 30.02 42.56 29.51 42.36 29.13 41.96 C 28.76 41.56 28.57 41.02 28.57 40.32 L 28.57 38.57 C 28.57 38.31 28.51 38.12 28.39 38.01 C 28.28 37.89 28.08 37.84 27.82 37.84 L 27.57 37.84 L 27.57 36.54 L 27.82 36.54 C 28.08 36.54 28.28 36.49 28.39 36.37 C 28.51 36.26 28.57 36.07 28.57 35.81 L 28.57 34.06 C 28.57 33.36 28.76 32.82 29.13 32.42 C 29.51 32.02 30.02 31.82 30.67 31.82 Z M 23.24 51.8 L 23.25 18.21 L 38.36 18.21 L 38.36 25.77 C 38.36 26.23 38.73 26.61 39.2 26.61 L 46.76 26.61 L 46.76 51.8 Z M 40.04 19.4 L 45.57 24.93 L 40.04 24.93 Z M 48.19 25.17 L 39.79 16.78 C 39.64 16.62 39.42 16.53 39.2 16.53 L 23.24 16.53 C 22.25 16.53 21.56 17.22 21.56 18.21 L 21.56 51.8 C 21.56 52.76 22.29 53.48 23.24 53.48 L 46.76 53.48 C 47.71 53.48 48.44 52.76 48.44 51.8 L 48.44 25.77 C 48.44 25.54 48.35 25.33 48.19 25.17 Z" fill="#00ff00" stroke="none" pointer-events="all"/></g></g></g></g></g></svg>