<?xml version="1.0" encoding="UTF-8"?>
<!-- Do not edit this file with editors other than draw.io -->
<!DOCTYPE svg PUBLIC "-//W3C//DTD SVG 1.1//EN" "http://www.w3.org/Graphics/SVG/1.1/DTD/svg11.dtd">
<svg xmlns="http://www.w3.org/2000/svg" xmlns:xlink="http://www.w3.org/1999/xlink" version="1.1" width="81px" height="111px" viewBox="-0.5 -0.5 81 111" class="ge-export-svg-dark" content="&lt;mxfile host=&quot;app.diagrams.net&quot; agent=&quot;Mozilla/5.0 (Windows NT 10.0; Win64; x64) AppleWebKit/537.36 (KHTML, like Gecko) Chrome/129.0.0.0 Safari/537.36&quot; scale=&quot;1&quot; border=&quot;0&quot; version=&quot;24.7.16&quot;&gt;&#10;  &lt;diagram name=&quot;Página-1&quot; id=&quot;m8l1A8O_j_JvbqTGVBao&quot;&gt;&#10;    &lt;mxGraphModel dx=&quot;293&quot; dy=&quot;145&quot; grid=&quot;1&quot; gridSize=&quot;10&quot; guides=&quot;1&quot; tooltips=&quot;1&quot; connect=&quot;1&quot; arrows=&quot;1&quot; fold=&quot;1&quot; page=&quot;1&quot; pageScale=&quot;1&quot; pageWidth=&quot;2970&quot; pageHeight=&quot;2100&quot; math=&quot;0&quot; shadow=&quot;0&quot;&gt;&#10;      &lt;root&gt;&#10;        &lt;mxCell id=&quot;0&quot; /&gt;&#10;        &lt;mxCell id=&quot;1&quot; parent=&quot;0&quot; /&gt;&#10;        &lt;mxCell id=&quot;l1s-WfeYHmzIl0k62fMm-2&quot; value=&quot;&quot; style=&quot;group&quot; parent=&quot;1&quot; vertex=&quot;1&quot; connectable=&quot;0&quot;&gt;&#10;          &lt;mxGeometry x=&quot;400&quot; y=&quot;280&quot; width=&quot;80&quot; height=&quot;110&quot; as=&quot;geometry&quot; /&gt;&#10;        &lt;/mxCell&gt;&#10;        &lt;mxCell id=&quot;sqtzE2Vg8_yKc3G_givv-2&quot; value=&quot;&quot; style=&quot;ellipse;shape=doubleEllipse;whiteSpace=wrap;html=1;aspect=fixed;container=0;&quot; parent=&quot;l1s-WfeYHmzIl0k62fMm-2&quot; vertex=&quot;1&quot;&gt;&#10;          &lt;mxGeometry width=&quot;70&quot; height=&quot;70&quot; as=&quot;geometry&quot; /&gt;&#10;        &lt;/mxCell&gt;&#10;        &lt;mxCell id=&quot;sqtzE2Vg8_yKc3G_givv-3&quot; value=&quot;&quot; style=&quot;ellipse;whiteSpace=wrap;html=1;aspect=fixed;container=0;&quot; parent=&quot;l1s-WfeYHmzIl0k62fMm-2&quot; vertex=&quot;1&quot;&gt;&#10;          &lt;mxGeometry x=&quot;5&quot; y=&quot;5&quot; width=&quot;60&quot; height=&quot;60&quot; as=&quot;geometry&quot; /&gt;&#10;        &lt;/mxCell&gt;&#10;        &lt;mxCell id=&quot;f6pmm0lQQjv1o45NG8nA-33&quot; value=&quot;&quot; style=&quot;sketch=0;outlineConnect=0;fontColor=#232F3E;gradientColor=none;fillColor=#00FF00;strokeColor=none;dashed=0;verticalLabelPosition=bottom;verticalAlign=top;align=center;html=1;fontSize=12;fontStyle=0;aspect=fixed;pointerEvents=1;shape=mxgraph.aws4.git_repository;&quot; vertex=&quot;1&quot; parent=&quot;l1s-WfeYHmzIl0k62fMm-2&quot;&gt;&#10;          &lt;mxGeometry x=&quot;20&quot; y=&quot;15.5&quot; width=&quot;30&quot; height=&quot;39&quot; as=&quot;geometry&quot; /&gt;&#10;        &lt;/mxCell&gt;&#10;      &lt;/root&gt;&#10;    &lt;/mxGraphModel&gt;&#10;  &lt;/diagram&gt;&#10;&lt;/mxfile&gt;&#10;"><defs><style type="text/css">svg.ge-export-svg-dark:not(mjx-container &gt; svg) { filter: invert(100%) hue-rotate(180deg); }&#xa;svg.ge-export-svg-dark foreignObject img,&#xa;svg.ge-export-svg-dark image:not(svg.ge-export-svg-dark switch image),&#xa;svg.ge-export-svg-dark svg:not(mjx-container &gt; svg)&#xa;{ filter: invert(100%) hue-rotate(180deg) }</style></defs><g><g data-cell-id="0"><g data-cell-id="1"><g data-cell-id="l1s-WfeYHmzIl0k62fMm-2"><g/><g data-cell-id="sqtzE2Vg8_yKc3G_givv-2"><g><ellipse cx="35" cy="35" rx="35" ry="35" fill="rgb(255, 255, 255)" stroke="rgb(0, 0, 0)" pointer-events="all"/><ellipse cx="35" cy="35" rx="31" ry="31" fill="none" stroke="rgb(0, 0, 0)" pointer-events="all"/></g></g><g data-cell-id="sqtzE2Vg8_yKc3G_givv-3"><g><ellipse cx="35" cy="35" rx="30" ry="30" fill="rgb(255, 255, 255)" stroke="rgb(0, 0, 0)" pointer-events="all"/></g></g><g data-cell-id="f6pmm0lQQjv1o45NG8nA-33"><g><rect x="20" y="15.5" width="30" height="39" fill="none" stroke="none" pointer-events="all"/><path d="M 45.59 52.65 C 44.13 52.65 42.94 51.46 42.94 50 C 42.94 48.54 44.13 47.35 45.59 47.35 C 47.05 47.35 48.24 48.54 48.24 50 C 48.24 51.46 47.05 52.65 45.59 52.65 M 24.41 22.65 C 22.95 22.65 21.76 21.46 21.76 20 C 21.76 18.54 22.95 17.35 24.41 17.35 C 25.87 17.35 27.06 18.54 27.06 20 C 27.06 21.46 25.87 22.65 24.41 22.65 M 45.59 32.35 C 47.05 32.35 48.24 33.54 48.24 35 C 48.24 36.46 47.05 37.65 45.59 37.65 C 44.13 37.65 42.94 36.46 42.94 35 C 42.94 33.54 44.13 32.35 45.59 32.35 M 45.59 45.59 C 43.49 45.59 41.69 47.07 41.27 49.12 L 36.76 49.12 C 36.18 49.12 35.88 48.84 35.88 48.29 L 35.88 35.88 L 41.27 35.88 C 41.69 37.94 43.49 39.41 45.59 39.41 C 48.02 39.41 50 37.43 50 35 C 50 32.57 48.02 30.59 45.59 30.59 C 43.49 30.59 41.69 32.07 41.27 34.12 L 35.88 34.12 L 35.88 21.71 C 35.88 20.18 34.79 19.12 33.24 19.12 L 28.73 19.12 C 28.31 17.07 26.51 15.59 24.41 15.59 C 21.98 15.59 20 17.57 20 20 C 20 22.43 21.98 24.41 24.41 24.41 C 26.51 24.41 28.31 22.93 28.73 20.88 L 33.24 20.88 C 33.83 20.88 34.12 21.15 34.12 21.71 L 34.12 48.29 C 34.12 49.82 35.21 50.88 36.76 50.88 L 41.27 50.88 C 41.69 52.93 43.49 54.41 45.59 54.41 C 48.02 54.41 50 52.43 50 50 C 50 47.57 48.02 45.59 45.59 45.59" fill="#00ff00" stroke="none" pointer-events="all"/></g></g></g></g></g></g></svg>