<?xml version="1.0" encoding="UTF-8"?>
<!-- Do not edit this file with editors other than draw.io -->
<!DOCTYPE svg PUBLIC "-//W3C//DTD SVG 1.1//EN" "http://www.w3.org/Graphics/SVG/1.1/DTD/svg11.dtd">
<svg xmlns="http://www.w3.org/2000/svg" xmlns:xlink="http://www.w3.org/1999/xlink" version="1.1" width="71px" height="81px" viewBox="-0.5 -0.5 71 81" class="ge-export-svg-dark" content="&lt;mxfile host=&quot;app.diagrams.net&quot; agent=&quot;Mozilla/5.0 (Windows NT 10.0; Win64; x64) AppleWebKit/537.36 (KHTML, like Gecko) Chrome/129.0.0.0 Safari/537.36&quot; scale=&quot;1&quot; border=&quot;0&quot; version=&quot;24.7.16&quot;&gt;&#10;  &lt;diagram name=&quot;Página-1&quot; id=&quot;m8l1A8O_j_JvbqTGVBao&quot;&gt;&#10;    &lt;mxGraphModel dx=&quot;419&quot; dy=&quot;207&quot; grid=&quot;1&quot; gridSize=&quot;10&quot; guides=&quot;1&quot; tooltips=&quot;1&quot; connect=&quot;1&quot; arrows=&quot;1&quot; fold=&quot;1&quot; page=&quot;1&quot; pageScale=&quot;1&quot; pageWidth=&quot;2970&quot; pageHeight=&quot;2100&quot; math=&quot;0&quot; shadow=&quot;0&quot;&gt;&#10;      &lt;root&gt;&#10;        &lt;mxCell id=&quot;0&quot; /&gt;&#10;        &lt;mxCell id=&quot;1&quot; parent=&quot;0&quot; /&gt;&#10;        &lt;mxCell id=&quot;l1s-WfeYHmzIl0k62fMm-2&quot; value=&quot;&quot; style=&quot;group&quot; parent=&quot;1&quot; vertex=&quot;1&quot; connectable=&quot;0&quot;&gt;&#10;          &lt;mxGeometry x=&quot;400&quot; y=&quot;280&quot; width=&quot;70&quot; height=&quot;80&quot; as=&quot;geometry&quot; /&gt;&#10;        &lt;/mxCell&gt;&#10;        &lt;mxCell id=&quot;sqtzE2Vg8_yKc3G_givv-2&quot; value=&quot;&quot; style=&quot;ellipse;shape=doubleEllipse;whiteSpace=wrap;html=1;aspect=fixed;container=0;&quot; parent=&quot;l1s-WfeYHmzIl0k62fMm-2&quot; vertex=&quot;1&quot;&gt;&#10;          &lt;mxGeometry width=&quot;70&quot; height=&quot;70&quot; as=&quot;geometry&quot; /&gt;&#10;        &lt;/mxCell&gt;&#10;        &lt;mxCell id=&quot;sqtzE2Vg8_yKc3G_givv-3&quot; value=&quot;&quot; style=&quot;ellipse;whiteSpace=wrap;html=1;aspect=fixed;container=0;&quot; parent=&quot;l1s-WfeYHmzIl0k62fMm-2&quot; vertex=&quot;1&quot;&gt;&#10;          &lt;mxGeometry x=&quot;5&quot; y=&quot;5&quot; width=&quot;60&quot; height=&quot;60&quot; as=&quot;geometry&quot; /&gt;&#10;        &lt;/mxCell&gt;&#10;        &lt;mxCell id=&quot;f6pmm0lQQjv1o45NG8nA-24&quot; value=&quot;&quot; style=&quot;sketch=0;pointerEvents=1;shadow=0;dashed=0;html=1;strokeColor=none;fillColor=#00FF00;labelPosition=center;verticalLabelPosition=bottom;verticalAlign=top;outlineConnect=0;align=center;shape=mxgraph.office.communications.ucma_application;&quot; vertex=&quot;1&quot; parent=&quot;l1s-WfeYHmzIl0k62fMm-2&quot;&gt;&#10;          &lt;mxGeometry x=&quot;13.5&quot; y=&quot;20&quot; width=&quot;43&quot; height=&quot;30&quot; as=&quot;geometry&quot; /&gt;&#10;        &lt;/mxCell&gt;&#10;      &lt;/root&gt;&#10;    &lt;/mxGraphModel&gt;&#10;  &lt;/diagram&gt;&#10;&lt;/mxfile&gt;&#10;"><defs><style type="text/css">svg.ge-export-svg-dark:not(mjx-container &gt; svg) { filter: invert(100%) hue-rotate(180deg); }&#xa;svg.ge-export-svg-dark foreignObject img,&#xa;svg.ge-export-svg-dark image:not(svg.ge-export-svg-dark switch image),&#xa;svg.ge-export-svg-dark svg:not(mjx-container &gt; svg)&#xa;{ filter: invert(100%) hue-rotate(180deg) }</style></defs><g><g data-cell-id="0"><g data-cell-id="1"><g data-cell-id="l1s-WfeYHmzIl0k62fMm-2"><g/><g data-cell-id="sqtzE2Vg8_yKc3G_givv-2"><g><ellipse cx="35" cy="35" rx="35" ry="35" fill="rgb(255, 255, 255)" stroke="rgb(0, 0, 0)" pointer-events="all"/><ellipse cx="35" cy="35" rx="31" ry="31" fill="none" stroke="rgb(0, 0, 0)" pointer-events="all"/></g></g><g data-cell-id="sqtzE2Vg8_yKc3G_givv-3"><g><ellipse cx="35" cy="35" rx="30" ry="30" fill="rgb(255, 255, 255)" stroke="rgb(0, 0, 0)" pointer-events="all"/></g></g><g data-cell-id="f6pmm0lQQjv1o45NG8nA-24"><g><rect x="13.5" y="20" width="43" height="30" fill="none" stroke="none" pointer-events="all"/><path d="M 41.35 37.78 L 43.47 37.78 L 43.96 35.56 L 41.84 35.56 Z M 39.17 41.67 L 39.78 38.89 L 37.9 38.89 L 38.14 37.78 L 40.02 37.78 L 40.5 35.56 L 38.51 35.56 L 38.75 34.45 L 40.74 34.45 L 41.36 31.67 L 42.69 31.67 L 42.08 34.45 L 44.2 34.45 L 44.8 31.67 L 46.13 31.67 L 45.52 34.45 L 47.4 34.45 L 47.16 35.56 L 45.35 35.56 L 44.87 37.78 L 46.85 37.78 L 46.56 38.89 L 44.56 38.89 L 43.96 41.67 L 42.62 41.67 L 43.23 38.89 L 41.11 38.89 L 40.51 41.67 Z M 36.35 44.18 C 34.29 45.16 30.51 45.23 28.66 44.55 C 25.49 43.49 23.48 40.87 23.55 36.96 C 23.66 34.14 24.85 31.33 28.39 29.68 C 30.69 28.68 34.31 28.75 36.35 29.61 L 36.35 32.17 C 34.96 31.45 33.4 31.04 31.39 31.3 C 28.3 31.84 26.54 33.89 26.4 36.7 C 26.28 40.38 28.27 42.09 30.64 42.63 C 32.45 42.98 34.65 42.72 36.35 41.73 Z M 54.68 47.73 L 54.68 25.56 L 15.32 25.56 L 15.32 47.77 C 15.33 48.11 15.53 48.3 15.91 48.32 L 54.06 48.32 C 54.47 48.32 54.68 48.09 54.68 47.73 Z M 54.08 49.99 L 15.98 49.99 C 14.61 50 13.57 49.03 13.5 47.9 L 13.5 22.19 C 13.57 20.72 14.86 20 15.92 20.01 L 54.12 20.01 C 55.45 20.01 56.5 21.1 56.48 22.19 L 56.48 47.88 C 56.48 48.73 55.6 49.99 54.08 49.99 Z M 45.59 23.34 L 47.4 23.34 L 47.4 21.67 L 45.59 21.67 Z M 49.21 23.34 L 51.03 23.34 L 51.03 21.67 L 49.21 21.67 Z M 52.85 23.34 L 54.67 23.34 L 54.67 21.67 L 52.85 21.67 Z" fill="#00ff00" stroke="none" pointer-events="all"/></g></g></g></g></g></g></svg>