<?xml version="1.0" encoding="UTF-8"?>
<!-- Do not edit this file with editors other than draw.io -->
<!DOCTYPE svg PUBLIC "-//W3C//DTD SVG 1.1//EN" "http://www.w3.org/Graphics/SVG/1.1/DTD/svg11.dtd">
<svg xmlns="http://www.w3.org/2000/svg" xmlns:xlink="http://www.w3.org/1999/xlink" version="1.1" width="71px" height="81px" viewBox="-0.5 -0.5 71 81" class="ge-export-svg-dark" content="&lt;mxfile host=&quot;app.diagrams.net&quot; agent=&quot;Mozilla/5.0 (Windows NT 10.0; Win64; x64) AppleWebKit/537.36 (KHTML, like Gecko) Chrome/129.0.0.0 Safari/537.36&quot; scale=&quot;1&quot; border=&quot;0&quot; version=&quot;24.7.16&quot;&gt;&#10;  &lt;diagram name=&quot;Página-1&quot; id=&quot;m8l1A8O_j_JvbqTGVBao&quot;&gt;&#10;    &lt;mxGraphModel dx=&quot;419&quot; dy=&quot;207&quot; grid=&quot;1&quot; gridSize=&quot;10&quot; guides=&quot;1&quot; tooltips=&quot;1&quot; connect=&quot;1&quot; arrows=&quot;1&quot; fold=&quot;1&quot; page=&quot;1&quot; pageScale=&quot;1&quot; pageWidth=&quot;2970&quot; pageHeight=&quot;2100&quot; math=&quot;0&quot; shadow=&quot;0&quot;&gt;&#10;      &lt;root&gt;&#10;        &lt;mxCell id=&quot;0&quot; /&gt;&#10;        &lt;mxCell id=&quot;1&quot; parent=&quot;0&quot; /&gt;&#10;        &lt;mxCell id=&quot;l1s-WfeYHmzIl0k62fMm-2&quot; value=&quot;&quot; style=&quot;group&quot; parent=&quot;1&quot; vertex=&quot;1&quot; connectable=&quot;0&quot;&gt;&#10;          &lt;mxGeometry x=&quot;400&quot; y=&quot;280&quot; width=&quot;70&quot; height=&quot;80&quot; as=&quot;geometry&quot; /&gt;&#10;        &lt;/mxCell&gt;&#10;        &lt;mxCell id=&quot;sqtzE2Vg8_yKc3G_givv-2&quot; value=&quot;&quot; style=&quot;ellipse;shape=doubleEllipse;whiteSpace=wrap;html=1;aspect=fixed;container=0;&quot; parent=&quot;l1s-WfeYHmzIl0k62fMm-2&quot; vertex=&quot;1&quot;&gt;&#10;          &lt;mxGeometry width=&quot;70&quot; height=&quot;70&quot; as=&quot;geometry&quot; /&gt;&#10;        &lt;/mxCell&gt;&#10;        &lt;mxCell id=&quot;sqtzE2Vg8_yKc3G_givv-3&quot; value=&quot;&quot; style=&quot;ellipse;whiteSpace=wrap;html=1;aspect=fixed;container=0;&quot; parent=&quot;l1s-WfeYHmzIl0k62fMm-2&quot; vertex=&quot;1&quot;&gt;&#10;          &lt;mxGeometry x=&quot;5&quot; y=&quot;5&quot; width=&quot;60&quot; height=&quot;60&quot; as=&quot;geometry&quot; /&gt;&#10;        &lt;/mxCell&gt;&#10;        &lt;mxCell id=&quot;f6pmm0lQQjv1o45NG8nA-6&quot; value=&quot;&quot; style=&quot;sketch=0;pointerEvents=1;shadow=0;dashed=0;html=1;strokeColor=none;fillColor=#00FF00;labelPosition=center;verticalLabelPosition=bottom;verticalAlign=top;outlineConnect=0;align=center;shape=mxgraph.office.sites.meeting_workspace_site;&quot; vertex=&quot;1&quot; parent=&quot;l1s-WfeYHmzIl0k62fMm-2&quot;&gt;&#10;          &lt;mxGeometry x=&quot;15&quot; y=&quot;16.5&quot; width=&quot;42&quot; height=&quot;37&quot; as=&quot;geometry&quot; /&gt;&#10;        &lt;/mxCell&gt;&#10;      &lt;/root&gt;&#10;    &lt;/mxGraphModel&gt;&#10;  &lt;/diagram&gt;&#10;&lt;/mxfile&gt;&#10;"><defs><style type="text/css">svg.ge-export-svg-dark:not(mjx-container &gt; svg) { filter: invert(100%) hue-rotate(180deg); }&#xa;svg.ge-export-svg-dark foreignObject img,&#xa;svg.ge-export-svg-dark image:not(svg.ge-export-svg-dark switch image),&#xa;svg.ge-export-svg-dark svg:not(mjx-container &gt; svg)&#xa;{ filter: invert(100%) hue-rotate(180deg) }</style></defs><g><g data-cell-id="0"><g data-cell-id="1"><g data-cell-id="l1s-WfeYHmzIl0k62fMm-2"><g/><g data-cell-id="sqtzE2Vg8_yKc3G_givv-2"><g><ellipse cx="35" cy="35" rx="35" ry="35" fill="rgb(255, 255, 255)" stroke="rgb(0, 0, 0)" pointer-events="all"/><ellipse cx="35" cy="35" rx="31" ry="31" fill="none" stroke="rgb(0, 0, 0)" pointer-events="all"/></g></g><g data-cell-id="sqtzE2Vg8_yKc3G_givv-3"><g><ellipse cx="35" cy="35" rx="30" ry="30" fill="rgb(255, 255, 255)" stroke="rgb(0, 0, 0)" pointer-events="all"/></g></g><g data-cell-id="f6pmm0lQQjv1o45NG8nA-6"><g><rect x="15" y="16.5" width="42" height="37" fill="none" stroke="none" pointer-events="all"/><path d="M 42.13 19.81 L 43.76 19.81 L 43.76 18.15 L 42.13 18.15 Z M 45.39 19.81 L 47.02 19.81 L 47.02 18.15 L 45.39 18.15 Z M 17.16 46.27 C 16 46.27 15 45.29 15 44.09 L 15 18.7 C 15 17.45 16.02 16.5 17.17 16.5 L 49.72 16.5 C 50.89 16.5 51.9 17.46 51.9 18.69 L 51.9 38.65 C 51.2 38.75 50.69 39 50.27 39.27 L 50.27 22.01 L 16.63 22.01 L 16.63 44.05 C 16.63 44.51 16.97 44.62 17.14 44.62 L 32.11 44.62 C 31.32 45.05 30.78 45.58 30.45 46.27 Z M 22.05 37.45 L 24.77 37.45 L 24.77 33.04 L 32.91 33.04 L 32.91 29.73 L 29.65 29.73 L 29.65 24.77 L 37.25 24.77 L 37.25 29.73 L 33.99 29.73 L 33.99 33.04 L 42.13 33.04 L 42.13 34.94 C 41.72 35.23 41.34 35.65 41.05 36.14 L 41.05 34.14 L 33.99 34.14 L 33.99 37.45 L 36.71 37.45 L 36.71 38.7 C 35.69 38.55 34.72 38.8 33.81 39.47 C 33.15 39.99 32.55 40.8 32.25 41.86 L 30.19 41.86 L 30.19 37.45 L 32.91 37.45 L 32.91 34.14 L 25.85 34.14 L 25.85 37.45 L 28.57 37.45 L 28.57 41.86 L 22.05 41.86 Z M 31.55 50.74 C 31.62 49.93 31.7 49.13 31.82 48.35 C 31.9 47.82 32.08 46.82 32.78 46.35 C 32.89 46.28 33.45 45.94 33.72 45.8 C 33.88 45.71 34.14 45.68 34.34 45.8 C 35.41 46.69 36.87 46.93 38.22 45.74 L 34.72 50.74 Z M 36.16 45.56 C 35.1 45.56 33.88 44.59 33.88 42.99 C 33.88 41.8 34.76 40.49 36.24 40.49 C 37.55 40.55 38.46 41.77 38.44 43.06 C 38.44 44.33 37.47 45.56 36.16 45.56 Z M 40.13 44.12 C 40.21 43.57 40.27 42.99 40.43 42.52 C 40.6 41.98 40.92 41.68 41.26 41.48 L 41.94 41.09 C 42.1 41.01 42.33 40.89 42.54 41.06 C 43.55 41.98 45.02 42.13 46.15 41.08 C 46.29 40.91 46.52 40.97 46.73 41.08 C 47 41.2 47.31 41.39 47.61 41.56 C 48.02 41.82 48.22 42.21 48.33 42.67 C 48.48 43.22 48.51 43.65 48.59 44.12 Z M 44.31 40.76 C 43.3 40.76 42.24 39.79 42.24 38.33 C 42.24 36.98 43.25 35.91 44.35 35.91 C 45.66 35.91 46.47 37.14 46.47 38.3 C 46.47 39.67 45.57 40.76 44.31 40.76 Z M 34.9 53.5 C 34.62 53.5 34.43 53.13 34.54 52.93 L 39.69 45.67 C 39.94 45.3 40.11 45.23 40.37 45.23 L 48.37 45.23 C 48.58 45.23 48.74 45.35 48.87 45.5 L 54.95 52.89 C 55.17 53.16 54.85 53.5 54.64 53.5 Z M 54.5 50.74 L 50.32 45.72 C 50.37 45.72 50.45 45.74 50.55 45.77 C 51.65 46.71 53.13 46.89 54.35 45.81 C 54.5 45.66 54.7 45.71 54.84 45.78 L 55.82 46.34 C 56.23 46.58 56.46 46.95 56.59 47.41 C 56.88 48.5 56.96 49.74 57 50.74 Z M 52.37 45.55 C 51.26 45.52 50.16 44.49 50.16 42.97 C 50.17 41.82 51.04 40.46 52.53 40.48 C 53.74 40.54 54.79 41.72 54.71 43.13 C 54.68 44.13 53.86 45.6 52.37 45.55 Z M 48.64 19.81 L 50.27 19.81 L 50.27 18.15 L 48.64 18.15 Z" fill="#00ff00" stroke="none" pointer-events="all"/></g></g></g></g></g></g></svg>