<?xml version="1.0" encoding="UTF-8"?>
<!-- Do not edit this file with editors other than draw.io -->
<!DOCTYPE svg PUBLIC "-//W3C//DTD SVG 1.1//EN" "http://www.w3.org/Graphics/SVG/1.1/DTD/svg11.dtd">
<svg xmlns="http://www.w3.org/2000/svg" xmlns:xlink="http://www.w3.org/1999/xlink" version="1.1" width="71px" height="81px" viewBox="-0.5 -0.5 71 81" class="ge-export-svg-dark" content="&lt;mxfile host=&quot;app.diagrams.net&quot; agent=&quot;Mozilla/5.0 (Windows NT 10.0; Win64; x64) AppleWebKit/537.36 (KHTML, like Gecko) Chrome/129.0.0.0 Safari/537.36&quot; scale=&quot;1&quot; border=&quot;0&quot; version=&quot;24.7.16&quot;&gt;&#10;  &lt;diagram name=&quot;Página-1&quot; id=&quot;m8l1A8O_j_JvbqTGVBao&quot;&gt;&#10;    &lt;mxGraphModel dx=&quot;419&quot; dy=&quot;207&quot; grid=&quot;1&quot; gridSize=&quot;10&quot; guides=&quot;1&quot; tooltips=&quot;1&quot; connect=&quot;1&quot; arrows=&quot;1&quot; fold=&quot;1&quot; page=&quot;1&quot; pageScale=&quot;1&quot; pageWidth=&quot;2970&quot; pageHeight=&quot;2100&quot; math=&quot;0&quot; shadow=&quot;0&quot;&gt;&#10;      &lt;root&gt;&#10;        &lt;mxCell id=&quot;0&quot; /&gt;&#10;        &lt;mxCell id=&quot;1&quot; parent=&quot;0&quot; /&gt;&#10;        &lt;mxCell id=&quot;l1s-WfeYHmzIl0k62fMm-2&quot; value=&quot;&quot; style=&quot;group&quot; parent=&quot;1&quot; vertex=&quot;1&quot; connectable=&quot;0&quot;&gt;&#10;          &lt;mxGeometry x=&quot;400&quot; y=&quot;280&quot; width=&quot;70&quot; height=&quot;80&quot; as=&quot;geometry&quot; /&gt;&#10;        &lt;/mxCell&gt;&#10;        &lt;mxCell id=&quot;sqtzE2Vg8_yKc3G_givv-2&quot; value=&quot;&quot; style=&quot;ellipse;shape=doubleEllipse;whiteSpace=wrap;html=1;aspect=fixed;container=0;&quot; parent=&quot;l1s-WfeYHmzIl0k62fMm-2&quot; vertex=&quot;1&quot;&gt;&#10;          &lt;mxGeometry width=&quot;70&quot; height=&quot;70&quot; as=&quot;geometry&quot; /&gt;&#10;        &lt;/mxCell&gt;&#10;        &lt;mxCell id=&quot;sqtzE2Vg8_yKc3G_givv-3&quot; value=&quot;&quot; style=&quot;ellipse;whiteSpace=wrap;html=1;aspect=fixed;container=0;&quot; parent=&quot;l1s-WfeYHmzIl0k62fMm-2&quot; vertex=&quot;1&quot;&gt;&#10;          &lt;mxGeometry x=&quot;5&quot; y=&quot;5&quot; width=&quot;60&quot; height=&quot;60&quot; as=&quot;geometry&quot; /&gt;&#10;        &lt;/mxCell&gt;&#10;        &lt;mxCell id=&quot;f6pmm0lQQjv1o45NG8nA-3&quot; value=&quot;&quot; style=&quot;sketch=0;outlineConnect=0;gradientColor=none;fontColor=#545B64;strokeColor=none;fillColor=#00FF00;dashed=0;verticalLabelPosition=bottom;verticalAlign=top;align=center;html=1;fontSize=12;fontStyle=0;aspect=fixed;shape=mxgraph.aws4.illustration_notification;pointerEvents=1&quot; vertex=&quot;1&quot; parent=&quot;l1s-WfeYHmzIl0k62fMm-2&quot;&gt;&#10;          &lt;mxGeometry x=&quot;10&quot; y=&quot;14.75&quot; width=&quot;50&quot; height=&quot;40.5&quot; as=&quot;geometry&quot; /&gt;&#10;        &lt;/mxCell&gt;&#10;      &lt;/root&gt;&#10;    &lt;/mxGraphModel&gt;&#10;  &lt;/diagram&gt;&#10;&lt;/mxfile&gt;&#10;"><defs><style type="text/css">svg.ge-export-svg-dark:not(mjx-container &gt; svg) { filter: invert(100%) hue-rotate(180deg); }&#xa;svg.ge-export-svg-dark foreignObject img,&#xa;svg.ge-export-svg-dark image:not(svg.ge-export-svg-dark switch image),&#xa;svg.ge-export-svg-dark svg:not(mjx-container &gt; svg)&#xa;{ filter: invert(100%) hue-rotate(180deg) }</style></defs><g><g data-cell-id="0"><g data-cell-id="1"><g data-cell-id="l1s-WfeYHmzIl0k62fMm-2"><g/><g data-cell-id="sqtzE2Vg8_yKc3G_givv-2"><g><ellipse cx="35" cy="35" rx="35" ry="35" fill="rgb(255, 255, 255)" stroke="rgb(0, 0, 0)" pointer-events="all"/><ellipse cx="35" cy="35" rx="31" ry="31" fill="none" stroke="rgb(0, 0, 0)" pointer-events="all"/></g></g><g data-cell-id="sqtzE2Vg8_yKc3G_givv-3"><g><ellipse cx="35" cy="35" rx="30" ry="30" fill="rgb(255, 255, 255)" stroke="rgb(0, 0, 0)" pointer-events="all"/></g></g><g data-cell-id="f6pmm0lQQjv1o45NG8nA-3"><g><rect x="10" y="14.75" width="50" height="40.5" fill="none" stroke="none" pointer-events="all"/><path d="M 43.9 26.48 C 45.92 26.48 47.54 28.1 47.54 30.12 C 47.54 32.13 45.92 33.76 43.9 33.76 C 41.89 33.76 40.26 32.13 40.26 30.12 C 40.26 28.1 41.89 26.48 43.9 26.48 Z M 46.79 34.83 C 46.38 34.66 45.96 34.52 45.52 34.43 C 47.27 33.77 48.51 32.09 48.51 30.12 C 48.51 27.58 46.44 25.51 43.9 25.51 L 43.9 25.51 C 41.36 25.51 39.29 27.58 39.29 30.12 C 39.29 32.12 40.58 33.83 42.38 34.47 C 39.64 35.17 37.01 37.69 36.74 41.57 C 36.72 41.85 36.94 42.09 37.22 42.09 L 45.18 42.1 L 45.18 41.13 L 37.79 41.12 C 38.32 37.33 41.4 35.23 43.94 35.23 L 43.94 35.23 C 44.8 35.23 45.64 35.4 46.42 35.71 Z M 23.23 50.84 L 42.76 50.84 L 42.76 51.82 C 42.76 53.54 41.86 54.28 40.23 54.28 L 25.79 54.28 C 24.16 54.28 23.23 53.51 23.23 51.8 Z M 22.26 41.61 L 22.26 51.8 C 22.26 54.02 23.62 55.25 25.79 55.25 L 40.23 55.25 C 42.4 55.25 43.73 54.04 43.73 51.82 L 43.73 44.18 L 42.76 44.18 L 42.76 49.87 L 23.23 49.87 L 23.23 41.61 Z M 11.98 24.5 L 28.72 24.5 C 29.18 24.5 29.62 24.96 29.62 25.63 L 29.62 32.66 C 29.62 33.33 29.18 33.79 28.72 33.79 L 23.83 33.79 C 23.52 33.79 23.25 33.97 23.25 34.3 L 23.25 39.07 L 17.82 34.01 C 17.62 33.83 17.5 33.79 17.32 33.79 L 11.98 33.79 C 11.52 33.79 11.08 33.33 11.08 32.66 L 11.08 25.63 C 11.08 24.96 11.52 24.5 11.98 24.5 Z M 11.98 23.53 C 10.91 23.53 10.11 24.51 10.11 25.63 L 10.11 32.66 C 10.11 33.78 10.91 34.76 11.98 34.76 L 17.24 34.76 L 23.41 40.54 C 23.72 40.83 24.22 40.61 24.22 40.19 L 24.22 34.76 L 28.72 34.76 C 29.79 34.76 30.59 33.78 30.59 32.66 L 30.59 25.63 C 30.59 24.51 29.79 23.53 28.72 23.53 Z M 31.51 17.66 L 31.51 18.63 L 36.39 18.63 L 36.39 17.66 Z M 29.11 17.18 C 28.55 17.18 28.11 17.63 28.11 18.18 C 28.11 18.73 28.55 19.18 29.11 19.18 C 29.66 19.18 30.11 18.73 30.11 18.18 C 30.11 17.63 29.66 17.18 29.11 17.18 Z M 26.18 15.72 L 39.82 15.72 C 41.45 15.72 42.76 17.07 42.76 18.79 L 42.76 20.62 L 23.23 20.62 L 23.23 18.79 C 23.23 17.07 24.54 15.72 26.18 15.72 Z M 26.18 14.75 C 24 14.75 22.26 16.57 22.26 18.79 L 22.26 22.56 L 23.23 22.56 L 23.23 21.59 L 42.76 21.59 L 42.76 24.02 L 43.73 24.02 L 43.73 18.79 C 43.73 16.57 41.99 14.75 39.82 14.75 Z M 52.31 41.57 C 55.43 41.57 58.28 43.74 58.81 47.47 L 46.16 47.46 C 46.68 43.66 49.77 41.57 52.31 41.57 Z M 52.27 32.82 C 54.28 32.82 55.91 34.44 55.91 36.45 C 55.91 38.47 54.28 40.09 52.27 40.09 C 50.25 40.09 48.63 38.47 48.63 36.45 C 48.63 34.44 50.25 32.82 52.27 32.82 Z M 52.27 31.84 C 49.73 31.84 47.66 33.91 47.66 36.45 C 47.66 38.46 48.95 40.17 50.74 40.8 C 48.01 41.51 45.38 44.03 45.1 47.91 C 45.09 48.19 45.31 48.43 45.59 48.43 L 59.39 48.44 C 59.67 48.44 59.89 48.2 59.87 47.92 C 59.56 44.05 56.98 41.44 53.89 40.77 C 55.63 40.11 56.88 38.42 56.88 36.45 C 56.88 33.91 54.81 31.84 52.27 31.84 Z" fill="#00ff00" stroke="none" pointer-events="all"/></g></g></g></g></g></g></svg>