<?xml version="1.0" encoding="UTF-8"?>
<!-- Do not edit this file with editors other than draw.io -->
<!DOCTYPE svg PUBLIC "-//W3C//DTD SVG 1.1//EN" "http://www.w3.org/Graphics/SVG/1.1/DTD/svg11.dtd">
<svg xmlns="http://www.w3.org/2000/svg" xmlns:xlink="http://www.w3.org/1999/xlink" version="1.1" width="71px" height="81px" viewBox="-0.5 -0.5 71 81" class="ge-export-svg-dark" content="&lt;mxfile host=&quot;app.diagrams.net&quot; agent=&quot;Mozilla/5.0 (Windows NT 10.0; Win64; x64) AppleWebKit/537.36 (KHTML, like Gecko) Chrome/129.0.0.0 Safari/537.36&quot; scale=&quot;1&quot; border=&quot;0&quot; version=&quot;24.7.16&quot;&gt;&#10;  &lt;diagram name=&quot;Página-1&quot; id=&quot;m8l1A8O_j_JvbqTGVBao&quot;&gt;&#10;    &lt;mxGraphModel dx=&quot;419&quot; dy=&quot;207&quot; grid=&quot;1&quot; gridSize=&quot;10&quot; guides=&quot;1&quot; tooltips=&quot;1&quot; connect=&quot;1&quot; arrows=&quot;1&quot; fold=&quot;1&quot; page=&quot;1&quot; pageScale=&quot;1&quot; pageWidth=&quot;2970&quot; pageHeight=&quot;2100&quot; math=&quot;0&quot; shadow=&quot;0&quot;&gt;&#10;      &lt;root&gt;&#10;        &lt;mxCell id=&quot;0&quot; /&gt;&#10;        &lt;mxCell id=&quot;1&quot; parent=&quot;0&quot; /&gt;&#10;        &lt;mxCell id=&quot;l1s-WfeYHmzIl0k62fMm-2&quot; value=&quot;&quot; style=&quot;group&quot; parent=&quot;1&quot; vertex=&quot;1&quot; connectable=&quot;0&quot;&gt;&#10;          &lt;mxGeometry x=&quot;400&quot; y=&quot;280&quot; width=&quot;70&quot; height=&quot;80&quot; as=&quot;geometry&quot; /&gt;&#10;        &lt;/mxCell&gt;&#10;        &lt;mxCell id=&quot;sqtzE2Vg8_yKc3G_givv-2&quot; value=&quot;&quot; style=&quot;ellipse;shape=doubleEllipse;whiteSpace=wrap;html=1;aspect=fixed;container=0;&quot; parent=&quot;l1s-WfeYHmzIl0k62fMm-2&quot; vertex=&quot;1&quot;&gt;&#10;          &lt;mxGeometry width=&quot;70&quot; height=&quot;70&quot; as=&quot;geometry&quot; /&gt;&#10;        &lt;/mxCell&gt;&#10;        &lt;mxCell id=&quot;sqtzE2Vg8_yKc3G_givv-3&quot; value=&quot;&quot; style=&quot;ellipse;whiteSpace=wrap;html=1;aspect=fixed;container=0;&quot; parent=&quot;l1s-WfeYHmzIl0k62fMm-2&quot; vertex=&quot;1&quot;&gt;&#10;          &lt;mxGeometry x=&quot;5&quot; y=&quot;5&quot; width=&quot;60&quot; height=&quot;60&quot; as=&quot;geometry&quot; /&gt;&#10;        &lt;/mxCell&gt;&#10;        &lt;mxCell id=&quot;f6pmm0lQQjv1o45NG8nA-2&quot; value=&quot;&quot; style=&quot;sketch=0;outlineConnect=0;fontColor=#232F3E;gradientColor=none;fillColor=#00FF00;strokeColor=none;dashed=0;verticalLabelPosition=bottom;verticalAlign=top;align=center;html=1;fontSize=12;fontStyle=0;aspect=fixed;pointerEvents=1;shape=mxgraph.aws4.documents2;&quot; vertex=&quot;1&quot; parent=&quot;l1s-WfeYHmzIl0k62fMm-2&quot;&gt;&#10;          &lt;mxGeometry x=&quot;16.5&quot; y=&quot;13.45999999999998&quot; width=&quot;37&quot; height=&quot;43.07&quot; as=&quot;geometry&quot; /&gt;&#10;        &lt;/mxCell&gt;&#10;      &lt;/root&gt;&#10;    &lt;/mxGraphModel&gt;&#10;  &lt;/diagram&gt;&#10;&lt;/mxfile&gt;&#10;"><defs><style type="text/css">svg.ge-export-svg-dark:not(mjx-container &gt; svg) { filter: invert(100%) hue-rotate(180deg); }&#xa;svg.ge-export-svg-dark foreignObject img,&#xa;svg.ge-export-svg-dark image:not(svg.ge-export-svg-dark switch image),&#xa;svg.ge-export-svg-dark svg:not(mjx-container &gt; svg)&#xa;{ filter: invert(100%) hue-rotate(180deg) }</style></defs><g><g data-cell-id="0"><g data-cell-id="1"><g data-cell-id="l1s-WfeYHmzIl0k62fMm-2"><g/><g data-cell-id="sqtzE2Vg8_yKc3G_givv-2"><g><ellipse cx="35" cy="35" rx="35" ry="35" fill="rgb(255, 255, 255)" stroke="rgb(0, 0, 0)" pointer-events="all"/><ellipse cx="35" cy="35" rx="31" ry="31" fill="none" stroke="rgb(0, 0, 0)" pointer-events="all"/></g></g><g data-cell-id="sqtzE2Vg8_yKc3G_givv-3"><g><ellipse cx="35" cy="35" rx="30" ry="30" fill="rgb(255, 255, 255)" stroke="rgb(0, 0, 0)" pointer-events="all"/></g></g><g data-cell-id="f6pmm0lQQjv1o45NG8nA-2"><g><rect x="16.5" y="13.46" width="37" height="43.07" fill="none" stroke="none" pointer-events="all"/><path d="M 26.18 48.72 C 25.96 48.95 25.67 49.08 25.35 49.09 C 25.02 49.07 24.73 48.98 24.5 48.76 C 24.03 48.3 24.01 47.55 24.47 47.08 C 24.69 46.85 24.98 46.72 25.3 46.71 L 25.33 46.71 C 25.63 46.71 25.92 46.83 26.15 47.04 C 26.38 47.26 26.51 47.56 26.51 47.88 C 26.52 48.19 26.4 48.49 26.18 48.72 Z M 23.06 45.72 C 21.86 46.97 21.9 48.96 23.15 50.16 C 23.74 50.73 24.51 51.04 25.32 51.04 L 25.39 51.04 C 26.23 51.02 27.01 50.68 27.59 50.08 C 28.17 49.47 28.48 48.68 28.46 47.84 C 28.45 47 28.11 46.22 27.5 45.64 C 26.25 44.44 24.26 44.48 23.06 45.72 Z M 31.01 51.41 L 29.1 51.03 C 28.83 50.98 28.55 51.04 28.33 51.2 L 27.35 51.92 C 27.13 52.08 26.99 52.32 26.96 52.59 L 26.73 54.51 L 23.91 54.51 L 23.69 52.6 C 23.66 52.33 23.52 52.09 23.3 51.93 L 22.31 51.2 C 22.09 51.03 21.81 50.97 21.54 51.03 L 19.65 51.41 L 18.78 48.72 L 20.55 47.91 C 20.8 47.79 20.99 47.58 21.07 47.32 L 21.44 46.18 C 21.53 45.92 21.5 45.64 21.36 45.4 L 20.41 43.7 L 22.7 42.05 L 24.01 43.47 C 24.19 43.67 24.42 43.76 24.73 43.78 L 25.96 43.78 C 26.23 43.77 26.49 43.66 26.67 43.46 L 27.97 42.05 L 30.25 43.71 L 29.3 45.4 C 29.17 45.64 29.14 45.92 29.22 46.18 L 29.59 47.33 C 29.68 47.59 29.87 47.8 30.11 47.92 L 31.88 48.73 Z M 33.48 47.32 L 31.32 46.32 L 31.21 45.99 L 32.38 43.91 C 32.62 43.48 32.5 42.94 32.1 42.64 L 28.42 39.96 C 28.02 39.67 27.46 39.72 27.13 40.09 L 25.52 41.83 L 25.15 41.83 L 23.54 40.09 C 23.21 39.72 22.65 39.67 22.25 39.96 L 18.56 42.64 C 18.16 42.93 18.04 43.47 18.28 43.9 L 19.45 45.98 L 19.35 46.31 L 17.17 47.31 C 16.72 47.51 16.5 48.02 16.65 48.5 L 18.06 52.83 C 18.21 53.31 18.69 53.59 19.18 53.49 L 21.5 53.03 L 21.8 53.25 L 22.07 55.6 C 22.13 56.09 22.55 56.46 23.04 56.46 L 27.6 56.47 L 27.6 56.47 C 28.1 56.47 28.51 56.1 28.57 55.6 L 28.85 53.24 L 29.14 53.03 L 31.47 53.5 C 31.95 53.6 32.44 53.31 32.59 52.84 L 34.01 48.51 C 34.16 48.04 33.94 47.52 33.48 47.32 Z M 47.64 53.53 L 49.6 53.53 L 49.6 54.53 C 49.6 55.6 48.73 56.46 47.67 56.46 L 33.01 56.46 L 33.01 54.51 L 47.67 54.51 Z M 24.22 38.9 L 22.27 38.9 L 22.27 19.35 C 22.27 18.29 23.14 17.43 24.2 17.43 L 25.2 17.43 L 25.2 19.38 L 24.2 19.38 Z M 31.06 27.19 L 38.86 27.19 L 38.86 25.23 L 31.06 25.23 Z M 31.06 36.94 L 42.77 36.94 L 42.77 34.99 L 31.06 34.99 Z M 31.06 32.07 L 47.64 32.07 L 47.64 30.11 L 31.06 30.11 Z M 44.72 22.31 L 44.72 16.55 L 50.41 22.31 Z M 53.22 22.37 L 44.76 13.81 C 44.58 13.63 44.33 13.52 44.07 13.52 L 28.1 13.52 C 27.04 13.52 26.18 14.39 26.18 15.45 L 26.18 37.92 L 28.13 37.92 L 28.1 15.48 L 42.77 15.48 L 42.77 23.28 C 42.77 23.82 43.2 24.26 43.74 24.26 L 51.55 24.26 L 51.55 23.46 L 51.57 50.61 L 34.96 50.61 L 34.96 52.56 L 51.57 52.56 C 52.63 52.56 53.5 51.69 53.5 50.63 L 53.5 23.06 C 53.5 22.8 53.4 22.55 53.22 22.37 Z" fill="#00ff00" stroke="none" pointer-events="all"/></g></g></g></g></g></g></svg>