<?xml version="1.0" encoding="UTF-8"?>
<!-- Do not edit this file with editors other than draw.io -->
<!DOCTYPE svg PUBLIC "-//W3C//DTD SVG 1.1//EN" "http://www.w3.org/Graphics/SVG/1.1/DTD/svg11.dtd">
<svg xmlns="http://www.w3.org/2000/svg" xmlns:xlink="http://www.w3.org/1999/xlink" version="1.1" width="71px" height="81px" viewBox="-0.5 -0.5 71 81" class="ge-export-svg-dark" content="&lt;mxfile host=&quot;app.diagrams.net&quot; agent=&quot;Mozilla/5.0 (Windows NT 10.0; Win64; x64) AppleWebKit/537.36 (KHTML, like Gecko) Chrome/129.0.0.0 Safari/537.36&quot; scale=&quot;1&quot; border=&quot;0&quot; version=&quot;24.7.16&quot;&gt;&#10;  &lt;diagram name=&quot;Página-1&quot; id=&quot;m8l1A8O_j_JvbqTGVBao&quot;&gt;&#10;    &lt;mxGraphModel dx=&quot;419&quot; dy=&quot;207&quot; grid=&quot;1&quot; gridSize=&quot;10&quot; guides=&quot;1&quot; tooltips=&quot;1&quot; connect=&quot;1&quot; arrows=&quot;1&quot; fold=&quot;1&quot; page=&quot;1&quot; pageScale=&quot;1&quot; pageWidth=&quot;2970&quot; pageHeight=&quot;2100&quot; math=&quot;0&quot; shadow=&quot;0&quot;&gt;&#10;      &lt;root&gt;&#10;        &lt;mxCell id=&quot;0&quot; /&gt;&#10;        &lt;mxCell id=&quot;1&quot; parent=&quot;0&quot; /&gt;&#10;        &lt;mxCell id=&quot;l1s-WfeYHmzIl0k62fMm-2&quot; value=&quot;&quot; style=&quot;group&quot; parent=&quot;1&quot; vertex=&quot;1&quot; connectable=&quot;0&quot;&gt;&#10;          &lt;mxGeometry x=&quot;400&quot; y=&quot;280&quot; width=&quot;70&quot; height=&quot;80&quot; as=&quot;geometry&quot; /&gt;&#10;        &lt;/mxCell&gt;&#10;        &lt;mxCell id=&quot;sqtzE2Vg8_yKc3G_givv-2&quot; value=&quot;&quot; style=&quot;ellipse;shape=doubleEllipse;whiteSpace=wrap;html=1;aspect=fixed;container=0;&quot; parent=&quot;l1s-WfeYHmzIl0k62fMm-2&quot; vertex=&quot;1&quot;&gt;&#10;          &lt;mxGeometry width=&quot;70&quot; height=&quot;70&quot; as=&quot;geometry&quot; /&gt;&#10;        &lt;/mxCell&gt;&#10;        &lt;mxCell id=&quot;sqtzE2Vg8_yKc3G_givv-3&quot; value=&quot;&quot; style=&quot;ellipse;whiteSpace=wrap;html=1;aspect=fixed;container=0;&quot; parent=&quot;l1s-WfeYHmzIl0k62fMm-2&quot; vertex=&quot;1&quot;&gt;&#10;          &lt;mxGeometry x=&quot;5&quot; y=&quot;5&quot; width=&quot;60&quot; height=&quot;60&quot; as=&quot;geometry&quot; /&gt;&#10;        &lt;/mxCell&gt;&#10;        &lt;mxCell id=&quot;f6pmm0lQQjv1o45NG8nA-11&quot; value=&quot;&quot; style=&quot;verticalLabelPosition=bottom;sketch=0;html=1;fillColor=#00FF00;strokeColor=none;verticalAlign=top;pointerEvents=1;align=center;shape=mxgraph.cisco_safe.security_icons.nac;&quot; vertex=&quot;1&quot; parent=&quot;l1s-WfeYHmzIl0k62fMm-2&quot;&gt;&#10;          &lt;mxGeometry x=&quot;10&quot; y=&quot;10&quot; width=&quot;50&quot; height=&quot;50&quot; as=&quot;geometry&quot; /&gt;&#10;        &lt;/mxCell&gt;&#10;      &lt;/root&gt;&#10;    &lt;/mxGraphModel&gt;&#10;  &lt;/diagram&gt;&#10;&lt;/mxfile&gt;&#10;"><defs><style type="text/css">svg.ge-export-svg-dark:not(mjx-container &gt; svg) { filter: invert(100%) hue-rotate(180deg); }&#xa;svg.ge-export-svg-dark foreignObject img,&#xa;svg.ge-export-svg-dark image:not(svg.ge-export-svg-dark switch image),&#xa;svg.ge-export-svg-dark svg:not(mjx-container &gt; svg)&#xa;{ filter: invert(100%) hue-rotate(180deg) }</style></defs><g><g data-cell-id="0"><g data-cell-id="1"><g data-cell-id="l1s-WfeYHmzIl0k62fMm-2"><g/><g data-cell-id="sqtzE2Vg8_yKc3G_givv-2"><g><ellipse cx="35" cy="35" rx="35" ry="35" fill="rgb(255, 255, 255)" stroke="rgb(0, 0, 0)" pointer-events="all"/><ellipse cx="35" cy="35" rx="31" ry="31" fill="none" stroke="rgb(0, 0, 0)" pointer-events="all"/></g></g><g data-cell-id="sqtzE2Vg8_yKc3G_givv-3"><g><ellipse cx="35" cy="35" rx="30" ry="30" fill="rgb(255, 255, 255)" stroke="rgb(0, 0, 0)" pointer-events="all"/></g></g><g data-cell-id="f6pmm0lQQjv1o45NG8nA-11"><g><rect x="10" y="10" width="50" height="50" fill="none" stroke="none" pointer-events="all"/><path d="M 35 10 C 21.2 10 10 21.2 10 35 C 10 48.79 21.2 60 35 60 C 48.8 60 60 48.79 60 35 C 60 21.2 48.8 10 35 10 Z M 35.42 12.28 C 38.43 12.33 41.29 12.96 43.89 14.07 C 43.96 15.14 43.96 16.27 43.91 17.43 C 41.91 17.58 40.35 19.24 40.3 21.25 C 39.77 21.07 39.23 20.91 38.69 20.77 C 35.64 19.92 32.63 19.54 29.61 19.49 C 29.49 19 29.27 18.54 28.97 18.13 C 30.92 16.02 33.08 14.03 35.42 12.28 Z M 34.24 12.29 C 32.17 13.9 30.23 15.69 28.48 17.58 C 27.76 16.9 26.8 16.52 25.81 16.52 C 24.64 16.52 23.54 17.04 22.79 17.94 C 22.36 17.51 21.93 17.1 21.48 16.72 C 25.07 14.06 29.47 12.45 34.24 12.29 Z M 44.63 14.4 C 47.35 15.68 49.78 17.47 51.78 19.66 C 51.47 21.91 50.84 24.23 50.07 26.56 C 49.03 25.75 47.94 24.99 46.8 24.29 C 47.65 23.55 48.14 22.47 48.15 21.34 C 48.15 19.33 46.62 17.64 44.62 17.44 C 44.67 16.39 44.67 15.38 44.63 14.4 Z M 20.91 17.16 C 21.41 17.58 21.91 18.04 22.39 18.52 C 22.11 19.02 21.94 19.58 21.89 20.16 C 20.24 20.43 18.59 20.77 16.91 21.22 C 18.07 19.71 19.42 18.34 20.91 17.16 Z M 27.6 18.59 C 27.61 18.59 27.63 18.59 27.64 18.59 C 27.81 18.6 27.97 18.7 28.04 18.86 C 28.11 19.01 28.09 19.19 27.98 19.33 L 25.65 22.37 C 25.57 22.48 25.45 22.54 25.32 22.55 C 25.19 22.56 25.07 22.51 24.98 22.42 L 23.42 20.87 C 23.27 20.69 23.27 20.42 23.44 20.25 C 23.61 20.08 23.88 20.07 24.06 20.23 L 25.25 21.41 L 27.26 18.77 C 27.34 18.67 27.46 18.6 27.6 18.59 Z M 42.68 19.32 C 42.81 19.32 42.93 19.37 43.01 19.46 L 44.21 20.65 L 45.4 19.47 C 45.58 19.29 45.86 19.29 46.04 19.47 C 46.22 19.65 46.22 19.94 46.04 20.11 L 44.86 21.29 L 46.08 22.52 C 46.22 22.62 46.28 22.8 46.24 22.97 C 46.21 23.14 46.07 23.27 45.9 23.31 C 45.73 23.35 45.56 23.29 45.45 23.16 L 44.22 21.93 L 42.96 23.18 C 42.85 23.31 42.68 23.36 42.51 23.32 C 42.35 23.28 42.22 23.15 42.18 22.99 C 42.14 22.83 42.19 22.65 42.32 22.54 L 43.57 21.29 L 42.38 20.1 C 42.24 19.98 42.2 19.78 42.27 19.61 C 42.34 19.44 42.5 19.32 42.69 19.32 Z M 29.72 20.16 C 32.64 20.22 35.55 20.62 38.49 21.45 L 38.5 21.45 L 38.5 21.45 C 39.13 21.61 39.75 21.81 40.36 22.02 C 40.62 23.46 41.65 24.64 43.05 25.08 C 42.98 25.53 42.9 25.97 42.81 26.42 L 43.46 26.82 C 43.57 26.29 43.66 25.76 43.75 25.23 C 43.91 25.25 44.06 25.26 44.22 25.26 C 44.91 25.26 45.58 25.08 46.18 24.73 C 47.46 25.5 48.67 26.34 49.82 27.25 C 48.17 31.9 45.68 36.44 42.16 39.83 L 42.16 39.83 L 42.16 39.83 C 40.32 41.73 38.25 43.31 36.08 44.64 C 37.18 42.81 38.24 40.93 39.21 38.97 L 39.21 38.96 C 39.3 38.8 39.38 38.64 39.46 38.48 L 38.72 38.38 C 38.68 38.46 38.63 38.55 38.59 38.64 L 38.58 38.64 L 38.58 38.65 C 37.43 40.99 36.13 43.2 34.79 45.35 C 34.77 45.36 34.75 45.37 34.73 45.38 C 34.66 45.18 34.57 45 34.47 44.82 C 34.41 43.31 34.23 41.47 33.89 39.45 L 33.48 38.67 L 33.14 39.28 C 33.44 40.95 33.62 42.52 33.71 43.87 C 32.99 43.21 32.05 42.84 31.07 42.84 C 29.85 42.84 28.7 43.4 27.96 44.36 C 25.82 43.42 24.31 42.48 22.37 41.02 L 22.37 41.01 L 22.36 41.01 C 21.94 40.71 21.52 40.38 21.1 40.03 C 21.4 39.46 21.56 38.84 21.56 38.2 C 21.56 36.74 20.74 35.39 19.44 34.72 C 19.96 32.93 20.6 31.12 21.44 29.31 L 21.44 29.3 L 21.44 29.3 C 22.2 27.56 23.21 25.82 24.37 24.09 C 24.82 24.28 25.31 24.37 25.81 24.37 C 26.26 24.37 26.7 24.29 27.12 24.14 C 28.6 26.26 29.86 28.54 30.71 30.9 L 30.71 30.91 L 30.72 30.92 C 30.93 31.39 31.12 31.88 31.3 32.37 L 31.96 32.12 C 31.78 31.63 31.58 31.14 31.37 30.65 L 31.37 30.65 C 30.5 28.26 29.25 25.97 27.77 23.84 C 28.98 23.13 29.73 21.84 29.73 20.44 C 29.73 20.35 29.72 20.25 29.72 20.16 Z M 52.39 20.36 C 55.5 24.04 57.45 28.73 57.7 33.88 C 57.6 33.95 57.5 34.01 57.4 34.07 C 55.56 31.66 53.35 29.21 50.65 27.01 C 51.41 24.78 52.04 22.53 52.39 20.36 Z M 21.91 20.87 C 22.04 22.07 22.71 23.14 23.73 23.77 C 22.58 25.5 21.56 27.25 20.8 29.01 L 20.8 29.01 C 20.8 29.01 20.79 29.01 20.79 29.01 C 19.95 30.85 19.31 32.66 18.79 34.46 C 18.42 34.34 18.03 34.28 17.63 34.27 C 17 34.27 16.38 34.43 15.82 34.72 C 14.69 33.38 13.64 31.97 12.71 30.53 C 13.32 27.47 14.54 24.63 16.24 22.15 C 18.15 21.59 20.03 21.18 21.91 20.87 Z M 39.74 27.03 C 39.25 27.03 38.75 27.1 38.26 27.27 C 35.91 28.02 34.77 30.12 34.7 31.8 C 34.67 32.27 34.36 32.61 33.87 32.86 L 26.24 36.07 C 25.82 36.25 25.6 36.5 25.44 36.9 L 24.75 38.42 C 24.57 38.88 24.88 39.39 25.36 39.58 L 27.32 40.27 L 27.89 40.04 L 28.21 39.28 L 28.68 39.04 L 29.38 39.35 L 30.05 39.04 L 30.31 38.41 L 31.16 38.09 L 31.85 38.33 L 32.16 38.15 L 32.61 37.17 L 34.06 36.53 L 34.55 37.73 L 35.11 37.46 L 35.66 36.08 L 35.64 35.78 L 35.96 35.63 C 36.12 35.58 36.26 35.67 36.4 35.81 C 37.68 36.99 39.89 37.7 42.29 36.47 C 44.26 35.41 45.43 32.74 44.51 30.35 C 43.86 28.46 41.86 27.03 39.74 27.03 Z M 50.39 27.74 C 52.94 29.84 55.05 32.16 56.81 34.45 C 56.76 34.48 56.72 34.5 56.67 34.53 C 55.93 33.59 54.8 33.05 53.61 33.05 C 52.57 33.05 51.57 33.46 50.84 34.2 C 50.1 34.93 49.69 35.93 49.69 36.97 C 49.69 37.61 49.84 38.23 50.14 38.79 C 47.81 40.52 45.45 42.55 43.05 45.07 C 42.47 44.75 41.82 44.58 41.15 44.58 C 39.51 44.58 38.05 45.6 37.48 47.13 C 36.65 47.02 35.82 46.88 34.98 46.71 C 34.98 46.6 34.98 46.48 34.97 46.37 C 35.08 46.21 35.18 46.05 35.28 45.89 C 37.91 44.41 40.45 42.61 42.65 40.33 L 42.65 40.33 C 46.2 36.91 48.71 32.39 50.39 27.74 Z M 41.48 30.03 C 42.14 30.03 42.67 30.56 42.67 31.22 C 42.67 31.88 42.14 32.41 41.48 32.41 C 40.82 32.41 40.29 31.87 40.29 31.22 C 40.29 30.56 40.82 30.03 41.48 30.03 Z M 12.53 31.54 C 13.35 32.76 14.26 33.96 15.22 35.11 C 14.27 35.85 13.71 36.99 13.71 38.2 C 13.71 40.18 15.19 41.85 17.16 42.09 C 16.88 44.26 16.74 46.41 16.74 48.55 C 13.93 44.77 12.27 40.08 12.27 35 C 12.27 33.82 12.36 32.67 12.53 31.54 Z M 52.08 34.96 C 52.2 34.96 52.32 35.01 52.41 35.1 L 53.61 36.29 L 54.79 35.11 C 54.9 34.99 55.07 34.95 55.22 34.99 C 55.38 35.03 55.5 35.15 55.55 35.31 C 55.59 35.46 55.55 35.63 55.43 35.75 L 54.25 36.93 L 55.48 38.15 C 55.6 38.26 55.66 38.44 55.62 38.6 C 55.58 38.77 55.45 38.89 55.29 38.93 C 55.12 38.97 54.95 38.92 54.84 38.79 L 53.61 37.57 L 52.35 38.82 C 52.24 38.94 52.07 39 51.9 38.96 C 51.74 38.92 51.61 38.79 51.57 38.63 C 51.53 38.46 51.58 38.29 51.71 38.18 L 52.96 36.93 L 51.77 35.74 C 51.63 35.61 51.59 35.42 51.66 35.24 C 51.73 35.07 51.89 34.96 52.08 34.96 Z M 57.25 35 C 57.39 35.19 57.56 35.38 57.72 35.57 C 57.63 39.03 56.78 42.29 55.32 45.2 C 52.63 46.26 49.32 47.01 46.64 47.27 C 46.06 47.32 45.48 47.35 44.91 47.37 C 44.69 46.63 44.25 45.96 43.64 45.47 C 45.97 43.04 48.26 41.06 50.52 39.38 C 51.26 40.34 52.4 40.9 53.61 40.9 C 54.65 40.9 55.65 40.49 56.39 39.75 C 57.12 39.01 57.54 38.01 57.53 36.97 C 57.53 36.32 57.37 35.68 57.07 35.11 C 57.13 35.08 57.19 35.04 57.25 35 Z M 19.42 36.35 C 19.44 36.35 19.45 36.35 19.47 36.35 C 19.64 36.36 19.79 36.46 19.86 36.61 C 19.93 36.77 19.91 36.95 19.81 37.08 L 17.48 40.13 C 17.4 40.23 17.28 40.3 17.15 40.3 C 17.02 40.31 16.89 40.27 16.8 40.17 L 15.25 38.62 C 15.09 38.44 15.1 38.17 15.27 38 C 15.44 37.83 15.71 37.82 15.89 37.98 L 17.07 39.16 L 19.09 36.53 C 19.17 36.43 19.29 36.36 19.42 36.35 Z M 20.72 40.63 C 21.12 40.96 21.53 41.28 21.95 41.58 C 21.95 41.58 21.95 41.58 21.95 41.58 C 21.95 41.58 21.95 41.58 21.96 41.59 C 23.89 43.04 25.45 44.01 27.58 44.97 C 27.29 45.52 27.14 46.14 27.14 46.76 C 27.14 47.34 27.27 47.92 27.52 48.44 C 24.13 49.51 20.86 50.06 18.09 50.2 C 17.88 49.96 17.66 49.71 17.45 49.46 C 17.41 47.03 17.54 44.58 17.86 42.11 C 18.98 42.05 20.02 41.51 20.72 40.63 Z M 29.53 44.75 C 29.66 44.75 29.77 44.8 29.86 44.89 L 31.06 46.08 L 32.24 44.9 C 32.35 44.77 32.53 44.72 32.69 44.76 C 32.86 44.8 32.98 44.92 33.02 45.09 C 33.06 45.25 33.01 45.43 32.88 45.54 L 31.7 46.72 L 32.93 47.94 C 33.06 48.06 33.11 48.23 33.07 48.39 C 33.03 48.56 32.91 48.69 32.74 48.73 C 32.58 48.77 32.4 48.71 32.29 48.58 L 31.06 47.36 L 29.81 48.61 C 29.69 48.74 29.52 48.79 29.36 48.75 C 29.19 48.71 29.06 48.58 29.02 48.42 C 28.98 48.25 29.04 48.08 29.17 47.97 L 30.42 46.72 L 29.22 45.53 C 29.09 45.41 29.05 45.21 29.11 45.04 C 29.18 44.87 29.35 44.75 29.53 44.75 Z M 54.82 46.14 C 51.02 52.89 43.87 57.49 35.62 57.72 C 36.34 55.8 37.48 53.79 38.9 51.71 C 39.56 52.17 40.35 52.42 41.15 52.42 C 42.19 52.42 43.19 52.01 43.93 51.27 C 44.67 50.54 45.08 49.54 45.08 48.5 C 45.08 48.36 45.07 48.22 45.05 48.08 C 45.6 48.06 46.15 48.02 46.7 47.97 C 49.21 47.73 52.21 47.08 54.82 46.14 Z M 42.95 46.65 C 42.96 46.65 42.98 46.65 42.99 46.65 C 43.16 46.66 43.31 46.76 43.38 46.91 C 43.45 47.06 43.43 47.25 43.33 47.38 L 41 50.42 C 40.92 50.53 40.8 50.59 40.67 50.6 C 40.54 50.61 40.41 50.56 40.32 50.47 L 38.77 48.92 C 38.59 48.74 38.59 48.45 38.77 48.28 C 38.94 48.1 39.23 48.1 39.41 48.28 L 40.59 49.46 L 42.61 46.83 C 42.69 46.72 42.81 46.66 42.95 46.65 Z M 34.93 47.43 C 35.72 47.6 36.5 47.73 37.28 47.84 C 37.25 48.06 37.23 48.28 37.23 48.5 C 37.23 49.53 37.64 50.53 38.37 51.26 C 36.84 53.49 35.61 55.65 34.85 57.73 C 32.26 57.71 29.77 57.26 27.45 56.45 C 29.05 54.6 30.62 52.63 32.13 50.54 C 33.59 50.13 34.68 48.92 34.93 47.43 Z M 27.9 49.08 C 28.64 50.09 29.81 50.69 31.07 50.69 C 31.09 50.69 31.12 50.69 31.15 50.69 C 29.72 52.63 28.25 54.46 26.75 56.18 C 23.7 54.99 20.97 53.17 18.73 50.87 C 21.47 50.68 24.64 50.12 27.9 49.08 Z" fill="#00ff00" stroke="none" pointer-events="all"/></g></g></g></g></g></g></svg>