<?xml version="1.0" encoding="UTF-8"?>
<!-- Do not edit this file with editors other than draw.io -->
<!DOCTYPE svg PUBLIC "-//W3C//DTD SVG 1.1//EN" "http://www.w3.org/Graphics/SVG/1.1/DTD/svg11.dtd">
<svg xmlns="http://www.w3.org/2000/svg" xmlns:xlink="http://www.w3.org/1999/xlink" version="1.1" width="71px" height="81px" viewBox="-0.5 -0.5 71 81" class="ge-export-svg-dark" content="&lt;mxfile host=&quot;app.diagrams.net&quot; agent=&quot;Mozilla/5.0 (Windows NT 10.0; Win64; x64) AppleWebKit/537.36 (KHTML, like Gecko) Chrome/129.0.0.0 Safari/537.36&quot; scale=&quot;1&quot; border=&quot;0&quot; version=&quot;24.7.16&quot;&gt;&#10;  &lt;diagram name=&quot;Página-1&quot; id=&quot;m8l1A8O_j_JvbqTGVBao&quot;&gt;&#10;    &lt;mxGraphModel dx=&quot;419&quot; dy=&quot;207&quot; grid=&quot;1&quot; gridSize=&quot;10&quot; guides=&quot;1&quot; tooltips=&quot;1&quot; connect=&quot;1&quot; arrows=&quot;1&quot; fold=&quot;1&quot; page=&quot;1&quot; pageScale=&quot;1&quot; pageWidth=&quot;2970&quot; pageHeight=&quot;2100&quot; math=&quot;0&quot; shadow=&quot;0&quot;&gt;&#10;      &lt;root&gt;&#10;        &lt;mxCell id=&quot;0&quot; /&gt;&#10;        &lt;mxCell id=&quot;1&quot; parent=&quot;0&quot; /&gt;&#10;        &lt;mxCell id=&quot;l1s-WfeYHmzIl0k62fMm-2&quot; value=&quot;&quot; style=&quot;group&quot; parent=&quot;1&quot; vertex=&quot;1&quot; connectable=&quot;0&quot;&gt;&#10;          &lt;mxGeometry x=&quot;400&quot; y=&quot;280&quot; width=&quot;70&quot; height=&quot;80&quot; as=&quot;geometry&quot; /&gt;&#10;        &lt;/mxCell&gt;&#10;        &lt;mxCell id=&quot;sqtzE2Vg8_yKc3G_givv-2&quot; value=&quot;&quot; style=&quot;ellipse;shape=doubleEllipse;whiteSpace=wrap;html=1;aspect=fixed;container=0;&quot; parent=&quot;l1s-WfeYHmzIl0k62fMm-2&quot; vertex=&quot;1&quot;&gt;&#10;          &lt;mxGeometry width=&quot;70&quot; height=&quot;70&quot; as=&quot;geometry&quot; /&gt;&#10;        &lt;/mxCell&gt;&#10;        &lt;mxCell id=&quot;sqtzE2Vg8_yKc3G_givv-3&quot; value=&quot;&quot; style=&quot;ellipse;whiteSpace=wrap;html=1;aspect=fixed;container=0;&quot; parent=&quot;l1s-WfeYHmzIl0k62fMm-2&quot; vertex=&quot;1&quot;&gt;&#10;          &lt;mxGeometry x=&quot;5&quot; y=&quot;5&quot; width=&quot;60&quot; height=&quot;60&quot; as=&quot;geometry&quot; /&gt;&#10;        &lt;/mxCell&gt;&#10;        &lt;mxCell id=&quot;f6pmm0lQQjv1o45NG8nA-10&quot; value=&quot;&quot; style=&quot;verticalLabelPosition=bottom;sketch=0;html=1;fillColor=#00FF00;strokeColor=#ffffff;verticalAlign=top;align=center;points=[];pointerEvents=1;shape=mxgraph.cisco_safe.compositeIcon;bgIcon=threat4;resIcon=mxgraph.cisco_safe.threat.threat_d1;&quot; vertex=&quot;1&quot; parent=&quot;l1s-WfeYHmzIl0k62fMm-2&quot;&gt;&#10;          &lt;mxGeometry x=&quot;16.75&quot; y=&quot;15&quot; width=&quot;36.5&quot; height=&quot;40&quot; as=&quot;geometry&quot; /&gt;&#10;        &lt;/mxCell&gt;&#10;      &lt;/root&gt;&#10;    &lt;/mxGraphModel&gt;&#10;  &lt;/diagram&gt;&#10;&lt;/mxfile&gt;&#10;"><defs><style type="text/css">svg.ge-export-svg-dark:not(mjx-container &gt; svg) { filter: invert(100%) hue-rotate(180deg); }&#xa;svg.ge-export-svg-dark foreignObject img,&#xa;svg.ge-export-svg-dark image:not(svg.ge-export-svg-dark switch image),&#xa;svg.ge-export-svg-dark svg:not(mjx-container &gt; svg)&#xa;{ filter: invert(100%) hue-rotate(180deg) }</style></defs><g><g data-cell-id="0"><g data-cell-id="1"><g data-cell-id="l1s-WfeYHmzIl0k62fMm-2"><g/><g data-cell-id="sqtzE2Vg8_yKc3G_givv-2"><g><ellipse cx="35" cy="35" rx="35" ry="35" fill="rgb(255, 255, 255)" stroke="rgb(0, 0, 0)" pointer-events="all"/><ellipse cx="35" cy="35" rx="31" ry="31" fill="none" stroke="rgb(0, 0, 0)" pointer-events="all"/></g></g><g data-cell-id="sqtzE2Vg8_yKc3G_givv-3"><g><ellipse cx="35" cy="35" rx="30" ry="30" fill="rgb(255, 255, 255)" stroke="rgb(0, 0, 0)" pointer-events="all"/></g></g><g data-cell-id="f6pmm0lQQjv1o45NG8nA-10"><g><rect x="16.75" y="15" width="36.5" height="40" fill="none" stroke="none" pointer-events="all"/><path d="M 51.48 45.73 C 53.05 39.52 50.9 35.94 50.16 34.94 C 50.39 33.83 50.53 32.72 50.53 31.53 C 50.53 30.04 50.32 28.57 49.95 27.23 C 53.25 23.96 53.05 20.42 52.61 18.64 C 52.1 16.66 49.95 15 49.95 15 C 49.78 15.46 49.78 15.46 49.78 15.46 C 50.12 15.84 50.97 17.46 49.68 19.89 C 49.17 20.87 48.21 21.49 47.26 21.88 C 44.43 18.16 40.01 15.77 35.04 15.77 C 30.06 15.77 25.64 18.16 22.82 21.88 C 21.89 21.49 20.9 20.87 20.36 19.89 C 19.07 17.46 19.91 15.84 20.29 15.46 C 20.09 15 20.09 15 20.09 15 C 20.09 15 17.94 16.66 17.43 18.64 C 16.99 20.42 16.75 23.99 20.16 27.26 C 19.78 28.62 19.58 30.04 19.58 31.53 C 19.58 32.67 19.68 33.83 19.91 34.89 C 19.2 35.84 16.99 39.41 18.56 45.73 C 18.56 45.73 17.46 46.42 17.29 48.51 C 17.29 48.51 18.11 47.47 18.65 47.33 C 18.65 47.33 18.38 49.48 20.02 50.27 C 20.02 50.27 19.5 48.97 19.68 48.4 C 19.68 48.4 20.22 49.55 21.38 49.69 C 21.38 49.69 20.49 48.68 20.56 47.98 C 20.56 47.98 21.04 48.3 21.89 48.16 C 21.89 48.16 16.89 45.31 21.38 38.89 C 23.08 42.22 25.95 44.83 29.42 46.18 C 29.49 48.23 29.96 50.94 31.53 53.55 C 31.53 53.55 29.18 51.87 26.97 54.83 C 26.97 55 26.97 55 26.97 55 C 32.38 55 32.38 55 32.38 55 C 32.38 55 32.78 54.97 32.78 54.34 C 32.78 53.82 31.02 51.38 31.57 46.88 C 32.69 47.16 33.84 47.29 35.04 47.29 C 36.22 47.29 37.38 47.16 38.47 46.88 C 39.02 51.38 37.25 53.82 37.25 54.34 C 37.25 54.97 37.66 55 37.66 55 C 43.07 55 43.07 55 43.07 55 C 43.07 54.83 43.07 54.83 43.07 54.83 C 40.86 51.87 38.51 53.55 38.51 53.55 C 40.08 50.94 40.55 48.27 40.62 46.22 C 44.12 44.86 46.99 42.22 48.69 38.92 C 53.12 45.35 48.15 48.16 48.15 48.16 C 49.03 48.3 49.51 47.98 49.51 47.98 C 49.57 48.68 48.69 49.69 48.69 49.69 C 49.81 49.55 50.35 48.4 50.35 48.4 C 50.53 48.97 50.05 50.27 50.05 50.27 C 51.65 49.48 51.41 47.33 51.41 47.33 C 51.92 47.47 52.74 48.51 52.74 48.51 C 52.57 46.42 51.48 45.73 51.48 45.73 Z M 47.26 32.19 C 47.26 32.6 47.26 33.02 47.26 33.44 C 47.28 33.59 47.06 33.51 47.09 33.68 C 46.8 33.68 46.51 33.68 46.22 33.68 C 46.06 33.63 45.99 33.84 46 33.97 C 46.03 34.12 45.83 34.18 45.82 34.34 C 45.93 34.47 46.03 34.59 46.12 34.7 C 46.23 34.8 46.29 35 46.44 35 C 46.44 35.19 46.44 35.37 46.44 35.55 C 46.27 35.8 46.07 36.02 45.89 36.25 C 45.81 36.34 45.67 36.36 45.55 36.39 C 45.4 36.45 45.32 36.32 45.18 36.32 C 45.06 36.17 44.93 36.02 44.8 35.86 C 44.72 35.73 44.62 35.59 44.47 35.73 C 44.29 35.72 44.16 35.89 43.99 35.94 C 43.99 36.28 43.99 36.63 43.99 36.98 C 43.97 37.1 43.86 37.12 43.82 37.22 C 43.54 37.22 43.26 37.22 42.98 37.22 C 42.87 37.19 42.62 37.3 42.62 37.15 C 42.42 37.22 42.48 37.04 42.36 36.95 C 42.36 36.67 42.36 36.41 42.36 36.14 C 42.41 35.96 42.3 35.89 42.16 35.81 C 42.09 35.66 41.91 35.79 41.81 35.66 C 41.64 35.84 41.47 36.03 41.29 36.22 C 41.21 36.34 41.07 36.43 40.92 36.39 C 40.76 36.44 40.69 36.31 40.55 36.32 C 40.42 36.16 40.28 35.99 40.15 35.83 C 40.01 35.74 40.04 35.58 39.93 35.49 C 39.86 35.38 39.92 35.2 39.9 35.07 C 40.11 34.95 40.22 34.72 40.38 34.55 C 40.48 34.44 40.6 34.33 40.55 34.16 C 40.4 34.06 40.38 33.86 40.39 33.68 C 40.13 33.68 39.87 33.68 39.61 33.68 C 39.47 33.7 39.34 33.69 39.32 33.58 C 39.1 33.67 39.28 33.34 39.09 33.41 C 39.09 33 39.09 32.59 39.09 32.19 C 39.17 32.03 39.26 32.04 39.36 31.91 C 39.65 31.91 39.94 31.91 40.24 31.91 C 40.46 31.98 40.34 31.75 40.41 31.62 C 40.46 31.48 40.61 31.42 40.55 31.25 C 40.38 31.04 40.2 30.82 40.02 30.61 C 40.03 30.44 39.84 30.52 39.9 30.31 C 39.83 30.15 40.01 30.09 40.01 29.96 C 40.11 29.78 40.27 29.63 40.4 29.45 C 40.47 29.31 40.59 29.28 40.71 29.21 C 40.82 29.18 40.97 29.21 41.1 29.2 C 41.32 29.36 41.49 29.59 41.68 29.79 C 41.78 29.98 41.86 29.87 42.01 29.87 C 42.15 29.87 42.22 29.69 42.36 29.65 C 42.36 29.44 42.36 29.23 42.36 29.02 C 42.38 28.88 42.31 28.7 42.41 28.59 C 42.45 28.43 42.54 28.47 42.62 28.33 C 43.02 28.33 43.41 28.33 43.8 28.33 C 43.84 28.43 43.91 28.48 43.99 28.54 C 43.99 28.87 43.99 29.19 43.99 29.51 C 43.93 29.69 44.14 29.7 44.24 29.79 C 44.36 29.89 44.51 29.85 44.64 29.94 C 44.8 29.73 44.96 29.54 45.12 29.34 C 45.21 29.26 45.33 29.21 45.46 29.2 C 45.6 29.14 45.69 29.29 45.82 29.27 C 46.02 29.51 46.23 29.74 46.41 29.99 C 46.48 30.14 46.42 30.32 46.44 30.49 C 46.28 30.73 46.08 30.93 45.9 31.16 C 45.77 31.25 45.88 31.43 45.99 31.51 C 46.01 31.64 46.02 31.79 46.1 31.91 C 46.26 31.91 46.42 31.91 46.58 31.91 C 46.72 31.93 46.9 31.87 47.02 31.95 C 47.09 32.05 47.32 31.98 47.26 32.19 Z M 44.09 32.74 C 44.05 32.44 43.89 32.14 43.63 31.98 C 43.23 31.73 42.64 31.91 42.45 32.34 C 42.2 32.75 42.35 33.34 42.76 33.58 C 43.16 33.84 43.76 33.66 43.97 33.23 C 43.99 33.06 44.1 32.91 44.09 32.74 Z M 39.05 34.34 C 39.05 34.84 39.05 35.34 39.05 35.83 C 39.05 36.11 39.09 36.42 38.88 36.49 C 38.93 36.8 38.49 36.59 38.44 36.8 C 38.02 36.8 37.6 36.8 37.18 36.8 C 37.23 37.16 36.98 37.44 36.84 37.74 C 37.15 38.07 37.53 38.45 37.78 38.75 C 37.98 38.89 37.86 39.27 37.89 39.52 C 37.55 39.88 37.19 40.25 36.84 40.63 C 36.78 40.8 36.47 41.08 36.21 40.89 C 35.82 40.53 35.49 40.1 35.11 39.73 C 34.86 39.73 34.65 40.11 34.34 40.12 C 34.14 40.34 34.3 40.77 34.25 41.07 C 34.3 41.41 34.15 41.55 34.19 41.88 C 33.97 41.92 33.92 42.14 33.74 42.22 C 33.23 42.22 32.72 42.22 32.2 42.22 C 32.07 42.09 31.91 42.03 31.77 41.82 C 31.68 41.52 31.69 41.2 31.7 40.86 C 31.64 40.59 31.86 40.13 31.47 40.06 C 31.16 40.14 31 39.47 30.75 39.83 C 30.35 40.2 30.03 40.72 29.55 40.94 C 29.22 40.95 29.15 40.64 28.95 40.45 C 28.67 40.2 28.43 39.8 28.12 39.67 C 28.06 39.37 28.02 39.08 28.12 38.8 C 28.31 38.55 28.61 38.28 28.84 38.02 C 28.5 38.02 28.17 38.02 27.84 38.02 C 27.29 37.98 26.7 38.13 26.18 37.92 C 25.79 37.98 25.58 37.54 25.24 37.45 C 25.01 37.17 24.7 36.91 24.62 36.52 C 24.43 36.26 24.52 35.94 24.38 35.66 C 24.38 32.13 24.38 28.6 24.38 25.07 C 24.33 24.75 24.44 24.45 24.48 24.15 C 24.58 23.88 24.56 23.56 24.78 23.34 C 24.97 23.06 25.23 22.98 25.47 22.78 C 30.2 22.78 34.93 22.78 39.66 22.78 C 39.97 22.75 40.21 22.82 40.45 22.95 C 40.68 23.09 40.89 23.29 41.04 23.5 C 41.15 23.77 41.19 24.04 41.25 24.32 C 41.29 25.09 41.25 25.86 41.26 26.63 C 41.26 26.91 41.16 27.19 40.93 27.3 C 35.74 27.3 30.56 27.3 25.37 27.3 C 25.37 30.06 25.37 32.84 25.37 35.61 C 25.42 35.87 25.51 36.11 25.61 36.38 C 25.76 36.66 26.05 36.66 26.25 36.88 C 26.96 36.88 27.67 36.88 28.37 36.88 C 28.95 36.91 28.62 36.75 28.23 36.8 C 27.97 36.75 27.49 36.92 27.39 36.7 C 27.06 36.78 27.11 36.47 26.89 36.42 C 26.89 35.75 26.89 35.07 26.89 34.39 C 26.93 34.17 27.14 34.12 27.24 33.95 C 27.74 33.95 28.24 33.95 28.74 33.95 C 28.7 33.6 28.87 33.27 29.11 33.02 C 28.82 32.69 28.52 32.35 28.22 32.02 C 28.06 31.96 28.02 31.5 28.09 31.3 C 28.11 30.95 28.47 30.76 28.68 30.49 C 28.91 30.32 29.05 29.98 29.31 29.9 C 29.5 29.71 29.87 29.94 29.94 30.04 C 30.29 30.27 30.56 30.67 30.88 30.97 C 31.12 30.77 31.43 30.74 31.7 30.59 C 31.7 30.12 31.7 29.64 31.7 29.17 C 31.72 28.87 31.89 28.68 32.14 28.51 C 32.73 28.51 33.32 28.51 33.91 28.51 C 33.9 28.77 34.21 28.71 34.19 28.99 C 34.23 29.29 34.28 29.59 34.25 29.91 C 34.3 30.19 34.09 30.66 34.49 30.71 C 34.79 30.71 35.08 31.16 35.27 30.76 C 35.52 30.54 35.73 30.18 36.02 30.04 C 36.05 29.84 36.52 29.73 36.68 29.93 C 37 30.13 37.25 30.51 37.54 30.78 C 37.71 31 37.92 31.18 37.89 31.48 C 38 31.89 37.61 32.11 37.4 32.39 C 37.26 32.64 36.8 32.84 36.9 33.14 C 37.1 33.36 37.23 33.64 37.18 33.95 C 37.56 33.95 37.95 33.95 38.33 33.95 C 38.68 33.86 38.84 34.11 39.05 34.34 Z M 38.17 24.2 L 38.17 24.2 L 38.17 26.07 L 39.77 26.07 L 39.77 24.2 L 38.17 24.2 Z M 35.58 24.2 L 35.58 24.2 L 35.58 26.07 L 37.18 26.07 L 37.18 24.2 L 35.58 24.2 Z M 34.25 35.49 C 34.27 35.33 34.27 35.16 34.23 35 C 34.13 34.25 33.27 33.74 32.57 33.98 C 32.02 34.17 31.68 34.77 31.68 35.36 C 31.63 36.01 32.1 36.69 32.75 36.78 C 33.5 36.93 34.27 36.26 34.25 35.49 Z" fill="#00ff00" stroke="none" pointer-events="all"/><ellipse cx="35" cy="31.6" rx="14.965" ry="15.4" fill="#ffffff" stroke="none" pointer-events="all"/><rect x="16.75" y="15" width="36.5" height="40" fill="none" stroke="none" pointer-events="all"/><path d="M 51.48 45.73 C 53.05 39.52 50.9 35.94 50.16 34.94 C 50.39 33.83 50.53 32.72 50.53 31.53 C 50.53 30.04 50.32 28.57 49.95 27.23 C 53.25 23.96 53.05 20.42 52.61 18.64 C 52.1 16.66 49.95 15 49.95 15 C 49.78 15.46 49.78 15.46 49.78 15.46 C 50.12 15.84 50.97 17.46 49.68 19.89 C 49.17 20.87 48.21 21.49 47.26 21.88 C 44.43 18.16 40.01 15.77 35.04 15.77 C 30.06 15.77 25.64 18.16 22.82 21.88 C 21.89 21.49 20.9 20.87 20.36 19.89 C 19.07 17.46 19.91 15.84 20.29 15.46 C 20.09 15 20.09 15 20.09 15 C 20.09 15 17.94 16.66 17.43 18.64 C 16.99 20.42 16.75 23.99 20.16 27.26 C 19.78 28.62 19.58 30.04 19.58 31.53 C 19.58 32.67 19.68 33.83 19.91 34.89 C 19.2 35.84 16.99 39.41 18.56 45.73 C 18.56 45.73 17.46 46.42 17.29 48.51 C 17.29 48.51 18.11 47.47 18.65 47.33 C 18.65 47.33 18.38 49.48 20.02 50.27 C 20.02 50.27 19.5 48.97 19.68 48.4 C 19.68 48.4 20.22 49.55 21.38 49.69 C 21.38 49.69 20.49 48.68 20.56 47.98 C 20.56 47.98 21.04 48.3 21.89 48.16 C 21.89 48.16 16.89 45.31 21.38 38.89 C 23.08 42.22 25.95 44.83 29.42 46.18 C 29.49 48.23 29.96 50.94 31.53 53.55 C 31.53 53.55 29.18 51.87 26.97 54.83 C 26.97 55 26.97 55 26.97 55 C 32.38 55 32.38 55 32.38 55 C 32.38 55 32.78 54.97 32.78 54.34 C 32.78 53.82 31.02 51.38 31.57 46.88 C 32.69 47.16 33.84 47.29 35.04 47.29 C 36.22 47.29 37.38 47.16 38.47 46.88 C 39.02 51.38 37.25 53.82 37.25 54.34 C 37.25 54.97 37.66 55 37.66 55 C 43.07 55 43.07 55 43.07 55 C 43.07 54.83 43.07 54.83 43.07 54.83 C 40.86 51.87 38.51 53.55 38.51 53.55 C 40.08 50.94 40.55 48.27 40.62 46.22 C 44.12 44.86 46.99 42.22 48.69 38.92 C 53.12 45.35 48.15 48.16 48.15 48.16 C 49.03 48.3 49.51 47.98 49.51 47.98 C 49.57 48.68 48.69 49.69 48.69 49.69 C 49.81 49.55 50.35 48.4 50.35 48.4 C 50.53 48.97 50.05 50.27 50.05 50.27 C 51.65 49.48 51.41 47.33 51.41 47.33 C 51.92 47.47 52.74 48.51 52.74 48.51 C 52.57 46.42 51.48 45.73 51.48 45.73 Z M 47.26 32.19 C 47.26 32.6 47.26 33.02 47.26 33.44 C 47.28 33.59 47.06 33.51 47.09 33.68 C 46.8 33.68 46.51 33.68 46.22 33.68 C 46.06 33.63 45.99 33.84 46 33.97 C 46.03 34.12 45.83 34.18 45.82 34.34 C 45.93 34.47 46.03 34.59 46.12 34.7 C 46.23 34.8 46.29 35 46.44 35 C 46.44 35.19 46.44 35.37 46.44 35.55 C 46.27 35.8 46.07 36.02 45.89 36.25 C 45.81 36.34 45.67 36.36 45.55 36.39 C 45.4 36.45 45.32 36.32 45.18 36.32 C 45.06 36.17 44.93 36.02 44.8 35.86 C 44.72 35.73 44.62 35.59 44.47 35.73 C 44.29 35.72 44.16 35.89 43.99 35.94 C 43.99 36.28 43.99 36.63 43.99 36.98 C 43.97 37.1 43.86 37.12 43.82 37.22 C 43.54 37.22 43.26 37.22 42.98 37.22 C 42.87 37.19 42.62 37.3 42.62 37.15 C 42.42 37.22 42.48 37.04 42.36 36.95 C 42.36 36.67 42.36 36.41 42.36 36.14 C 42.41 35.96 42.3 35.89 42.16 35.81 C 42.09 35.66 41.91 35.79 41.81 35.66 C 41.64 35.84 41.47 36.03 41.29 36.22 C 41.21 36.34 41.07 36.43 40.92 36.39 C 40.76 36.44 40.69 36.31 40.55 36.32 C 40.42 36.16 40.28 35.99 40.15 35.83 C 40.01 35.74 40.04 35.58 39.93 35.49 C 39.86 35.38 39.92 35.2 39.9 35.07 C 40.11 34.95 40.22 34.72 40.38 34.55 C 40.48 34.44 40.6 34.33 40.55 34.16 C 40.4 34.06 40.38 33.86 40.39 33.68 C 40.13 33.68 39.87 33.68 39.61 33.68 C 39.47 33.7 39.34 33.69 39.32 33.58 C 39.1 33.67 39.28 33.34 39.09 33.41 C 39.09 33 39.09 32.59 39.09 32.19 C 39.17 32.03 39.26 32.04 39.36 31.91 C 39.65 31.91 39.94 31.91 40.24 31.91 C 40.46 31.98 40.34 31.75 40.41 31.62 C 40.46 31.48 40.61 31.42 40.55 31.25 C 40.38 31.04 40.2 30.82 40.02 30.61 C 40.03 30.44 39.84 30.52 39.9 30.31 C 39.83 30.15 40.01 30.09 40.01 29.96 C 40.11 29.78 40.27 29.63 40.4 29.45 C 40.47 29.31 40.59 29.28 40.71 29.21 C 40.82 29.18 40.97 29.21 41.1 29.2 C 41.32 29.36 41.49 29.59 41.68 29.79 C 41.78 29.98 41.86 29.87 42.01 29.87 C 42.15 29.87 42.22 29.69 42.36 29.65 C 42.36 29.44 42.36 29.23 42.36 29.02 C 42.38 28.88 42.31 28.7 42.41 28.59 C 42.45 28.43 42.54 28.47 42.62 28.33 C 43.02 28.33 43.41 28.33 43.8 28.33 C 43.84 28.43 43.91 28.48 43.99 28.54 C 43.99 28.87 43.99 29.19 43.99 29.51 C 43.93 29.69 44.14 29.7 44.24 29.79 C 44.36 29.89 44.51 29.85 44.64 29.94 C 44.8 29.73 44.96 29.54 45.12 29.34 C 45.21 29.26 45.33 29.21 45.46 29.2 C 45.6 29.14 45.69 29.29 45.82 29.27 C 46.02 29.51 46.23 29.74 46.41 29.99 C 46.48 30.14 46.42 30.32 46.44 30.49 C 46.28 30.73 46.08 30.93 45.9 31.16 C 45.77 31.25 45.88 31.43 45.99 31.51 C 46.01 31.64 46.02 31.79 46.1 31.91 C 46.26 31.91 46.42 31.91 46.58 31.91 C 46.72 31.93 46.9 31.87 47.02 31.95 C 47.09 32.05 47.32 31.98 47.26 32.19 Z M 44.09 32.74 C 44.05 32.44 43.89 32.14 43.63 31.98 C 43.23 31.73 42.64 31.91 42.45 32.34 C 42.2 32.75 42.35 33.34 42.76 33.58 C 43.16 33.84 43.76 33.66 43.97 33.23 C 43.99 33.06 44.1 32.91 44.09 32.74 Z M 39.05 34.34 C 39.05 34.84 39.05 35.34 39.05 35.83 C 39.05 36.11 39.09 36.42 38.88 36.49 C 38.93 36.8 38.49 36.59 38.44 36.8 C 38.02 36.8 37.6 36.8 37.18 36.8 C 37.23 37.16 36.98 37.44 36.84 37.74 C 37.15 38.07 37.53 38.45 37.78 38.75 C 37.98 38.89 37.86 39.27 37.89 39.52 C 37.55 39.88 37.19 40.25 36.84 40.63 C 36.78 40.8 36.47 41.08 36.21 40.89 C 35.82 40.53 35.49 40.1 35.11 39.73 C 34.86 39.73 34.65 40.11 34.34 40.12 C 34.14 40.34 34.3 40.77 34.25 41.07 C 34.3 41.41 34.15 41.55 34.19 41.88 C 33.97 41.92 33.92 42.14 33.74 42.22 C 33.23 42.22 32.72 42.22 32.2 42.22 C 32.07 42.09 31.91 42.03 31.77 41.82 C 31.68 41.52 31.69 41.2 31.7 40.86 C 31.64 40.59 31.86 40.13 31.47 40.06 C 31.16 40.14 31 39.47 30.75 39.83 C 30.35 40.2 30.03 40.72 29.55 40.94 C 29.22 40.95 29.15 40.64 28.95 40.45 C 28.67 40.2 28.43 39.8 28.12 39.67 C 28.06 39.37 28.02 39.08 28.12 38.8 C 28.31 38.55 28.61 38.28 28.84 38.02 C 28.5 38.02 28.17 38.02 27.84 38.02 C 27.29 37.98 26.7 38.13 26.18 37.92 C 25.79 37.98 25.58 37.54 25.24 37.45 C 25.01 37.17 24.7 36.91 24.62 36.52 C 24.43 36.26 24.52 35.94 24.38 35.66 C 24.38 32.13 24.38 28.6 24.38 25.07 C 24.33 24.75 24.44 24.45 24.48 24.15 C 24.58 23.88 24.56 23.56 24.78 23.34 C 24.97 23.06 25.23 22.98 25.47 22.78 C 30.2 22.78 34.93 22.78 39.66 22.78 C 39.97 22.75 40.21 22.82 40.45 22.95 C 40.68 23.09 40.89 23.29 41.04 23.5 C 41.15 23.77 41.19 24.04 41.25 24.32 C 41.29 25.09 41.25 25.86 41.26 26.63 C 41.26 26.91 41.16 27.19 40.93 27.3 C 35.74 27.3 30.56 27.3 25.37 27.3 C 25.37 30.06 25.37 32.84 25.37 35.61 C 25.42 35.87 25.51 36.11 25.61 36.38 C 25.76 36.66 26.05 36.66 26.25 36.88 C 26.96 36.88 27.67 36.88 28.37 36.88 C 28.95 36.91 28.62 36.75 28.23 36.8 C 27.97 36.75 27.49 36.92 27.39 36.7 C 27.06 36.78 27.11 36.47 26.89 36.42 C 26.89 35.75 26.89 35.07 26.89 34.39 C 26.93 34.17 27.14 34.12 27.24 33.95 C 27.74 33.95 28.24 33.95 28.74 33.95 C 28.7 33.6 28.87 33.27 29.11 33.02 C 28.82 32.69 28.52 32.35 28.22 32.02 C 28.06 31.96 28.02 31.5 28.09 31.3 C 28.11 30.95 28.47 30.76 28.68 30.49 C 28.91 30.32 29.05 29.98 29.31 29.9 C 29.5 29.71 29.87 29.94 29.94 30.04 C 30.29 30.27 30.56 30.67 30.88 30.97 C 31.12 30.77 31.43 30.74 31.7 30.59 C 31.7 30.12 31.7 29.64 31.7 29.17 C 31.72 28.87 31.89 28.68 32.14 28.51 C 32.73 28.51 33.32 28.51 33.91 28.51 C 33.9 28.77 34.21 28.71 34.19 28.99 C 34.23 29.29 34.28 29.59 34.25 29.91 C 34.3 30.19 34.09 30.66 34.49 30.71 C 34.79 30.71 35.08 31.16 35.27 30.76 C 35.52 30.54 35.73 30.18 36.02 30.04 C 36.05 29.84 36.52 29.73 36.68 29.93 C 37 30.13 37.25 30.51 37.54 30.78 C 37.71 31 37.92 31.18 37.89 31.48 C 38 31.89 37.61 32.11 37.4 32.39 C 37.26 32.64 36.8 32.84 36.9 33.14 C 37.1 33.36 37.23 33.64 37.18 33.95 C 37.56 33.95 37.95 33.95 38.33 33.95 C 38.68 33.86 38.84 34.11 39.05 34.34 Z M 38.17 24.2 L 38.17 24.2 L 38.17 26.07 L 39.77 26.07 L 39.77 24.2 L 38.17 24.2 Z M 35.58 24.2 L 35.58 24.2 L 35.58 26.07 L 37.18 26.07 L 37.18 24.2 L 35.58 24.2 Z M 34.25 35.49 C 34.27 35.33 34.27 35.16 34.23 35 C 34.13 34.25 33.27 33.74 32.57 33.98 C 32.02 34.17 31.68 34.77 31.68 35.36 C 31.63 36.01 32.1 36.69 32.75 36.78 C 33.5 36.93 34.27 36.26 34.25 35.49 Z" fill="#00ff00" stroke="none" pointer-events="all"/></g></g></g></g></g></g></svg>