<?xml version="1.0" encoding="UTF-8"?>
<!-- Do not edit this file with editors other than draw.io -->
<!DOCTYPE svg PUBLIC "-//W3C//DTD SVG 1.1//EN" "http://www.w3.org/Graphics/SVG/1.1/DTD/svg11.dtd">
<svg xmlns="http://www.w3.org/2000/svg" xmlns:xlink="http://www.w3.org/1999/xlink" version="1.1" width="71px" height="81px" viewBox="-0.5 -0.5 71 81" class="ge-export-svg-dark" content="&lt;mxfile host=&quot;app.diagrams.net&quot; agent=&quot;Mozilla/5.0 (Windows NT 10.0; Win64; x64) AppleWebKit/537.36 (KHTML, like Gecko) Chrome/129.0.0.0 Safari/537.36&quot; scale=&quot;1&quot; border=&quot;0&quot; version=&quot;24.7.16&quot;&gt;&#10;  &lt;diagram name=&quot;Página-1&quot; id=&quot;m8l1A8O_j_JvbqTGVBao&quot;&gt;&#10;    &lt;mxGraphModel dx=&quot;419&quot; dy=&quot;207&quot; grid=&quot;1&quot; gridSize=&quot;10&quot; guides=&quot;1&quot; tooltips=&quot;1&quot; connect=&quot;1&quot; arrows=&quot;1&quot; fold=&quot;1&quot; page=&quot;1&quot; pageScale=&quot;1&quot; pageWidth=&quot;2970&quot; pageHeight=&quot;2100&quot; math=&quot;0&quot; shadow=&quot;0&quot;&gt;&#10;      &lt;root&gt;&#10;        &lt;mxCell id=&quot;0&quot; /&gt;&#10;        &lt;mxCell id=&quot;1&quot; parent=&quot;0&quot; /&gt;&#10;        &lt;mxCell id=&quot;l1s-WfeYHmzIl0k62fMm-2&quot; value=&quot;&quot; style=&quot;group&quot; parent=&quot;1&quot; vertex=&quot;1&quot; connectable=&quot;0&quot;&gt;&#10;          &lt;mxGeometry x=&quot;400&quot; y=&quot;280&quot; width=&quot;70&quot; height=&quot;80&quot; as=&quot;geometry&quot; /&gt;&#10;        &lt;/mxCell&gt;&#10;        &lt;mxCell id=&quot;sqtzE2Vg8_yKc3G_givv-2&quot; value=&quot;&quot; style=&quot;ellipse;shape=doubleEllipse;whiteSpace=wrap;html=1;aspect=fixed;container=0;&quot; parent=&quot;l1s-WfeYHmzIl0k62fMm-2&quot; vertex=&quot;1&quot;&gt;&#10;          &lt;mxGeometry width=&quot;70&quot; height=&quot;70&quot; as=&quot;geometry&quot; /&gt;&#10;        &lt;/mxCell&gt;&#10;        &lt;mxCell id=&quot;sqtzE2Vg8_yKc3G_givv-3&quot; value=&quot;&quot; style=&quot;ellipse;whiteSpace=wrap;html=1;aspect=fixed;container=0;&quot; parent=&quot;l1s-WfeYHmzIl0k62fMm-2&quot; vertex=&quot;1&quot;&gt;&#10;          &lt;mxGeometry x=&quot;5&quot; y=&quot;5&quot; width=&quot;60&quot; height=&quot;60&quot; as=&quot;geometry&quot; /&gt;&#10;        &lt;/mxCell&gt;&#10;        &lt;mxCell id=&quot;f6pmm0lQQjv1o45NG8nA-9&quot; value=&quot;&quot; style=&quot;fillColor=#00FF00;verticalLabelPosition=bottom;sketch=0;html=1;strokeColor=#ffffff;verticalAlign=top;align=center;points=[[0.145,0.145,0],[0.5,0,0],[0.855,0.145,0],[1,0.5,0],[0.855,0.855,0],[0.5,1,0],[0.145,0.855,0],[0,0.5,0]];pointerEvents=1;shape=mxgraph.cisco_safe.compositeIcon;bgIcon=ellipse;resIcon=mxgraph.cisco_safe.capability.host_context;&quot; vertex=&quot;1&quot; parent=&quot;l1s-WfeYHmzIl0k62fMm-2&quot;&gt;&#10;          &lt;mxGeometry x=&quot;10&quot; y=&quot;11.75&quot; width=&quot;50&quot; height=&quot;46.5&quot; as=&quot;geometry&quot; /&gt;&#10;        &lt;/mxCell&gt;&#10;      &lt;/root&gt;&#10;    &lt;/mxGraphModel&gt;&#10;  &lt;/diagram&gt;&#10;&lt;/mxfile&gt;&#10;"><defs><style type="text/css">svg.ge-export-svg-dark:not(mjx-container &gt; svg) { filter: invert(100%) hue-rotate(180deg); }&#xa;svg.ge-export-svg-dark foreignObject img,&#xa;svg.ge-export-svg-dark image:not(svg.ge-export-svg-dark switch image),&#xa;svg.ge-export-svg-dark svg:not(mjx-container &gt; svg)&#xa;{ filter: invert(100%) hue-rotate(180deg) }</style></defs><g><g data-cell-id="0"><g data-cell-id="1"><g data-cell-id="l1s-WfeYHmzIl0k62fMm-2"><g/><g data-cell-id="sqtzE2Vg8_yKc3G_givv-2"><g><ellipse cx="35" cy="35" rx="35" ry="35" fill="rgb(255, 255, 255)" stroke="rgb(0, 0, 0)" pointer-events="all"/><ellipse cx="35" cy="35" rx="31" ry="31" fill="none" stroke="rgb(0, 0, 0)" pointer-events="all"/></g></g><g data-cell-id="sqtzE2Vg8_yKc3G_givv-3"><g><ellipse cx="35" cy="35" rx="30" ry="30" fill="rgb(255, 255, 255)" stroke="rgb(0, 0, 0)" pointer-events="all"/></g></g><g data-cell-id="f6pmm0lQQjv1o45NG8nA-9"><g><rect x="10" y="11.75" width="50" height="46.5" fill="none" stroke="none" pointer-events="all"/><path d="M 35 11.75 C 48.8 11.75 60 22.17 60 35 C 60 47.83 48.8 58.25 35 58.25 C 21.2 58.25 10 47.83 10 35 C 10 22.17 21.2 11.75 35 11.75 Z M 39.41 25.19 C 38.11 25.2 36.96 25.92 36.47 27.03 C 36.02 26.8 35.52 26.69 35.01 26.69 C 34.51 26.69 34.01 26.8 33.56 27.03 C 33.07 25.93 31.92 25.21 30.64 25.21 C 29.83 25.21 29.08 25.5 28.52 25.97 L 26.25 27.69 C 26.18 27.69 26.11 27.68 26.04 27.68 C 25.16 27.68 24.34 27.93 23.66 28.36 L 19.39 31.37 C 17.67 32.78 16.57 34.85 16.57 37.14 C 16.57 41.36 20.29 44.81 24.83 44.81 C 28.86 44.81 32.23 42.09 32.93 38.52 C 33.55 38.78 34.23 38.91 34.91 38.91 C 35.65 38.91 36.39 38.75 37.05 38.44 C 37.73 42.03 41.12 44.79 45.17 44.79 C 49.71 44.79 53.42 41.34 53.42 37.12 C 53.42 34.75 52.25 32.62 50.42 31.21 L 46.84 28.38 C 46.13 27.88 45.24 27.59 44.28 27.59 C 43.98 27.59 43.69 27.62 43.41 27.68 L 41.59 26.01 C 41.02 25.5 40.25 25.2 39.41 25.19 Z M 24.83 32.04 C 27.87 32.04 30.3 34.31 30.3 37.14 C 30.3 39.97 27.87 42.23 24.83 42.23 C 21.78 42.23 19.34 39.97 19.34 37.14 C 19.34 34.31 21.78 32.04 24.83 32.04 Z M 45.17 32.02 C 48.22 32.02 50.66 34.29 50.66 37.12 C 50.66 39.95 48.22 42.21 45.17 42.21 C 42.13 42.21 39.69 39.95 39.69 37.12 C 39.69 34.29 42.13 32.02 45.17 32.02 Z M 41.95 35.06 C 40.96 36.36 40.55 38.29 42.51 40.07 C 44.49 41.64 47.02 41 48.28 39.64 C 46.34 39.95 44.88 39.66 43.76 38.82 C 42.57 37.91 41.95 36.74 41.95 35.06 Z M 21.59 35.03 C 20.59 36.34 20.19 38.27 22.15 40.04 C 24.13 41.62 26.65 40.98 27.92 39.62 C 25.98 39.93 24.52 39.64 23.4 38.8 C 22.2 37.88 21.59 36.72 21.59 35.03 Z M 34.94 32.92 C 36.13 32.92 37.1 33.82 37.1 34.93 C 37.1 36.04 36.13 36.94 34.94 36.94 C 33.74 36.94 32.77 36.04 32.77 34.93 C 32.77 33.82 33.74 32.92 34.94 32.92 Z" fill="#00ff00" stroke="none" pointer-events="all"/><ellipse cx="35" cy="35" rx="24.5" ry="22.785" fill="#ffffff" stroke="none" pointer-events="all"/><rect x="10" y="11.75" width="50" height="46.5" fill="none" stroke="none" pointer-events="all"/><path d="M 35 11.75 C 48.8 11.75 60 22.17 60 35 C 60 47.83 48.8 58.25 35 58.25 C 21.2 58.25 10 47.83 10 35 C 10 22.17 21.2 11.75 35 11.75 Z M 39.41 25.19 C 38.11 25.2 36.96 25.92 36.47 27.03 C 36.02 26.8 35.52 26.69 35.01 26.69 C 34.51 26.69 34.01 26.8 33.56 27.03 C 33.07 25.93 31.92 25.21 30.64 25.21 C 29.83 25.21 29.08 25.5 28.52 25.97 L 26.25 27.69 C 26.18 27.69 26.11 27.68 26.04 27.68 C 25.16 27.68 24.34 27.93 23.66 28.36 L 19.39 31.37 C 17.67 32.78 16.57 34.85 16.57 37.14 C 16.57 41.36 20.29 44.81 24.83 44.81 C 28.86 44.81 32.23 42.09 32.93 38.52 C 33.55 38.78 34.23 38.91 34.91 38.91 C 35.65 38.91 36.39 38.75 37.05 38.44 C 37.73 42.03 41.12 44.79 45.17 44.79 C 49.71 44.79 53.42 41.34 53.42 37.12 C 53.42 34.75 52.25 32.62 50.42 31.21 L 46.84 28.38 C 46.13 27.88 45.24 27.59 44.28 27.59 C 43.98 27.59 43.69 27.62 43.41 27.68 L 41.59 26.01 C 41.02 25.5 40.25 25.2 39.41 25.19 Z M 24.83 32.04 C 27.87 32.04 30.3 34.31 30.3 37.14 C 30.3 39.97 27.87 42.23 24.83 42.23 C 21.78 42.23 19.34 39.97 19.34 37.14 C 19.34 34.31 21.78 32.04 24.83 32.04 Z M 45.17 32.02 C 48.22 32.02 50.66 34.29 50.66 37.12 C 50.66 39.95 48.22 42.21 45.17 42.21 C 42.13 42.21 39.69 39.95 39.69 37.12 C 39.69 34.29 42.13 32.02 45.17 32.02 Z M 41.95 35.06 C 40.96 36.36 40.55 38.29 42.51 40.07 C 44.49 41.64 47.02 41 48.28 39.64 C 46.34 39.95 44.88 39.66 43.76 38.82 C 42.57 37.91 41.95 36.74 41.95 35.06 Z M 21.59 35.03 C 20.59 36.34 20.19 38.27 22.15 40.04 C 24.13 41.62 26.65 40.98 27.92 39.62 C 25.98 39.93 24.52 39.64 23.4 38.8 C 22.2 37.88 21.59 36.72 21.59 35.03 Z M 34.94 32.92 C 36.13 32.92 37.1 33.82 37.1 34.93 C 37.1 36.04 36.13 36.94 34.94 36.94 C 33.74 36.94 32.77 36.04 32.77 34.93 C 32.77 33.82 33.74 32.92 34.94 32.92 Z" fill="#00ff00" stroke="none" pointer-events="all"/></g></g></g></g></g></g></svg>