<?xml version="1.0" encoding="UTF-8"?>
<!-- Do not edit this file with editors other than draw.io -->
<!DOCTYPE svg PUBLIC "-//W3C//DTD SVG 1.1//EN" "http://www.w3.org/Graphics/SVG/1.1/DTD/svg11.dtd">
<svg xmlns="http://www.w3.org/2000/svg" xmlns:xlink="http://www.w3.org/1999/xlink" version="1.1" width="71px" height="81px" viewBox="-0.5 -0.5 71 81" class="ge-export-svg-dark" content="&lt;mxfile host=&quot;app.diagrams.net&quot; agent=&quot;Mozilla/5.0 (Windows NT 10.0; Win64; x64) AppleWebKit/537.36 (KHTML, like Gecko) Chrome/129.0.0.0 Safari/537.36&quot; scale=&quot;1&quot; border=&quot;0&quot; version=&quot;24.7.16&quot;&gt;&#10;  &lt;diagram name=&quot;Página-1&quot; id=&quot;m8l1A8O_j_JvbqTGVBao&quot;&gt;&#10;    &lt;mxGraphModel dx=&quot;419&quot; dy=&quot;207&quot; grid=&quot;1&quot; gridSize=&quot;10&quot; guides=&quot;1&quot; tooltips=&quot;1&quot; connect=&quot;1&quot; arrows=&quot;1&quot; fold=&quot;1&quot; page=&quot;1&quot; pageScale=&quot;1&quot; pageWidth=&quot;2970&quot; pageHeight=&quot;2100&quot; math=&quot;0&quot; shadow=&quot;0&quot;&gt;&#10;      &lt;root&gt;&#10;        &lt;mxCell id=&quot;0&quot; /&gt;&#10;        &lt;mxCell id=&quot;1&quot; parent=&quot;0&quot; /&gt;&#10;        &lt;mxCell id=&quot;l1s-WfeYHmzIl0k62fMm-2&quot; value=&quot;&quot; style=&quot;group&quot; parent=&quot;1&quot; vertex=&quot;1&quot; connectable=&quot;0&quot;&gt;&#10;          &lt;mxGeometry x=&quot;400&quot; y=&quot;280&quot; width=&quot;70&quot; height=&quot;80&quot; as=&quot;geometry&quot; /&gt;&#10;        &lt;/mxCell&gt;&#10;        &lt;mxCell id=&quot;sqtzE2Vg8_yKc3G_givv-2&quot; value=&quot;&quot; style=&quot;ellipse;shape=doubleEllipse;whiteSpace=wrap;html=1;aspect=fixed;container=0;&quot; parent=&quot;l1s-WfeYHmzIl0k62fMm-2&quot; vertex=&quot;1&quot;&gt;&#10;          &lt;mxGeometry width=&quot;70&quot; height=&quot;70&quot; as=&quot;geometry&quot; /&gt;&#10;        &lt;/mxCell&gt;&#10;        &lt;mxCell id=&quot;sqtzE2Vg8_yKc3G_givv-3&quot; value=&quot;&quot; style=&quot;ellipse;whiteSpace=wrap;html=1;aspect=fixed;container=0;&quot; parent=&quot;l1s-WfeYHmzIl0k62fMm-2&quot; vertex=&quot;1&quot;&gt;&#10;          &lt;mxGeometry x=&quot;5&quot; y=&quot;5&quot; width=&quot;60&quot; height=&quot;60&quot; as=&quot;geometry&quot; /&gt;&#10;        &lt;/mxCell&gt;&#10;        &lt;mxCell id=&quot;f6pmm0lQQjv1o45NG8nA-12&quot; value=&quot;&quot; style=&quot;verticalLabelPosition=bottom;sketch=0;html=1;fillColor=#00FF00;strokeColor=none;verticalAlign=top;pointerEvents=1;align=center;shape=mxgraph.cisco_safe.security_icons.iam;&quot; vertex=&quot;1&quot; parent=&quot;l1s-WfeYHmzIl0k62fMm-2&quot;&gt;&#10;          &lt;mxGeometry x=&quot;16.25&quot; y=&quot;11.5&quot; width=&quot;37.5&quot; height=&quot;47&quot; as=&quot;geometry&quot; /&gt;&#10;        &lt;/mxCell&gt;&#10;      &lt;/root&gt;&#10;    &lt;/mxGraphModel&gt;&#10;  &lt;/diagram&gt;&#10;&lt;/mxfile&gt;&#10;"><defs><style type="text/css">svg.ge-export-svg-dark:not(mjx-container &gt; svg) { filter: invert(100%) hue-rotate(180deg); }&#xa;svg.ge-export-svg-dark foreignObject img,&#xa;svg.ge-export-svg-dark image:not(svg.ge-export-svg-dark switch image),&#xa;svg.ge-export-svg-dark svg:not(mjx-container &gt; svg)&#xa;{ filter: invert(100%) hue-rotate(180deg) }</style></defs><g><g data-cell-id="0"><g data-cell-id="1"><g data-cell-id="l1s-WfeYHmzIl0k62fMm-2"><g/><g data-cell-id="sqtzE2Vg8_yKc3G_givv-2"><g><ellipse cx="35" cy="35" rx="35" ry="35" fill="rgb(255, 255, 255)" stroke="rgb(0, 0, 0)" pointer-events="all"/><ellipse cx="35" cy="35" rx="31" ry="31" fill="none" stroke="rgb(0, 0, 0)" pointer-events="all"/></g></g><g data-cell-id="sqtzE2Vg8_yKc3G_givv-3"><g><ellipse cx="35" cy="35" rx="30" ry="30" fill="rgb(255, 255, 255)" stroke="rgb(0, 0, 0)" pointer-events="all"/></g></g><g data-cell-id="f6pmm0lQQjv1o45NG8nA-12"><g><rect x="16.25" y="11.5" width="37.5" height="47" fill="none" stroke="none" pointer-events="all"/><path d="M 36.93 11.54 C 36.83 11.54 36.73 11.55 36.63 11.57 C 35.95 11.64 35.43 11.9 35.43 12.26 C 35.43 12.57 36.02 12.77 36.68 12.73 C 37.29 12.72 37.98 12.38 37.93 12.05 C 37.87 11.72 37.56 11.5 36.93 11.54 Z M 40.46 12.22 C 39.86 12.19 39.13 12.49 38.36 12.79 C 37.57 13.11 36.94 13.3 35.62 13.29 C 34.01 13.25 32.81 13.22 31.98 13.43 C 30.66 13.81 30.4 14.46 30.29 15.06 C 30.93 15.41 31.63 15.24 32.38 14.88 C 33.19 14.52 34 14.22 35.06 14.6 C 36.24 15.07 37.85 15.12 39.22 15.15 C 40.78 15.18 42.57 15.46 43.84 16.06 C 44.87 16.57 46.07 17.24 46.94 17.44 C 46.9 16.95 46.74 16.39 46.05 15.86 C 45.1 15.1 42.8 14.4 41.89 14.23 C 41.17 14.08 40.44 13.93 39.55 13.46 C 40.31 13.09 40.8 13.33 41.65 13.32 C 41.5 12.9 41.36 12.4 40.71 12.26 C 40.63 12.24 40.54 12.23 40.46 12.22 Z M 43.28 13.06 C 42.7 13.02 42.36 13.33 42.38 13.68 C 42.69 13.94 43.01 14.08 43.32 14.23 C 43.81 14.44 44.34 14.55 44.75 14.37 C 44.87 13.95 44.57 13.51 43.94 13.23 C 43.69 13.13 43.47 13.07 43.28 13.06 Z M 33.68 15.21 C 32.34 15.27 31.05 16.59 29.97 17.29 C 27.7 19.12 26.62 19.34 25.9 19.83 C 25.16 20.33 25.01 20.83 25.08 21.34 C 25.83 21.37 26.41 21.18 26.95 20.93 C 28.24 20.26 29.46 19.01 30.41 18.43 C 31.91 17.48 33.3 17.44 34.31 17.93 C 35.52 18.5 35.89 18.57 37.92 18.46 C 39.56 18.38 41.07 18.75 42.21 19.22 C 44.21 20.08 45 20.77 46.77 21.45 C 46.55 20.4 45.95 19.28 43.78 18.35 C 41.83 17.49 39.68 17.31 37.22 17.27 C 35.01 17.26 34.12 16.82 33.75 16.1 C 35.8 16.67 37.7 16.58 39.47 16.78 C 42.07 16.94 44.48 17.88 46.21 19.04 C 47.15 19.81 47.5 20.18 47.55 21.21 C 47.61 22.51 48.19 23.07 48.61 23.52 C 49.59 24.46 49.92 24.95 50.29 25.62 C 50.72 26.52 51.2 27.35 51.81 27.96 C 52.01 27.49 52.1 26.4 51.75 25.5 C 51.5 24.59 50.79 23.47 49.91 22.61 C 49.53 22.31 49.23 22.05 49.12 21.86 C 48.96 21.56 48.88 21.11 48.76 20.44 C 48.64 19.56 48.2 18.94 47.21 18.21 C 44.76 16.49 41.01 15.49 38.83 15.67 C 36.25 15.81 36.14 15.31 33.95 15.22 C 33.86 15.21 33.77 15.21 33.68 15.21 Z M 29.71 15.69 C 29.2 15.69 28.73 15.82 28.31 16.16 C 27.65 16.67 27.19 17.55 27.07 18.18 C 27.94 18.07 28.47 17.84 29.06 17.37 C 29.58 16.98 29.99 16.42 30.21 15.72 C 30.04 15.7 29.87 15.69 29.71 15.69 Z M 33.08 18.49 C 32.42 18.48 31.61 18.73 30.94 19.12 C 29.41 20.02 28.29 20.79 27.9 21.91 C 27.47 22.89 27.23 23.38 26.23 23.89 C 25.83 24.08 25.54 24.25 25.28 24.44 C 25.38 24.44 25.48 24.43 25.58 24.43 C 26.14 24.43 26.68 24.47 27.2 24.55 C 27.79 24.14 28.25 23.73 28.53 22.98 C 28.8 22.24 29.54 21.47 30.24 21.01 C 31.6 20.09 32.69 19.64 34.06 18.83 C 33.83 18.6 33.49 18.49 33.08 18.49 Z M 37.44 19.08 C 34.41 19.15 32.34 20.02 30.53 21.33 C 29.53 22.18 29.15 23.01 29.24 23.31 C 29.83 23.41 30.39 23.19 31.04 22.5 C 32.37 20.88 35.16 20.28 37.19 20.29 C 40.82 20.33 44.89 22.01 47.54 25.38 C 49.24 27.64 50.67 30.11 51.56 32.8 C 52.11 34.58 52.51 36.47 52.37 37.78 C 52.2 39.61 51.84 41.56 51.99 42.72 C 53.5 42.12 53.75 37.99 53.5 36.31 C 52.91 31.87 50.87 27.28 48.27 24.41 C 46.49 22.29 42.48 19 37.44 19.08 Z M 38.37 20.94 C 36.35 20.91 34.11 21.36 32.67 22.2 C 31.68 22.89 30.74 23.89 29.45 24.29 C 29 24.4 28.6 24.56 28.21 24.73 C 28.99 24.91 29.71 25.17 30.39 25.5 C 31.18 25.18 31.8 24.62 32.88 23.67 C 34.76 22.18 38.17 22.02 40.91 23 C 44.47 24.43 46.47 26.77 48.2 29.88 C 50.03 33.24 50.47 36.17 50.3 38.76 C 50.17 40.13 50.29 41.07 50.55 41.67 C 51.06 41.39 51.49 40.81 51.67 39.56 C 51.84 36.62 51.57 33.55 50.09 30.63 C 47.98 25.67 44.34 22.46 41.55 21.5 C 40.73 21.14 39.59 20.95 38.37 20.94 Z M 27.05 21.46 C 26.24 21.6 25.56 21.85 24.94 22.32 C 23.7 23.31 23.83 24 23.74 24.59 C 24.28 24.32 25.01 23.96 25.66 23.59 C 26.78 22.9 27.02 22.07 27.05 21.46 Z M 37.44 23.13 C 36.9 23.13 36.28 23.22 35.64 23.34 C 34.16 23.67 32.93 24.5 31.61 26.18 C 32.36 26.67 33.01 27.23 33.58 27.84 C 33.62 27.82 33.67 27.8 33.7 27.78 C 35.68 26.85 38.23 26.66 40.29 27.75 C 42.18 28.78 43.58 30.3 44.48 32.29 C 45.11 33.79 45.19 34.89 45.02 35.99 C 44.79 37.36 44.61 38.95 44.49 40.73 C 44.2 43.03 43.88 44.86 42.92 46.58 C 42 47.96 41.25 48.35 40.37 48.76 C 41.46 47.61 42.4 45.83 43.02 43.66 C 43.43 41.77 43.85 41.3 43.89 39.89 C 43.91 39.21 43.53 38.75 43.12 38.62 C 42.5 39.11 42.42 40.01 42.42 41.02 C 42.43 42.89 40.98 45.84 39.48 47.65 C 38.06 49.5 35.37 51.29 33.23 51.99 C 31.83 52.39 31.11 52.22 29.72 52.67 C 28.76 52.99 28.32 53.56 28.4 54.38 C 28.89 54.43 29.37 54.35 29.84 54.1 C 30.81 53.43 31.56 53.47 32.84 53.37 C 34.41 53.24 35.03 53.01 36.46 51.91 C 37.37 51.22 38.01 51.03 40.39 50.31 C 41.86 49.79 42.94 48.84 44.04 47.05 C 45.6 44.56 45.7 40.18 46.45 36.28 C 46.62 35.29 47.07 34.85 46.13 32.12 C 45.25 29.82 43.43 27.75 40.92 26.5 C 38.81 25.47 36.97 25.3 35.38 25.61 C 34.67 25.86 34.03 26.18 33.33 26.1 C 33.54 25.79 33.82 25.51 34.24 25.28 C 35.15 24.88 35.69 24.66 36.76 24.63 C 37.89 24.59 38.26 24.51 38.69 24.25 C 39 24.06 39 23.65 38.75 23.45 C 38.43 23.21 37.98 23.13 37.44 23.13 Z M 40.14 23.81 C 39.82 23.79 39.52 23.85 39.36 24.03 C 39.37 24.88 40.16 25.3 41.03 25.57 C 42.3 25.92 43.98 27.61 45.12 29.03 C 46.99 31.46 47.17 33.26 47.73 35.2 C 47.91 36.12 48.21 36.32 48.4 37.05 C 48.51 37.44 48.44 37.96 48.38 38.48 C 48.1 40.08 48.03 41.11 48.52 41.69 C 49.79 40.88 49.83 38.47 49.6 36.48 C 49.43 34.54 48.7 32.37 47.35 29.95 C 45.64 26.89 43.68 25 41.11 24.01 C 40.82 23.91 40.46 23.82 40.14 23.81 Z M 25.58 25.81 C 20.48 25.81 16.25 30.18 16.25 35.12 C 16.25 37.71 17.97 40.31 19.2 41.87 C 22.5 46.28 25.13 52.99 25.71 58.5 C 26.36 52.99 28.17 47.57 31.61 42.61 C 33.4 40.34 35.12 38.04 35.12 34.97 C 35.12 31.09 31.88 25.81 25.58 25.81 Z M 37.19 28.27 C 36.29 28.26 35.28 28.42 34.33 28.75 C 34.62 29.13 34.87 29.53 35.11 29.93 C 35.77 29.71 36.44 29.57 37.07 29.56 C 39.27 29.48 40.86 30.51 41.83 32.33 C 42.57 33.81 43.08 35.98 43.08 38.11 C 44.54 37.85 44.43 35.16 43.68 32.87 C 43.07 30.89 40.73 28.18 37.19 28.27 Z M 37.07 30.23 C 36.55 30.24 36.02 30.37 35.46 30.59 C 35.63 30.96 35.78 31.33 35.91 31.69 C 37.09 31.51 39.01 31.66 39.92 33.14 C 40.91 35.2 40.26 37.06 40.11 38.74 C 39.79 41.93 39.23 43.45 38.61 44.81 C 37.71 46.52 36.2 48.46 34.17 49.2 C 32.17 50.08 31.62 50.63 31.3 51.87 C 31.64 51.96 32.04 51.96 32.5 51.63 C 33.03 51.23 33.4 51 34.64 50.55 C 36.69 49.82 39.05 47.12 39.96 45.43 C 41.15 43.64 42.35 38.58 41.61 34.46 C 41.21 31.8 39.99 30.65 37.64 30.26 C 37.45 30.23 37.26 30.22 37.07 30.23 Z M 25.49 30.81 C 26.61 30.81 27.69 31.25 28.48 32.04 C 29.27 32.83 29.72 33.91 29.72 35.02 C 29.72 37.35 27.82 39.24 25.49 39.24 C 23.16 39.23 21.27 37.35 21.27 35.02 C 21.27 32.7 23.16 30.81 25.49 30.81 Z M 37.61 32.39 C 37.53 32.39 37.44 32.4 37.35 32.42 C 36.66 32.58 36.76 33.11 36.82 33.45 C 37.79 33.5 38.63 33.88 39.32 34.2 C 39.49 33.91 39.55 33.43 39.14 32.99 C 38.76 32.64 38.23 32.35 37.61 32.39 Z M 36.23 32.8 C 36.29 33.03 36.33 33.25 36.37 33.48 C 36.42 33.42 36.46 33.35 36.48 33.27 C 36.53 33.11 36.42 32.94 36.23 32.8 Z M 36.97 34.27 C 36.8 34.27 36.63 34.29 36.47 34.32 C 36.48 34.53 36.5 34.75 36.5 34.97 C 36.5 35.12 36.49 35.26 36.48 35.41 C 36.7 35.34 36.95 35.33 37.23 35.39 C 37.86 35.46 38.3 36.03 38.14 37.16 C 37.99 38.11 37.93 38.77 38.1 39.31 C 38.26 40.3 37.9 41.67 37.08 43.3 C 36.34 44.66 35.06 46.3 33.7 46.79 C 32.28 47.14 31.93 47.42 30.93 48.42 C 30.41 48.97 29.72 49.75 29.11 50.29 C 28.89 50.88 28.68 51.48 28.49 52.09 C 29.09 51.91 29.68 51.55 30.38 50.9 C 31.73 49.7 32.27 48.71 34.44 47.92 C 35.8 47.5 36.77 46.63 37.9 44.86 C 38.91 43.17 39.34 41.75 39.25 39.6 C 39.12 38.2 39.41 37.86 39.57 37.09 C 39.88 35.56 38.86 34.66 37.83 34.37 C 37.55 34.31 37.26 34.27 36.97 34.27 Z M 36.97 36.19 C 36.7 36.2 36.51 36.37 36.35 36.6 C 35.87 39.36 34.24 41.51 32.73 43.42 C 31.57 45.09 30.61 46.81 29.82 48.57 C 31.07 47.13 31.68 46.64 33.2 45.85 C 34.63 45.1 35.29 45.37 36.48 42.93 C 37.14 41.62 37.66 39.32 36.93 38.45 C 37.47 37.52 37.65 36.36 37.11 36.19 C 37.06 36.18 37.02 36.18 36.97 36.19 Z M 47.29 36.77 C 46.78 36.96 46.4 37.66 46.39 38.48 C 46.36 39.38 46.39 40.29 46.48 41.19 C 46.83 41.06 47.45 40.44 47.66 39.21 C 47.9 38.06 47.73 37.25 47.29 36.77 Z M 35.49 39.62 L 35.84 39.75 C 35.86 40.69 35.72 41.3 35.51 41.94 C 34.91 43.37 34.11 43.99 33.37 44.05 C 34.51 41.62 34.91 41.25 35.49 39.62 Z M 47.13 42.14 L 46.74 42.15 C 46.05 43.17 45.67 44.84 45 46.42 C 43.98 49.16 42.62 50.84 39.45 51.55 C 38.28 51.85 37.17 52.34 36.54 52.83 C 35.27 53.82 34.62 55.29 33.7 55.79 C 32.78 56.23 32.47 56.49 32.38 57.16 C 33.13 57.48 33.81 57.11 34.7 56.41 C 35.63 55.68 36.22 55.39 37.47 55.32 C 38.33 55.26 38.88 55.2 39.53 55.12 C 41.2 54.95 41.84 54.1 41.82 53 C 40.9 53.08 40.19 53.52 39.39 53.79 C 38.66 54.08 37.88 54.28 37.17 54.08 C 37.56 53.74 38.03 53.39 39.29 52.96 C 40.94 52.55 42.19 52.17 43.14 51.26 C 44.96 49.6 46.6 46.36 46.98 44.94 C 47.17 44.12 47.37 43.17 47.13 42.14 Z M 50.77 42.41 C 50.47 42.48 50.19 43.06 49.99 43.52 C 49.5 44.61 49.38 45.33 48.84 46.31 C 48.57 46.78 48.26 47.12 47.67 47.34 C 47.75 47.04 47.89 46.7 48.05 46.35 C 48.47 45.53 48.84 44.85 49.01 44.08 C 49.13 43.43 49.07 42.9 48.65 42.51 C 48.26 42.58 47.97 42.89 47.82 43.43 C 47.62 44.63 47.24 45.79 46.86 46.73 C 46.1 48.45 45.21 50 44.22 50.91 C 43.96 51.16 43.6 51.45 43.19 51.64 C 42.75 51.85 42.43 52.22 42.42 52.9 C 42.77 53.01 43.24 52.99 43.66 52.89 C 44.5 52.67 45.15 51.77 45.6 51.17 C 46.29 50.19 46.88 49.41 47.77 49.03 C 48.81 48.56 48.99 48.36 49.47 47.82 C 50.29 46.83 50.99 45.55 51.16 44.12 C 51.14 43.47 51.27 42.45 50.77 42.41 Z M 50.18 48.23 C 50.14 48.22 50.08 48.22 50 48.24 C 49.03 48.48 47.96 49.76 46.86 51.27 C 46.29 52.25 44.92 52.99 43.43 53.89 C 41.53 54.88 40.72 55.42 40.45 56.29 C 41.65 56.21 42.55 55.73 43.39 55.19 C 44.78 54.27 46.2 53.04 48.03 52.78 C 48.26 52.34 48.76 52.18 49 51.63 C 49.17 51.24 49.18 50.92 48.81 51.01 C 48.54 51.1 48.45 51.29 48.25 51.4 C 48.16 51.41 48.09 51.35 48.02 51.28 C 48.21 51.08 48.47 50.84 48.87 50.53 C 49.58 49.96 50.27 49.43 50.33 48.62 C 50.35 48.4 50.32 48.25 50.18 48.23 Z M 32.94 54.24 C 32.54 54.24 32.11 54.28 31.6 54.38 C 30.37 54.63 29.93 55.11 29.78 55.68 C 30.27 56.19 31.05 56.23 31.85 56.02 C 33.27 55.57 33.9 54.75 34.01 54.33 C 33.68 54.28 33.33 54.24 32.94 54.24 Z M 37.82 56 C 37.43 55.97 37.01 56.02 36.68 56.1 C 35.21 56.5 35.24 57.18 35.72 57.58 L 36.61 57.61 C 36.98 57.58 37.18 57.37 37.86 57.19 C 38.42 56.98 38.62 56.73 38.77 56.28 C 38.56 56.11 38.2 56.02 37.82 56 Z" fill="#00ff00" stroke="none" pointer-events="all"/></g></g></g></g></g></g></svg>