<?xml version="1.0" encoding="UTF-8"?>
<!-- Do not edit this file with editors other than draw.io -->
<!DOCTYPE svg PUBLIC "-//W3C//DTD SVG 1.1//EN" "http://www.w3.org/Graphics/SVG/1.1/DTD/svg11.dtd">
<svg xmlns="http://www.w3.org/2000/svg" xmlns:xlink="http://www.w3.org/1999/xlink" version="1.1" width="71px" height="81px" viewBox="-0.5 -0.5 71 81" class="ge-export-svg-dark" content="&lt;mxfile host=&quot;app.diagrams.net&quot; agent=&quot;Mozilla/5.0 (Windows NT 10.0; Win64; x64) AppleWebKit/537.36 (KHTML, like Gecko) Chrome/129.0.0.0 Safari/537.36&quot; scale=&quot;1&quot; border=&quot;0&quot; version=&quot;24.7.16&quot;&gt;&#10;  &lt;diagram name=&quot;Página-1&quot; id=&quot;m8l1A8O_j_JvbqTGVBao&quot;&gt;&#10;    &lt;mxGraphModel dx=&quot;419&quot; dy=&quot;207&quot; grid=&quot;1&quot; gridSize=&quot;10&quot; guides=&quot;1&quot; tooltips=&quot;1&quot; connect=&quot;1&quot; arrows=&quot;1&quot; fold=&quot;1&quot; page=&quot;1&quot; pageScale=&quot;1&quot; pageWidth=&quot;2970&quot; pageHeight=&quot;2100&quot; math=&quot;0&quot; shadow=&quot;0&quot;&gt;&#10;      &lt;root&gt;&#10;        &lt;mxCell id=&quot;0&quot; /&gt;&#10;        &lt;mxCell id=&quot;1&quot; parent=&quot;0&quot; /&gt;&#10;        &lt;mxCell id=&quot;l1s-WfeYHmzIl0k62fMm-2&quot; value=&quot;&quot; style=&quot;group&quot; parent=&quot;1&quot; vertex=&quot;1&quot; connectable=&quot;0&quot;&gt;&#10;          &lt;mxGeometry x=&quot;400&quot; y=&quot;280&quot; width=&quot;70&quot; height=&quot;80&quot; as=&quot;geometry&quot; /&gt;&#10;        &lt;/mxCell&gt;&#10;        &lt;mxCell id=&quot;sqtzE2Vg8_yKc3G_givv-2&quot; value=&quot;&quot; style=&quot;ellipse;shape=doubleEllipse;whiteSpace=wrap;html=1;aspect=fixed;container=0;&quot; parent=&quot;l1s-WfeYHmzIl0k62fMm-2&quot; vertex=&quot;1&quot;&gt;&#10;          &lt;mxGeometry width=&quot;70&quot; height=&quot;70&quot; as=&quot;geometry&quot; /&gt;&#10;        &lt;/mxCell&gt;&#10;        &lt;mxCell id=&quot;sqtzE2Vg8_yKc3G_givv-3&quot; value=&quot;&quot; style=&quot;ellipse;whiteSpace=wrap;html=1;aspect=fixed;container=0;&quot; parent=&quot;l1s-WfeYHmzIl0k62fMm-2&quot; vertex=&quot;1&quot;&gt;&#10;          &lt;mxGeometry x=&quot;5&quot; y=&quot;5&quot; width=&quot;60&quot; height=&quot;60&quot; as=&quot;geometry&quot; /&gt;&#10;        &lt;/mxCell&gt;&#10;        &lt;mxCell id=&quot;f6pmm0lQQjv1o45NG8nA-4&quot; value=&quot;&quot; style=&quot;sketch=0;aspect=fixed;pointerEvents=1;shadow=0;dashed=0;html=1;strokeColor=none;labelPosition=center;verticalLabelPosition=bottom;verticalAlign=top;align=center;fillColor=#00FF00;shape=mxgraph.mscae.enterprise.rms_connector&quot; vertex=&quot;1&quot; parent=&quot;l1s-WfeYHmzIl0k62fMm-2&quot;&gt;&#10;          &lt;mxGeometry x=&quot;21&quot; y=&quot;13.29&quot; width=&quot;33&quot; height=&quot;43.42&quot; as=&quot;geometry&quot; /&gt;&#10;        &lt;/mxCell&gt;&#10;      &lt;/root&gt;&#10;    &lt;/mxGraphModel&gt;&#10;  &lt;/diagram&gt;&#10;&lt;/mxfile&gt;&#10;"><defs><style type="text/css">svg.ge-export-svg-dark:not(mjx-container &gt; svg) { filter: invert(100%) hue-rotate(180deg); }&#xa;svg.ge-export-svg-dark foreignObject img,&#xa;svg.ge-export-svg-dark image:not(svg.ge-export-svg-dark switch image),&#xa;svg.ge-export-svg-dark svg:not(mjx-container &gt; svg)&#xa;{ filter: invert(100%) hue-rotate(180deg) }</style></defs><g><g data-cell-id="0"><g data-cell-id="1"><g data-cell-id="l1s-WfeYHmzIl0k62fMm-2"><g/><g data-cell-id="sqtzE2Vg8_yKc3G_givv-2"><g><ellipse cx="35" cy="35" rx="35" ry="35" fill="rgb(255, 255, 255)" stroke="rgb(0, 0, 0)" pointer-events="all"/><ellipse cx="35" cy="35" rx="31" ry="31" fill="none" stroke="rgb(0, 0, 0)" pointer-events="all"/></g></g><g data-cell-id="sqtzE2Vg8_yKc3G_givv-3"><g><ellipse cx="35" cy="35" rx="30" ry="30" fill="rgb(255, 255, 255)" stroke="rgb(0, 0, 0)" pointer-events="all"/></g></g><g data-cell-id="f6pmm0lQQjv1o45NG8nA-4"><g><rect x="21" y="13.29" width="33" height="43.42" fill="none" stroke="none" pointer-events="all"/><path d="M 30.34 55.67 L 21 55.67 L 21 14.83 C 21.23 14.03 21.89 13.44 22.69 13.29 L 39.96 13.29 C 40.78 13.39 41.44 14.01 41.6 14.83 L 41.6 27.82 C 39.88 28.05 38.35 29.01 37.39 30.45 C 36.57 32.13 36.2 34.15 36.35 36.15 C 35.83 36.14 35.32 36.34 34.95 36.71 C 34.57 37.09 34.37 37.6 34.39 38.12 L 34.39 45.36 L 24.11 45.36 L 24.11 47.39 L 34.39 47.39 L 34.39 49.47 L 24.11 49.47 L 24.11 51.61 L 30.29 51.61 Z M 24.11 21.57 L 38.48 21.57 L 38.48 19.43 L 24.11 19.43 Z M 36.52 38.4 C 36.45 37.81 36.86 37.28 37.45 37.19 L 38.21 37.19 L 38.21 34.29 C 38.27 33.03 38.83 31.85 39.76 31.01 C 40.7 30.18 41.93 29.76 43.18 29.85 C 44.42 29.77 45.64 30.2 46.57 31.03 C 47.49 31.87 48.04 33.04 48.1 34.29 L 48.1 37.19 L 48.92 37.19 C 49.5 37.28 49.91 37.81 49.85 38.4 L 49.85 47.34 C 49.85 47.88 49.46 48.35 48.92 48.43 L 44.71 48.43 L 44.71 51.56 L 45.8 51.56 C 46.28 51.68 46.62 52.11 46.62 52.6 L 54 52.6 L 54 55.67 L 46.62 55.67 C 46.6 56.21 46.18 56.66 45.64 56.71 L 40.45 56.71 C 39.95 56.61 39.59 56.18 39.58 55.67 L 32.36 55.67 L 32.36 52.6 L 39.58 52.6 C 39.59 52.09 39.95 51.66 40.45 51.56 L 41.65 51.56 L 41.65 48.43 L 37.61 48.43 C 37.01 48.43 36.52 47.94 36.52 47.34 Z M 42.53 46.62 L 43.84 46.62 L 43.84 42.62 C 44.48 42.31 44.83 41.6 44.67 40.9 C 44.52 40.2 43.9 39.7 43.18 39.7 C 42.47 39.7 41.85 40.2 41.69 40.9 C 41.53 41.6 41.88 42.31 42.53 42.62 Z M 46.57 37.19 L 46.57 34.56 C 46.48 32.81 45.04 31.43 43.29 31.44 C 42.42 31.39 41.57 31.7 40.92 32.28 C 40.28 32.87 39.89 33.69 39.85 34.56 L 39.85 37.19 Z M 43.67 48.43 L 42.58 48.43 L 42.58 51.56 L 43.67 51.56 Z M 45.75 52.54 L 40.61 52.54 L 40.61 55.67 L 45.75 55.67 Z" fill="#00ff00" stroke="none" pointer-events="all"/></g></g></g></g></g></g></svg>