<?xml version="1.0" encoding="UTF-8"?>
<!-- Do not edit this file with editors other than draw.io -->
<!DOCTYPE svg PUBLIC "-//W3C//DTD SVG 1.1//EN" "http://www.w3.org/Graphics/SVG/1.1/DTD/svg11.dtd">
<svg xmlns="http://www.w3.org/2000/svg" xmlns:xlink="http://www.w3.org/1999/xlink" version="1.1" width="71px" height="71px" viewBox="-0.5 -0.5 71 71" class="ge-export-svg-dark" content="&lt;mxfile host=&quot;app.diagrams.net&quot; agent=&quot;Mozilla/5.0 (Windows NT 10.0; Win64; x64) AppleWebKit/537.36 (KHTML, like Gecko) Chrome/129.0.0.0 Safari/537.36&quot; version=&quot;24.7.16&quot; scale=&quot;1&quot; border=&quot;0&quot;&gt;&#10;  &lt;diagram name=&quot;Página-1&quot; id=&quot;m8l1A8O_j_JvbqTGVBao&quot;&gt;&#10;    &lt;mxGraphModel dx=&quot;503&quot; dy=&quot;248&quot; grid=&quot;1&quot; gridSize=&quot;10&quot; guides=&quot;1&quot; tooltips=&quot;1&quot; connect=&quot;1&quot; arrows=&quot;1&quot; fold=&quot;1&quot; page=&quot;1&quot; pageScale=&quot;1&quot; pageWidth=&quot;2970&quot; pageHeight=&quot;2100&quot; math=&quot;0&quot; shadow=&quot;0&quot;&gt;&#10;      &lt;root&gt;&#10;        &lt;mxCell id=&quot;0&quot; /&gt;&#10;        &lt;mxCell id=&quot;1&quot; parent=&quot;0&quot; /&gt;&#10;        &lt;mxCell id=&quot;sqtzE2Vg8_yKc3G_givv-1&quot; value=&quot;&quot; style=&quot;group&quot; vertex=&quot;1&quot; connectable=&quot;0&quot; parent=&quot;1&quot;&gt;&#10;          &lt;mxGeometry x=&quot;530&quot; y=&quot;280&quot; width=&quot;70&quot; height=&quot;70&quot; as=&quot;geometry&quot; /&gt;&#10;        &lt;/mxCell&gt;&#10;        &lt;mxCell id=&quot;sqtzE2Vg8_yKc3G_givv-2&quot; value=&quot;&quot; style=&quot;ellipse;shape=doubleEllipse;whiteSpace=wrap;html=1;aspect=fixed;container=0;&quot; vertex=&quot;1&quot; parent=&quot;sqtzE2Vg8_yKc3G_givv-1&quot;&gt;&#10;          &lt;mxGeometry width=&quot;70&quot; height=&quot;70&quot; as=&quot;geometry&quot; /&gt;&#10;        &lt;/mxCell&gt;&#10;        &lt;mxCell id=&quot;sqtzE2Vg8_yKc3G_givv-3&quot; value=&quot;&quot; style=&quot;ellipse;whiteSpace=wrap;html=1;aspect=fixed;container=0;&quot; vertex=&quot;1&quot; parent=&quot;sqtzE2Vg8_yKc3G_givv-1&quot;&gt;&#10;          &lt;mxGeometry x=&quot;5&quot; y=&quot;5&quot; width=&quot;60&quot; height=&quot;60&quot; as=&quot;geometry&quot; /&gt;&#10;        &lt;/mxCell&gt;&#10;        &lt;mxCell id=&quot;sqtzE2Vg8_yKc3G_givv-7&quot; value=&quot;&quot; style=&quot;sketch=0;pointerEvents=1;shadow=0;dashed=0;html=1;strokeColor=none;fillColor=#00FF00;labelPosition=center;verticalLabelPosition=bottom;verticalAlign=top;outlineConnect=0;align=center;shape=mxgraph.office.concepts.publish;&quot; vertex=&quot;1&quot; parent=&quot;sqtzE2Vg8_yKc3G_givv-1&quot;&gt;&#10;          &lt;mxGeometry x=&quot;15&quot; y=&quot;15&quot; width=&quot;47&quot; height=&quot;40&quot; as=&quot;geometry&quot; /&gt;&#10;        &lt;/mxCell&gt;&#10;      &lt;/root&gt;&#10;    &lt;/mxGraphModel&gt;&#10;  &lt;/diagram&gt;&#10;&lt;/mxfile&gt;&#10;"><defs><style type="text/css">svg.ge-export-svg-dark:not(mjx-container &gt; svg) { filter: invert(100%) hue-rotate(180deg); }&#xa;svg.ge-export-svg-dark foreignObject img,&#xa;svg.ge-export-svg-dark image:not(svg.ge-export-svg-dark switch image),&#xa;svg.ge-export-svg-dark svg:not(mjx-container &gt; svg)&#xa;{ filter: invert(100%) hue-rotate(180deg) }</style></defs><g><g data-cell-id="0"><g data-cell-id="1"><g data-cell-id="sqtzE2Vg8_yKc3G_givv-1"><g/><g data-cell-id="sqtzE2Vg8_yKc3G_givv-2"><g><ellipse cx="35" cy="35" rx="35" ry="35" fill="rgb(255, 255, 255)" stroke="rgb(0, 0, 0)" pointer-events="all"/><ellipse cx="35" cy="35" rx="31" ry="31" fill="none" stroke="rgb(0, 0, 0)" pointer-events="all"/></g></g><g data-cell-id="sqtzE2Vg8_yKc3G_givv-3"><g><ellipse cx="35" cy="35" rx="30" ry="30" fill="rgb(255, 255, 255)" stroke="rgb(0, 0, 0)" pointer-events="all"/></g></g><g data-cell-id="sqtzE2Vg8_yKc3G_givv-7"><g><rect x="15" y="15" width="47" height="40" fill="none" stroke="none" pointer-events="all"/><path d="M 47.78 18.74 L 47.78 16.87 L 45.93 16.87 L 45.93 18.74 Z M 51.49 18.74 L 51.49 16.87 L 49.63 16.87 L 49.63 18.74 Z M 32.32 43.75 L 32.32 38.75 L 35.41 38.75 L 35.41 35 L 27.37 35 L 27.37 38.75 L 30.46 38.75 L 30.46 43.75 L 23.04 43.75 L 23.04 38.75 L 26.13 38.75 L 26.13 33.75 L 35.41 33.75 L 35.41 29.99 L 31.71 29.99 L 31.71 24.37 L 40.36 24.36 L 40.36 29.99 L 36.64 29.99 L 36.64 33.75 L 45.92 33.75 L 45.92 34.13 C 44.84 34.41 44.26 34.66 43.59 35 L 36.64 35 L 36.64 38.75 L 39.29 38.75 C 38.38 40.11 37.63 41.8 37.37 43.75 Z M 55.2 18.74 L 55.2 16.87 L 53.34 16.87 L 53.34 18.74 Z M 56.38 36.8 C 56.11 36.56 55.61 36.14 55.2 35.87 L 55.2 21.24 L 16.86 21.24 L 16.86 46.26 C 16.86 46.67 17.18 46.87 17.45 46.87 L 37.37 46.87 C 37.45 47.56 37.6 48.17 37.78 48.75 L 17.38 48.75 C 16.1 48.75 15 47.55 15 46.34 L 15 17.5 C 15 15.84 16.44 15 17.35 15 L 54.52 15 C 55.95 15 57.05 16.08 57.05 17.54 L 57.05 36.12 Z M 62 46.87 L 58.29 43.13 L 58.29 45.51 C 58.29 50.58 53.92 55 48.86 55 C 43.44 55 39.12 50.77 39.12 45.39 C 39.12 38.23 45.19 35.66 48.41 35.66 C 51.42 35.63 53.56 36.79 55.07 38.12 L 53.34 39.87 C 52.25 38.98 50.87 38.12 48.63 38.12 C 45.11 38.12 41.59 41.12 41.59 45.21 C 41.59 49.48 44.96 52.47 48.69 52.47 C 52.91 52.45 55.82 48.94 55.82 45.53 L 55.82 43.12 L 52.11 46.87 L 52.11 43.75 L 57.05 38.75 L 62 43.75 Z" fill="#00ff00" stroke="none" pointer-events="all"/></g></g></g></g></g></g></svg>