<?xml version="1.0" encoding="UTF-8"?>
<!-- Do not edit this file with editors other than draw.io -->
<!DOCTYPE svg PUBLIC "-//W3C//DTD SVG 1.1//EN" "http://www.w3.org/Graphics/SVG/1.1/DTD/svg11.dtd">
<svg xmlns="http://www.w3.org/2000/svg" xmlns:xlink="http://www.w3.org/1999/xlink" version="1.1" width="71px" height="71px" viewBox="-0.5 -0.5 71 71" class="ge-export-svg-dark" content="&lt;mxfile host=&quot;app.diagrams.net&quot; agent=&quot;Mozilla/5.0 (Windows NT 10.0; Win64; x64) AppleWebKit/537.36 (KHTML, like Gecko) Chrome/129.0.0.0 Safari/537.36&quot; version=&quot;24.7.16&quot; scale=&quot;1&quot; border=&quot;0&quot;&gt;&#10;  &lt;diagram name=&quot;Página-1&quot; id=&quot;m8l1A8O_j_JvbqTGVBao&quot;&gt;&#10;    &lt;mxGraphModel dx=&quot;503&quot; dy=&quot;248&quot; grid=&quot;1&quot; gridSize=&quot;10&quot; guides=&quot;1&quot; tooltips=&quot;1&quot; connect=&quot;1&quot; arrows=&quot;1&quot; fold=&quot;1&quot; page=&quot;1&quot; pageScale=&quot;1&quot; pageWidth=&quot;2970&quot; pageHeight=&quot;2100&quot; math=&quot;0&quot; shadow=&quot;0&quot;&gt;&#10;      &lt;root&gt;&#10;        &lt;mxCell id=&quot;0&quot; /&gt;&#10;        &lt;mxCell id=&quot;1&quot; parent=&quot;0&quot; /&gt;&#10;        &lt;mxCell id=&quot;sqtzE2Vg8_yKc3G_givv-1&quot; value=&quot;&quot; style=&quot;group&quot; vertex=&quot;1&quot; connectable=&quot;0&quot; parent=&quot;1&quot;&gt;&#10;          &lt;mxGeometry x=&quot;530&quot; y=&quot;280&quot; width=&quot;70&quot; height=&quot;70&quot; as=&quot;geometry&quot; /&gt;&#10;        &lt;/mxCell&gt;&#10;        &lt;mxCell id=&quot;sqtzE2Vg8_yKc3G_givv-2&quot; value=&quot;&quot; style=&quot;ellipse;shape=doubleEllipse;whiteSpace=wrap;html=1;aspect=fixed;container=0;&quot; vertex=&quot;1&quot; parent=&quot;sqtzE2Vg8_yKc3G_givv-1&quot;&gt;&#10;          &lt;mxGeometry width=&quot;70&quot; height=&quot;70&quot; as=&quot;geometry&quot; /&gt;&#10;        &lt;/mxCell&gt;&#10;        &lt;mxCell id=&quot;sqtzE2Vg8_yKc3G_givv-3&quot; value=&quot;&quot; style=&quot;ellipse;whiteSpace=wrap;html=1;aspect=fixed;container=0;&quot; vertex=&quot;1&quot; parent=&quot;sqtzE2Vg8_yKc3G_givv-1&quot;&gt;&#10;          &lt;mxGeometry x=&quot;5&quot; y=&quot;5&quot; width=&quot;60&quot; height=&quot;60&quot; as=&quot;geometry&quot; /&gt;&#10;        &lt;/mxCell&gt;&#10;        &lt;mxCell id=&quot;sqtzE2Vg8_yKc3G_givv-15&quot; value=&quot;&quot; style=&quot;sketch=0;pointerEvents=1;shadow=0;dashed=0;html=1;strokeColor=none;fillColor=#00FF00;aspect=fixed;labelPosition=center;verticalLabelPosition=bottom;verticalAlign=top;align=center;outlineConnect=0;shape=mxgraph.vvd.horizon;&quot; vertex=&quot;1&quot; parent=&quot;sqtzE2Vg8_yKc3G_givv-1&quot;&gt;&#10;          &lt;mxGeometry x=&quot;15&quot; y=&quot;17.600000000000023&quot; width=&quot;40&quot; height=&quot;34.8&quot; as=&quot;geometry&quot; /&gt;&#10;        &lt;/mxCell&gt;&#10;      &lt;/root&gt;&#10;    &lt;/mxGraphModel&gt;&#10;  &lt;/diagram&gt;&#10;&lt;/mxfile&gt;&#10;"><defs><style type="text/css">svg.ge-export-svg-dark:not(mjx-container &gt; svg) { filter: invert(100%) hue-rotate(180deg); }&#xa;svg.ge-export-svg-dark foreignObject img,&#xa;svg.ge-export-svg-dark image:not(svg.ge-export-svg-dark switch image),&#xa;svg.ge-export-svg-dark svg:not(mjx-container &gt; svg)&#xa;{ filter: invert(100%) hue-rotate(180deg) }</style></defs><g><g data-cell-id="0"><g data-cell-id="1"><g data-cell-id="sqtzE2Vg8_yKc3G_givv-1"><g/><g data-cell-id="sqtzE2Vg8_yKc3G_givv-2"><g><ellipse cx="35" cy="35" rx="35" ry="35" fill="rgb(255, 255, 255)" stroke="rgb(0, 0, 0)" pointer-events="all"/><ellipse cx="35" cy="35" rx="31" ry="31" fill="none" stroke="rgb(0, 0, 0)" pointer-events="all"/></g></g><g data-cell-id="sqtzE2Vg8_yKc3G_givv-3"><g><ellipse cx="35" cy="35" rx="30" ry="30" fill="rgb(255, 255, 255)" stroke="rgb(0, 0, 0)" pointer-events="all"/></g></g><g data-cell-id="sqtzE2Vg8_yKc3G_givv-15"><g><rect x="15" y="17.6" width="40" height="34.8" fill="none" stroke="none" pointer-events="all"/><path d="M 16.87 17.6 C 15.84 17.6 15 18.45 15 19.47 L 15 44.31 C 15 45.34 15.84 46.18 16.87 46.18 L 34.31 46.18 L 34.29 51.09 L 26.29 51.09 C 26.05 51.08 25.83 51.21 25.71 51.41 C 25.59 51.62 25.59 51.87 25.71 52.08 C 25.83 52.28 26.05 52.4 26.29 52.4 L 43.65 52.4 C 43.89 52.4 44.11 52.28 44.23 52.08 C 44.35 51.87 44.35 51.62 44.23 51.41 C 44.11 51.21 43.89 51.08 43.65 51.09 L 35.59 51.09 L 35.61 46.18 L 53.13 46.18 C 54.15 46.18 55 45.34 55 44.31 L 55 19.47 C 55 18.45 54.15 17.6 53.13 17.6 Z M 16.87 19.02 L 53.13 19.02 C 53.4 19.02 53.59 19.21 53.59 19.47 L 53.59 44.31 C 53.59 44.58 53.4 44.77 53.13 44.77 L 16.87 44.77 C 16.6 44.77 16.41 44.58 16.41 44.31 L 16.41 19.47 C 16.41 19.21 16.6 19.02 16.87 19.02 Z M 31.98 24.2 L 31.98 27.38 L 37.91 27.38 L 37.91 24.2 Z M 27.37 29.97 L 27.37 33.15 L 33.3 33.15 L 33.3 29.97 Z M 36.6 29.97 L 36.6 33.15 L 42.54 33.15 L 42.54 29.97 Z M 22.77 35.71 L 22.77 38.89 L 28.71 38.89 L 28.71 35.71 Z M 31.97 35.71 L 31.97 38.89 L 37.9 38.89 L 37.9 35.71 Z M 41.2 35.71 L 41.2 38.89 L 47.13 38.89 L 47.13 35.71 Z" fill="#00ff00" stroke="none" pointer-events="all"/></g></g></g></g></g></g></svg>