<?xml version="1.0" encoding="UTF-8"?>
<!-- Do not edit this file with editors other than draw.io -->
<!DOCTYPE svg PUBLIC "-//W3C//DTD SVG 1.1//EN" "http://www.w3.org/Graphics/SVG/1.1/DTD/svg11.dtd">
<svg xmlns="http://www.w3.org/2000/svg" xmlns:xlink="http://www.w3.org/1999/xlink" version="1.1" width="71px" height="71px" viewBox="-0.5 -0.5 71 71" class="ge-export-svg-dark" content="&lt;mxfile host=&quot;app.diagrams.net&quot; agent=&quot;Mozilla/5.0 (Windows NT 10.0; Win64; x64) AppleWebKit/537.36 (KHTML, like Gecko) Chrome/129.0.0.0 Safari/537.36&quot; version=&quot;24.7.16&quot; scale=&quot;1&quot; border=&quot;0&quot;&gt;&#10;  &lt;diagram name=&quot;Página-1&quot; id=&quot;m8l1A8O_j_JvbqTGVBao&quot;&gt;&#10;    &lt;mxGraphModel dx=&quot;503&quot; dy=&quot;248&quot; grid=&quot;1&quot; gridSize=&quot;10&quot; guides=&quot;1&quot; tooltips=&quot;1&quot; connect=&quot;1&quot; arrows=&quot;1&quot; fold=&quot;1&quot; page=&quot;1&quot; pageScale=&quot;1&quot; pageWidth=&quot;2970&quot; pageHeight=&quot;2100&quot; math=&quot;0&quot; shadow=&quot;0&quot;&gt;&#10;      &lt;root&gt;&#10;        &lt;mxCell id=&quot;0&quot; /&gt;&#10;        &lt;mxCell id=&quot;1&quot; parent=&quot;0&quot; /&gt;&#10;        &lt;mxCell id=&quot;sqtzE2Vg8_yKc3G_givv-1&quot; value=&quot;&quot; style=&quot;group&quot; vertex=&quot;1&quot; connectable=&quot;0&quot; parent=&quot;1&quot;&gt;&#10;          &lt;mxGeometry x=&quot;530&quot; y=&quot;280&quot; width=&quot;70&quot; height=&quot;70&quot; as=&quot;geometry&quot; /&gt;&#10;        &lt;/mxCell&gt;&#10;        &lt;mxCell id=&quot;sqtzE2Vg8_yKc3G_givv-2&quot; value=&quot;&quot; style=&quot;ellipse;shape=doubleEllipse;whiteSpace=wrap;html=1;aspect=fixed;container=0;&quot; vertex=&quot;1&quot; parent=&quot;sqtzE2Vg8_yKc3G_givv-1&quot;&gt;&#10;          &lt;mxGeometry width=&quot;70&quot; height=&quot;70&quot; as=&quot;geometry&quot; /&gt;&#10;        &lt;/mxCell&gt;&#10;        &lt;mxCell id=&quot;sqtzE2Vg8_yKc3G_givv-3&quot; value=&quot;&quot; style=&quot;ellipse;whiteSpace=wrap;html=1;aspect=fixed;container=0;&quot; vertex=&quot;1&quot; parent=&quot;sqtzE2Vg8_yKc3G_givv-1&quot;&gt;&#10;          &lt;mxGeometry x=&quot;5&quot; y=&quot;5&quot; width=&quot;60&quot; height=&quot;60&quot; as=&quot;geometry&quot; /&gt;&#10;        &lt;/mxCell&gt;&#10;        &lt;mxCell id=&quot;sqtzE2Vg8_yKc3G_givv-27&quot; value=&quot;&quot; style=&quot;group&quot; vertex=&quot;1&quot; connectable=&quot;0&quot; parent=&quot;sqtzE2Vg8_yKc3G_givv-1&quot;&gt;&#10;          &lt;mxGeometry x=&quot;18&quot; y=&quot;20&quot; width=&quot;40&quot; height=&quot;30&quot; as=&quot;geometry&quot; /&gt;&#10;        &lt;/mxCell&gt;&#10;        &lt;mxCell id=&quot;sqtzE2Vg8_yKc3G_givv-17&quot; value=&quot;&quot; style=&quot;sketch=0;aspect=fixed;pointerEvents=1;shadow=0;dashed=0;html=1;strokeColor=default;labelPosition=center;verticalLabelPosition=bottom;verticalAlign=top;align=center;fillColor=#00FF00;shape=mxgraph.mscae.enterprise.maintenance;container=0;&quot; vertex=&quot;1&quot; parent=&quot;sqtzE2Vg8_yKc3G_givv-27&quot;&gt;&#10;          &lt;mxGeometry x=&quot;24.214122021879213&quot; y=&quot;9.937953987602462&quot; width=&quot;8.961184840038284&quot; height=&quot;11.48823896492908&quot; as=&quot;geometry&quot; /&gt;&#10;        &lt;/mxCell&gt;&#10;        &lt;mxCell id=&quot;sqtzE2Vg8_yKc3G_givv-22&quot; value=&quot;&quot; style=&quot;html=1;shadow=0;dashed=0;align=center;verticalAlign=middle;shape=mxgraph.arrows2.stripedArrow;dy=0.69;dx=40;notch=0;fillColor=#00FF00;container=0;&quot; vertex=&quot;1&quot; parent=&quot;sqtzE2Vg8_yKc3G_givv-27&quot;&gt;&#10;          &lt;mxGeometry x=&quot;3.459160288839894&quot; y=&quot;9.937953987602462&quot; width=&quot;6.9183205776797685&quot; height=&quot;6.317635312226989&quot; as=&quot;geometry&quot; /&gt;&#10;        &lt;/mxCell&gt;&#10;        &lt;mxCell id=&quot;sqtzE2Vg8_yKc3G_givv-19&quot; value=&quot;&quot; style=&quot;sketch=0;aspect=fixed;pointerEvents=1;shadow=0;dashed=0;html=1;strokeColor=none;labelPosition=center;verticalLabelPosition=bottom;verticalAlign=top;align=center;fillColor=#00FF00;shape=mxgraph.mscae.enterprise.application_blank;container=0;&quot; vertex=&quot;1&quot; parent=&quot;1&quot;&gt;&#10;          &lt;mxGeometry x=&quot;544&quot; y=&quot;295&quot; width=&quot;40.69&quot; height=&quot;35&quot; as=&quot;geometry&quot; /&gt;&#10;        &lt;/mxCell&gt;&#10;      &lt;/root&gt;&#10;    &lt;/mxGraphModel&gt;&#10;  &lt;/diagram&gt;&#10;&lt;/mxfile&gt;&#10;"><defs><style type="text/css">svg.ge-export-svg-dark:not(mjx-container &gt; svg) { filter: invert(100%) hue-rotate(180deg); }&#xa;svg.ge-export-svg-dark foreignObject img,&#xa;svg.ge-export-svg-dark image:not(svg.ge-export-svg-dark switch image),&#xa;svg.ge-export-svg-dark svg:not(mjx-container &gt; svg)&#xa;{ filter: invert(100%) hue-rotate(180deg) }</style></defs><g><g data-cell-id="0"><g data-cell-id="1"><g data-cell-id="sqtzE2Vg8_yKc3G_givv-1"><g/><g data-cell-id="sqtzE2Vg8_yKc3G_givv-2"><g><ellipse cx="35" cy="35" rx="35" ry="35" fill="rgb(255, 255, 255)" stroke="rgb(0, 0, 0)" pointer-events="all"/><ellipse cx="35" cy="35" rx="31" ry="31" fill="none" stroke="rgb(0, 0, 0)" pointer-events="all"/></g></g><g data-cell-id="sqtzE2Vg8_yKc3G_givv-3"><g><ellipse cx="35" cy="35" rx="30" ry="30" fill="rgb(255, 255, 255)" stroke="rgb(0, 0, 0)" pointer-events="all"/></g></g><g data-cell-id="sqtzE2Vg8_yKc3G_givv-27"><g/><g data-cell-id="sqtzE2Vg8_yKc3G_givv-17"><g><rect x="42.21" y="29.94" width="8.96" height="11.49" fill="none" stroke="none" pointer-events="all"/><path d="M 42.58 41.42 C 42.38 41.41 42.23 41.27 42.21 41.1 L 42.21 38.3 L 44.32 38.3 L 44.32 41.1 C 44.3 41.27 44.15 41.41 43.95 41.42 Z M 44.32 37.87 L 42.21 37.87 L 42.21 36.9 C 42.24 36.76 42.37 36.65 42.53 36.62 L 42.91 36.62 L 42.91 32.45 L 42.67 31.38 L 42.67 29.94 L 43.86 29.94 L 43.86 31.38 L 43.61 32.45 L 43.61 36.62 L 43.95 36.62 C 44.13 36.63 44.28 36.75 44.32 36.9 Z M 47.4 34.18 C 46.53 33.78 45.99 32.99 45.98 32.12 C 45.98 31.26 46.51 30.46 47.37 30.05 L 47.63 30.15 L 47.63 32.05 C 47.77 32.41 48.15 32.65 48.59 32.65 C 49.02 32.65 49.4 32.41 49.54 32.05 L 49.54 30.15 L 49.77 30.05 C 50.64 30.46 51.17 31.25 51.17 32.12 C 51.17 32.98 50.64 33.77 49.77 34.18 L 49.77 40.52 C 49.69 41.04 49.18 41.43 48.59 41.43 C 47.99 41.43 47.49 41.04 47.4 40.52 Z M 48.1 40.41 C 48.15 40.64 48.39 40.8 48.65 40.79 C 48.86 40.75 49.02 40.59 49.06 40.41 C 49.05 40.2 48.88 40.02 48.65 39.97 C 48.51 39.96 48.38 40 48.27 40.09 C 48.17 40.17 48.11 40.28 48.1 40.41 Z" fill="#00ff00" stroke="rgb(0, 0, 0)" stroke-miterlimit="10" pointer-events="all"/></g></g><g data-cell-id="sqtzE2Vg8_yKc3G_givv-22"><g><path d="M 21.46 32.12 L 21.46 32.12 L 21.46 29.94 L 28.38 33.1 L 21.46 36.26 L 21.46 34.08 L 21.46 34.08 Z M 21.46 34.08 L 21.46 34.08 L 21.46 32.12 L 21.46 32.12 Z M 21.46 34.08 L 21.46 34.08 L 21.46 32.12 L 21.46 32.12 Z" fill="#00ff00" stroke="rgb(0, 0, 0)" stroke-miterlimit="10" pointer-events="all"/></g></g></g></g><g data-cell-id="sqtzE2Vg8_yKc3G_givv-19"><g><rect x="14" y="15" width="40.69" height="35" fill="none" stroke="none" pointer-events="all"/><path d="M 14 50 L 14 15 L 54.69 15 L 54.69 50 Z M 15.83 48.18 L 52.86 48.18 L 52.86 24.19 L 15.83 24.19 Z" fill="#00ff00" stroke="none" pointer-events="all"/></g></g></g></g></g></svg>