<?xml version="1.0" encoding="UTF-8"?>
<!-- Do not edit this file with editors other than draw.io -->
<!DOCTYPE svg PUBLIC "-//W3C//DTD SVG 1.1//EN" "http://www.w3.org/Graphics/SVG/1.1/DTD/svg11.dtd">
<svg xmlns="http://www.w3.org/2000/svg" xmlns:xlink="http://www.w3.org/1999/xlink" version="1.1" width="71px" height="81px" viewBox="-0.5 -0.5 71 81" class="ge-export-svg-dark" content="&lt;mxfile host=&quot;app.diagrams.net&quot; agent=&quot;Mozilla/5.0 (Windows NT 10.0; Win64; x64) AppleWebKit/537.36 (KHTML, like Gecko) Chrome/129.0.0.0 Safari/537.36&quot; scale=&quot;1&quot; border=&quot;0&quot; version=&quot;24.7.16&quot;&gt;&#10;  &lt;diagram name=&quot;Página-1&quot; id=&quot;m8l1A8O_j_JvbqTGVBao&quot;&gt;&#10;    &lt;mxGraphModel dx=&quot;293&quot; dy=&quot;145&quot; grid=&quot;1&quot; gridSize=&quot;10&quot; guides=&quot;1&quot; tooltips=&quot;1&quot; connect=&quot;1&quot; arrows=&quot;1&quot; fold=&quot;1&quot; page=&quot;1&quot; pageScale=&quot;1&quot; pageWidth=&quot;2970&quot; pageHeight=&quot;2100&quot; math=&quot;0&quot; shadow=&quot;0&quot;&gt;&#10;      &lt;root&gt;&#10;        &lt;mxCell id=&quot;0&quot; /&gt;&#10;        &lt;mxCell id=&quot;1&quot; parent=&quot;0&quot; /&gt;&#10;        &lt;mxCell id=&quot;l1s-WfeYHmzIl0k62fMm-2&quot; value=&quot;&quot; style=&quot;group&quot; parent=&quot;1&quot; vertex=&quot;1&quot; connectable=&quot;0&quot;&gt;&#10;          &lt;mxGeometry x=&quot;370&quot; y=&quot;270&quot; width=&quot;70&quot; height=&quot;80&quot; as=&quot;geometry&quot; /&gt;&#10;        &lt;/mxCell&gt;&#10;        &lt;mxCell id=&quot;sqtzE2Vg8_yKc3G_givv-2&quot; value=&quot;&quot; style=&quot;ellipse;shape=doubleEllipse;whiteSpace=wrap;html=1;aspect=fixed;container=0;&quot; parent=&quot;l1s-WfeYHmzIl0k62fMm-2&quot; vertex=&quot;1&quot;&gt;&#10;          &lt;mxGeometry width=&quot;70&quot; height=&quot;70&quot; as=&quot;geometry&quot; /&gt;&#10;        &lt;/mxCell&gt;&#10;        &lt;mxCell id=&quot;sqtzE2Vg8_yKc3G_givv-3&quot; value=&quot;&quot; style=&quot;ellipse;whiteSpace=wrap;html=1;aspect=fixed;container=0;&quot; parent=&quot;l1s-WfeYHmzIl0k62fMm-2&quot; vertex=&quot;1&quot;&gt;&#10;          &lt;mxGeometry x=&quot;5&quot; y=&quot;5&quot; width=&quot;60&quot; height=&quot;60&quot; as=&quot;geometry&quot; /&gt;&#10;        &lt;/mxCell&gt;&#10;        &lt;mxCell id=&quot;kBWoNNk8_Sd-oZPdYqJj-1&quot; value=&quot;&quot; style=&quot;group&quot; vertex=&quot;1&quot; connectable=&quot;0&quot; parent=&quot;l1s-WfeYHmzIl0k62fMm-2&quot;&gt;&#10;          &lt;mxGeometry x=&quot;14&quot; y=&quot;20&quot; width=&quot;45.715146085416755&quot; height=&quot;30&quot; as=&quot;geometry&quot; /&gt;&#10;        &lt;/mxCell&gt;&#10;        &lt;mxCell id=&quot;kBWoNNk8_Sd-oZPdYqJj-2&quot; value=&quot;&quot; style=&quot;fontColor=#0066CC;verticalAlign=top;verticalLabelPosition=bottom;labelPosition=center;align=center;html=1;outlineConnect=0;fillColor=#00FF00;strokeColor=none;gradientColor=none;gradientDirection=north;strokeWidth=2;shape=mxgraph.networks.pc;container=0;&quot; vertex=&quot;1&quot; parent=&quot;kBWoNNk8_Sd-oZPdYqJj-1&quot;&gt;&#10;          &lt;mxGeometry width=&quot;40.97980521944432&quot; height=&quot;30&quot; as=&quot;geometry&quot; /&gt;&#10;        &lt;/mxCell&gt;&#10;        &lt;mxCell id=&quot;kBWoNNk8_Sd-oZPdYqJj-3&quot; value=&quot;&quot; style=&quot;sketch=0;pointerEvents=1;shadow=0;dashed=0;html=1;strokeColor=none;fillColor=#00FF00;labelPosition=center;verticalLabelPosition=bottom;verticalAlign=top;outlineConnect=0;align=center;shape=mxgraph.office.concepts.backup_local;container=0;&quot; vertex=&quot;1&quot; parent=&quot;kBWoNNk8_Sd-oZPdYqJj-1&quot;&gt;&#10;          &lt;mxGeometry x=&quot;32.37404612336101&quot; y=&quot;3&quot; width=&quot;7.376364939499978&quot; height=&quot;8.57142857142857&quot; as=&quot;geometry&quot; /&gt;&#10;        &lt;/mxCell&gt;&#10;        &lt;mxCell id=&quot;kBWoNNk8_Sd-oZPdYqJj-4&quot; value=&quot;&quot; style=&quot;sketch=0;pointerEvents=1;shadow=0;dashed=0;html=1;strokeColor=none;fillColor=#00FF00;aspect=fixed;labelPosition=center;verticalLabelPosition=bottom;verticalAlign=top;align=center;outlineConnect=0;shape=mxgraph.vvd.vrealize_automation;container=0;&quot; vertex=&quot;1&quot; parent=&quot;kBWoNNk8_Sd-oZPdYqJj-1&quot;&gt;&#10;          &lt;mxGeometry x=&quot;12.293941565833297&quot; y=&quot;4.285714285714285&quot; width=&quot;3.0734853914583242&quot; height=&quot;3.0734853914583242&quot; as=&quot;geometry&quot; /&gt;&#10;        &lt;/mxCell&gt;&#10;        &lt;mxCell id=&quot;kBWoNNk8_Sd-oZPdYqJj-5&quot; value=&quot;&quot; style=&quot;sketch=0;pointerEvents=1;shadow=0;dashed=0;html=1;strokeColor=none;fillColor=#00FF00;aspect=fixed;labelPosition=center;verticalLabelPosition=bottom;verticalAlign=top;align=center;outlineConnect=0;shape=mxgraph.vvd.flash_drive;rotation=90;container=0;&quot; vertex=&quot;1&quot; parent=&quot;kBWoNNk8_Sd-oZPdYqJj-1&quot;&gt;&#10;          &lt;mxGeometry x=&quot;40&quot; y=&quot;21&quot; width=&quot;3.3808339306041564&quot; height=&quot;8.04945824022935&quot; as=&quot;geometry&quot; /&gt;&#10;        &lt;/mxCell&gt;&#10;      &lt;/root&gt;&#10;    &lt;/mxGraphModel&gt;&#10;  &lt;/diagram&gt;&#10;&lt;/mxfile&gt;&#10;"><defs><style type="text/css">svg.ge-export-svg-dark:not(mjx-container &gt; svg) { filter: invert(100%) hue-rotate(180deg); }&#xa;svg.ge-export-svg-dark foreignObject img,&#xa;svg.ge-export-svg-dark image:not(svg.ge-export-svg-dark switch image),&#xa;svg.ge-export-svg-dark svg:not(mjx-container &gt; svg)&#xa;{ filter: invert(100%) hue-rotate(180deg) }</style></defs><g><g data-cell-id="0"><g data-cell-id="1"><g data-cell-id="l1s-WfeYHmzIl0k62fMm-2"><g/><g data-cell-id="sqtzE2Vg8_yKc3G_givv-2"><g><ellipse cx="35" cy="35" rx="35" ry="35" fill="rgb(255, 255, 255)" stroke="rgb(0, 0, 0)" pointer-events="all"/><ellipse cx="35" cy="35" rx="31" ry="31" fill="none" stroke="rgb(0, 0, 0)" pointer-events="all"/></g></g><g data-cell-id="sqtzE2Vg8_yKc3G_givv-3"><g><ellipse cx="35" cy="35" rx="30" ry="30" fill="rgb(255, 255, 255)" stroke="rgb(0, 0, 0)" pointer-events="all"/></g></g><g data-cell-id="kBWoNNk8_Sd-oZPdYqJj-1"><g/><g data-cell-id="kBWoNNk8_Sd-oZPdYqJj-2"><g><rect x="14" y="20" width="12.29" height="25.71" rx="0.82" ry="0.82" fill="#00ff00" stroke="none" pointer-events="all"/><path d="M 14 24.29 L 26.29 24.29 M 14 32.86 L 26.29 32.86" fill="none" stroke="none" pointer-events="all"/><rect x="22.2" y="22.14" width="32.78" height="19.29" fill="#00ff00" stroke="none" pointer-events="all"/><rect x="34.49" y="41.43" width="8.2" height="4.29" fill="#00ff00" stroke="none" pointer-events="all"/><path d="M 28.34 45.29 L 48.83 45.29 L 52.93 50 L 24.24 50 Z" fill="#00ff00" stroke="none" pointer-events="all"/><path d="M 34.08 48.93 L 41.46 48.93 M 28.75 47.64 L 44.73 47.64 M 29.57 46.36 L 44.33 46.36 M 45.55 46.36 L 48.42 46.36 M 46.37 47.64 L 49.24 47.64 M 47.19 48.93 L 50.06 48.93" fill="none" stroke="none" pointer-events="all"/><rect x="23.43" y="23.43" width="29.92" height="16.71" fill="#ffffff" stroke="none" pointer-events="all"/><ellipse cx="16.05" cy="35" rx="0.8195961043888864" ry="0.8571428571428571" fill="#ffffff" stroke="none" pointer-events="all"/></g></g><g data-cell-id="kBWoNNk8_Sd-oZPdYqJj-3"><g><rect x="46.37" y="23" width="7.38" height="8.57" fill="none" stroke="none" pointer-events="all"/><path d="M 50.06 28.37 L 48.44 26.35 L 48.44 25.18 L 49.71 26.78 L 49.71 23 L 50.41 23 L 50.41 26.78 L 51.67 25.18 L 51.67 26.36 Z M 53.04 29.96 C 53.13 29.96 53.3 29.88 53.3 29.64 C 53.3 29.43 53.18 29.29 53.04 29.29 C 52.9 29.29 52.77 29.43 52.77 29.64 C 52.77 29.82 52.89 29.96 53.04 29.96 Z M 46.37 31.57 L 46.37 29.46 C 46.37 29.13 46.66 28.81 46.9 28.81 L 53.22 28.81 C 53.5 28.81 53.75 29.15 53.75 29.47 L 53.75 31.57 Z" fill="#00ff00" stroke="none" pointer-events="all"/></g></g><g data-cell-id="kBWoNNk8_Sd-oZPdYqJj-4"><g><rect x="26.29" y="24.29" width="3.07" height="3.07" fill="none" stroke="none" pointer-events="all"/><path d="M 27.72 27.08 L 27.96 27.08 L 27.96 26.88 C 27.96 26.81 27.99 26.74 28.07 26.72 C 28.15 26.7 28.22 26.68 28.29 26.64 C 28.37 26.59 28.44 26.6 28.5 26.65 L 28.64 26.8 L 28.82 26.63 L 28.68 26.48 C 28.62 26.42 28.61 26.34 28.65 26.28 C 28.68 26.24 28.72 26.16 28.75 26.05 C 28.76 26 28.8 25.94 28.9 25.94 L 29.11 25.94 L 29.11 25.69 L 28.92 25.69 C 28.84 25.69 28.76 25.64 28.74 25.55 C 28.72 25.49 28.7 25.42 28.65 25.35 C 28.62 25.28 28.62 25.2 28.68 25.14 L 28.82 25.01 L 28.64 24.84 L 28.5 24.98 C 28.46 25.02 28.38 25.04 28.33 25.01 C 28.26 24.97 28.17 24.93 28.05 24.89 C 28.01 24.88 27.96 24.83 27.96 24.76 L 27.96 24.55 L 27.71 24.55 L 27.71 24.75 C 27.72 24.86 27.66 24.89 27.59 24.91 C 27.51 24.92 27.44 24.96 27.36 25.01 C 27.29 25.04 27.21 25.02 27.16 24.97 L 27.03 24.83 L 26.85 25.01 L 26.99 25.14 C 27.05 25.19 27.06 25.28 27.04 25.32 C 26.99 25.4 26.95 25.5 26.93 25.58 C 26.91 25.66 26.84 25.69 26.77 25.69 L 26.56 25.69 L 26.56 25.94 L 26.76 25.94 C 26.86 25.93 26.92 26 26.93 26.06 C 26.95 26.15 26.99 26.23 27.03 26.3 C 27.06 26.35 27.06 26.42 27 26.48 L 26.85 26.63 L 27.03 26.8 L 27.17 26.66 C 27.22 26.61 27.31 26.59 27.38 26.63 C 27.45 26.67 27.51 26.7 27.59 26.72 C 27.66 26.74 27.72 26.81 27.72 26.89 Z M 28.36 25.82 C 28.36 26.11 28.13 26.35 27.83 26.35 C 27.54 26.35 27.3 26.11 27.3 25.82 C 27.3 25.52 27.54 25.29 27.83 25.29 C 28.13 25.29 28.36 25.52 28.36 25.82 Z M 29.37 25.82 C 29.37 26.67 28.68 27.36 27.83 27.36 C 26.98 27.36 26.29 26.67 26.29 25.82 C 26.29 25.41 26.46 25.02 26.74 24.74 C 27.03 24.45 27.42 24.29 27.83 24.29 C 28.68 24.29 29.37 24.97 29.37 25.82 Z" fill="#00ff00" stroke="none" pointer-events="all"/></g></g><g data-cell-id="kBWoNNk8_Sd-oZPdYqJj-5"><g><rect x="54" y="41" width="3.38" height="8.05" fill="none" stroke="none" transform="rotate(90,55.69,45.02)" pointer-events="all"/><path d="M 55.96 47.44 C 55.91 47.44 55.86 47.49 55.86 47.54 L 55.86 48.01 C 55.86 48.06 55.91 48.11 55.96 48.11 L 56.44 48.11 C 56.5 48.11 56.54 48.06 56.54 48.01 L 56.54 47.54 C 56.54 47.49 56.5 47.44 56.44 47.44 Z M 56.06 47.64 L 56.34 47.64 L 56.34 47.91 L 56.06 47.91 Z M 54.93 47.45 C 54.91 47.45 54.88 47.46 54.86 47.48 C 54.85 47.5 54.83 47.52 54.83 47.55 L 54.83 48.01 C 54.83 48.04 54.85 48.07 54.86 48.08 C 54.88 48.1 54.91 48.11 54.93 48.11 L 55.42 48.11 C 55.44 48.11 55.47 48.1 55.49 48.08 C 55.51 48.07 55.52 48.04 55.52 48.01 L 55.52 47.55 C 55.52 47.52 55.51 47.5 55.49 47.48 C 55.47 47.46 55.44 47.45 55.42 47.45 Z M 55.03 47.64 L 55.32 47.64 L 55.32 47.92 L 55.03 47.92 Z M 55.68 41.95 C 55.56 41.95 55.45 41.99 55.36 42.08 C 55.27 42.16 55.22 42.28 55.22 42.4 C 55.22 42.62 55.38 42.8 55.59 42.85 L 55.59 43.11 L 55.58 43.11 C 55.58 43.12 55.59 43.14 55.59 43.16 L 55.59 43.72 C 55.58 43.83 55.53 43.91 55.45 44 L 55 44.42 L 54.99 44.42 C 54.87 44.55 54.8 44.68 54.8 44.84 L 54.8 45.16 L 54.62 45.16 L 54.62 45.72 L 55.19 45.72 L 55.19 45.16 L 55 45.16 L 55 44.84 C 55 44.72 55.03 44.67 55.14 44.56 L 55.59 44.14 L 55.59 46.06 L 55.35 46.06 L 55.69 46.65 L 56.03 46.06 L 55.79 46.06 L 55.79 43.73 C 55.79 43.72 55.79 43.7 55.79 43.69 L 55.79 43.69 L 55.79 43.48 C 55.8 43.5 55.82 43.51 55.83 43.53 L 56.23 43.9 L 56.23 43.9 C 56.28 43.94 56.31 43.97 56.33 44 C 56.35 44.04 56.37 44.1 56.37 44.22 L 56.37 44.53 C 56.26 44.58 56.18 44.68 56.18 44.8 C 56.18 44.88 56.21 44.95 56.27 45 C 56.32 45.06 56.39 45.09 56.47 45.09 C 56.55 45.09 56.62 45.06 56.68 45 C 56.73 44.95 56.76 44.88 56.76 44.8 C 56.76 44.68 56.68 44.58 56.57 44.53 L 56.57 44.22 L 56.57 44.22 C 56.57 44.08 56.55 43.98 56.51 43.91 C 56.46 43.83 56.41 43.79 56.36 43.75 L 55.97 43.38 L 55.97 43.38 C 55.89 43.32 55.81 43.21 55.79 43.13 L 55.79 42.85 C 56 42.8 56.15 42.61 56.15 42.4 C 56.15 42.28 56.1 42.16 56.01 42.08 C 55.92 41.99 55.81 41.95 55.68 41.95 Z M 55.71 41 C 54.72 41 54 41.82 54 42.61 L 54.01 46.99 C 54.01 47.05 54.05 47.09 54.11 47.09 L 54.39 47.09 L 54.39 48.95 C 54.39 48.98 54.4 49 54.42 49.02 C 54.44 49.04 54.46 49.05 54.49 49.05 L 56.88 49.05 C 56.94 49.05 56.98 49.01 56.98 48.95 L 56.98 47.1 L 57.28 47.1 C 57.31 47.1 57.33 47.09 57.35 47.07 C 57.37 47.05 57.38 47.02 57.38 47 L 57.37 42.59 C 57.37 41.69 56.52 41 55.71 41 Z M 55.71 41.2 C 56.4 41.2 57.17 41.81 57.17 42.59 C 57.17 42.59 57.17 42.59 57.17 42.59 L 57.18 46.9 L 54.2 46.89 L 54.2 42.6 C 54.2 41.94 54.83 41.2 55.71 41.2 Z M 54.59 47.09 L 56.78 47.1 L 56.78 48.85 L 54.59 48.85 Z" fill="#00ff00" stroke="none" transform="rotate(90,55.69,45.02)" pointer-events="all"/></g></g></g></g></g></g></g></svg>