<?xml version="1.0" encoding="UTF-8"?>
<!-- Do not edit this file with editors other than draw.io -->
<!DOCTYPE svg PUBLIC "-//W3C//DTD SVG 1.1//EN" "http://www.w3.org/Graphics/SVG/1.1/DTD/svg11.dtd">
<svg xmlns="http://www.w3.org/2000/svg" xmlns:xlink="http://www.w3.org/1999/xlink" version="1.1" width="71px" height="71px" viewBox="-0.5 -0.5 71 71" class="ge-export-svg-dark" content="&lt;mxfile host=&quot;app.diagrams.net&quot; agent=&quot;Mozilla/5.0 (Windows NT 10.0; Win64; x64) AppleWebKit/537.36 (KHTML, like Gecko) Chrome/129.0.0.0 Safari/537.36&quot; version=&quot;24.7.16&quot; scale=&quot;1&quot; border=&quot;0&quot;&gt;&#10;  &lt;diagram name=&quot;Página-1&quot; id=&quot;m8l1A8O_j_JvbqTGVBao&quot;&gt;&#10;    &lt;mxGraphModel dx=&quot;503&quot; dy=&quot;248&quot; grid=&quot;1&quot; gridSize=&quot;10&quot; guides=&quot;1&quot; tooltips=&quot;1&quot; connect=&quot;1&quot; arrows=&quot;1&quot; fold=&quot;1&quot; page=&quot;1&quot; pageScale=&quot;1&quot; pageWidth=&quot;2970&quot; pageHeight=&quot;2100&quot; math=&quot;0&quot; shadow=&quot;0&quot;&gt;&#10;      &lt;root&gt;&#10;        &lt;mxCell id=&quot;0&quot; /&gt;&#10;        &lt;mxCell id=&quot;1&quot; parent=&quot;0&quot; /&gt;&#10;        &lt;mxCell id=&quot;sqtzE2Vg8_yKc3G_givv-1&quot; value=&quot;&quot; style=&quot;group&quot; vertex=&quot;1&quot; connectable=&quot;0&quot; parent=&quot;1&quot;&gt;&#10;          &lt;mxGeometry x=&quot;530&quot; y=&quot;280&quot; width=&quot;70&quot; height=&quot;70&quot; as=&quot;geometry&quot; /&gt;&#10;        &lt;/mxCell&gt;&#10;        &lt;mxCell id=&quot;sqtzE2Vg8_yKc3G_givv-2&quot; value=&quot;&quot; style=&quot;ellipse;shape=doubleEllipse;whiteSpace=wrap;html=1;aspect=fixed;container=0;&quot; vertex=&quot;1&quot; parent=&quot;sqtzE2Vg8_yKc3G_givv-1&quot;&gt;&#10;          &lt;mxGeometry width=&quot;70&quot; height=&quot;70&quot; as=&quot;geometry&quot; /&gt;&#10;        &lt;/mxCell&gt;&#10;        &lt;mxCell id=&quot;sqtzE2Vg8_yKc3G_givv-3&quot; value=&quot;&quot; style=&quot;ellipse;whiteSpace=wrap;html=1;aspect=fixed;container=0;&quot; vertex=&quot;1&quot; parent=&quot;sqtzE2Vg8_yKc3G_givv-1&quot;&gt;&#10;          &lt;mxGeometry x=&quot;5&quot; y=&quot;5&quot; width=&quot;60&quot; height=&quot;60&quot; as=&quot;geometry&quot; /&gt;&#10;        &lt;/mxCell&gt;&#10;        &lt;mxCell id=&quot;sqtzE2Vg8_yKc3G_givv-29&quot; value=&quot;&quot; style=&quot;sketch=0;aspect=fixed;pointerEvents=1;shadow=0;dashed=0;html=1;strokeColor=none;labelPosition=center;verticalLabelPosition=bottom;verticalAlign=top;align=center;fillColor=#00FF00;shape=mxgraph.mscae.enterprise.pack&quot; vertex=&quot;1&quot; parent=&quot;sqtzE2Vg8_yKc3G_givv-1&quot;&gt;&#10;          &lt;mxGeometry x=&quot;12.5&quot; y=&quot;12&quot; width=&quot;46&quot; height=&quot;41.4&quot; as=&quot;geometry&quot; /&gt;&#10;        &lt;/mxCell&gt;&#10;      &lt;/root&gt;&#10;    &lt;/mxGraphModel&gt;&#10;  &lt;/diagram&gt;&#10;&lt;/mxfile&gt;&#10;"><defs><style type="text/css">svg.ge-export-svg-dark:not(mjx-container &gt; svg) { filter: invert(100%) hue-rotate(180deg); }&#xa;svg.ge-export-svg-dark foreignObject img,&#xa;svg.ge-export-svg-dark image:not(svg.ge-export-svg-dark switch image),&#xa;svg.ge-export-svg-dark svg:not(mjx-container &gt; svg)&#xa;{ filter: invert(100%) hue-rotate(180deg) }</style></defs><g><g data-cell-id="0"><g data-cell-id="1"><g data-cell-id="sqtzE2Vg8_yKc3G_givv-1"><g/><g data-cell-id="sqtzE2Vg8_yKc3G_givv-2"><g><ellipse cx="35" cy="35" rx="35" ry="35" fill="rgb(255, 255, 255)" stroke="rgb(0, 0, 0)" pointer-events="all"/><ellipse cx="35" cy="35" rx="31" ry="31" fill="none" stroke="rgb(0, 0, 0)" pointer-events="all"/></g></g><g data-cell-id="sqtzE2Vg8_yKc3G_givv-3"><g><ellipse cx="35" cy="35" rx="30" ry="30" fill="rgb(255, 255, 255)" stroke="rgb(0, 0, 0)" pointer-events="all"/></g></g><g data-cell-id="sqtzE2Vg8_yKc3G_givv-29"><g><rect x="12.5" y="12" width="46" height="41.4" fill="none" stroke="none" pointer-events="all"/><path d="M 41.13 41.36 C 39.55 42.58 37.69 43.16 35.82 43.16 C 33.81 43.16 31.88 42.44 30.23 41.14 C 30.15 40.2 30.23 38.69 30.8 37.17 C 31.23 37.17 31.59 37.17 32.09 36.96 C 32.31 37.17 32.52 37.39 32.88 37.53 C 33.74 38.18 34.67 38.76 35.39 39.19 C 35.32 39.62 35.46 40.06 35.75 40.42 C 36.33 41.21 37.47 41.36 38.19 40.71 C 38.33 40.56 38.48 40.42 38.55 40.27 C 39.91 40.56 41.06 40.63 41.92 40.63 C 41.64 40.92 41.49 41.14 41.13 41.36 Z M 28.65 29.38 C 28.43 30.25 28.36 31.47 29.01 32.92 C 28.22 33.85 28.22 35.15 29.01 36.09 L 29.22 36.31 C 28.93 37.39 28.79 38.47 28.72 39.34 C 26.49 36.31 26.64 32.34 28.65 29.38 Z M 30.51 27.43 C 30.94 27.07 31.45 26.79 31.95 26.5 C 32.59 27.51 33.38 28.52 34.32 29.45 C 33.53 30.03 32.74 30.68 31.88 31.55 C 31.8 31.69 31.66 31.76 31.59 31.91 C 31.09 31.83 30.66 31.83 30.15 31.98 C 29.36 30.32 29.36 28.95 29.51 28.16 C 29.87 27.94 30.08 27.72 30.51 27.43 Z M 41.49 27.65 C 40.13 27.36 38.05 27.43 35.68 28.73 C 34.89 27.87 34.1 26.93 33.24 26.06 C 34.1 25.78 35.03 25.63 35.97 25.63 C 37.83 25.63 39.77 26.35 41.49 27.65 Z M 38.77 39.05 C 38.69 38.83 38.62 38.54 38.48 38.33 C 37.9 37.6 36.9 37.46 36.18 37.89 C 35.39 37.46 34.6 36.96 33.81 36.31 C 33.67 36.16 33.53 36.02 33.31 35.87 C 33.81 35.08 33.89 34.07 33.38 33.2 L 33.67 32.92 C 34.46 32.12 35.25 31.55 35.97 31.04 C 37.04 32.05 38.26 32.99 39.34 33.85 C 39.05 34.5 39.12 35.22 39.55 35.8 C 40.2 36.67 41.35 36.81 42.28 36.16 C 42.35 36.16 42.35 36.09 42.43 36.09 C 43.21 36.67 43.86 37.1 44.22 37.32 C 44 37.97 43.65 38.61 43.21 39.26 C 42.5 39.48 40.99 39.7 38.77 39.05 Z M 44.29 36.67 C 43.93 36.38 43.43 36.02 42.78 35.51 C 43 34.94 42.93 34.21 42.5 33.71 C 41.92 32.92 40.77 32.77 40.06 33.2 C 39.2 32.41 38.19 31.4 37.19 30.39 C 40.2 28.73 42.5 28.88 42.71 28.88 C 42.71 28.95 42.78 28.95 42.86 29.02 C 44.51 31.26 44.94 34.14 44.29 36.67 Z M 43.79 28.3 C 41.85 25.7 38.77 24.33 35.82 24.33 C 33.6 24.33 31.52 24.98 29.72 26.43 C 25.35 29.81 24.41 36.16 27.86 40.56 C 29.87 43.16 32.88 44.53 35.82 44.53 C 38.05 44.53 40.13 43.88 41.92 42.44 C 46.3 39.05 47.16 32.63 43.79 28.3 Z M 18.67 44.24 L 21.76 46.12 L 21.76 42.29 L 18.67 40.49 L 18.67 44.24 Z M 48.45 42.29 L 48.45 46.12 L 51.54 44.24 L 51.54 40.49 L 48.45 42.29 Z M 35.11 15.25 L 31.88 16.9 L 35.11 18.92 L 38.33 16.9 L 35.11 15.25 Z M 46.42 40.5 L 48.02 41.5 L 51.25 39.48 L 48.02 37.89 L 47.44 38.18 C 47.18 38.99 46.84 39.76 46.42 40.5 Z M 44.51 43.04 L 44.51 44.24 L 47.59 46.12 L 47.59 42.29 L 45.92 41.31 C 45.5 41.93 45.03 42.51 44.51 43.04 Z M 38.33 46.43 L 38.33 48.28 C 38.33 48.93 38.84 49.43 39.41 49.43 L 45.51 49.43 C 46.23 51.81 45.3 52.17 41.35 52.17 L 41.35 53.4 L 54.7 53.4 L 54.7 52.1 C 50.82 52.1 50.39 51.74 51.04 49.43 L 57.21 49.43 C 57.85 49.43 58.43 48.86 58.43 48.28 L 58.43 35.73 C 58.5 35.15 57.85 34.58 57.28 34.58 L 48.02 34.58 C 48.02 35.13 47.97 35.68 47.89 36.23 L 56.92 36.23 L 56.92 47.92 L 39.91 47.92 L 39.91 45.99 C 39.4 46.17 38.87 46.32 38.33 46.43 Z M 25.32 40.67 L 22.55 42.29 L 22.55 46.12 L 25.63 44.24 L 25.63 41.17 C 25.53 41.01 25.42 40.84 25.32 40.67 Z M 24.52 39.04 L 22.19 37.89 L 18.89 39.48 L 22.19 41.5 L 24.86 39.83 C 24.74 39.57 24.63 39.31 24.52 39.04 Z M 23.62 34.58 L 13.58 34.58 C 13 34.58 12.5 35.08 12.5 35.73 L 12.5 48.28 C 12.5 48.93 13 49.43 13.58 49.43 L 19.68 49.43 C 20.39 51.81 19.46 52.17 15.51 52.17 L 15.51 53.4 L 28.86 53.4 L 28.86 52.1 C 24.99 52.1 24.56 51.74 25.2 49.43 L 31.37 49.43 C 32.02 49.43 32.59 48.86 32.59 48.28 L 32.59 46.25 C 32.08 46.11 31.58 45.94 31.09 45.73 L 31.09 47.92 L 14.08 47.92 L 14.08 36.23 L 23.75 36.23 C 23.67 35.68 23.63 35.13 23.62 34.58 Z M 34.67 22.23 L 34.67 19.65 L 31.59 17.84 L 31.59 21.66 L 33.02 22.5 C 33.56 22.37 34.12 22.28 34.67 22.23 Z M 37.49 22.29 L 38.55 21.66 L 38.55 17.91 L 35.46 19.65 L 35.46 22.18 C 36.14 22.16 36.82 22.19 37.49 22.29 Z M 45.07 26.43 C 45.33 26.2 45.51 25.88 45.51 25.56 L 45.51 13.01 C 45.58 12.5 44.94 12 44.36 12 L 26.49 12 C 25.92 12 25.42 12.5 25.42 13.15 L 25.42 25.7 C 25.42 26.26 25.78 26.71 26.25 26.83 C 26.69 26.27 27.18 25.75 27.71 25.27 L 27 25.27 L 27 13.59 L 44 13.59 L 44 25.27 L 43.93 25.27 C 44.34 25.63 44.71 26.02 45.07 26.43 Z" fill="#00ff00" stroke="none" pointer-events="all"/></g></g></g></g></g></g></svg>