<?xml version="1.0" encoding="UTF-8"?>
<!-- Do not edit this file with editors other than draw.io -->
<!DOCTYPE svg PUBLIC "-//W3C//DTD SVG 1.1//EN" "http://www.w3.org/Graphics/SVG/1.1/DTD/svg11.dtd">
<svg xmlns="http://www.w3.org/2000/svg" xmlns:xlink="http://www.w3.org/1999/xlink" version="1.1" width="71px" height="71px" viewBox="-0.5 -0.5 71 71" class="ge-export-svg-dark" content="&lt;mxfile host=&quot;app.diagrams.net&quot; agent=&quot;Mozilla/5.0 (Windows NT 10.0; Win64; x64) AppleWebKit/537.36 (KHTML, like Gecko) Chrome/129.0.0.0 Safari/537.36&quot; version=&quot;24.7.16&quot; scale=&quot;1&quot; border=&quot;0&quot;&gt;&#10;  &lt;diagram name=&quot;Página-1&quot; id=&quot;m8l1A8O_j_JvbqTGVBao&quot;&gt;&#10;    &lt;mxGraphModel dx=&quot;503&quot; dy=&quot;248&quot; grid=&quot;1&quot; gridSize=&quot;10&quot; guides=&quot;1&quot; tooltips=&quot;1&quot; connect=&quot;1&quot; arrows=&quot;1&quot; fold=&quot;1&quot; page=&quot;1&quot; pageScale=&quot;1&quot; pageWidth=&quot;2970&quot; pageHeight=&quot;2100&quot; math=&quot;0&quot; shadow=&quot;0&quot;&gt;&#10;      &lt;root&gt;&#10;        &lt;mxCell id=&quot;0&quot; /&gt;&#10;        &lt;mxCell id=&quot;1&quot; parent=&quot;0&quot; /&gt;&#10;        &lt;mxCell id=&quot;sqtzE2Vg8_yKc3G_givv-1&quot; value=&quot;&quot; style=&quot;group&quot; vertex=&quot;1&quot; connectable=&quot;0&quot; parent=&quot;1&quot;&gt;&#10;          &lt;mxGeometry x=&quot;530&quot; y=&quot;280&quot; width=&quot;70&quot; height=&quot;70&quot; as=&quot;geometry&quot; /&gt;&#10;        &lt;/mxCell&gt;&#10;        &lt;mxCell id=&quot;sqtzE2Vg8_yKc3G_givv-2&quot; value=&quot;&quot; style=&quot;ellipse;shape=doubleEllipse;whiteSpace=wrap;html=1;aspect=fixed;container=0;&quot; vertex=&quot;1&quot; parent=&quot;sqtzE2Vg8_yKc3G_givv-1&quot;&gt;&#10;          &lt;mxGeometry width=&quot;70&quot; height=&quot;70&quot; as=&quot;geometry&quot; /&gt;&#10;        &lt;/mxCell&gt;&#10;        &lt;mxCell id=&quot;sqtzE2Vg8_yKc3G_givv-3&quot; value=&quot;&quot; style=&quot;ellipse;whiteSpace=wrap;html=1;aspect=fixed;container=0;&quot; vertex=&quot;1&quot; parent=&quot;sqtzE2Vg8_yKc3G_givv-1&quot;&gt;&#10;          &lt;mxGeometry x=&quot;5&quot; y=&quot;5&quot; width=&quot;60&quot; height=&quot;60&quot; as=&quot;geometry&quot; /&gt;&#10;        &lt;/mxCell&gt;&#10;        &lt;mxCell id=&quot;sqtzE2Vg8_yKc3G_givv-16&quot; value=&quot;&quot; style=&quot;sketch=0;aspect=fixed;pointerEvents=1;shadow=0;dashed=0;html=1;strokeColor=none;labelPosition=center;verticalLabelPosition=bottom;verticalAlign=top;align=center;fillColor=#00FF00;shape=mxgraph.mscae.enterprise.secure_virtual_machine&quot; vertex=&quot;1&quot; parent=&quot;sqtzE2Vg8_yKc3G_givv-1&quot;&gt;&#10;          &lt;mxGeometry x=&quot;12&quot; y=&quot;16&quot; width=&quot;50&quot; height=&quot;38&quot; as=&quot;geometry&quot; /&gt;&#10;        &lt;/mxCell&gt;&#10;      &lt;/root&gt;&#10;    &lt;/mxGraphModel&gt;&#10;  &lt;/diagram&gt;&#10;&lt;/mxfile&gt;&#10;"><defs><style type="text/css">svg.ge-export-svg-dark:not(mjx-container &gt; svg) { filter: invert(100%) hue-rotate(180deg); }&#xa;svg.ge-export-svg-dark foreignObject img,&#xa;svg.ge-export-svg-dark image:not(svg.ge-export-svg-dark switch image),&#xa;svg.ge-export-svg-dark svg:not(mjx-container &gt; svg)&#xa;{ filter: invert(100%) hue-rotate(180deg) }</style></defs><g><g data-cell-id="0"><g data-cell-id="1"><g data-cell-id="sqtzE2Vg8_yKc3G_givv-1"><g/><g data-cell-id="sqtzE2Vg8_yKc3G_givv-2"><g><ellipse cx="35" cy="35" rx="35" ry="35" fill="rgb(255, 255, 255)" stroke="rgb(0, 0, 0)" pointer-events="all"/><ellipse cx="35" cy="35" rx="31" ry="31" fill="none" stroke="rgb(0, 0, 0)" pointer-events="all"/></g></g><g data-cell-id="sqtzE2Vg8_yKc3G_givv-3"><g><ellipse cx="35" cy="35" rx="30" ry="30" fill="rgb(255, 255, 255)" stroke="rgb(0, 0, 0)" pointer-events="all"/></g></g><g data-cell-id="sqtzE2Vg8_yKc3G_givv-16"><g><rect x="12" y="16" width="50" height="38" fill="none" stroke="none" pointer-events="all"/><path d="M 13.9 46.33 C 12.92 46.11 12.18 45.33 12 44.35 L 12 17.88 C 12.21 16.94 12.95 16.21 13.9 16 L 51.71 16 C 52.72 16.15 53.53 16.9 53.76 17.88 L 53.76 32.38 C 52.78 31.84 51.62 31.73 50.56 32.08 L 50.56 19.22 L 15.2 19.22 L 15.2 43.16 L 40.09 43.16 C 40.29 44.25 40.61 45.31 41.04 46.33 L 38.24 46.33 C 37.97 47.18 37.82 48.06 37.79 48.95 C 37.67 50.03 38.45 51 39.54 51.13 C 41.1 51.51 42.7 51.65 44.3 51.53 C 44.86 52.19 45.48 52.8 46.15 53.36 L 46.15 53.95 L 19.71 53.95 L 19.71 51.58 C 21.55 51.68 23.4 51.58 25.22 51.28 C 25.91 51.28 26.56 51.03 27.02 50.57 C 27.47 50.11 27.67 49.5 27.57 48.9 C 27.43 48.03 27.22 47.17 26.92 46.33 Z M 25.27 35.05 L 25.27 27.73 L 31.78 31.39 L 31.78 38.66 Z M 25.92 26.39 L 32.38 22.63 L 38.89 26.29 L 32.38 30.05 Z M 39.49 27.78 L 39.49 35.05 L 32.93 38.66 L 32.93 31.44 Z M 41.74 37.23 C 41.79 36.9 41.98 36.6 42.25 36.4 C 42.52 36.21 42.86 36.13 43.2 36.19 C 44.3 36.78 45.56 37.03 46.8 36.88 C 48.09 36.55 49.24 35.84 50.11 34.85 C 50.91 34.09 52.18 33.99 53.11 34.6 L 55.01 36.24 C 56.04 36.89 57.28 37.1 58.47 36.83 C 59.09 36.71 59.7 36.51 60.27 36.24 C 60.93 36.08 61.6 36.48 61.77 37.13 C 62 40.41 61.4 43.69 60.02 46.68 C 58.31 50.07 55.36 52.69 51.76 54 C 48.53 52.79 45.83 50.52 44.1 47.57 C 42.38 44.4 41.56 40.82 41.74 37.23 Z" fill="#00ff00" stroke="none" pointer-events="all"/></g></g></g></g></g></g></svg>