<?xml version="1.0" encoding="UTF-8"?>
<!-- Do not edit this file with editors other than draw.io -->
<!DOCTYPE svg PUBLIC "-//W3C//DTD SVG 1.1//EN" "http://www.w3.org/Graphics/SVG/1.1/DTD/svg11.dtd">
<svg xmlns="http://www.w3.org/2000/svg" xmlns:xlink="http://www.w3.org/1999/xlink" version="1.1" width="71px" height="71px" viewBox="-0.5 -0.5 71 71" class="ge-export-svg-dark" content="&lt;mxfile host=&quot;app.diagrams.net&quot; agent=&quot;Mozilla/5.0 (Windows NT 10.0; Win64; x64) AppleWebKit/537.36 (KHTML, like Gecko) Chrome/129.0.0.0 Safari/537.36&quot; scale=&quot;1&quot; border=&quot;0&quot; version=&quot;24.7.16&quot;&gt;&#10;  &lt;diagram name=&quot;Página-1&quot; id=&quot;m8l1A8O_j_JvbqTGVBao&quot;&gt;&#10;    &lt;mxGraphModel dx=&quot;503&quot; dy=&quot;248&quot; grid=&quot;1&quot; gridSize=&quot;10&quot; guides=&quot;1&quot; tooltips=&quot;1&quot; connect=&quot;1&quot; arrows=&quot;1&quot; fold=&quot;1&quot; page=&quot;1&quot; pageScale=&quot;1&quot; pageWidth=&quot;2970&quot; pageHeight=&quot;2100&quot; math=&quot;0&quot; shadow=&quot;0&quot;&gt;&#10;      &lt;root&gt;&#10;        &lt;mxCell id=&quot;0&quot; /&gt;&#10;        &lt;mxCell id=&quot;1&quot; parent=&quot;0&quot; /&gt;&#10;        &lt;mxCell id=&quot;sqtzE2Vg8_yKc3G_givv-1&quot; value=&quot;&quot; style=&quot;group&quot; parent=&quot;1&quot; vertex=&quot;1&quot; connectable=&quot;0&quot;&gt;&#10;          &lt;mxGeometry x=&quot;340&quot; y=&quot;310&quot; width=&quot;70&quot; height=&quot;70&quot; as=&quot;geometry&quot; /&gt;&#10;        &lt;/mxCell&gt;&#10;        &lt;mxCell id=&quot;sqtzE2Vg8_yKc3G_givv-2&quot; value=&quot;&quot; style=&quot;ellipse;shape=doubleEllipse;whiteSpace=wrap;html=1;aspect=fixed;container=0;&quot; parent=&quot;sqtzE2Vg8_yKc3G_givv-1&quot; vertex=&quot;1&quot;&gt;&#10;          &lt;mxGeometry width=&quot;70&quot; height=&quot;70&quot; as=&quot;geometry&quot; /&gt;&#10;        &lt;/mxCell&gt;&#10;        &lt;mxCell id=&quot;sqtzE2Vg8_yKc3G_givv-3&quot; value=&quot;&quot; style=&quot;ellipse;whiteSpace=wrap;html=1;aspect=fixed;container=0;&quot; parent=&quot;sqtzE2Vg8_yKc3G_givv-1&quot; vertex=&quot;1&quot;&gt;&#10;          &lt;mxGeometry x=&quot;5&quot; y=&quot;5&quot; width=&quot;60&quot; height=&quot;60&quot; as=&quot;geometry&quot; /&gt;&#10;        &lt;/mxCell&gt;&#10;        &lt;mxCell id=&quot;sqtzE2Vg8_yKc3G_givv-6&quot; value=&quot;&quot; style=&quot;sketch=0;pointerEvents=1;shadow=0;dashed=0;html=1;strokeColor=none;fillColor=#00FF00;labelPosition=center;verticalLabelPosition=bottom;verticalAlign=top;outlineConnect=0;align=center;shape=mxgraph.office.devices.workstation_pc;fillStyle=auto;fontFamily=Helvetica;fontSize=12;fontColor=default;labelBackgroundColor=default;&quot; parent=&quot;sqtzE2Vg8_yKc3G_givv-1&quot; vertex=&quot;1&quot;&gt;&#10;          &lt;mxGeometry x=&quot;15&quot; y=&quot;12.5&quot; width=&quot;40&quot; height=&quot;45&quot; as=&quot;geometry&quot; /&gt;&#10;        &lt;/mxCell&gt;&#10;      &lt;/root&gt;&#10;    &lt;/mxGraphModel&gt;&#10;  &lt;/diagram&gt;&#10;&lt;/mxfile&gt;&#10;"><defs><style type="text/css">svg.ge-export-svg-dark:not(mjx-container &gt; svg) { filter: invert(100%) hue-rotate(180deg); }&#xa;svg.ge-export-svg-dark foreignObject img,&#xa;svg.ge-export-svg-dark image:not(svg.ge-export-svg-dark switch image),&#xa;svg.ge-export-svg-dark svg:not(mjx-container &gt; svg)&#xa;{ filter: invert(100%) hue-rotate(180deg) }</style></defs><g><g data-cell-id="0"><g data-cell-id="1"><g data-cell-id="sqtzE2Vg8_yKc3G_givv-1"><g/><g data-cell-id="sqtzE2Vg8_yKc3G_givv-2"><g><ellipse cx="35" cy="35" rx="35" ry="35" fill="rgb(255, 255, 255)" stroke="rgb(0, 0, 0)" pointer-events="all"/><ellipse cx="35" cy="35" rx="31" ry="31" fill="none" stroke="rgb(0, 0, 0)" pointer-events="all"/></g></g><g data-cell-id="sqtzE2Vg8_yKc3G_givv-3"><g><ellipse cx="35" cy="35" rx="30" ry="30" fill="rgb(255, 255, 255)" stroke="rgb(0, 0, 0)" pointer-events="all"/></g></g><g data-cell-id="sqtzE2Vg8_yKc3G_givv-6"><g><rect x="15" y="12.5" width="40" height="45" fill="none" stroke="none" pointer-events="all"/><path d="M 26.83 48.96 L 52.75 48.96 L 52.75 33.57 L 26.83 33.57 Z M 26.21 51.23 C 25.42 51.23 24.58 50.56 24.58 49.56 L 24.58 32.93 C 24.58 32.12 25.25 31.3 26.23 31.3 L 53.35 31.3 C 54.34 31.3 55 32.14 55 32.92 L 55 49.48 C 55 50.5 54.29 51.23 53.26 51.23 L 43.39 51.23 C 43.2 51.93 43 52.67 42.97 53.3 C 42.88 54.58 43.69 54.96 45.14 55.16 C 46.11 55.28 46.96 55.31 47.88 55.33 C 48.43 55.33 48.97 55.75 48.97 56.41 C 48.97 57.06 48.52 57.5 47.89 57.5 L 31.72 57.49 C 31.15 57.49 30.66 57.03 30.66 56.41 C 30.66 55.87 31.09 55.34 31.72 55.34 C 32.79 55.3 33.88 55.29 35 55.08 C 36.07 54.86 36.73 54.45 36.61 53.23 C 36.57 52.66 36.38 51.93 36.18 51.23 Z M 18.94 21.61 L 31.34 21.61 L 31.34 19.9 L 18.94 19.9 Z M 15 54.64 L 15 17 C 15 15.73 16.15 14.78 17.16 14.78 L 33.1 14.78 C 34.21 14.78 35.28 15.78 35.28 17.01 L 35.28 29.58 L 26.15 29.58 C 24.43 29.58 22.89 31.19 22.89 32.9 L 22.89 43.25 L 18.94 43.25 L 18.94 44.97 L 22.89 44.97 L 22.89 48.38 L 18.94 48.38 L 18.94 50.09 L 22.93 50.09 C 23.26 51.89 24.83 52.94 26.14 52.94 L 34.83 52.94 C 34.83 53.08 34.89 53.22 34.88 53.33 C 34.31 53.53 33.03 53.62 31.94 53.63 C 31.46 53.6 31.05 53.66 30.62 53.83 C 30.21 54 29.85 54.27 29.54 54.64 Z" fill="#00ff00" stroke="none" pointer-events="all"/><path d="M 45.99 20.47 L 45.99 13.7 L 54.44 12.5 L 54.44 20.47 Z M 38.66 20.47 L 38.66 14.78 L 45.42 13.81 L 45.42 20.47 Z M 45.99 27.77 L 45.99 21.04 L 54.44 21.04 L 54.44 27.77 Z M 38.66 26.73 L 38.66 21.04 L 45.42 21.04 L 45.42 27.71 Z" fill="#27ace2" stroke="none" pointer-events="all"/></g></g></g></g></g></g></svg>