<?xml version="1.0" encoding="UTF-8"?>
<!-- Do not edit this file with editors other than draw.io -->
<!DOCTYPE svg PUBLIC "-//W3C//DTD SVG 1.1//EN" "http://www.w3.org/Graphics/SVG/1.1/DTD/svg11.dtd">
<svg xmlns="http://www.w3.org/2000/svg" xmlns:xlink="http://www.w3.org/1999/xlink" version="1.1" width="72px" height="81px" viewBox="-0.5 -0.5 72 81" class="ge-export-svg-dark" content="&lt;mxfile host=&quot;app.diagrams.net&quot; agent=&quot;Mozilla/5.0 (Windows NT 10.0; Win64; x64) AppleWebKit/537.36 (KHTML, like Gecko) Chrome/129.0.0.0 Safari/537.36&quot; scale=&quot;1&quot; border=&quot;0&quot; version=&quot;24.7.16&quot;&gt;&#10;  &lt;diagram name=&quot;Página-1&quot; id=&quot;m8l1A8O_j_JvbqTGVBao&quot;&gt;&#10;    &lt;mxGraphModel dx=&quot;205&quot; dy=&quot;101&quot; grid=&quot;1&quot; gridSize=&quot;10&quot; guides=&quot;1&quot; tooltips=&quot;1&quot; connect=&quot;1&quot; arrows=&quot;1&quot; fold=&quot;1&quot; page=&quot;1&quot; pageScale=&quot;1&quot; pageWidth=&quot;2970&quot; pageHeight=&quot;2100&quot; math=&quot;0&quot; shadow=&quot;0&quot;&gt;&#10;      &lt;root&gt;&#10;        &lt;mxCell id=&quot;0&quot; /&gt;&#10;        &lt;mxCell id=&quot;1&quot; parent=&quot;0&quot; /&gt;&#10;        &lt;mxCell id=&quot;l1s-WfeYHmzIl0k62fMm-2&quot; value=&quot;&quot; style=&quot;group&quot; parent=&quot;1&quot; vertex=&quot;1&quot; connectable=&quot;0&quot;&gt;&#10;          &lt;mxGeometry x=&quot;380&quot; y=&quot;268&quot; width=&quot;70&quot; height=&quot;80&quot; as=&quot;geometry&quot; /&gt;&#10;        &lt;/mxCell&gt;&#10;        &lt;mxCell id=&quot;sqtzE2Vg8_yKc3G_givv-2&quot; value=&quot;&quot; style=&quot;ellipse;shape=doubleEllipse;whiteSpace=wrap;html=1;aspect=fixed;container=0;&quot; parent=&quot;l1s-WfeYHmzIl0k62fMm-2&quot; vertex=&quot;1&quot;&gt;&#10;          &lt;mxGeometry width=&quot;70&quot; height=&quot;70&quot; as=&quot;geometry&quot; /&gt;&#10;        &lt;/mxCell&gt;&#10;        &lt;mxCell id=&quot;sqtzE2Vg8_yKc3G_givv-3&quot; value=&quot;&quot; style=&quot;ellipse;whiteSpace=wrap;html=1;aspect=fixed;container=0;&quot; parent=&quot;l1s-WfeYHmzIl0k62fMm-2&quot; vertex=&quot;1&quot;&gt;&#10;          &lt;mxGeometry x=&quot;5&quot; y=&quot;5&quot; width=&quot;60&quot; height=&quot;60&quot; as=&quot;geometry&quot; /&gt;&#10;        &lt;/mxCell&gt;&#10;        &lt;mxCell id=&quot;kBWoNNk8_Sd-oZPdYqJj-10&quot; value=&quot;&quot; style=&quot;points=[[0.13,0.02,0],[0.5,0,0],[0.87,0.02,0],[0.885,0.4,0],[0.985,0.985,0],[0.5,1,0],[0.015,0.985,0],[0.115,0.4,0]];verticalLabelPosition=bottom;sketch=0;html=1;verticalAlign=top;aspect=fixed;align=center;pointerEvents=1;shape=mxgraph.cisco19.secure_endpoints;fillColor=#00FF00;strokeColor=none;&quot; vertex=&quot;1&quot; parent=&quot;l1s-WfeYHmzIl0k62fMm-2&quot;&gt;&#10;          &lt;mxGeometry x=&quot;10&quot; y=&quot;15&quot; width=&quot;50&quot; height=&quot;35&quot; as=&quot;geometry&quot; /&gt;&#10;        &lt;/mxCell&gt;&#10;      &lt;/root&gt;&#10;    &lt;/mxGraphModel&gt;&#10;  &lt;/diagram&gt;&#10;&lt;/mxfile&gt;&#10;"><defs><style type="text/css">svg.ge-export-svg-dark:not(mjx-container &gt; svg) { filter: invert(100%) hue-rotate(180deg); }&#xa;svg.ge-export-svg-dark foreignObject img,&#xa;svg.ge-export-svg-dark image:not(svg.ge-export-svg-dark switch image),&#xa;svg.ge-export-svg-dark svg:not(mjx-container &gt; svg)&#xa;{ filter: invert(100%) hue-rotate(180deg) }</style></defs><g><g data-cell-id="0"><g data-cell-id="1"><g data-cell-id="l1s-WfeYHmzIl0k62fMm-2"><g/><g data-cell-id="sqtzE2Vg8_yKc3G_givv-2"><g><ellipse cx="35" cy="35" rx="35" ry="35" fill="rgb(255, 255, 255)" stroke="rgb(0, 0, 0)" pointer-events="all"/><ellipse cx="35" cy="35" rx="31" ry="31" fill="none" stroke="rgb(0, 0, 0)" pointer-events="all"/></g></g><g data-cell-id="sqtzE2Vg8_yKc3G_givv-3"><g><ellipse cx="35" cy="35" rx="30" ry="30" fill="rgb(255, 255, 255)" stroke="rgb(0, 0, 0)" pointer-events="all"/></g></g><g data-cell-id="kBWoNNk8_Sd-oZPdYqJj-10"><g><rect x="10" y="15" width="50" height="35" fill="none" stroke="none" pointer-events="all"/><path d="M 35.13 29.72 C 35.52 29.72 35.83 30.04 35.83 30.43 C 35.83 30.7 35.68 30.95 35.44 31.07 L 35.44 32.75 L 34.83 32.75 L 34.83 31.07 C 34.59 30.95 34.44 30.7 34.44 30.43 C 34.44 30.04 34.75 29.73 35.13 29.72 Z M 35.17 21.79 C 33.53 21.79 31.93 23.33 31.93 25.2 L 31.93 27.46 L 29.99 27.46 L 29.99 34.53 L 40.38 34.53 L 40.38 27.46 L 38.41 27.46 L 38.41 25.2 C 38.41 23.26 36.74 21.79 35.17 21.79 Z M 35.17 22.49 C 36.3 22.49 37.73 23.68 37.73 25.2 L 37.73 27.46 L 32.61 27.46 L 32.61 25.2 C 32.61 23.76 33.97 22.49 35.17 22.49 Z M 17.49 40.73 L 17.96 40.73 L 52.06 40.73 L 52.57 40.73 C 52.78 40.73 53.3 41.01 53.71 41.33 L 59.32 46.75 L 59.32 48.04 C 59.32 48.66 58.68 49.3 57.88 49.3 L 12.16 49.3 C 11.8 49.3 11.41 49.17 11.14 48.93 C 10.86 48.7 10.68 48.38 10.68 47.93 L 10.68 46.81 L 16.65 41.08 C 16.85 40.91 17.19 40.73 17.49 40.73 Z M 17.96 15.7 L 52.06 15.7 C 52.87 15.7 53.5 16.34 53.5 17.17 L 53.5 38.55 C 53.5 39.38 52.87 40.03 52.06 40.03 L 17.96 40.03 C 17.15 40.03 16.52 39.38 16.52 38.55 L 16.52 17.17 C 16.52 16.34 17.15 15.7 17.96 15.7 Z M 17.96 15 C 16.79 15 15.84 15.97 15.84 17.17 L 15.84 38.55 C 15.84 39.24 16.15 39.85 16.64 40.25 C 16.47 40.34 16.33 40.45 16.2 40.56 L 16.2 40.57 L 10 46.5 L 10 47.93 C 10 48.58 10.29 49.11 10.7 49.47 C 11.11 49.82 11.64 50 12.16 50 L 57.88 50 C 59.03 50 60 49.11 60 48.04 L 60 46.46 L 54.15 40.8 L 54.14 40.79 C 53.9 40.6 53.65 40.41 53.38 40.26 C 53.87 39.86 54.18 39.24 54.18 38.56 L 54.18 17.17 C 54.18 15.97 53.23 15 52.06 15 Z M 18.42 17.67 L 51.51 17.67 L 51.51 38.07 L 18.42 38.07 Z M 26.55 46.7 L 28.28 43.67 L 41.78 43.67 L 43.52 46.7 L 39.02 46.7 L 39.02 47.24 C 39.02 47.79 38.51 48.4 37.95 48.4 L 31.97 48.4 C 31.39 48.4 30.95 47.8 30.95 47.26 L 30.95 46.7 Z" fill="#00ff00" stroke="none" pointer-events="all"/></g></g></g></g></g></g></svg>