<?xml version="1.0" encoding="UTF-8"?>
<!-- Do not edit this file with editors other than draw.io -->
<!DOCTYPE svg PUBLIC "-//W3C//DTD SVG 1.1//EN" "http://www.w3.org/Graphics/SVG/1.1/DTD/svg11.dtd">
<svg xmlns="http://www.w3.org/2000/svg" xmlns:xlink="http://www.w3.org/1999/xlink" version="1.1" width="71px" height="81px" viewBox="-0.5 -0.5 71 81" class="ge-export-svg-dark" content="&lt;mxfile host=&quot;app.diagrams.net&quot; agent=&quot;Mozilla/5.0 (Windows NT 10.0; Win64; x64) AppleWebKit/537.36 (KHTML, like Gecko) Chrome/129.0.0.0 Safari/537.36&quot; scale=&quot;1&quot; border=&quot;0&quot; version=&quot;24.7.16&quot;&gt;&#10;  &lt;diagram name=&quot;Página-1&quot; id=&quot;m8l1A8O_j_JvbqTGVBao&quot;&gt;&#10;    &lt;mxGraphModel dx=&quot;419&quot; dy=&quot;207&quot; grid=&quot;1&quot; gridSize=&quot;10&quot; guides=&quot;1&quot; tooltips=&quot;1&quot; connect=&quot;1&quot; arrows=&quot;1&quot; fold=&quot;1&quot; page=&quot;1&quot; pageScale=&quot;1&quot; pageWidth=&quot;2970&quot; pageHeight=&quot;2100&quot; math=&quot;0&quot; shadow=&quot;0&quot;&gt;&#10;      &lt;root&gt;&#10;        &lt;mxCell id=&quot;0&quot; /&gt;&#10;        &lt;mxCell id=&quot;1&quot; parent=&quot;0&quot; /&gt;&#10;        &lt;mxCell id=&quot;l1s-WfeYHmzIl0k62fMm-2&quot; value=&quot;&quot; style=&quot;group&quot; parent=&quot;1&quot; vertex=&quot;1&quot; connectable=&quot;0&quot;&gt;&#10;          &lt;mxGeometry x=&quot;400&quot; y=&quot;280&quot; width=&quot;70&quot; height=&quot;80&quot; as=&quot;geometry&quot; /&gt;&#10;        &lt;/mxCell&gt;&#10;        &lt;mxCell id=&quot;sqtzE2Vg8_yKc3G_givv-2&quot; value=&quot;&quot; style=&quot;ellipse;shape=doubleEllipse;whiteSpace=wrap;html=1;aspect=fixed;container=0;&quot; parent=&quot;l1s-WfeYHmzIl0k62fMm-2&quot; vertex=&quot;1&quot;&gt;&#10;          &lt;mxGeometry width=&quot;70&quot; height=&quot;70&quot; as=&quot;geometry&quot; /&gt;&#10;        &lt;/mxCell&gt;&#10;        &lt;mxCell id=&quot;sqtzE2Vg8_yKc3G_givv-3&quot; value=&quot;&quot; style=&quot;ellipse;whiteSpace=wrap;html=1;aspect=fixed;container=0;&quot; parent=&quot;l1s-WfeYHmzIl0k62fMm-2&quot; vertex=&quot;1&quot;&gt;&#10;          &lt;mxGeometry x=&quot;5&quot; y=&quot;5&quot; width=&quot;60&quot; height=&quot;60&quot; as=&quot;geometry&quot; /&gt;&#10;        &lt;/mxCell&gt;&#10;        &lt;mxCell id=&quot;f6pmm0lQQjv1o45NG8nA-1&quot; value=&quot;&quot; style=&quot;sketch=0;points=[[0.015,0.015,0],[0.985,0.015,0],[0.985,0.985,0],[0.015,0.985,0],[0.25,0,0],[0.5,0,0],[0.75,0,0],[1,0.25,0],[1,0.5,0],[1,0.75,0],[0.75,1,0],[0.5,1,0],[0.25,1,0],[0,0.75,0],[0,0.5,0],[0,0.25,0]];verticalLabelPosition=bottom;html=1;verticalAlign=top;aspect=fixed;align=center;pointerEvents=1;shape=mxgraph.cisco19.rect;prIcon=telepresence_endpoint_twin_data_display;fillColor=#00FF00;strokeColor=none;&quot; vertex=&quot;1&quot; parent=&quot;l1s-WfeYHmzIl0k62fMm-2&quot;&gt;&#10;          &lt;mxGeometry x=&quot;13&quot; y=&quot;17.810000000000002&quot; width=&quot;44&quot; height=&quot;34.38&quot; as=&quot;geometry&quot; /&gt;&#10;        &lt;/mxCell&gt;&#10;      &lt;/root&gt;&#10;    &lt;/mxGraphModel&gt;&#10;  &lt;/diagram&gt;&#10;&lt;/mxfile&gt;&#10;"><defs><style type="text/css">svg.ge-export-svg-dark:not(mjx-container &gt; svg) { filter: invert(100%) hue-rotate(180deg); }&#xa;svg.ge-export-svg-dark foreignObject img,&#xa;svg.ge-export-svg-dark image:not(svg.ge-export-svg-dark switch image),&#xa;svg.ge-export-svg-dark svg:not(mjx-container &gt; svg)&#xa;{ filter: invert(100%) hue-rotate(180deg) }</style></defs><g><g data-cell-id="0"><g data-cell-id="1"><g data-cell-id="l1s-WfeYHmzIl0k62fMm-2"><g/><g data-cell-id="sqtzE2Vg8_yKc3G_givv-2"><g><ellipse cx="35" cy="35" rx="35" ry="35" fill="rgb(255, 255, 255)" stroke="rgb(0, 0, 0)" pointer-events="all"/><ellipse cx="35" cy="35" rx="31" ry="31" fill="none" stroke="rgb(0, 0, 0)" pointer-events="all"/></g></g><g data-cell-id="sqtzE2Vg8_yKc3G_givv-3"><g><ellipse cx="35" cy="35" rx="30" ry="30" fill="rgb(255, 255, 255)" stroke="rgb(0, 0, 0)" pointer-events="all"/></g></g><g data-cell-id="f6pmm0lQQjv1o45NG8nA-1"><g><rect x="13" y="17.81" width="44" height="34.38" fill="none" stroke="none" pointer-events="all"/><path d="M 15.08 17.81 C 13.93 17.81 13 18.75 13 19.91 L 13 50.09 C 13 51.25 13.93 52.19 15.08 52.19 L 54.92 52.19 C 56.06 52.19 57 51.25 57 50.09 L 57 19.91 C 57 18.75 56.06 17.81 54.92 17.81 Z" fill="#00ff00" stroke="none" pointer-events="all"/><rect x="13" y="17.81" width="44" height="34.38" fill="none" stroke="none" pointer-events="all"/><path d="M 15.08 18.76 L 54.92 18.76 C 55.56 18.76 56.06 19.26 56.06 19.91 L 56.06 50.09 C 56.06 50.74 55.56 51.24 54.92 51.24 L 15.08 51.24 C 14.44 51.24 13.94 50.74 13.94 50.09 L 13.94 19.91 C 13.94 19.26 14.44 18.76 15.08 18.76 Z M 15.08 17.81 C 13.93 17.81 13 18.75 13 19.91 L 13 50.09 C 13 51.25 13.93 52.19 15.08 52.19 L 54.92 52.19 C 56.07 52.19 57 51.25 57 50.09 L 57 19.91 C 57 18.75 56.07 17.81 54.92 17.81 Z M 18.41 26.38 C 17.55 26.38 16.86 27.08 16.86 27.94 L 16.86 38.79 C 16.86 39.65 17.55 40.35 18.41 40.35 L 23.87 40.35 L 23.87 41.76 L 21.83 41.76 C 21.49 41.76 21.17 41.93 21 42.23 C 20.83 42.53 20.83 42.9 21 43.19 C 21.17 43.49 21.49 43.67 21.83 43.66 L 29.18 43.66 C 29.52 43.67 29.84 43.49 30.01 43.19 C 30.18 42.9 30.18 42.53 30.01 42.23 C 29.84 41.93 29.52 41.76 29.18 41.76 L 27.14 41.76 L 27.14 40.35 L 32.6 40.35 C 33.46 40.35 34.15 39.65 34.15 38.79 L 34.15 27.94 C 34.15 27.08 33.46 26.38 32.6 26.38 Z M 37.64 26.38 C 36.78 26.38 36.1 27.08 36.1 27.94 L 36.1 38.79 C 36.1 39.65 36.78 40.35 37.64 40.35 L 43.1 40.35 L 43.1 41.76 L 41.06 41.76 C 40.72 41.76 40.4 41.93 40.23 42.23 C 40.06 42.53 40.06 42.9 40.23 43.19 C 40.4 43.49 40.72 43.67 41.06 43.66 L 48.41 43.66 C 48.75 43.67 49.07 43.49 49.24 43.19 C 49.42 42.9 49.42 42.53 49.24 42.23 C 49.07 41.93 48.75 41.76 48.41 41.76 L 46.37 41.76 L 46.37 40.35 L 51.84 40.35 C 52.69 40.35 53.38 39.65 53.38 38.79 L 53.38 27.94 C 53.38 27.08 52.69 26.38 51.84 26.38 Z" fill="#000000" stroke="none" pointer-events="all"/><path d="M 26.65 39.01 C 26.65 34.59 28.19 33.31 29.25 33.31 C 30.3 33.31 31.87 34.51 31.87 39.01 Z M 31.68 30.61 C 31.68 31.25 31.42 31.87 30.97 32.33 C 30.52 32.79 29.9 33.05 29.26 33.05 C 28.62 33.05 28.01 32.79 27.56 32.33 C 27.1 31.87 26.85 31.25 26.85 30.61 C 26.85 29.96 27.1 29.34 27.56 28.88 C 28.01 28.42 28.62 28.17 29.26 28.17 C 29.9 28.17 30.52 28.42 30.97 28.88 C 31.42 29.34 31.68 29.96 31.68 30.61 Z M 19.72 39.01 C 19.72 34.59 21.26 33.31 22.33 33.31 C 23.38 33.31 24.95 34.51 24.95 39.01 Z M 24.76 30.61 C 24.76 31.25 24.5 31.87 24.05 32.33 C 23.6 32.79 22.98 33.05 22.34 33.05 C 21.01 33.05 19.93 31.95 19.93 30.61 C 19.93 29.96 20.18 29.34 20.63 28.88 C 21.09 28.42 21.7 28.17 22.34 28.17 C 22.98 28.17 23.6 28.42 24.05 28.88 C 24.5 29.34 24.76 29.96 24.76 30.61 Z M 38.18 28.8 L 38.89 28.8 L 38.89 37.9 L 40.55 37.9 L 40.55 34.82 L 42.5 34.82 L 42.5 37.9 L 43.87 37.9 L 43.87 31.65 L 45.82 31.65 L 45.82 37.9 L 47.17 37.9 L 47.17 30.22 L 49.11 30.22 L 49.11 37.9 L 50.99 37.9 L 50.99 38.62 L 38.18 38.62 Z" fill="#ffffff" stroke="none" pointer-events="all"/></g></g></g></g></g></g></svg>