<?xml version="1.0" encoding="UTF-8"?>
<!-- Do not edit this file with editors other than draw.io -->
<!DOCTYPE svg PUBLIC "-//W3C//DTD SVG 1.1//EN" "http://www.w3.org/Graphics/SVG/1.1/DTD/svg11.dtd">
<svg xmlns="http://www.w3.org/2000/svg" xmlns:xlink="http://www.w3.org/1999/xlink" version="1.1" width="71px" height="81px" viewBox="-0.5 -0.5 71 81" class="ge-export-svg-dark" content="&lt;mxfile host=&quot;app.diagrams.net&quot; agent=&quot;Mozilla/5.0 (Windows NT 10.0; Win64; x64) AppleWebKit/537.36 (KHTML, like Gecko) Chrome/129.0.0.0 Safari/537.36&quot; scale=&quot;1&quot; border=&quot;0&quot; version=&quot;24.7.16&quot;&gt;&#10;  &lt;diagram name=&quot;Página-1&quot; id=&quot;m8l1A8O_j_JvbqTGVBao&quot;&gt;&#10;    &lt;mxGraphModel dx=&quot;419&quot; dy=&quot;207&quot; grid=&quot;1&quot; gridSize=&quot;10&quot; guides=&quot;1&quot; tooltips=&quot;1&quot; connect=&quot;1&quot; arrows=&quot;1&quot; fold=&quot;1&quot; page=&quot;1&quot; pageScale=&quot;1&quot; pageWidth=&quot;2970&quot; pageHeight=&quot;2100&quot; math=&quot;0&quot; shadow=&quot;0&quot;&gt;&#10;      &lt;root&gt;&#10;        &lt;mxCell id=&quot;0&quot; /&gt;&#10;        &lt;mxCell id=&quot;1&quot; parent=&quot;0&quot; /&gt;&#10;        &lt;mxCell id=&quot;l1s-WfeYHmzIl0k62fMm-2&quot; value=&quot;&quot; style=&quot;group&quot; parent=&quot;1&quot; vertex=&quot;1&quot; connectable=&quot;0&quot;&gt;&#10;          &lt;mxGeometry x=&quot;400&quot; y=&quot;280&quot; width=&quot;70&quot; height=&quot;80&quot; as=&quot;geometry&quot; /&gt;&#10;        &lt;/mxCell&gt;&#10;        &lt;mxCell id=&quot;sqtzE2Vg8_yKc3G_givv-2&quot; value=&quot;&quot; style=&quot;ellipse;shape=doubleEllipse;whiteSpace=wrap;html=1;aspect=fixed;container=0;&quot; parent=&quot;l1s-WfeYHmzIl0k62fMm-2&quot; vertex=&quot;1&quot;&gt;&#10;          &lt;mxGeometry width=&quot;70&quot; height=&quot;70&quot; as=&quot;geometry&quot; /&gt;&#10;        &lt;/mxCell&gt;&#10;        &lt;mxCell id=&quot;sqtzE2Vg8_yKc3G_givv-3&quot; value=&quot;&quot; style=&quot;ellipse;whiteSpace=wrap;html=1;aspect=fixed;container=0;&quot; parent=&quot;l1s-WfeYHmzIl0k62fMm-2&quot; vertex=&quot;1&quot;&gt;&#10;          &lt;mxGeometry x=&quot;5&quot; y=&quot;5&quot; width=&quot;60&quot; height=&quot;60&quot; as=&quot;geometry&quot; /&gt;&#10;        &lt;/mxCell&gt;&#10;        &lt;mxCell id=&quot;f6pmm0lQQjv1o45NG8nA-16&quot; value=&quot;&quot; style=&quot;sketch=0;pointerEvents=1;shadow=0;dashed=0;html=1;strokeColor=none;fillColor=#00FF00;labelPosition=center;verticalLabelPosition=bottom;verticalAlign=top;align=center;outlineConnect=0;shape=mxgraph.veeam2.iso_file;&quot; vertex=&quot;1&quot; parent=&quot;l1s-WfeYHmzIl0k62fMm-2&quot;&gt;&#10;          &lt;mxGeometry x=&quot;21&quot; y=&quot;15.5&quot; width=&quot;28.000000000000004&quot; height=&quot;39&quot; as=&quot;geometry&quot; /&gt;&#10;        &lt;/mxCell&gt;&#10;      &lt;/root&gt;&#10;    &lt;/mxGraphModel&gt;&#10;  &lt;/diagram&gt;&#10;&lt;/mxfile&gt;&#10;"><defs><style type="text/css">svg.ge-export-svg-dark:not(mjx-container &gt; svg) { filter: invert(100%) hue-rotate(180deg); }&#xa;svg.ge-export-svg-dark foreignObject img,&#xa;svg.ge-export-svg-dark image:not(svg.ge-export-svg-dark switch image),&#xa;svg.ge-export-svg-dark svg:not(mjx-container &gt; svg)&#xa;{ filter: invert(100%) hue-rotate(180deg) }</style></defs><g><g data-cell-id="0"><g data-cell-id="1"><g data-cell-id="l1s-WfeYHmzIl0k62fMm-2"><g/><g data-cell-id="sqtzE2Vg8_yKc3G_givv-2"><g><ellipse cx="35" cy="35" rx="35" ry="35" fill="rgb(255, 255, 255)" stroke="rgb(0, 0, 0)" pointer-events="all"/><ellipse cx="35" cy="35" rx="31" ry="31" fill="none" stroke="rgb(0, 0, 0)" pointer-events="all"/></g></g><g data-cell-id="sqtzE2Vg8_yKc3G_givv-3"><g><ellipse cx="35" cy="35" rx="30" ry="30" fill="rgb(255, 255, 255)" stroke="rgb(0, 0, 0)" pointer-events="all"/></g></g><g data-cell-id="f6pmm0lQQjv1o45NG8nA-16"><g><rect x="21" y="15.5" width="28" height="39" fill="none" stroke="none" pointer-events="all"/><path d="M 49 22.57 L 49 54.5 L 21 54.5 L 21 15.5 L 42.12 15.5 Z" fill="#00ff00" stroke="none" pointer-events="all"/><path d="M 35 35.54 C 33.53 35.54 32.34 34.33 32.34 32.86 C 32.34 31.38 33.53 30.18 35 30.18 C 36.47 30.18 37.65 31.38 37.65 32.86 C 37.65 34.33 36.47 35.54 35 35.54 Z M 35 30.93 C 33.94 30.93 33.08 31.79 33.08 32.86 C 33.08 33.92 33.94 34.79 35 34.79 C 36.05 34.79 36.91 33.92 36.91 32.86 C 36.91 31.79 36.05 30.93 35 30.93 Z M 35 40.84 C 30.63 40.84 27.07 37.26 27.07 32.86 C 27.07 28.45 30.63 24.87 35 24.87 C 39.37 24.87 42.93 28.45 42.93 32.86 C 42.93 37.26 39.37 40.84 35 40.84 Z M 35 25.61 C 31.03 25.61 27.81 28.87 27.81 32.86 C 27.81 36.85 31.03 40.1 35 40.1 C 38.96 40.1 42.19 36.85 42.19 32.86 C 42.19 28.87 38.96 25.61 35 25.61 Z M 46.69 23.31 L 41.46 23.31 L 41.46 17.97 C 41.46 17.97 46.75 23.31 46.69 23.31 Z M 42.12 47.31 C 42.12 49.2 40.98 50.2 39.59 50.2 C 38.15 50.2 37.14 49.08 37.14 47.41 C 37.14 45.67 38.21 44.54 39.67 44.54 C 41.16 44.54 42.12 45.68 42.12 47.31 Z M 37.89 47.4 C 37.89 48.58 38.52 49.62 39.63 49.62 C 40.74 49.62 41.38 48.59 41.38 47.34 C 41.38 46.25 40.81 45.11 39.64 45.11 C 38.47 45.11 37.89 46.2 37.89 47.4 Z M 32.27 49.25 C 32.58 49.44 33.04 49.61 33.52 49.61 C 34.24 49.61 34.67 49.22 34.67 48.67 C 34.67 48.16 34.37 47.86 33.64 47.58 C 32.75 47.26 32.2 46.8 32.2 46.02 C 32.2 45.17 32.9 44.54 33.96 44.54 C 34.52 44.54 34.93 44.67 35.16 44.8 L 34.98 45.38 C 34.8 45.28 34.43 45.12 33.94 45.12 C 33.2 45.12 32.91 45.57 32.91 45.94 C 32.91 46.46 33.25 46.71 34 47 C 34.92 47.36 35.38 47.81 35.38 48.62 C 35.38 49.46 34.76 50.19 33.47 50.19 C 32.95 50.19 32.38 50.04 32.09 49.84 Z M 28.78 50.11 L 29.48 50.11 L 29.48 44.62 L 28.78 44.62 Z" fill="#ffffff" stroke="none" pointer-events="all"/></g></g></g></g></g></g></svg>