<?xml version="1.0" encoding="UTF-8"?>
<!-- Do not edit this file with editors other than draw.io -->
<!DOCTYPE svg PUBLIC "-//W3C//DTD SVG 1.1//EN" "http://www.w3.org/Graphics/SVG/1.1/DTD/svg11.dtd">
<svg xmlns="http://www.w3.org/2000/svg" xmlns:xlink="http://www.w3.org/1999/xlink" version="1.1" width="71px" height="72px" viewBox="-0.5 -0.5 71 72" class="ge-export-svg-dark" content="&lt;mxfile host=&quot;app.diagrams.net&quot; agent=&quot;Mozilla/5.0 (Windows NT 10.0; Win64; x64) AppleWebKit/537.36 (KHTML, like Gecko) Chrome/129.0.0.0 Safari/537.36&quot; scale=&quot;1&quot; border=&quot;0&quot; version=&quot;24.7.16&quot;&gt;&#10;  &lt;diagram name=&quot;Página-1&quot; id=&quot;m8l1A8O_j_JvbqTGVBao&quot;&gt;&#10;    &lt;mxGraphModel dx=&quot;198&quot; dy=&quot;98&quot; grid=&quot;1&quot; gridSize=&quot;10&quot; guides=&quot;1&quot; tooltips=&quot;1&quot; connect=&quot;1&quot; arrows=&quot;1&quot; fold=&quot;1&quot; page=&quot;1&quot; pageScale=&quot;1&quot; pageWidth=&quot;2970&quot; pageHeight=&quot;2100&quot; math=&quot;0&quot; shadow=&quot;0&quot;&gt;&#10;      &lt;root&gt;&#10;        &lt;mxCell id=&quot;0&quot; /&gt;&#10;        &lt;mxCell id=&quot;1&quot; parent=&quot;0&quot; /&gt;&#10;        &lt;mxCell id=&quot;f6pmm0lQQjv1o45NG8nA-42&quot; value=&quot;&quot; style=&quot;group&quot; vertex=&quot;1&quot; connectable=&quot;0&quot; parent=&quot;1&quot;&gt;&#10;          &lt;mxGeometry x=&quot;300&quot; y=&quot;250&quot; width=&quot;70&quot; height=&quot;70&quot; as=&quot;geometry&quot; /&gt;&#10;        &lt;/mxCell&gt;&#10;        &lt;mxCell id=&quot;sqtzE2Vg8_yKc3G_givv-2&quot; value=&quot;&quot; style=&quot;ellipse;shape=doubleEllipse;whiteSpace=wrap;html=1;aspect=fixed;container=0;&quot; parent=&quot;f6pmm0lQQjv1o45NG8nA-42&quot; vertex=&quot;1&quot;&gt;&#10;          &lt;mxGeometry width=&quot;70&quot; height=&quot;70&quot; as=&quot;geometry&quot; /&gt;&#10;        &lt;/mxCell&gt;&#10;        &lt;mxCell id=&quot;sqtzE2Vg8_yKc3G_givv-3&quot; value=&quot;&quot; style=&quot;ellipse;whiteSpace=wrap;html=1;aspect=fixed;container=0;fillColor=#00FF00;strokeColor=none;&quot; parent=&quot;f6pmm0lQQjv1o45NG8nA-42&quot; vertex=&quot;1&quot;&gt;&#10;          &lt;mxGeometry x=&quot;5&quot; y=&quot;5&quot; width=&quot;60&quot; height=&quot;60&quot; as=&quot;geometry&quot; /&gt;&#10;        &lt;/mxCell&gt;&#10;        &lt;mxCell id=&quot;f6pmm0lQQjv1o45NG8nA-62&quot; value=&quot;&quot; style=&quot;sketch=0;pointerEvents=1;shadow=0;dashed=0;html=1;strokeColor=#FFFFFF;fillColor=#00FF00;labelPosition=center;verticalLabelPosition=bottom;verticalAlign=top;outlineConnect=0;align=center;shape=mxgraph.office.devices.workstation;&quot; vertex=&quot;1&quot; parent=&quot;f6pmm0lQQjv1o45NG8nA-42&quot;&gt;&#10;          &lt;mxGeometry x=&quot;20&quot; y=&quot;25&quot; width=&quot;30&quot; height=&quot;30&quot; as=&quot;geometry&quot; /&gt;&#10;        &lt;/mxCell&gt;&#10;        &lt;mxCell id=&quot;f6pmm0lQQjv1o45NG8nA-67&quot; value=&quot;&quot; style=&quot;sketch=0;pointerEvents=1;shadow=0;dashed=0;html=1;strokeColor=#FFFFFF;fillColor=#00FF00;labelPosition=center;verticalLabelPosition=bottom;verticalAlign=top;outlineConnect=0;align=center;shape=mxgraph.office.security.lock_with_key_security;&quot; vertex=&quot;1&quot; parent=&quot;f6pmm0lQQjv1o45NG8nA-42&quot;&gt;&#10;          &lt;mxGeometry x=&quot;37&quot; y=&quot;15&quot; width=&quot;17&quot; height=&quot;20&quot; as=&quot;geometry&quot; /&gt;&#10;        &lt;/mxCell&gt;&#10;      &lt;/root&gt;&#10;    &lt;/mxGraphModel&gt;&#10;  &lt;/diagram&gt;&#10;&lt;/mxfile&gt;&#10;"><defs><style type="text/css">svg.ge-export-svg-dark:not(mjx-container &gt; svg) { filter: invert(100%) hue-rotate(180deg); }&#xa;svg.ge-export-svg-dark foreignObject img,&#xa;svg.ge-export-svg-dark image:not(svg.ge-export-svg-dark switch image),&#xa;svg.ge-export-svg-dark svg:not(mjx-container &gt; svg)&#xa;{ filter: invert(100%) hue-rotate(180deg) }</style></defs><g><g data-cell-id="0"><g data-cell-id="1"><g data-cell-id="f6pmm0lQQjv1o45NG8nA-42"><g/><g data-cell-id="sqtzE2Vg8_yKc3G_givv-2"><g><ellipse cx="35" cy="35" rx="35" ry="35" fill="rgb(255, 255, 255)" stroke="rgb(0, 0, 0)" pointer-events="all"/><ellipse cx="35" cy="35" rx="31" ry="31" fill="none" stroke="rgb(0, 0, 0)" pointer-events="all"/></g></g><g data-cell-id="sqtzE2Vg8_yKc3G_givv-3"><g><ellipse cx="35" cy="35" rx="30" ry="30" fill="#00ff00" stroke="none" pointer-events="all"/></g></g><g data-cell-id="f6pmm0lQQjv1o45NG8nA-62"><g><rect x="20" y="25" width="30" height="30" fill="none" stroke="none" pointer-events="all"/><path d="M 28.87 49 L 48.31 49 L 48.31 38.2 L 28.87 38.2 Z M 28.41 50.6 C 27.81 50.6 27.18 50.13 27.18 49.42 L 27.18 37.75 C 27.18 37.18 27.68 36.6 28.42 36.6 L 48.76 36.6 C 49.5 36.6 50 37.2 50 37.75 L 50 49.37 C 50 50.08 49.47 50.6 48.7 50.6 L 41.3 50.6 C 41.15 51.09 41 51.61 40.97 52.05 C 40.91 52.96 41.52 53.22 42.6 53.36 C 43.33 53.45 43.97 53.46 44.66 53.48 C 45.08 53.48 45.48 53.77 45.48 54.24 C 45.48 54.69 45.13 55 44.66 55 L 32.54 55 C 32.11 55 31.75 54.67 31.75 54.24 C 31.75 53.85 32.07 53.48 32.54 53.48 C 33.34 53.45 34.16 53.45 35 53.3 C 35.8 53.15 36.3 52.87 36.21 52 C 36.17 51.61 36.03 51.09 35.89 50.6 Z M 22.96 29.8 L 32.25 29.8 L 32.25 28.6 L 22.96 28.6 Z M 20 53 L 20 26.57 C 20 25.67 20.86 25 21.62 25 L 33.57 25 C 34.41 25 35.21 25.71 35.21 26.57 L 35.21 35.4 L 28.36 35.4 C 27.08 35.4 25.92 36.53 25.92 37.73 L 25.92 45 L 22.96 45 L 22.96 46.2 L 25.92 46.2 L 25.92 48.6 L 22.96 48.6 L 22.96 49.8 L 25.95 49.8 C 26.19 51.06 27.37 51.8 28.35 51.8 L 34.87 51.8 C 34.87 51.9 34.92 52 34.91 52.08 C 34.48 52.21 33.52 52.28 32.7 52.28 C 32.34 52.26 32.03 52.31 31.72 52.43 C 31.41 52.55 31.14 52.74 30.91 53 Z" fill="#00ff00" stroke="#ffffff" stroke-miterlimit="10" pointer-events="all"/></g></g><g data-cell-id="f6pmm0lQQjv1o45NG8nA-67"><g><rect x="37" y="15" width="17" height="20" fill="none" stroke="none" pointer-events="all"/><path d="M 51.4 27.23 C 51.84 27.23 52.08 26.88 52.08 26.6 C 52.08 26.16 51.74 25.93 51.4 25.93 C 50.99 25.93 50.71 26.24 50.71 26.57 C 50.71 26.96 51.04 27.23 51.4 27.23 Z M 50.47 29.66 C 49.78 29.44 48.82 28.65 48.8 27.4 C 48.8 26 49.96 24.89 51.39 24.89 C 52.86 24.89 54 26.04 54 27.35 C 54 28.4 53.34 29.25 52.36 29.63 L 52.36 30.62 L 51.7 31.37 L 52.63 32.26 L 52.63 32.31 L 51.81 33.14 L 52.6 33.92 L 51.48 35 L 50.47 33.96 Z M 47.95 23.08 L 47.95 20.22 C 47.95 18.57 46.47 16.55 44.02 16.55 C 41.65 16.55 40.01 18.39 40.01 20.22 L 40.01 23.08 Z M 38.05 33.13 C 37.56 33.13 37 32.7 37 32.11 L 37 24.05 C 37 23.47 37.54 23.08 38.06 23.08 L 38.37 23.08 L 38.37 20.19 C 38.37 17.74 40.52 15 44.1 15 C 47.07 15 49.59 17.48 49.59 20.19 L 49.59 23.08 L 49.89 23.08 C 50.47 23.08 50.96 23.52 50.96 24.04 L 50.96 24.11 C 49.25 24.3 48.03 25.63 47.93 27.15 C 47.87 28.38 48.48 29.49 49.59 30.1 L 49.59 33.13 Z" fill="#00ff00" stroke="#ffffff" stroke-miterlimit="10" pointer-events="all"/></g></g></g></g></g></g></svg>