<?xml version="1.0" encoding="UTF-8"?>
<!-- Do not edit this file with editors other than draw.io -->
<!DOCTYPE svg PUBLIC "-//W3C//DTD SVG 1.1//EN" "http://www.w3.org/Graphics/SVG/1.1/DTD/svg11.dtd">
<svg xmlns="http://www.w3.org/2000/svg" xmlns:xlink="http://www.w3.org/1999/xlink" version="1.1" width="72px" height="72px" viewBox="-0.5 -0.5 72 72" class="ge-export-svg-dark" content="&lt;mxfile host=&quot;app.diagrams.net&quot; agent=&quot;Mozilla/5.0 (Windows NT 10.0; Win64; x64) AppleWebKit/537.36 (KHTML, like Gecko) Chrome/129.0.0.0 Safari/537.36&quot; scale=&quot;1&quot; border=&quot;0&quot; version=&quot;24.7.16&quot;&gt;&#10;  &lt;diagram name=&quot;Página-1&quot; id=&quot;m8l1A8O_j_JvbqTGVBao&quot;&gt;&#10;    &lt;mxGraphModel dx=&quot;409&quot; dy=&quot;202&quot; grid=&quot;1&quot; gridSize=&quot;10&quot; guides=&quot;1&quot; tooltips=&quot;1&quot; connect=&quot;1&quot; arrows=&quot;1&quot; fold=&quot;1&quot; page=&quot;1&quot; pageScale=&quot;1&quot; pageWidth=&quot;2970&quot; pageHeight=&quot;2100&quot; math=&quot;0&quot; shadow=&quot;0&quot;&gt;&#10;      &lt;root&gt;&#10;        &lt;mxCell id=&quot;0&quot; /&gt;&#10;        &lt;mxCell id=&quot;1&quot; parent=&quot;0&quot; /&gt;&#10;        &lt;mxCell id=&quot;f6pmm0lQQjv1o45NG8nA-42&quot; value=&quot;&quot; style=&quot;group&quot; vertex=&quot;1&quot; connectable=&quot;0&quot; parent=&quot;1&quot;&gt;&#10;          &lt;mxGeometry x=&quot;300&quot; y=&quot;250&quot; width=&quot;70&quot; height=&quot;70&quot; as=&quot;geometry&quot; /&gt;&#10;        &lt;/mxCell&gt;&#10;        &lt;mxCell id=&quot;sqtzE2Vg8_yKc3G_givv-2&quot; value=&quot;&quot; style=&quot;ellipse;shape=doubleEllipse;whiteSpace=wrap;html=1;aspect=fixed;container=0;&quot; parent=&quot;f6pmm0lQQjv1o45NG8nA-42&quot; vertex=&quot;1&quot;&gt;&#10;          &lt;mxGeometry width=&quot;70&quot; height=&quot;70&quot; as=&quot;geometry&quot; /&gt;&#10;        &lt;/mxCell&gt;&#10;        &lt;mxCell id=&quot;sqtzE2Vg8_yKc3G_givv-3&quot; value=&quot;&quot; style=&quot;ellipse;whiteSpace=wrap;html=1;aspect=fixed;container=0;fillColor=#00FF00;strokeColor=none;&quot; parent=&quot;f6pmm0lQQjv1o45NG8nA-42&quot; vertex=&quot;1&quot;&gt;&#10;          &lt;mxGeometry x=&quot;5&quot; y=&quot;5&quot; width=&quot;60&quot; height=&quot;60&quot; as=&quot;geometry&quot; /&gt;&#10;        &lt;/mxCell&gt;&#10;        &lt;mxCell id=&quot;f6pmm0lQQjv1o45NG8nA-55&quot; value=&quot;&quot; style=&quot;fontColor=#0066CC;verticalAlign=top;verticalLabelPosition=bottom;labelPosition=center;align=center;html=1;outlineConnect=0;fillColor=#00FF00;strokeColor=#FFFFFF;gradientColor=none;gradientDirection=north;strokeWidth=2;shape=mxgraph.networks.web_server;&quot; vertex=&quot;1&quot; parent=&quot;f6pmm0lQQjv1o45NG8nA-42&quot;&gt;&#10;          &lt;mxGeometry x=&quot;17&quot; y=&quot;15&quot; width=&quot;37.5&quot; height=&quot;40&quot; as=&quot;geometry&quot; /&gt;&#10;        &lt;/mxCell&gt;&#10;      &lt;/root&gt;&#10;    &lt;/mxGraphModel&gt;&#10;  &lt;/diagram&gt;&#10;&lt;/mxfile&gt;&#10;"><defs><style type="text/css">svg.ge-export-svg-dark:not(mjx-container &gt; svg) { filter: invert(100%) hue-rotate(180deg); }&#xa;svg.ge-export-svg-dark foreignObject img,&#xa;svg.ge-export-svg-dark image:not(svg.ge-export-svg-dark switch image),&#xa;svg.ge-export-svg-dark svg:not(mjx-container &gt; svg)&#xa;{ filter: invert(100%) hue-rotate(180deg) }</style></defs><g><g data-cell-id="0"><g data-cell-id="1"><g data-cell-id="f6pmm0lQQjv1o45NG8nA-42"><g/><g data-cell-id="sqtzE2Vg8_yKc3G_givv-2"><g><ellipse cx="35" cy="35" rx="35" ry="35" fill="rgb(255, 255, 255)" stroke="rgb(0, 0, 0)" pointer-events="all"/><ellipse cx="35" cy="35" rx="31" ry="31" fill="none" stroke="rgb(0, 0, 0)" pointer-events="all"/></g></g><g data-cell-id="sqtzE2Vg8_yKc3G_givv-3"><g><ellipse cx="35" cy="35" rx="30" ry="30" fill="#00ff00" stroke="none" pointer-events="all"/></g></g><g data-cell-id="f6pmm0lQQjv1o45NG8nA-55"><g><rect x="17" y="46.78" width="32.77" height="5.61" rx="0.75" ry="0.75" fill="#00ff00" stroke="#ffffff" stroke-width="0.73" pointer-events="all"/><rect x="17" y="40.23" width="32.77" height="5.61" rx="0.75" ry="0.75" fill="#00ff00" stroke="#ffffff" stroke-width="0.73" pointer-events="all"/><rect x="17" y="33.69" width="32.77" height="5.61" rx="0.75" ry="0.75" fill="#00ff00" stroke="#ffffff" stroke-width="0.73" pointer-events="all"/><rect x="17" y="27.15" width="32.77" height="5.61" rx="0.75" ry="0.75" fill="#00ff00" stroke="#ffffff" stroke-width="0.73" pointer-events="all"/><rect x="17" y="20.61" width="32.77" height="5.61" rx="0.75" ry="0.75" fill="#00ff00" stroke="#ffffff" stroke-width="0.73" pointer-events="all"/><path d="M 18.46 19.86 L 26.1 15 L 40.67 15 L 48.31 19.86 Z" fill="#00ff00" stroke="#ffffff" stroke-width="0.73" stroke-miterlimit="10" pointer-events="all"/><ellipse cx="46.85" cy="49.58" rx="1.4563106796116505" ry="1.4953271028037383" fill="#ffffff" stroke="none" pointer-events="all"/><ellipse cx="46.73" cy="43.04" rx="1.4563106796116505" ry="1.4953271028037383" fill="#ffffff" stroke="none" pointer-events="all"/><ellipse cx="46.85" cy="36.5" rx="1.4563106796116505" ry="1.4953271028037383" fill="#ffffff" stroke="none" pointer-events="all"/><ellipse cx="46.85" cy="29.95" rx="1.4563106796116505" ry="1.4953271028037383" fill="#ffffff" stroke="none" pointer-events="all"/><ellipse cx="46.85" cy="23.41" rx="1.4563106796116505" ry="1.4953271028037383" fill="#ffffff" stroke="none" pointer-events="all"/><path d="M 18.82 51.64 L 20.64 47.52 L 22.46 47.52 L 20.64 51.64 Z M 22.46 51.64 L 24.28 47.52 L 26.1 47.52 L 24.28 51.64 Z M 26.1 51.64 L 27.92 47.52 L 29.74 47.52 L 27.92 51.64 Z M 29.74 51.64 L 31.56 47.52 L 33.38 47.52 L 31.56 51.64 Z M 33.38 51.64 L 35.2 47.52 L 37.02 47.52 L 35.2 51.64 Z M 37.02 51.64 L 38.84 47.52 L 40.67 47.52 L 38.84 51.64 Z M 18.82 45.09 L 20.64 40.98 L 22.46 40.98 L 20.64 45.09 Z M 22.46 45.09 L 24.28 40.98 L 26.1 40.98 L 24.28 45.09 Z M 26.1 45.09 L 27.92 40.98 L 29.74 40.98 L 27.92 45.09 Z M 29.74 45.09 L 31.56 40.98 L 33.38 40.98 L 31.56 45.09 Z M 33.38 45.09 L 35.2 40.98 L 37.02 40.98 L 35.2 45.09 Z M 37.02 45.09 L 38.84 40.98 L 40.67 40.98 L 38.84 45.09 Z M 18.82 38.55 L 20.64 34.44 L 22.46 34.44 L 20.64 38.55 Z M 22.46 38.55 L 24.28 34.44 L 26.1 34.44 L 24.28 38.55 Z M 26.1 38.55 L 27.74 34.44 L 29.56 34.44 L 27.74 38.55 Z M 29.74 38.55 L 31.56 34.44 L 33.38 34.44 L 31.56 38.55 Z M 33.38 38.55 L 35.2 34.44 L 37.02 34.44 L 35.2 38.55 Z M 37.02 38.55 L 38.84 34.44 L 40.67 34.44 L 38.84 38.55 Z M 18.82 32.01 L 20.64 27.9 L 22.46 27.9 L 20.64 32.01 Z M 22.46 32.01 L 24.28 27.9 L 26.1 27.9 L 24.28 32.01 Z M 26.1 32.01 L 27.92 27.9 L 29.74 27.9 L 27.92 32.01 Z M 29.74 32.01 L 31.56 27.9 L 33.38 27.9 L 31.56 32.01 Z M 33.38 32.01 L 35.2 27.9 L 37.02 27.9 L 35.2 32.01 Z M 37.02 32.01 L 38.84 27.9 L 40.67 27.9 L 38.84 32.01 Z M 18.82 25.47 L 20.64 21.36 L 22.46 21.36 L 20.64 25.47 Z M 22.46 25.47 L 24.28 21.36 L 26.1 21.36 L 24.28 25.47 Z M 26.1 25.47 L 27.92 21.36 L 29.74 21.36 L 27.92 25.47 Z M 29.74 25.47 L 31.56 21.36 L 33.38 21.36 L 31.56 25.47 Z M 33.38 25.47 L 35.2 21.36 L 37.02 21.36 L 35.2 25.47 Z M 37.02 25.47 L 38.84 21.36 L 40.67 21.36 L 38.84 25.47 Z" fill="#ffffff" stroke="none" pointer-events="all"/><rect x="17" y="15" width="0" height="0" fill="none" stroke="#ffffff" stroke-width="0.73" pointer-events="all"/><ellipse cx="47.95" cy="48.27" rx="6.553398058252427" ry="6.728971962616822" fill="#00ff00" stroke="#ffffff" stroke-width="0.73" pointer-events="all"/><path d="M 47.95 41.54 L 47.95 55 M 41.54 48.27 L 54.5 48.2 M 47.95 41.54 C 51.42 45.18 51.42 50.99 47.95 54.63 M 47.95 41.54 C 44.48 45.18 44.48 50.99 47.95 54.63 M 47.95 41.54 C 50.89 42.27 52.97 44.97 52.97 48.08 C 52.97 51.19 50.89 53.9 47.95 54.63 M 47.95 41.54 C 45 42.27 42.93 44.97 42.93 48.08 C 42.93 51.19 45 53.9 47.95 54.63 M 42.3 44.91 L 53.59 44.91 M 42.27 52.01 L 53.48 52.08" fill="none" stroke="#ffffff" stroke-width="0.73" stroke-miterlimit="10" pointer-events="all"/></g></g></g></g></g></g></svg>