<?xml version="1.0" encoding="UTF-8"?>
<!-- Do not edit this file with editors other than draw.io -->
<!DOCTYPE svg PUBLIC "-//W3C//DTD SVG 1.1//EN" "http://www.w3.org/Graphics/SVG/1.1/DTD/svg11.dtd">
<svg xmlns="http://www.w3.org/2000/svg" xmlns:xlink="http://www.w3.org/1999/xlink" version="1.1" width="72px" height="72px" viewBox="-0.5 -0.5 72 72" class="ge-export-svg-dark" content="&lt;mxfile host=&quot;app.diagrams.net&quot; agent=&quot;Mozilla/5.0 (Windows NT 10.0; Win64; x64) AppleWebKit/537.36 (KHTML, like Gecko) Chrome/129.0.0.0 Safari/537.36&quot; scale=&quot;1&quot; border=&quot;0&quot; version=&quot;24.7.16&quot;&gt;&#10;  &lt;diagram name=&quot;Página-1&quot; id=&quot;m8l1A8O_j_JvbqTGVBao&quot;&gt;&#10;    &lt;mxGraphModel dx=&quot;409&quot; dy=&quot;202&quot; grid=&quot;1&quot; gridSize=&quot;10&quot; guides=&quot;1&quot; tooltips=&quot;1&quot; connect=&quot;1&quot; arrows=&quot;1&quot; fold=&quot;1&quot; page=&quot;1&quot; pageScale=&quot;1&quot; pageWidth=&quot;2970&quot; pageHeight=&quot;2100&quot; math=&quot;0&quot; shadow=&quot;0&quot;&gt;&#10;      &lt;root&gt;&#10;        &lt;mxCell id=&quot;0&quot; /&gt;&#10;        &lt;mxCell id=&quot;1&quot; parent=&quot;0&quot; /&gt;&#10;        &lt;mxCell id=&quot;f6pmm0lQQjv1o45NG8nA-42&quot; value=&quot;&quot; style=&quot;group&quot; vertex=&quot;1&quot; connectable=&quot;0&quot; parent=&quot;1&quot;&gt;&#10;          &lt;mxGeometry x=&quot;300&quot; y=&quot;250&quot; width=&quot;70&quot; height=&quot;70&quot; as=&quot;geometry&quot; /&gt;&#10;        &lt;/mxCell&gt;&#10;        &lt;mxCell id=&quot;sqtzE2Vg8_yKc3G_givv-2&quot; value=&quot;&quot; style=&quot;ellipse;shape=doubleEllipse;whiteSpace=wrap;html=1;aspect=fixed;container=0;&quot; parent=&quot;f6pmm0lQQjv1o45NG8nA-42&quot; vertex=&quot;1&quot;&gt;&#10;          &lt;mxGeometry width=&quot;70&quot; height=&quot;70&quot; as=&quot;geometry&quot; /&gt;&#10;        &lt;/mxCell&gt;&#10;        &lt;mxCell id=&quot;sqtzE2Vg8_yKc3G_givv-3&quot; value=&quot;&quot; style=&quot;ellipse;whiteSpace=wrap;html=1;aspect=fixed;container=0;fillColor=#00FF00;strokeColor=none;&quot; parent=&quot;f6pmm0lQQjv1o45NG8nA-42&quot; vertex=&quot;1&quot;&gt;&#10;          &lt;mxGeometry x=&quot;5&quot; y=&quot;5&quot; width=&quot;60&quot; height=&quot;60&quot; as=&quot;geometry&quot; /&gt;&#10;        &lt;/mxCell&gt;&#10;        &lt;mxCell id=&quot;f6pmm0lQQjv1o45NG8nA-58&quot; value=&quot;&quot; style=&quot;fontColor=#0066CC;verticalAlign=top;verticalLabelPosition=bottom;labelPosition=center;align=center;html=1;outlineConnect=0;fillColor=#00FF00;strokeColor=#FFFFFF;gradientColor=none;gradientDirection=north;strokeWidth=2;shape=mxgraph.networks.server_storage;&quot; vertex=&quot;1&quot; parent=&quot;f6pmm0lQQjv1o45NG8nA-42&quot;&gt;&#10;          &lt;mxGeometry x=&quot;19&quot; y=&quot;15&quot; width=&quot;35&quot; height=&quot;40&quot; as=&quot;geometry&quot; /&gt;&#10;        &lt;/mxCell&gt;&#10;      &lt;/root&gt;&#10;    &lt;/mxGraphModel&gt;&#10;  &lt;/diagram&gt;&#10;&lt;/mxfile&gt;&#10;"><defs><style type="text/css">svg.ge-export-svg-dark:not(mjx-container &gt; svg) { filter: invert(100%) hue-rotate(180deg); }&#xa;svg.ge-export-svg-dark foreignObject img,&#xa;svg.ge-export-svg-dark image:not(svg.ge-export-svg-dark switch image),&#xa;svg.ge-export-svg-dark svg:not(mjx-container &gt; svg)&#xa;{ filter: invert(100%) hue-rotate(180deg) }</style></defs><g><g data-cell-id="0"><g data-cell-id="1"><g data-cell-id="f6pmm0lQQjv1o45NG8nA-42"><g/><g data-cell-id="sqtzE2Vg8_yKc3G_givv-2"><g><ellipse cx="35" cy="35" rx="35" ry="35" fill="rgb(255, 255, 255)" stroke="rgb(0, 0, 0)" pointer-events="all"/><ellipse cx="35" cy="35" rx="31" ry="31" fill="none" stroke="rgb(0, 0, 0)" pointer-events="all"/></g></g><g data-cell-id="sqtzE2Vg8_yKc3G_givv-3"><g><ellipse cx="35" cy="35" rx="30" ry="30" fill="#00ff00" stroke="none" pointer-events="all"/></g></g><g data-cell-id="f6pmm0lQQjv1o45NG8nA-58"><g><rect x="19" y="47.04" width="30.58" height="5.65" rx="0.75" ry="0.75" fill="#00ff00" stroke="#ffffff" stroke-width="0.68" pointer-events="all"/><rect x="19" y="40.45" width="30.58" height="5.65" rx="0.75" ry="0.75" fill="#00ff00" stroke="#ffffff" stroke-width="0.68" pointer-events="all"/><rect x="19" y="33.85" width="30.58" height="5.65" rx="0.75" ry="0.75" fill="#00ff00" stroke="#ffffff" stroke-width="0.68" pointer-events="all"/><rect x="19" y="27.25" width="30.58" height="5.65" rx="0.75" ry="0.75" fill="#00ff00" stroke="#ffffff" stroke-width="0.68" pointer-events="all"/><rect x="19" y="20.65" width="30.58" height="5.65" rx="0.75" ry="0.75" fill="#00ff00" stroke="#ffffff" stroke-width="0.68" pointer-events="all"/><path d="M 20.36 19.9 L 27.5 15 L 41.09 15 L 48.22 19.9 Z" fill="#00ff00" stroke="#ffffff" stroke-width="0.68" stroke-miterlimit="10" pointer-events="all"/><ellipse cx="46.86" cy="49.87" rx="1.3592233009708738" ry="1.5078691923475638" fill="#ffffff" stroke="none" pointer-events="all"/><ellipse cx="46.75" cy="43.27" rx="1.3592233009708738" ry="1.5078691923475638" fill="#ffffff" stroke="none" pointer-events="all"/><ellipse cx="46.86" cy="36.68" rx="1.3592233009708738" ry="1.5078691923475638" fill="#ffffff" stroke="none" pointer-events="all"/><ellipse cx="46.86" cy="30.08" rx="1.3592233009708738" ry="1.5078691923475638" fill="#ffffff" stroke="none" pointer-events="all"/><ellipse cx="46.86" cy="23.48" rx="1.3592233009708738" ry="1.5078691923475638" fill="#ffffff" stroke="none" pointer-events="all"/><path d="M 20.7 51.94 L 22.4 47.8 L 24.1 47.8 L 22.4 51.94 Z M 24.1 51.94 L 25.8 47.8 L 27.5 47.8 L 25.8 51.94 Z M 27.5 51.94 L 29.19 47.8 L 30.89 47.8 L 29.19 51.94 Z M 30.89 51.94 L 32.59 47.8 L 34.29 47.8 L 32.59 51.94 Z M 34.29 51.94 L 35.99 47.8 L 37.69 47.8 L 35.99 51.94 Z M 37.69 51.94 L 39.39 47.8 L 41.09 47.8 L 39.39 51.94 Z M 20.7 45.35 L 22.4 41.2 L 24.1 41.2 L 22.4 45.35 Z M 24.1 45.35 L 25.8 41.2 L 27.5 41.2 L 25.8 45.35 Z M 27.5 45.35 L 29.19 41.2 L 30.89 41.2 L 29.19 45.35 Z M 30.89 45.35 L 32.59 41.2 L 34.29 41.2 L 32.59 45.35 Z M 34.29 45.35 L 35.99 41.2 L 37.69 41.2 L 35.99 45.35 Z M 37.69 45.35 L 39.39 41.2 L 41.09 41.2 L 39.39 45.35 Z M 20.7 38.75 L 22.4 34.6 L 24.1 34.6 L 22.4 38.75 Z M 24.1 38.75 L 25.8 34.6 L 27.5 34.6 L 25.8 38.75 Z M 27.5 38.75 L 29.02 34.6 L 30.72 34.6 L 29.02 38.75 Z M 30.89 38.75 L 32.59 34.6 L 34.29 34.6 L 32.59 38.75 Z M 34.29 38.75 L 35.99 34.6 L 37.69 34.6 L 35.99 38.75 Z M 37.69 38.75 L 39.39 34.6 L 41.09 34.6 L 39.39 38.75 Z M 20.7 32.15 L 22.4 28.01 L 24.1 28.01 L 22.4 32.15 Z M 24.1 32.15 L 25.8 28.01 L 27.5 28.01 L 25.8 32.15 Z M 27.5 32.15 L 29.19 28.01 L 30.89 28.01 L 29.19 32.15 Z M 30.89 32.15 L 32.59 28.01 L 34.29 28.01 L 32.59 32.15 Z M 34.29 32.15 L 35.99 28.01 L 37.69 28.01 L 35.99 32.15 Z M 37.69 32.15 L 39.39 28.01 L 41.09 28.01 L 39.39 32.15 Z M 20.7 25.56 L 22.4 21.41 L 24.1 21.41 L 22.4 25.56 Z M 24.1 25.56 L 25.8 21.41 L 27.5 21.41 L 25.8 25.56 Z M 27.5 25.56 L 29.19 21.41 L 30.89 21.41 L 29.19 25.56 Z M 30.89 25.56 L 32.59 21.41 L 34.29 21.41 L 32.59 25.56 Z M 34.29 25.56 L 35.99 21.41 L 37.69 21.41 L 35.99 25.56 Z M 37.69 25.56 L 39.39 21.41 L 41.09 21.41 L 39.39 25.56 Z" fill="#ffffff" stroke="none" pointer-events="all"/><rect x="19" y="15" width="0" height="0" fill="none" stroke="#ffffff" stroke-width="0.68" pointer-events="all"/><path d="M 41.43 50.62 C 41.43 49.77 44.24 49.07 47.71 49.07 C 51.19 49.07 54 49.77 54 50.62 L 54 53.45 C 54 54.31 51.19 55 47.71 55 C 44.24 55 41.43 54.31 41.43 53.45 Z" fill="#00ff00" stroke="#ffffff" stroke-width="0.68" stroke-miterlimit="10" pointer-events="all"/><path d="M 41.43 47.04 C 41.43 46.19 44.24 45.49 47.71 45.49 C 51.19 45.49 54 46.19 54 47.04 L 54 49.87 C 54 50.73 51.19 51.42 47.71 51.42 C 44.24 51.42 41.43 50.73 41.43 49.87 Z" fill="#00ff00" stroke="#ffffff" stroke-width="0.68" stroke-miterlimit="10" pointer-events="all"/><path d="M 41.43 43.65 C 41.43 42.79 44.24 42.1 47.71 42.1 C 51.19 42.1 54 42.79 54 43.65 L 54 46.29 C 54 47.14 51.19 47.84 47.71 47.84 C 44.24 47.84 41.43 47.14 41.43 46.29 Z" fill="#00ff00" stroke="#ffffff" stroke-width="0.68" stroke-miterlimit="10" pointer-events="all"/><path d="M 41.43 50.62 C 41.43 51.48 44.24 52.17 47.71 52.17 C 51.19 52.17 54 51.48 54 50.62 M 41.43 47.04 C 41.43 47.9 44.24 48.59 47.71 48.59 C 51.19 48.59 54 47.9 54 47.04 M 41.43 43.65 C 41.43 44.51 44.24 45.2 47.71 45.2 C 51.19 45.2 54 44.51 54 43.65" fill="none" stroke="#ffffff" stroke-width="0.68" stroke-miterlimit="10" pointer-events="all"/></g></g></g></g></g></g></svg>