<?xml version="1.0" encoding="UTF-8"?>
<!-- Do not edit this file with editors other than draw.io -->
<!DOCTYPE svg PUBLIC "-//W3C//DTD SVG 1.1//EN" "http://www.w3.org/Graphics/SVG/1.1/DTD/svg11.dtd">
<svg xmlns="http://www.w3.org/2000/svg" xmlns:xlink="http://www.w3.org/1999/xlink" version="1.1" width="72px" height="72px" viewBox="-0.5 -0.5 72 72" class="ge-export-svg-dark" content="&lt;mxfile host=&quot;app.diagrams.net&quot; agent=&quot;Mozilla/5.0 (Windows NT 10.0; Win64; x64) AppleWebKit/537.36 (KHTML, like Gecko) Chrome/129.0.0.0 Safari/537.36&quot; scale=&quot;1&quot; border=&quot;0&quot; version=&quot;24.7.16&quot;&gt;&#10;  &lt;diagram name=&quot;Página-1&quot; id=&quot;m8l1A8O_j_JvbqTGVBao&quot;&gt;&#10;    &lt;mxGraphModel dx=&quot;409&quot; dy=&quot;202&quot; grid=&quot;1&quot; gridSize=&quot;10&quot; guides=&quot;1&quot; tooltips=&quot;1&quot; connect=&quot;1&quot; arrows=&quot;1&quot; fold=&quot;1&quot; page=&quot;1&quot; pageScale=&quot;1&quot; pageWidth=&quot;2970&quot; pageHeight=&quot;2100&quot; math=&quot;0&quot; shadow=&quot;0&quot;&gt;&#10;      &lt;root&gt;&#10;        &lt;mxCell id=&quot;0&quot; /&gt;&#10;        &lt;mxCell id=&quot;1&quot; parent=&quot;0&quot; /&gt;&#10;        &lt;mxCell id=&quot;f6pmm0lQQjv1o45NG8nA-42&quot; value=&quot;&quot; style=&quot;group&quot; vertex=&quot;1&quot; connectable=&quot;0&quot; parent=&quot;1&quot;&gt;&#10;          &lt;mxGeometry x=&quot;300&quot; y=&quot;250&quot; width=&quot;70&quot; height=&quot;70&quot; as=&quot;geometry&quot; /&gt;&#10;        &lt;/mxCell&gt;&#10;        &lt;mxCell id=&quot;sqtzE2Vg8_yKc3G_givv-2&quot; value=&quot;&quot; style=&quot;ellipse;shape=doubleEllipse;whiteSpace=wrap;html=1;aspect=fixed;container=0;&quot; parent=&quot;f6pmm0lQQjv1o45NG8nA-42&quot; vertex=&quot;1&quot;&gt;&#10;          &lt;mxGeometry width=&quot;70&quot; height=&quot;70&quot; as=&quot;geometry&quot; /&gt;&#10;        &lt;/mxCell&gt;&#10;        &lt;mxCell id=&quot;sqtzE2Vg8_yKc3G_givv-3&quot; value=&quot;&quot; style=&quot;ellipse;whiteSpace=wrap;html=1;aspect=fixed;container=0;fillColor=#00FF00;strokeColor=none;&quot; parent=&quot;f6pmm0lQQjv1o45NG8nA-42&quot; vertex=&quot;1&quot;&gt;&#10;          &lt;mxGeometry x=&quot;5&quot; y=&quot;5&quot; width=&quot;60&quot; height=&quot;60&quot; as=&quot;geometry&quot; /&gt;&#10;        &lt;/mxCell&gt;&#10;        &lt;mxCell id=&quot;f6pmm0lQQjv1o45NG8nA-57&quot; value=&quot;&quot; style=&quot;fontColor=#0066CC;verticalAlign=top;verticalLabelPosition=bottom;labelPosition=center;align=center;html=1;outlineConnect=0;fillColor=#00FF00;strokeColor=#FFFFFF;gradientColor=none;gradientDirection=north;strokeWidth=2;shape=mxgraph.networks.mail_server;&quot; vertex=&quot;1&quot; parent=&quot;f6pmm0lQQjv1o45NG8nA-42&quot;&gt;&#10;          &lt;mxGeometry x=&quot;19&quot; y=&quot;15&quot; width=&quot;35&quot; height=&quot;40&quot; as=&quot;geometry&quot; /&gt;&#10;        &lt;/mxCell&gt;&#10;      &lt;/root&gt;&#10;    &lt;/mxGraphModel&gt;&#10;  &lt;/diagram&gt;&#10;&lt;/mxfile&gt;&#10;"><defs><style type="text/css">svg.ge-export-svg-dark:not(mjx-container &gt; svg) { filter: invert(100%) hue-rotate(180deg); }&#xa;svg.ge-export-svg-dark foreignObject img,&#xa;svg.ge-export-svg-dark image:not(svg.ge-export-svg-dark switch image),&#xa;svg.ge-export-svg-dark svg:not(mjx-container &gt; svg)&#xa;{ filter: invert(100%) hue-rotate(180deg) }</style></defs><g><g data-cell-id="0"><g data-cell-id="1"><g data-cell-id="f6pmm0lQQjv1o45NG8nA-42"><g/><g data-cell-id="sqtzE2Vg8_yKc3G_givv-2"><g><ellipse cx="35" cy="35" rx="35" ry="35" fill="rgb(255, 255, 255)" stroke="rgb(0, 0, 0)" pointer-events="all"/><ellipse cx="35" cy="35" rx="31" ry="31" fill="none" stroke="rgb(0, 0, 0)" pointer-events="all"/></g></g><g data-cell-id="sqtzE2Vg8_yKc3G_givv-3"><g><ellipse cx="35" cy="35" rx="30" ry="30" fill="#00ff00" stroke="none" pointer-events="all"/></g></g><g data-cell-id="f6pmm0lQQjv1o45NG8nA-57"><g><rect x="19" y="46.78" width="30.58" height="5.61" rx="0.75" ry="0.75" fill="#00ff00" stroke="#ffffff" stroke-width="0.68" pointer-events="all"/><rect x="19" y="40.23" width="30.58" height="5.61" rx="0.75" ry="0.75" fill="#00ff00" stroke="#ffffff" stroke-width="0.68" pointer-events="all"/><rect x="19" y="33.69" width="30.58" height="5.61" rx="0.75" ry="0.75" fill="#00ff00" stroke="#ffffff" stroke-width="0.68" pointer-events="all"/><rect x="19" y="27.15" width="30.58" height="5.61" rx="0.75" ry="0.75" fill="#00ff00" stroke="#ffffff" stroke-width="0.68" pointer-events="all"/><rect x="19" y="20.61" width="30.58" height="5.61" rx="0.75" ry="0.75" fill="#00ff00" stroke="#ffffff" stroke-width="0.68" pointer-events="all"/><path d="M 20.36 19.86 L 27.5 15 L 41.09 15 L 48.22 19.86 Z" fill="#00ff00" stroke="#ffffff" stroke-width="0.68" stroke-miterlimit="10" pointer-events="all"/><ellipse cx="46.86" cy="49.58" rx="1.3592233009708738" ry="1.4953271028037383" fill="#ffffff" stroke="none" pointer-events="all"/><ellipse cx="46.75" cy="43.04" rx="1.3592233009708738" ry="1.4953271028037383" fill="#ffffff" stroke="none" pointer-events="all"/><ellipse cx="46.86" cy="36.5" rx="1.3592233009708738" ry="1.4953271028037383" fill="#ffffff" stroke="none" pointer-events="all"/><ellipse cx="46.86" cy="29.95" rx="1.3592233009708738" ry="1.4953271028037383" fill="#ffffff" stroke="none" pointer-events="all"/><ellipse cx="46.86" cy="23.41" rx="1.3592233009708738" ry="1.4953271028037383" fill="#ffffff" stroke="none" pointer-events="all"/><path d="M 20.7 51.64 L 22.4 47.52 L 24.1 47.52 L 22.4 51.64 Z M 24.1 51.64 L 25.8 47.52 L 27.5 47.52 L 25.8 51.64 Z M 27.5 51.64 L 29.19 47.52 L 30.89 47.52 L 29.19 51.64 Z M 30.89 51.64 L 32.59 47.52 L 34.29 47.52 L 32.59 51.64 Z M 34.29 51.64 L 35.99 47.52 L 37.69 47.52 L 35.99 51.64 Z M 37.69 51.64 L 39.39 47.52 L 41.09 47.52 L 39.39 51.64 Z M 20.7 45.09 L 22.4 40.98 L 24.1 40.98 L 22.4 45.09 Z M 24.1 45.09 L 25.8 40.98 L 27.5 40.98 L 25.8 45.09 Z M 27.5 45.09 L 29.19 40.98 L 30.89 40.98 L 29.19 45.09 Z M 30.89 45.09 L 32.59 40.98 L 34.29 40.98 L 32.59 45.09 Z M 34.29 45.09 L 35.99 40.98 L 37.69 40.98 L 35.99 45.09 Z M 37.69 45.09 L 39.39 40.98 L 41.09 40.98 L 39.39 45.09 Z M 20.7 38.55 L 22.4 34.44 L 24.1 34.44 L 22.4 38.55 Z M 24.1 38.55 L 25.8 34.44 L 27.5 34.44 L 25.8 38.55 Z M 27.5 38.55 L 29.02 34.44 L 30.72 34.44 L 29.02 38.55 Z M 30.89 38.55 L 32.59 34.44 L 34.29 34.44 L 32.59 38.55 Z M 34.29 38.55 L 35.99 34.44 L 37.69 34.44 L 35.99 38.55 Z M 37.69 38.55 L 39.39 34.44 L 41.09 34.44 L 39.39 38.55 Z M 20.7 32.01 L 22.4 27.9 L 24.1 27.9 L 22.4 32.01 Z M 24.1 32.01 L 25.8 27.9 L 27.5 27.9 L 25.8 32.01 Z M 27.5 32.01 L 29.19 27.9 L 30.89 27.9 L 29.19 32.01 Z M 30.89 32.01 L 32.59 27.9 L 34.29 27.9 L 32.59 32.01 Z M 34.29 32.01 L 35.99 27.9 L 37.69 27.9 L 35.99 32.01 Z M 37.69 32.01 L 39.39 27.9 L 41.09 27.9 L 39.39 32.01 Z M 20.7 25.47 L 22.4 21.36 L 24.1 21.36 L 22.4 25.47 Z M 24.1 25.47 L 25.8 21.36 L 27.5 21.36 L 25.8 25.47 Z M 27.5 25.47 L 29.19 21.36 L 30.89 21.36 L 29.19 25.47 Z M 30.89 25.47 L 32.59 21.36 L 34.29 21.36 L 32.59 25.47 Z M 34.29 25.47 L 35.99 21.36 L 37.69 21.36 L 35.99 25.47 Z M 37.69 25.47 L 39.39 21.36 L 41.09 21.36 L 39.39 25.47 Z" fill="#ffffff" stroke="none" pointer-events="all"/><rect x="19" y="15" width="0" height="0" fill="none" stroke="#ffffff" stroke-width="0.68" pointer-events="all"/><ellipse cx="47.88" cy="48.27" rx="6.116504854368932" ry="6.728971962616822" fill="#00ff00" stroke="#ffffff" stroke-width="0.68" pointer-events="all"/><path d="M 43.81 45.28 L 51.96 45.28 L 48.02 47.52 Z M 43.81 46.03 L 47.88 48.27 L 51.96 46.03 L 51.96 51.26 L 43.81 51.26 Z" fill="#ffffff" stroke="none" pointer-events="all"/></g></g></g></g></g></g></svg>