<?xml version="1.0" encoding="UTF-8"?>
<!-- Do not edit this file with editors other than draw.io -->
<!DOCTYPE svg PUBLIC "-//W3C//DTD SVG 1.1//EN" "http://www.w3.org/Graphics/SVG/1.1/DTD/svg11.dtd">
<svg xmlns="http://www.w3.org/2000/svg" xmlns:xlink="http://www.w3.org/1999/xlink" version="1.1" width="71px" height="72px" viewBox="-0.5 -0.5 71 72" class="ge-export-svg-dark" content="&lt;mxfile host=&quot;app.diagrams.net&quot; agent=&quot;Mozilla/5.0 (Windows NT 10.0; Win64; x64) AppleWebKit/537.36 (KHTML, like Gecko) Chrome/129.0.0.0 Safari/537.36&quot; scale=&quot;1&quot; border=&quot;0&quot; version=&quot;24.7.16&quot;&gt;&#10;  &lt;diagram name=&quot;Página-1&quot; id=&quot;m8l1A8O_j_JvbqTGVBao&quot;&gt;&#10;    &lt;mxGraphModel dx=&quot;198&quot; dy=&quot;98&quot; grid=&quot;1&quot; gridSize=&quot;10&quot; guides=&quot;1&quot; tooltips=&quot;1&quot; connect=&quot;1&quot; arrows=&quot;1&quot; fold=&quot;1&quot; page=&quot;1&quot; pageScale=&quot;1&quot; pageWidth=&quot;2970&quot; pageHeight=&quot;2100&quot; math=&quot;0&quot; shadow=&quot;0&quot;&gt;&#10;      &lt;root&gt;&#10;        &lt;mxCell id=&quot;0&quot; /&gt;&#10;        &lt;mxCell id=&quot;1&quot; parent=&quot;0&quot; /&gt;&#10;        &lt;mxCell id=&quot;f6pmm0lQQjv1o45NG8nA-42&quot; value=&quot;&quot; style=&quot;group&quot; vertex=&quot;1&quot; connectable=&quot;0&quot; parent=&quot;1&quot;&gt;&#10;          &lt;mxGeometry x=&quot;300&quot; y=&quot;250&quot; width=&quot;70&quot; height=&quot;70&quot; as=&quot;geometry&quot; /&gt;&#10;        &lt;/mxCell&gt;&#10;        &lt;mxCell id=&quot;sqtzE2Vg8_yKc3G_givv-2&quot; value=&quot;&quot; style=&quot;ellipse;shape=doubleEllipse;whiteSpace=wrap;html=1;aspect=fixed;container=0;&quot; parent=&quot;f6pmm0lQQjv1o45NG8nA-42&quot; vertex=&quot;1&quot;&gt;&#10;          &lt;mxGeometry width=&quot;70&quot; height=&quot;70&quot; as=&quot;geometry&quot; /&gt;&#10;        &lt;/mxCell&gt;&#10;        &lt;mxCell id=&quot;sqtzE2Vg8_yKc3G_givv-3&quot; value=&quot;&quot; style=&quot;ellipse;whiteSpace=wrap;html=1;aspect=fixed;container=0;fillColor=#00FF00;strokeColor=none;&quot; parent=&quot;f6pmm0lQQjv1o45NG8nA-42&quot; vertex=&quot;1&quot;&gt;&#10;          &lt;mxGeometry x=&quot;5&quot; y=&quot;5&quot; width=&quot;60&quot; height=&quot;60&quot; as=&quot;geometry&quot; /&gt;&#10;        &lt;/mxCell&gt;&#10;        &lt;mxCell id=&quot;f6pmm0lQQjv1o45NG8nA-62&quot; value=&quot;&quot; style=&quot;sketch=0;pointerEvents=1;shadow=0;dashed=0;html=1;strokeColor=#FFFFFF;fillColor=#00FF00;labelPosition=center;verticalLabelPosition=bottom;verticalAlign=top;outlineConnect=0;align=center;shape=mxgraph.office.devices.workstation;&quot; vertex=&quot;1&quot; parent=&quot;f6pmm0lQQjv1o45NG8nA-42&quot;&gt;&#10;          &lt;mxGeometry x=&quot;20&quot; y=&quot;20&quot; width=&quot;30&quot; height=&quot;30&quot; as=&quot;geometry&quot; /&gt;&#10;        &lt;/mxCell&gt;&#10;        &lt;mxCell id=&quot;f6pmm0lQQjv1o45NG8nA-61&quot; value=&quot;&quot; style=&quot;sketch=0;pointerEvents=1;shadow=0;dashed=0;html=1;strokeColor=#FFFFFF;fillColor=#00FF00;labelPosition=center;verticalLabelPosition=bottom;verticalAlign=top;outlineConnect=0;align=center;shape=mxgraph.office.concepts.file_key;&quot; vertex=&quot;1&quot; parent=&quot;f6pmm0lQQjv1o45NG8nA-42&quot;&gt;&#10;          &lt;mxGeometry x=&quot;37&quot; y=&quot;13&quot; width=&quot;14&quot; height=&quot;17&quot; as=&quot;geometry&quot; /&gt;&#10;        &lt;/mxCell&gt;&#10;      &lt;/root&gt;&#10;    &lt;/mxGraphModel&gt;&#10;  &lt;/diagram&gt;&#10;&lt;/mxfile&gt;&#10;"><defs><style type="text/css">svg.ge-export-svg-dark:not(mjx-container &gt; svg) { filter: invert(100%) hue-rotate(180deg); }&#xa;svg.ge-export-svg-dark foreignObject img,&#xa;svg.ge-export-svg-dark image:not(svg.ge-export-svg-dark switch image),&#xa;svg.ge-export-svg-dark svg:not(mjx-container &gt; svg)&#xa;{ filter: invert(100%) hue-rotate(180deg) }</style></defs><g><g data-cell-id="0"><g data-cell-id="1"><g data-cell-id="f6pmm0lQQjv1o45NG8nA-42"><g/><g data-cell-id="sqtzE2Vg8_yKc3G_givv-2"><g><ellipse cx="35" cy="35" rx="35" ry="35" fill="rgb(255, 255, 255)" stroke="rgb(0, 0, 0)" pointer-events="all"/><ellipse cx="35" cy="35" rx="31" ry="31" fill="none" stroke="rgb(0, 0, 0)" pointer-events="all"/></g></g><g data-cell-id="sqtzE2Vg8_yKc3G_givv-3"><g><ellipse cx="35" cy="35" rx="30" ry="30" fill="#00ff00" stroke="none" pointer-events="all"/></g></g><g data-cell-id="f6pmm0lQQjv1o45NG8nA-62"><g><rect x="20" y="20" width="30" height="30" fill="none" stroke="none" pointer-events="all"/><path d="M 28.87 44 L 48.31 44 L 48.31 33.2 L 28.87 33.2 Z M 28.41 45.6 C 27.81 45.6 27.18 45.13 27.18 44.42 L 27.18 32.75 C 27.18 32.18 27.68 31.6 28.42 31.6 L 48.76 31.6 C 49.5 31.6 50 32.2 50 32.75 L 50 44.37 C 50 45.08 49.47 45.6 48.7 45.6 L 41.3 45.6 C 41.15 46.09 41 46.61 40.97 47.05 C 40.91 47.96 41.52 48.22 42.6 48.36 C 43.33 48.45 43.97 48.46 44.66 48.48 C 45.08 48.48 45.48 48.77 45.48 49.24 C 45.48 49.69 45.13 50 44.66 50 L 32.54 50 C 32.11 50 31.75 49.67 31.75 49.24 C 31.75 48.85 32.07 48.48 32.54 48.48 C 33.34 48.45 34.16 48.45 35 48.3 C 35.8 48.15 36.3 47.87 36.21 47 C 36.17 46.61 36.03 46.09 35.89 45.6 Z M 22.96 24.8 L 32.25 24.8 L 32.25 23.6 L 22.96 23.6 Z M 20 48 L 20 21.57 C 20 20.67 20.86 20 21.62 20 L 33.57 20 C 34.41 20 35.21 20.71 35.21 21.57 L 35.21 30.4 L 28.36 30.4 C 27.08 30.4 25.92 31.53 25.92 32.73 L 25.92 40 L 22.96 40 L 22.96 41.2 L 25.92 41.2 L 25.92 43.6 L 22.96 43.6 L 22.96 44.8 L 25.95 44.8 C 26.19 46.06 27.37 46.8 28.35 46.8 L 34.87 46.8 C 34.87 46.9 34.92 47 34.91 47.08 C 34.48 47.21 33.52 47.28 32.7 47.28 C 32.34 47.26 32.03 47.31 31.72 47.43 C 31.41 47.55 31.14 47.74 30.91 48 Z" fill="#00ff00" stroke="#ffffff" stroke-miterlimit="10" pointer-events="all"/></g></g><g data-cell-id="f6pmm0lQQjv1o45NG8nA-61"><g><rect x="37" y="13" width="14" height="17" fill="none" stroke="none" pointer-events="all"/><path d="M 48.92 22.72 C 49.28 22.72 49.47 22.4 49.47 22.15 C 49.48 21.7 49.16 21.51 48.93 21.51 C 48.69 21.51 48.4 21.71 48.38 22.1 C 48.38 22.52 48.67 22.72 48.92 22.72 Z M 48.99 30 L 48.19 29.03 L 48.19 25 C 47.58 24.76 46.86 24.02 46.85 22.81 C 46.85 21.54 47.85 20.54 48.91 20.54 C 50.03 20.54 51 21.52 51 22.83 C 50.98 23.96 50.33 24.71 49.69 24.98 L 49.69 25.9 L 49.17 26.6 L 49.91 27.43 L 49.91 27.48 L 49.26 28.25 L 49.89 28.98 Z M 39.83 21 L 39.83 20.27 L 45.72 20.27 L 45.72 21 Z M 39.83 22.94 L 39.83 22.21 L 45.72 22.21 L 45.72 22.94 Z M 39.83 24.88 L 39.83 24.15 L 45.72 24.15 L 45.72 24.88 Z M 47.51 28.28 L 37 28.28 L 37 13 L 45.07 13 L 48.56 16.88 L 48.56 19.81 C 48.33 19.84 48.12 19.9 47.9 19.99 L 47.9 17.61 L 44.63 17.61 L 44.63 13.73 L 37.65 13.73 L 37.65 27.55 L 47.5 27.55 Z" fill="#00ff00" stroke="#ffffff" stroke-miterlimit="10" pointer-events="all"/></g></g></g></g></g></g></svg>