<?xml version="1.0" encoding="UTF-8"?>
<!-- Do not edit this file with editors other than draw.io -->
<!DOCTYPE svg PUBLIC "-//W3C//DTD SVG 1.1//EN" "http://www.w3.org/Graphics/SVG/1.1/DTD/svg11.dtd">
<svg xmlns="http://www.w3.org/2000/svg" xmlns:xlink="http://www.w3.org/1999/xlink" version="1.1" width="72px" height="72px" viewBox="-0.5 -0.5 72 72" class="ge-export-svg-dark" content="&lt;mxfile host=&quot;app.diagrams.net&quot; agent=&quot;Mozilla/5.0 (Windows NT 10.0; Win64; x64) AppleWebKit/537.36 (KHTML, like Gecko) Chrome/129.0.0.0 Safari/537.36&quot; scale=&quot;1&quot; border=&quot;0&quot; version=&quot;24.7.16&quot;&gt;&#10;  &lt;diagram name=&quot;Página-1&quot; id=&quot;m8l1A8O_j_JvbqTGVBao&quot;&gt;&#10;    &lt;mxGraphModel dx=&quot;409&quot; dy=&quot;202&quot; grid=&quot;1&quot; gridSize=&quot;10&quot; guides=&quot;1&quot; tooltips=&quot;1&quot; connect=&quot;1&quot; arrows=&quot;1&quot; fold=&quot;1&quot; page=&quot;1&quot; pageScale=&quot;1&quot; pageWidth=&quot;2970&quot; pageHeight=&quot;2100&quot; math=&quot;0&quot; shadow=&quot;0&quot;&gt;&#10;      &lt;root&gt;&#10;        &lt;mxCell id=&quot;0&quot; /&gt;&#10;        &lt;mxCell id=&quot;1&quot; parent=&quot;0&quot; /&gt;&#10;        &lt;mxCell id=&quot;f6pmm0lQQjv1o45NG8nA-42&quot; value=&quot;&quot; style=&quot;group&quot; vertex=&quot;1&quot; connectable=&quot;0&quot; parent=&quot;1&quot;&gt;&#10;          &lt;mxGeometry x=&quot;300&quot; y=&quot;250&quot; width=&quot;70&quot; height=&quot;70&quot; as=&quot;geometry&quot; /&gt;&#10;        &lt;/mxCell&gt;&#10;        &lt;mxCell id=&quot;sqtzE2Vg8_yKc3G_givv-2&quot; value=&quot;&quot; style=&quot;ellipse;shape=doubleEllipse;whiteSpace=wrap;html=1;aspect=fixed;container=0;&quot; parent=&quot;f6pmm0lQQjv1o45NG8nA-42&quot; vertex=&quot;1&quot;&gt;&#10;          &lt;mxGeometry width=&quot;70&quot; height=&quot;70&quot; as=&quot;geometry&quot; /&gt;&#10;        &lt;/mxCell&gt;&#10;        &lt;mxCell id=&quot;sqtzE2Vg8_yKc3G_givv-3&quot; value=&quot;&quot; style=&quot;ellipse;whiteSpace=wrap;html=1;aspect=fixed;container=0;fillColor=#00FF00;strokeColor=none;&quot; parent=&quot;f6pmm0lQQjv1o45NG8nA-42&quot; vertex=&quot;1&quot;&gt;&#10;          &lt;mxGeometry x=&quot;5&quot; y=&quot;5&quot; width=&quot;60&quot; height=&quot;60&quot; as=&quot;geometry&quot; /&gt;&#10;        &lt;/mxCell&gt;&#10;        &lt;mxCell id=&quot;f6pmm0lQQjv1o45NG8nA-59&quot; value=&quot;&quot; style=&quot;sketch=0;aspect=fixed;pointerEvents=1;shadow=0;dashed=0;html=1;strokeColor=#FFFFFF;labelPosition=center;verticalLabelPosition=bottom;verticalAlign=top;align=center;fillColor=#00FF00;shape=mxgraph.mscae.enterprise.web_server&quot; vertex=&quot;1&quot; parent=&quot;f6pmm0lQQjv1o45NG8nA-42&quot;&gt;&#10;          &lt;mxGeometry x=&quot;23&quot; y=&quot;16.579999999999984&quot; width=&quot;28&quot; height=&quot;36.84&quot; as=&quot;geometry&quot; /&gt;&#10;        &lt;/mxCell&gt;&#10;      &lt;/root&gt;&#10;    &lt;/mxGraphModel&gt;&#10;  &lt;/diagram&gt;&#10;&lt;/mxfile&gt;&#10;"><defs><style type="text/css">svg.ge-export-svg-dark:not(mjx-container &gt; svg) { filter: invert(100%) hue-rotate(180deg); }&#xa;svg.ge-export-svg-dark foreignObject img,&#xa;svg.ge-export-svg-dark image:not(svg.ge-export-svg-dark switch image),&#xa;svg.ge-export-svg-dark svg:not(mjx-container &gt; svg)&#xa;{ filter: invert(100%) hue-rotate(180deg) }</style></defs><g><g data-cell-id="0"><g data-cell-id="1"><g data-cell-id="f6pmm0lQQjv1o45NG8nA-42"><g/><g data-cell-id="sqtzE2Vg8_yKc3G_givv-2"><g><ellipse cx="35" cy="35" rx="35" ry="35" fill="rgb(255, 255, 255)" stroke="rgb(0, 0, 0)" pointer-events="all"/><ellipse cx="35" cy="35" rx="31" ry="31" fill="none" stroke="rgb(0, 0, 0)" pointer-events="all"/></g></g><g data-cell-id="sqtzE2Vg8_yKc3G_givv-3"><g><ellipse cx="35" cy="35" rx="30" ry="30" fill="#00ff00" stroke="none" pointer-events="all"/></g></g><g data-cell-id="f6pmm0lQQjv1o45NG8nA-59"><g><rect x="23" y="16.58" width="28" height="36.84" fill="none" stroke="none" pointer-events="all"/><path d="M 42.14 53.35 C 39.82 53.35 37.59 52.42 35.95 50.77 C 34.32 49.12 33.41 46.88 33.44 44.56 C 33.44 39.77 37.34 35.89 42.14 35.89 C 44.46 35.87 46.7 36.77 48.34 38.4 C 49.99 40.03 50.92 42.25 50.92 44.56 C 51 46.91 50.11 49.19 48.44 50.85 C 46.78 52.52 44.5 53.42 42.14 53.35 Z M 39.7 51.5 C 39.13 50.8 38.76 49.96 38.63 49.06 C 37.98 49.19 37.34 49.39 36.74 49.65 C 37.56 50.51 38.57 51.16 39.7 51.54 Z M 42.99 51.57 C 43.64 50.76 44.11 49.81 44.36 48.81 C 42.93 48.61 41.47 48.62 40.03 48.84 C 40.23 49.87 40.72 50.81 41.44 51.57 C 41.64 51.81 41.92 51.95 42.22 51.95 C 42.51 51.95 42.8 51.81 42.99 51.57 Z M 39.7 47.59 C 41.34 47.27 43.02 47.27 44.66 47.59 C 44.81 46.83 44.89 46.07 44.88 45.3 L 39.48 45.3 C 39.46 46.07 39.53 46.84 39.7 47.59 Z M 34.81 45.3 C 34.9 46.45 35.25 47.56 35.85 48.55 C 36.66 48.17 37.52 47.91 38.4 47.77 C 38.21 46.96 38.12 46.13 38.14 45.3 Z M 38.14 43.9 C 38.11 42.99 38.21 42.08 38.44 41.2 C 37.62 41.06 36.82 40.81 36.07 40.46 C 35.34 41.48 34.88 42.66 34.74 43.9 Z M 44.85 43.9 C 44.88 43.08 44.81 42.26 44.62 41.46 C 42.99 41.73 41.33 41.73 39.7 41.46 C 39.52 42.26 39.44 43.08 39.48 43.9 Z M 41.48 37.55 C 40.75 38.27 40.26 39.2 40.07 40.2 C 41.47 40.43 42.89 40.43 44.29 40.2 C 44.03 39.22 43.55 38.31 42.88 37.55 C 42.49 37.16 41.87 37.16 41.48 37.55 Z M 38.74 39.95 C 38.94 39.15 39.25 38.38 39.66 37.66 C 38.65 38.07 37.73 38.66 36.92 39.39 C 37.5 39.64 38.11 39.83 38.74 39.95 Z Z Z Z Z M 47.33 39.39 C 46.56 38.69 45.69 38.11 44.73 37.69 C 45.13 38.4 45.43 39.16 45.62 39.95 C 46.21 39.82 46.78 39.63 47.33 39.39 Z M 49.55 43.9 C 49.39 42.68 48.95 41.51 48.25 40.5 C 47.51 40.85 46.73 41.1 45.92 41.24 C 46.12 42.12 46.2 43.03 46.18 43.93 Z M 45.66 49.06 C 45.45 49.95 45.12 50.79 44.66 51.57 C 45.79 51.18 46.81 50.52 47.62 49.65 C 47 49.37 46.34 49.17 45.66 49.06 Z M 46.18 45.34 C 46.2 46.15 46.12 46.97 45.96 47.77 C 46.81 47.93 47.64 48.19 48.44 48.55 C 49.05 47.56 49.43 46.45 49.55 45.3 Z M 23 53.05 L 23 18.35 C 23.04 17.4 23.79 16.64 24.74 16.58 L 39 16.58 C 39.99 16.58 40.81 17.36 40.85 18.35 L 40.85 34.48 C 35.94 35.16 32.2 39.22 31.92 44.15 L 25.67 44.15 L 25.67 45.96 L 32 45.96 C 32.07 46.57 32.21 47.16 32.4 47.74 L 25.67 47.74 L 25.67 49.51 L 33.15 49.51 C 33.9 50.95 35.02 52.18 36.4 53.05 Z M 25.76 23.66 L 38.21 23.7 L 38.16 22 L 25.76 21.91 Z" fill="#00ff00" stroke="#ffffff" stroke-miterlimit="10" pointer-events="all"/></g></g></g></g></g></g></svg>