<?xml version="1.0" encoding="UTF-8"?>
<!-- Do not edit this file with editors other than draw.io -->
<!DOCTYPE svg PUBLIC "-//W3C//DTD SVG 1.1//EN" "http://www.w3.org/Graphics/SVG/1.1/DTD/svg11.dtd">
<svg xmlns="http://www.w3.org/2000/svg" xmlns:xlink="http://www.w3.org/1999/xlink" version="1.1" width="104px" height="104px" viewBox="-0.5 -0.5 104 104" class="ge-export-svg-dark" content="&lt;mxfile host=&quot;app.diagrams.net&quot; agent=&quot;Mozilla/5.0 (Windows NT 10.0; Win64; x64) AppleWebKit/537.36 (KHTML, like Gecko) Chrome/129.0.0.0 Safari/537.36&quot; version=&quot;24.7.16&quot; scale=&quot;1&quot; border=&quot;0&quot;&gt;&#10;  &lt;diagram name=&quot;Página-1&quot; id=&quot;xU4MIKBfJ6ytyR_JvX0-&quot;&gt;&#10;    &lt;mxGraphModel dx=&quot;880&quot; dy=&quot;434&quot; grid=&quot;1&quot; gridSize=&quot;10&quot; guides=&quot;1&quot; tooltips=&quot;1&quot; connect=&quot;1&quot; arrows=&quot;1&quot; fold=&quot;1&quot; page=&quot;1&quot; pageScale=&quot;1&quot; pageWidth=&quot;2970&quot; pageHeight=&quot;2100&quot; math=&quot;0&quot; shadow=&quot;0&quot;&gt;&#10;      &lt;root&gt;&#10;        &lt;mxCell id=&quot;0&quot; /&gt;&#10;        &lt;mxCell id=&quot;1&quot; parent=&quot;0&quot; /&gt;&#10;        &lt;mxCell id=&quot;kIsEK8atTIuYEhtU_ls3-36&quot; value=&quot;&quot; style=&quot;dashed=0;outlineConnect=0;html=1;align=center;labelPosition=center;verticalLabelPosition=bottom;verticalAlign=top;shape=mxgraph.webicons.whatsapp;fillColor=#4FE238;gradientColor=#138709&quot; vertex=&quot;1&quot; parent=&quot;1&quot;&gt;&#10;          &lt;mxGeometry x=&quot;400&quot; y=&quot;650&quot; width=&quot;102.4&quot; height=&quot;102.4&quot; as=&quot;geometry&quot; /&gt;&#10;        &lt;/mxCell&gt;&#10;      &lt;/root&gt;&#10;    &lt;/mxGraphModel&gt;&#10;  &lt;/diagram&gt;&#10;&lt;/mxfile&gt;&#10;"><defs><linearGradient x1="0%" y1="0%" x2="0%" y2="100%" id="mx-gradient-4fe238-1-138709-1-s-0"><stop offset="0%" style="stop-color: rgb(79, 226, 56); stop-opacity: 1;"/><stop offset="100%" style="stop-color: rgb(19, 135, 9); stop-opacity: 1;"/></linearGradient><style type="text/css">svg.ge-export-svg-dark:not(mjx-container &gt; svg) { filter: invert(100%) hue-rotate(180deg); }&#xa;svg.ge-export-svg-dark foreignObject img,&#xa;svg.ge-export-svg-dark image:not(svg.ge-export-svg-dark switch image),&#xa;svg.ge-export-svg-dark svg:not(mjx-container &gt; svg)&#xa;{ filter: invert(100%) hue-rotate(180deg) }</style></defs><g><g data-cell-id="0"><g data-cell-id="1"><g data-cell-id="kIsEK8atTIuYEhtU_ls3-36"><g><path d="M 11 102.4 C 4.92 102.4 0 97.44 0 91.33 L 0 11.07 C 0 4.96 4.92 0 11 0 L 91.4 0 C 94.32 0 97.12 1.17 99.18 3.24 C 101.24 5.32 102.4 8.13 102.4 11.07 L 102.4 91.33 C 102.4 94.27 101.24 97.08 99.18 99.16 C 97.12 101.23 94.32 102.4 91.4 102.4 Z" fill="url(#mx-gradient-4fe238-1-138709-1-s-0)" stroke="none" pointer-events="all"/><path d="M 70.37 58.92 C 71.45 63 69.51 65.69 67.2 66.69 C 63.78 68.37 61.96 68.61 57.17 67.12 C 46.69 64.26 35.89 52.31 34.73 44.53 C 34.1 39.95 35.67 37.58 38.34 34.66 C 40.15 34.14 41.8 33.94 43.03 34.58 L 47.21 43.59 C 46.58 45.19 45.2 46.79 43.61 48.38 C 47.66 54.37 52.25 58.33 57.46 59.86 L 61.72 54.85 Z M 23.84 80.27 L 35.53 76.28 C 40.7 80.24 46.93 81.72 51.98 81.72 C 68.75 81.72 82.57 68.05 82.57 50.93 C 82.57 33.44 67.7 20.49 52.55 20.49 C 34.74 20.49 21.82 35.45 21.82 50.27 C 21.82 59.32 24.79 64.81 27.81 68.87 Z M 14.32 89.86 L 21.03 69.88 C 18.46 65.62 15.76 59.49 15.76 50.42 C 15.76 32.95 29.79 14.46 52.26 14.46 C 75.2 14.46 88.77 34.17 88.77 50.49 C 88.77 71.26 72.35 87.9 52.05 87.9 C 46.33 87.9 42.25 87.05 34.66 83.1 Z" fill="#ffffff" stroke="none" pointer-events="all"/><path d="M 0 11.07 C 0 4.96 4.92 0 11 0 L 91.4 0 C 94.32 0 97.12 1.17 99.18 3.24 C 101.24 5.32 102.4 8.13 102.4 11.07 L 102.4 38.05 C 70.08 53.92 32.32 53.92 0 38.05 Z" fill-opacity="0.2" fill="#ffffff" stroke="none" pointer-events="all"/></g></g></g></g></g></svg>